<?xml version="1.0" encoding="utf-8"?>
<svg xmlns="http://www.w3.org/2000/svg" xmlns:xlink="http://www.w3.org/1999/xlink" width="600" height="400" viewBox="0 0 2400 1600">
<defs>
  <clipPath id="clip920">
    <rect x="0" y="0" width="2400" height="1600"/>
  </clipPath>
</defs>
<path clip-path="url(#clip920)" d="
M0 1600 L2400 1600 L2400 0 L0 0  Z
  " fill="#ffffff" fill-rule="evenodd" fill-opacity="1"/>
<defs>
  <clipPath id="clip921">
    <rect x="480" y="0" width="1681" height="1600"/>
  </clipPath>
</defs>
<path clip-path="url(#clip920)" d="
M277.621 1217.98 L2352.76 1217.98 L2352.76 47.2441 L277.621 47.2441  Z
  " fill="#ffffff" fill-rule="evenodd" fill-opacity="1"/>
<defs>
  <clipPath id="clip922">
    <rect x="277" y="47" width="2076" height="1172"/>
  </clipPath>
</defs>
<polyline clip-path="url(#clip922)" style="stroke:#000000; stroke-linecap:round; stroke-linejoin:round; stroke-width:2; stroke-opacity:0.1; fill:none" points="
  336.351,1217.98 336.351,47.2441 
  "/>
<polyline clip-path="url(#clip922)" style="stroke:#000000; stroke-linecap:round; stroke-linejoin:round; stroke-width:2; stroke-opacity:0.1; fill:none" points="
  616.019,1217.98 616.019,47.2441 
  "/>
<polyline clip-path="url(#clip922)" style="stroke:#000000; stroke-linecap:round; stroke-linejoin:round; stroke-width:2; stroke-opacity:0.1; fill:none" points="
  895.686,1217.98 895.686,47.2441 
  "/>
<polyline clip-path="url(#clip922)" style="stroke:#000000; stroke-linecap:round; stroke-linejoin:round; stroke-width:2; stroke-opacity:0.1; fill:none" points="
  1175.35,1217.98 1175.35,47.2441 
  "/>
<polyline clip-path="url(#clip922)" style="stroke:#000000; stroke-linecap:round; stroke-linejoin:round; stroke-width:2; stroke-opacity:0.1; fill:none" points="
  1455.02,1217.98 1455.02,47.2441 
  "/>
<polyline clip-path="url(#clip922)" style="stroke:#000000; stroke-linecap:round; stroke-linejoin:round; stroke-width:2; stroke-opacity:0.1; fill:none" points="
  1734.69,1217.98 1734.69,47.2441 
  "/>
<polyline clip-path="url(#clip922)" style="stroke:#000000; stroke-linecap:round; stroke-linejoin:round; stroke-width:2; stroke-opacity:0.1; fill:none" points="
  2014.36,1217.98 2014.36,47.2441 
  "/>
<polyline clip-path="url(#clip922)" style="stroke:#000000; stroke-linecap:round; stroke-linejoin:round; stroke-width:2; stroke-opacity:0.1; fill:none" points="
  2294.03,1217.98 2294.03,47.2441 
  "/>
<polyline clip-path="url(#clip920)" style="stroke:#000000; stroke-linecap:round; stroke-linejoin:round; stroke-width:4; stroke-opacity:1; fill:none" points="
  277.621,1217.98 2352.76,1217.98 
  "/>
<polyline clip-path="url(#clip920)" style="stroke:#000000; stroke-linecap:round; stroke-linejoin:round; stroke-width:4; stroke-opacity:1; fill:none" points="
  336.351,1217.98 336.351,1199.08 
  "/>
<polyline clip-path="url(#clip920)" style="stroke:#000000; stroke-linecap:round; stroke-linejoin:round; stroke-width:4; stroke-opacity:1; fill:none" points="
  616.019,1217.98 616.019,1199.08 
  "/>
<polyline clip-path="url(#clip920)" style="stroke:#000000; stroke-linecap:round; stroke-linejoin:round; stroke-width:4; stroke-opacity:1; fill:none" points="
  895.686,1217.98 895.686,1199.08 
  "/>
<polyline clip-path="url(#clip920)" style="stroke:#000000; stroke-linecap:round; stroke-linejoin:round; stroke-width:4; stroke-opacity:1; fill:none" points="
  1175.35,1217.98 1175.35,1199.08 
  "/>
<polyline clip-path="url(#clip920)" style="stroke:#000000; stroke-linecap:round; stroke-linejoin:round; stroke-width:4; stroke-opacity:1; fill:none" points="
  1455.02,1217.98 1455.02,1199.08 
  "/>
<polyline clip-path="url(#clip920)" style="stroke:#000000; stroke-linecap:round; stroke-linejoin:round; stroke-width:4; stroke-opacity:1; fill:none" points="
  1734.69,1217.98 1734.69,1199.08 
  "/>
<polyline clip-path="url(#clip920)" style="stroke:#000000; stroke-linecap:round; stroke-linejoin:round; stroke-width:4; stroke-opacity:1; fill:none" points="
  2014.36,1217.98 2014.36,1199.08 
  "/>
<polyline clip-path="url(#clip920)" style="stroke:#000000; stroke-linecap:round; stroke-linejoin:round; stroke-width:4; stroke-opacity:1; fill:none" points="
  2294.03,1217.98 2294.03,1199.08 
  "/>
<path clip-path="url(#clip920)" d="M327.705 1342.92 L327.705 1338.66 L353.631 1338.66 L353.631 1342.92 L327.705 1342.92 M317.613 1342.92 L317.613 1338.66 L323.006 1338.66 L323.006 1342.92 L317.613 1342.92 Z" fill="#000000" fill-rule="evenodd" fill-opacity="1" /><path clip-path="url(#clip920)" d="M331.64 1312.69 L317.613 1312.69 L317.613 1308.43 L353.631 1308.43 L353.631 1312.69 L349.742 1312.69 Q352.057 1314.03 353.191 1316.09 Q354.302 1318.13 354.302 1321 Q354.302 1325.7 350.552 1328.66 Q346.802 1331.6 340.691 1331.6 Q334.58 1331.6 330.83 1328.66 Q327.08 1325.7 327.08 1321 Q327.08 1318.13 328.214 1316.09 Q329.325 1314.03 331.64 1312.69 M340.691 1327.2 Q345.39 1327.2 348.075 1325.28 Q350.737 1323.34 350.737 1319.96 Q350.737 1316.58 348.075 1314.63 Q345.39 1312.69 340.691 1312.69 Q335.992 1312.69 333.33 1314.63 Q330.645 1316.58 330.645 1319.96 Q330.645 1323.34 333.33 1325.28 Q335.992 1327.2 340.691 1327.2 Z" fill="#000000" fill-rule="evenodd" fill-opacity="1" /><path clip-path="url(#clip920)" d="M339.603 1277.48 L341.686 1277.48 L341.686 1297.06 Q346.085 1296.78 348.399 1294.42 Q350.691 1292.04 350.691 1287.8 Q350.691 1285.35 350.089 1283.06 Q349.487 1280.74 348.284 1278.47 L352.311 1278.47 Q353.284 1280.77 353.793 1283.17 Q354.302 1285.58 354.302 1288.06 Q354.302 1294.26 350.691 1297.9 Q347.08 1301.51 340.923 1301.51 Q334.557 1301.51 330.83 1298.08 Q327.08 1294.63 327.08 1288.8 Q327.08 1283.57 330.46 1280.54 Q333.816 1277.48 339.603 1277.48 M338.353 1281.74 Q334.858 1281.79 332.774 1283.71 Q330.691 1285.6 330.691 1288.75 Q330.691 1292.32 332.705 1294.47 Q334.719 1296.6 338.376 1296.92 L338.353 1281.74 Z" fill="#000000" fill-rule="evenodd" fill-opacity="1" /><path clip-path="url(#clip920)" d="M340.598 1258.71 Q340.598 1263.87 341.779 1265.86 Q342.96 1267.85 345.807 1267.85 Q348.075 1267.85 349.418 1266.37 Q350.737 1264.86 350.737 1262.29 Q350.737 1258.75 348.237 1256.62 Q345.714 1254.47 341.548 1254.47 L340.598 1254.47 L340.598 1258.71 M338.839 1250.21 L353.631 1250.21 L353.631 1254.47 L349.696 1254.47 Q352.057 1255.93 353.191 1258.1 Q354.302 1260.28 354.302 1263.43 Q354.302 1267.41 352.08 1269.77 Q349.835 1272.11 346.085 1272.11 Q341.71 1272.11 339.487 1269.19 Q337.265 1266.25 337.265 1260.44 L337.265 1254.47 L336.849 1254.47 Q333.909 1254.47 332.312 1256.41 Q330.691 1258.34 330.691 1261.83 Q330.691 1264.05 331.224 1266.16 Q331.756 1268.27 332.821 1270.21 L328.886 1270.21 Q327.983 1267.87 327.543 1265.67 Q327.08 1263.47 327.08 1261.39 Q327.08 1255.77 329.997 1252.99 Q332.913 1250.21 338.839 1250.21 Z" fill="#000000" fill-rule="evenodd" fill-opacity="1" /><path clip-path="url(#clip920)" d="M317.613 1241.44 L317.613 1237.18 L353.631 1237.18 L353.631 1241.44 L317.613 1241.44 Z" fill="#000000" fill-rule="evenodd" fill-opacity="1" /><path clip-path="url(#clip920)" d="M620.266 1560.21 Q620.266 1565.37 621.447 1567.36 Q622.627 1569.35 625.475 1569.35 Q627.743 1569.35 629.086 1567.87 Q630.405 1566.37 630.405 1563.8 Q630.405 1560.26 627.905 1558.13 Q625.382 1555.97 621.215 1555.97 L620.266 1555.97 L620.266 1560.21 M618.507 1551.71 L633.299 1551.71 L633.299 1555.97 L629.363 1555.97 Q631.725 1557.43 632.859 1559.61 Q633.97 1561.78 633.97 1564.93 Q633.97 1568.91 631.748 1571.27 Q629.502 1573.61 625.752 1573.61 Q621.377 1573.61 619.155 1570.7 Q616.933 1567.76 616.933 1561.95 L616.933 1555.97 L616.516 1555.97 Q613.577 1555.97 611.979 1557.92 Q610.359 1559.84 610.359 1563.33 Q610.359 1565.56 610.891 1567.66 Q611.424 1569.77 612.489 1571.71 L608.553 1571.71 Q607.651 1569.38 607.211 1567.18 Q606.748 1564.98 606.748 1562.89 Q606.748 1557.27 609.665 1554.49 Q612.581 1551.71 618.507 1551.71 Z" fill="#000000" fill-rule="evenodd" fill-opacity="1" /><path clip-path="url(#clip920)" d="M597.28 1542.94 L597.28 1538.68 L633.299 1538.68 L633.299 1542.94 L597.28 1542.94 Z" fill="#000000" fill-rule="evenodd" fill-opacity="1" /><path clip-path="url(#clip920)" d="M600.012 1525.56 L607.373 1525.56 L607.373 1516.78 L610.683 1516.78 L610.683 1525.56 L624.757 1525.56 Q627.928 1525.56 628.831 1524.7 Q629.734 1523.82 629.734 1521.16 L629.734 1516.78 L633.299 1516.78 L633.299 1521.16 Q633.299 1526.09 631.47 1527.96 Q629.618 1529.84 624.757 1529.84 L610.683 1529.84 L610.683 1532.96 L607.373 1532.96 L607.373 1529.84 L600.012 1529.84 L600.012 1525.56 Z" fill="#000000" fill-rule="evenodd" fill-opacity="1" /><path clip-path="url(#clip920)" d="M607.373 1511.18 L607.373 1506.92 L633.299 1506.92 L633.299 1511.18 L607.373 1511.18 M597.28 1511.18 L597.28 1506.92 L602.674 1506.92 L602.674 1511.18 L597.28 1511.18 Z" fill="#000000" fill-rule="evenodd" fill-opacity="1" /><path clip-path="url(#clip920)" d="M600.012 1493.8 L607.373 1493.8 L607.373 1485.02 L610.683 1485.02 L610.683 1493.8 L624.757 1493.8 Q627.928 1493.8 628.831 1492.94 Q629.734 1492.06 629.734 1489.4 L629.734 1485.02 L633.299 1485.02 L633.299 1489.4 Q633.299 1494.33 631.47 1496.21 Q629.618 1498.08 624.757 1498.08 L610.683 1498.08 L610.683 1501.21 L607.373 1501.21 L607.373 1498.08 L600.012 1498.08 L600.012 1493.8 Z" fill="#000000" fill-rule="evenodd" fill-opacity="1" /><path clip-path="url(#clip920)" d="M623.067 1479.86 L607.373 1479.86 L607.373 1475.6 L622.905 1475.6 Q626.586 1475.6 628.438 1474.17 Q630.266 1472.73 630.266 1469.86 Q630.266 1466.41 628.067 1464.42 Q625.868 1462.41 622.072 1462.41 L607.373 1462.41 L607.373 1458.15 L633.299 1458.15 L633.299 1462.41 L629.317 1462.41 Q631.678 1463.96 632.836 1466.02 Q633.97 1468.06 633.97 1470.77 Q633.97 1475.23 631.192 1477.55 Q628.414 1479.86 623.067 1479.86 M606.748 1469.15 L606.748 1469.15 Z" fill="#000000" fill-rule="evenodd" fill-opacity="1" /><path clip-path="url(#clip920)" d="M611.308 1432.32 L597.28 1432.32 L597.28 1428.06 L633.299 1428.06 L633.299 1432.32 L629.41 1432.32 Q631.725 1433.66 632.859 1435.72 Q633.97 1437.76 633.97 1440.63 Q633.97 1445.33 630.22 1448.29 Q626.47 1451.23 620.359 1451.23 Q614.248 1451.23 610.498 1448.29 Q606.748 1445.33 606.748 1440.63 Q606.748 1437.76 607.882 1435.72 Q608.993 1433.66 611.308 1432.32 M620.359 1446.83 Q625.058 1446.83 627.743 1444.91 Q630.405 1442.96 630.405 1439.59 Q630.405 1436.21 627.743 1434.26 Q625.058 1432.32 620.359 1432.32 Q615.66 1432.32 612.998 1434.26 Q610.313 1436.21 610.313 1439.59 Q610.313 1442.96 612.998 1444.91 Q615.66 1446.83 620.359 1446.83 Z" fill="#000000" fill-rule="evenodd" fill-opacity="1" /><path clip-path="url(#clip920)" d="M619.271 1397.11 L621.354 1397.11 L621.354 1416.69 Q625.752 1416.41 628.067 1414.05 Q630.359 1411.67 630.359 1407.43 Q630.359 1404.98 629.757 1402.69 Q629.155 1400.37 627.951 1398.1 L631.979 1398.1 Q632.951 1400.4 633.461 1402.8 Q633.97 1405.21 633.97 1407.69 Q633.97 1413.89 630.359 1417.53 Q626.748 1421.14 620.59 1421.14 Q614.225 1421.14 610.498 1417.71 Q606.748 1414.26 606.748 1408.43 Q606.748 1403.2 610.127 1400.16 Q613.484 1397.11 619.271 1397.11 M618.021 1401.37 Q614.526 1401.41 612.442 1403.34 Q610.359 1405.23 610.359 1408.38 Q610.359 1411.95 612.373 1414.1 Q614.387 1416.23 618.044 1416.55 L618.021 1401.37 Z" fill="#000000" fill-rule="evenodd" fill-opacity="1" /><path clip-path="url(#clip920)" d="M641.169 1370.42 L644.479 1370.42 L644.479 1395.05 L641.169 1395.05 L641.169 1370.42 Z" fill="#000000" fill-rule="evenodd" fill-opacity="1" /><path clip-path="url(#clip920)" d="M610.359 1356.37 Q610.359 1359.79 613.044 1361.78 Q615.706 1363.78 620.359 1363.78 Q625.012 1363.78 627.697 1361.81 Q630.359 1359.82 630.359 1356.37 Q630.359 1352.97 627.674 1350.97 Q624.989 1348.98 620.359 1348.98 Q615.752 1348.98 613.067 1350.97 Q610.359 1352.97 610.359 1356.37 M606.748 1356.37 Q606.748 1350.81 610.359 1347.64 Q613.97 1344.47 620.359 1344.47 Q626.725 1344.47 630.359 1347.64 Q633.97 1350.81 633.97 1356.37 Q633.97 1361.95 630.359 1365.12 Q626.725 1368.27 620.359 1368.27 Q613.97 1368.27 610.359 1365.12 Q606.748 1361.95 606.748 1356.37 Z" fill="#000000" fill-rule="evenodd" fill-opacity="1" /><path clip-path="url(#clip920)" d="M597.28 1324.28 L600.822 1324.28 L600.822 1328.36 Q600.822 1330.65 601.748 1331.55 Q602.674 1332.43 605.081 1332.43 L607.373 1332.43 L607.373 1325.42 L610.683 1325.42 L610.683 1332.43 L633.299 1332.43 L633.299 1336.72 L610.683 1336.72 L610.683 1340.79 L607.373 1340.79 L607.373 1336.72 L605.567 1336.72 Q601.239 1336.72 599.271 1334.7 Q597.28 1332.69 597.28 1328.31 L597.28 1324.28 Z" fill="#000000" fill-rule="evenodd" fill-opacity="1" /><path clip-path="url(#clip920)" d="M597.28 1307.6 L600.822 1307.6 L600.822 1311.67 Q600.822 1313.96 601.748 1314.86 Q602.674 1315.74 605.081 1315.74 L607.373 1315.74 L607.373 1308.73 L610.683 1308.73 L610.683 1315.74 L633.299 1315.74 L633.299 1320.03 L610.683 1320.03 L610.683 1324.1 L607.373 1324.1 L607.373 1320.03 L605.567 1320.03 Q601.239 1320.03 599.271 1318.01 Q597.28 1316 597.28 1311.62 L597.28 1307.6 Z" fill="#000000" fill-rule="evenodd" fill-opacity="1" /><path clip-path="url(#clip920)" d="M608.137 1287.5 L612.165 1287.5 Q611.239 1289.31 610.776 1291.25 Q610.313 1293.2 610.313 1295.28 Q610.313 1298.45 611.285 1300.05 Q612.257 1301.62 614.202 1301.62 Q615.683 1301.62 616.539 1300.49 Q617.373 1299.35 618.137 1295.93 L618.461 1294.47 Q619.433 1289.93 621.215 1288.04 Q622.975 1286.11 626.146 1286.11 Q629.757 1286.11 631.863 1288.98 Q633.97 1291.83 633.97 1296.83 Q633.97 1298.91 633.553 1301.18 Q633.16 1303.43 632.35 1305.93 L627.951 1305.93 Q629.178 1303.57 629.803 1301.28 Q630.405 1298.98 630.405 1296.74 Q630.405 1293.73 629.387 1292.11 Q628.345 1290.49 626.47 1290.49 Q624.734 1290.49 623.808 1291.67 Q622.882 1292.83 622.026 1296.78 L621.678 1298.27 Q620.845 1302.22 619.132 1303.98 Q617.396 1305.74 614.387 1305.74 Q610.729 1305.74 608.739 1303.15 Q606.748 1300.56 606.748 1295.79 Q606.748 1293.43 607.095 1291.35 Q607.442 1289.26 608.137 1287.5 Z" fill="#000000" fill-rule="evenodd" fill-opacity="1" /><path clip-path="url(#clip920)" d="M619.271 1257.16 L621.354 1257.16 L621.354 1276.74 Q625.752 1276.46 628.067 1274.1 Q630.359 1271.72 630.359 1267.48 Q630.359 1265.03 629.757 1262.73 Q629.155 1260.42 627.951 1258.15 L631.979 1258.15 Q632.951 1260.44 633.461 1262.85 Q633.97 1265.26 633.97 1267.73 Q633.97 1273.94 630.359 1277.57 Q626.748 1281.18 620.59 1281.18 Q614.225 1281.18 610.498 1277.76 Q606.748 1274.31 606.748 1268.47 Q606.748 1263.24 610.127 1260.21 Q613.484 1257.16 619.271 1257.16 M618.021 1261.41 Q614.526 1261.46 612.442 1263.38 Q610.359 1265.28 610.359 1268.43 Q610.359 1271.99 612.373 1274.15 Q614.387 1276.28 618.044 1276.6 L618.021 1261.41 Z" fill="#000000" fill-rule="evenodd" fill-opacity="1" /><path clip-path="url(#clip920)" d="M600.012 1245.95 L607.373 1245.95 L607.373 1237.18 L610.683 1237.18 L610.683 1245.95 L624.757 1245.95 Q627.928 1245.95 628.831 1245.1 Q629.734 1244.22 629.734 1241.55 L629.734 1237.18 L633.299 1237.18 L633.299 1241.55 Q633.299 1246.48 631.47 1248.36 Q629.618 1250.23 624.757 1250.23 L610.683 1250.23 L610.683 1253.36 L607.373 1253.36 L607.373 1250.23 L600.012 1250.23 L600.012 1245.95 Z" fill="#000000" fill-rule="evenodd" fill-opacity="1" /><path clip-path="url(#clip920)" d="M899.703 1540.79 Q895.073 1540.79 892.527 1542.71 Q889.981 1544.61 889.981 1548.06 Q889.981 1551.48 892.527 1553.4 Q895.073 1555.3 899.703 1555.3 Q904.309 1555.3 906.855 1553.4 Q909.402 1551.48 909.402 1548.06 Q909.402 1544.61 906.855 1542.71 Q904.309 1540.79 899.703 1540.79 M909.749 1536.53 Q916.369 1536.53 919.587 1539.47 Q922.828 1542.41 922.828 1548.47 Q922.828 1550.72 922.48 1552.71 Q922.156 1554.7 921.462 1556.58 L917.318 1556.58 Q918.337 1554.7 918.823 1552.87 Q919.309 1551.04 919.309 1549.14 Q919.309 1544.95 917.11 1542.87 Q914.934 1540.79 910.513 1540.79 L908.406 1540.79 Q910.698 1542.11 911.832 1544.17 Q912.966 1546.23 912.966 1549.1 Q912.966 1553.87 909.332 1556.78 Q905.698 1559.7 899.703 1559.7 Q893.684 1559.7 890.05 1556.78 Q886.416 1553.87 886.416 1549.1 Q886.416 1546.23 887.55 1544.17 Q888.684 1542.11 890.976 1540.79 L887.041 1540.79 L887.041 1536.53 L909.749 1536.53 Z" fill="#000000" fill-rule="evenodd" fill-opacity="1" /><path clip-path="url(#clip920)" d="M891.022 1512.73 Q890.606 1513.45 890.42 1514.31 Q890.212 1515.14 890.212 1516.16 Q890.212 1519.77 892.573 1521.71 Q894.911 1523.64 899.309 1523.64 L912.966 1523.64 L912.966 1527.92 L887.041 1527.92 L887.041 1523.64 L891.068 1523.64 Q888.707 1522.29 887.573 1520.14 Q886.416 1517.99 886.416 1514.91 Q886.416 1514.47 886.485 1513.94 Q886.531 1513.4 886.647 1512.76 L891.022 1512.73 Z" fill="#000000" fill-rule="evenodd" fill-opacity="1" /><path clip-path="url(#clip920)" d="M890.027 1499.26 Q890.027 1502.69 892.712 1504.68 Q895.374 1506.67 900.027 1506.67 Q904.68 1506.67 907.365 1504.7 Q910.027 1502.71 910.027 1499.26 Q910.027 1495.86 907.342 1493.87 Q904.656 1491.88 900.027 1491.88 Q895.42 1491.88 892.735 1493.87 Q890.027 1495.86 890.027 1499.26 M886.416 1499.26 Q886.416 1493.71 890.027 1490.53 Q893.638 1487.36 900.027 1487.36 Q906.392 1487.36 910.027 1490.53 Q913.638 1493.71 913.638 1499.26 Q913.638 1504.84 910.027 1508.01 Q906.392 1511.16 900.027 1511.16 Q893.638 1511.16 890.027 1508.01 Q886.416 1504.84 886.416 1499.26 Z" fill="#000000" fill-rule="evenodd" fill-opacity="1" /><path clip-path="url(#clip920)" d="M902.735 1480.74 L887.041 1480.74 L887.041 1476.48 L902.573 1476.48 Q906.254 1476.48 908.105 1475.05 Q909.934 1473.61 909.934 1470.74 Q909.934 1467.29 907.735 1465.3 Q905.536 1463.29 901.74 1463.29 L887.041 1463.29 L887.041 1459.03 L912.966 1459.03 L912.966 1463.29 L908.985 1463.29 Q911.346 1464.84 912.504 1466.9 Q913.638 1468.94 913.638 1471.65 Q913.638 1476.11 910.86 1478.43 Q908.082 1480.74 902.735 1480.74 M886.416 1470.02 L886.416 1470.02 Z" fill="#000000" fill-rule="evenodd" fill-opacity="1" /><path clip-path="url(#clip920)" d="M897.318 1428.71 L912.966 1428.71 L912.966 1432.96 L897.457 1432.96 Q893.777 1432.96 891.948 1434.4 Q890.119 1435.84 890.119 1438.71 Q890.119 1442.15 892.318 1444.15 Q894.518 1446.14 898.314 1446.14 L912.966 1446.14 L912.966 1450.42 L887.041 1450.42 L887.041 1446.14 L891.068 1446.14 Q888.731 1444.61 887.573 1442.55 Q886.416 1440.46 886.416 1437.76 Q886.416 1433.29 889.193 1431 Q891.948 1428.71 897.318 1428.71 Z" fill="#000000" fill-rule="evenodd" fill-opacity="1" /><path clip-path="url(#clip920)" d="M890.976 1403.15 L876.948 1403.15 L876.948 1398.89 L912.966 1398.89 L912.966 1403.15 L909.078 1403.15 Q911.392 1404.49 912.527 1406.55 Q913.638 1408.59 913.638 1411.46 Q913.638 1416.16 909.888 1419.12 Q906.138 1422.06 900.027 1422.06 Q893.916 1422.06 890.166 1419.12 Q886.416 1416.16 886.416 1411.46 Q886.416 1408.59 887.55 1406.55 Q888.661 1404.49 890.976 1403.15 M900.027 1417.66 Q904.726 1417.66 907.411 1415.74 Q910.073 1413.8 910.073 1410.42 Q910.073 1407.04 907.411 1405.09 Q904.726 1403.15 900.027 1403.15 Q895.328 1403.15 892.666 1405.09 Q889.981 1407.04 889.981 1410.42 Q889.981 1413.8 892.666 1415.74 Q895.328 1417.66 900.027 1417.66 Z" fill="#000000" fill-rule="evenodd" fill-opacity="1" /><path clip-path="url(#clip920)" d="M920.837 1370.42 L924.147 1370.42 L924.147 1395.05 L920.837 1395.05 L920.837 1370.42 Z" fill="#000000" fill-rule="evenodd" fill-opacity="1" /><path clip-path="url(#clip920)" d="M890.027 1356.37 Q890.027 1359.79 892.712 1361.78 Q895.374 1363.78 900.027 1363.78 Q904.68 1363.78 907.365 1361.81 Q910.027 1359.82 910.027 1356.37 Q910.027 1352.97 907.342 1350.97 Q904.656 1348.98 900.027 1348.98 Q895.42 1348.98 892.735 1350.97 Q890.027 1352.97 890.027 1356.37 M886.416 1356.37 Q886.416 1350.81 890.027 1347.64 Q893.638 1344.47 900.027 1344.47 Q906.392 1344.47 910.027 1347.64 Q913.638 1350.81 913.638 1356.37 Q913.638 1361.95 910.027 1365.12 Q906.392 1368.27 900.027 1368.27 Q893.638 1368.27 890.027 1365.12 Q886.416 1361.95 886.416 1356.37 Z" fill="#000000" fill-rule="evenodd" fill-opacity="1" /><path clip-path="url(#clip920)" d="M876.948 1324.28 L880.49 1324.28 L880.49 1328.36 Q880.49 1330.65 881.416 1331.55 Q882.342 1332.43 884.749 1332.43 L887.041 1332.43 L887.041 1325.42 L890.351 1325.42 L890.351 1332.43 L912.966 1332.43 L912.966 1336.72 L890.351 1336.72 L890.351 1340.79 L887.041 1340.79 L887.041 1336.72 L885.235 1336.72 Q880.906 1336.72 878.939 1334.7 Q876.948 1332.69 876.948 1328.31 L876.948 1324.28 Z" fill="#000000" fill-rule="evenodd" fill-opacity="1" /><path clip-path="url(#clip920)" d="M876.948 1307.6 L880.49 1307.6 L880.49 1311.67 Q880.49 1313.96 881.416 1314.86 Q882.342 1315.74 884.749 1315.74 L887.041 1315.74 L887.041 1308.73 L890.351 1308.73 L890.351 1315.74 L912.966 1315.74 L912.966 1320.03 L890.351 1320.03 L890.351 1324.1 L887.041 1324.1 L887.041 1320.03 L885.235 1320.03 Q880.906 1320.03 878.939 1318.01 Q876.948 1316 876.948 1311.62 L876.948 1307.6 Z" fill="#000000" fill-rule="evenodd" fill-opacity="1" /><path clip-path="url(#clip920)" d="M887.805 1287.5 L891.832 1287.5 Q890.906 1289.31 890.443 1291.25 Q889.981 1293.2 889.981 1295.28 Q889.981 1298.45 890.953 1300.05 Q891.925 1301.62 893.869 1301.62 Q895.351 1301.62 896.207 1300.49 Q897.041 1299.35 897.805 1295.93 L898.129 1294.47 Q899.101 1289.93 900.883 1288.04 Q902.642 1286.11 905.814 1286.11 Q909.425 1286.11 911.531 1288.98 Q913.638 1291.83 913.638 1296.83 Q913.638 1298.91 913.221 1301.18 Q912.828 1303.43 912.017 1305.93 L907.619 1305.93 Q908.846 1303.57 909.471 1301.28 Q910.073 1298.98 910.073 1296.74 Q910.073 1293.73 909.054 1292.11 Q908.013 1290.49 906.138 1290.49 Q904.402 1290.49 903.476 1291.67 Q902.55 1292.83 901.693 1296.78 L901.346 1298.27 Q900.513 1302.22 898.8 1303.98 Q897.064 1305.74 894.055 1305.74 Q890.397 1305.74 888.406 1303.15 Q886.416 1300.56 886.416 1295.79 Q886.416 1293.43 886.763 1291.35 Q887.11 1289.26 887.805 1287.5 Z" fill="#000000" fill-rule="evenodd" fill-opacity="1" /><path clip-path="url(#clip920)" d="M898.939 1257.16 L901.022 1257.16 L901.022 1276.74 Q905.42 1276.46 907.735 1274.1 Q910.027 1271.72 910.027 1267.48 Q910.027 1265.03 909.425 1262.73 Q908.823 1260.42 907.619 1258.15 L911.647 1258.15 Q912.619 1260.44 913.129 1262.85 Q913.638 1265.26 913.638 1267.73 Q913.638 1273.94 910.027 1277.57 Q906.416 1281.18 900.258 1281.18 Q893.893 1281.18 890.166 1277.76 Q886.416 1274.31 886.416 1268.47 Q886.416 1263.24 889.795 1260.21 Q893.152 1257.16 898.939 1257.16 M897.689 1261.41 Q894.193 1261.46 892.11 1263.38 Q890.027 1265.28 890.027 1268.43 Q890.027 1271.99 892.041 1274.15 Q894.055 1276.28 897.712 1276.6 L897.689 1261.41 Z" fill="#000000" fill-rule="evenodd" fill-opacity="1" /><path clip-path="url(#clip920)" d="M879.68 1245.95 L887.041 1245.95 L887.041 1237.18 L890.351 1237.18 L890.351 1245.95 L904.425 1245.95 Q907.596 1245.95 908.499 1245.1 Q909.402 1244.22 909.402 1241.55 L909.402 1237.18 L912.966 1237.18 L912.966 1241.55 Q912.966 1246.48 911.138 1248.36 Q909.286 1250.23 904.425 1250.23 L890.351 1250.23 L890.351 1253.36 L887.041 1253.36 L887.041 1250.23 L879.68 1250.23 L879.68 1245.95 Z" fill="#000000" fill-rule="evenodd" fill-opacity="1" /><path clip-path="url(#clip920)" d="M1156.62 1312.09 L1160.16 1312.09 L1160.16 1316.16 Q1160.16 1318.45 1161.08 1319.35 Q1162.01 1320.23 1164.42 1320.23 L1166.71 1320.23 L1166.71 1313.22 L1170.02 1313.22 L1170.02 1320.23 L1192.63 1320.23 L1192.63 1324.52 L1170.02 1324.52 L1170.02 1328.59 L1166.71 1328.59 L1166.71 1324.52 L1164.9 1324.52 Q1160.57 1324.52 1158.61 1322.5 Q1156.62 1320.49 1156.62 1316.11 L1156.62 1312.09 Z" fill="#000000" fill-rule="evenodd" fill-opacity="1" /><path clip-path="url(#clip920)" d="M1169.69 1298.47 Q1169.69 1301.9 1172.38 1303.89 Q1175.04 1305.88 1179.69 1305.88 Q1184.35 1305.88 1187.03 1303.91 Q1189.69 1301.92 1189.69 1298.47 Q1189.69 1295.07 1187.01 1293.08 Q1184.32 1291.09 1179.69 1291.09 Q1175.09 1291.09 1172.4 1293.08 Q1169.69 1295.07 1169.69 1298.47 M1166.08 1298.47 Q1166.08 1292.92 1169.69 1289.75 Q1173.31 1286.58 1179.69 1286.58 Q1186.06 1286.58 1189.69 1289.75 Q1193.31 1292.92 1193.31 1298.47 Q1193.31 1304.05 1189.69 1307.22 Q1186.06 1310.37 1179.69 1310.37 Q1173.31 1310.37 1169.69 1307.22 Q1166.08 1304.05 1166.08 1298.47 Z" fill="#000000" fill-rule="evenodd" fill-opacity="1" /><path clip-path="url(#clip920)" d="M1170.69 1264.49 Q1170.27 1265.21 1170.09 1266.07 Q1169.88 1266.9 1169.88 1267.92 Q1169.88 1271.53 1172.24 1273.47 Q1174.58 1275.4 1178.98 1275.4 L1192.63 1275.4 L1192.63 1279.68 L1166.71 1279.68 L1166.71 1275.4 L1170.74 1275.4 Q1168.38 1274.05 1167.24 1271.9 Q1166.08 1269.75 1166.08 1266.67 Q1166.08 1266.23 1166.15 1265.7 Q1166.2 1265.16 1166.32 1264.52 L1170.69 1264.49 Z" fill="#000000" fill-rule="evenodd" fill-opacity="1" /><path clip-path="url(#clip920)" d="M1156.62 1260.19 L1156.62 1255.91 L1177.89 1255.91 L1166.71 1243.2 L1166.71 1237.76 L1178.84 1251.51 L1192.63 1237.18 L1192.63 1242.73 L1179.97 1255.91 L1192.63 1255.91 L1192.63 1260.19 L1156.62 1260.19 Z" fill="#000000" fill-rule="evenodd" fill-opacity="1" /><path clip-path="url(#clip920)" d="M1446.38 1481.14 L1446.38 1460.9 L1450.27 1460.9 L1468.9 1476.92 L1468.9 1460.9 L1472.3 1460.9 L1472.3 1481.71 L1468.41 1481.71 L1449.78 1465.7 L1449.78 1481.14 L1446.38 1481.14 Z" fill="#000000" fill-rule="evenodd" fill-opacity="1" /><path clip-path="url(#clip920)" d="M1472.3 1445.3 L1437.74 1458.5 L1437.74 1453.61 L1466.84 1442.66 L1437.74 1431.69 L1437.74 1426.83 L1472.3 1440 L1472.3 1445.3 Z" fill="#000000" fill-rule="evenodd" fill-opacity="1" /><path clip-path="url(#clip920)" d="M1442.35 1413.27 L1459.55 1419.61 L1459.55 1406.9 L1442.35 1413.27 M1437.74 1415.9 L1437.74 1410.6 L1472.3 1397.43 L1472.3 1402.29 L1463.44 1405.44 L1463.44 1421.02 L1472.3 1424.17 L1472.3 1429.1 L1437.74 1415.9 Z" fill="#000000" fill-rule="evenodd" fill-opacity="1" /><path clip-path="url(#clip920)" d="M1437.74 1394.05 L1437.74 1389.03 L1450.59 1380.44 L1437.74 1371.81 L1437.74 1366.78 L1454.34 1377.9 L1472.3 1366.04 L1472.3 1371.07 L1457.6 1380.79 L1472.3 1390.58 L1472.3 1395.63 L1453.85 1383.29 L1437.74 1394.05 Z" fill="#000000" fill-rule="evenodd" fill-opacity="1" /><path clip-path="url(#clip920)" d="M1453.71 1353.03 Q1455.59 1355.14 1457.46 1356.14 Q1459.32 1357.11 1461.35 1357.11 Q1464.73 1357.11 1466.98 1354.66 Q1469.22 1352.2 1469.22 1348.5 Q1469.22 1346.3 1468.51 1344.38 Q1467.77 1342.46 1466.28 1340.77 L1453.71 1353.03 M1451.12 1349.77 L1463.16 1338.01 Q1461.1 1336.65 1458.76 1335.88 Q1456.4 1335.12 1453.76 1334.98 L1453.76 1330.67 Q1456.82 1330.95 1459.8 1332.16 Q1462.79 1333.36 1465.7 1335.51 L1472.3 1329.05 L1472.3 1334.89 L1468.9 1338.2 Q1470.96 1340.6 1471.98 1343.24 Q1472.97 1345.88 1472.97 1348.91 Q1472.97 1354.49 1469.8 1358.03 Q1466.61 1361.58 1461.63 1361.58 Q1458.67 1361.58 1456.08 1360.03 Q1453.46 1358.47 1451.17 1355.37 Q1449.71 1356.48 1448.27 1357.06 Q1446.82 1357.64 1445.43 1357.64 Q1441.68 1357.64 1439.41 1355.07 Q1437.12 1352.5 1437.12 1348.24 Q1437.12 1346.32 1437.53 1344.42 Q1437.95 1342.5 1438.78 1340.53 L1443 1340.53 Q1441.91 1342.55 1441.35 1344.38 Q1440.77 1346.21 1440.77 1347.78 Q1440.77 1350.21 1442.07 1351.74 Q1443.34 1353.24 1445.38 1353.24 Q1446.56 1353.24 1447.77 1352.57 Q1448.95 1351.88 1451.12 1349.77 Z" fill="#000000" fill-rule="evenodd" fill-opacity="1" /><path clip-path="url(#clip920)" d="M1472.97 1314.86 Q1472.97 1324.47 1459.22 1324.47 Q1453.78 1324.47 1446.38 1320.88 L1446.38 1316.3 Q1453.78 1319.61 1459.34 1319.61 Q1469.36 1319.61 1469.36 1314.47 Q1469.36 1309.77 1456.91 1309.77 L1456.91 1305.84 Q1469.36 1305.84 1469.36 1301.14 Q1469.36 1296 1459.34 1296 Q1453.78 1296 1446.38 1299.31 L1446.38 1294.72 Q1453.78 1291.14 1459.22 1291.14 Q1472.97 1291.14 1472.97 1300.74 Q1472.97 1307.04 1466.05 1307.8 Q1472.97 1308.75 1472.97 1314.86 Z" fill="#000000" fill-rule="evenodd" fill-opacity="1" /><path clip-path="url(#clip920)" d="M1480.17 1263.73 L1483.48 1263.73 L1483.48 1288.36 L1480.17 1288.36 L1480.17 1263.73 Z" fill="#000000" fill-rule="evenodd" fill-opacity="1" /><path clip-path="url(#clip920)" d="M1440.82 1249.12 Q1440.82 1252.73 1444.39 1254.56 Q1447.93 1256.37 1455.06 1256.37 Q1462.16 1256.37 1465.73 1254.56 Q1469.27 1252.73 1469.27 1249.12 Q1469.27 1245.49 1465.73 1243.68 Q1462.16 1241.85 1455.06 1241.85 Q1447.93 1241.85 1444.39 1243.68 Q1440.82 1245.49 1440.82 1249.12 M1437.12 1249.12 Q1437.12 1243.31 1441.72 1240.26 Q1446.31 1237.18 1455.06 1237.18 Q1463.78 1237.18 1468.39 1240.26 Q1472.97 1243.31 1472.97 1249.12 Q1472.97 1254.93 1468.39 1258.01 Q1463.78 1261.07 1455.06 1261.07 Q1446.31 1261.07 1441.72 1258.01 Q1437.12 1254.93 1437.12 1249.12 Z" fill="#000000" fill-rule="evenodd" fill-opacity="1" /><path clip-path="url(#clip920)" d="M1726.04 1511.3 L1726.04 1491.07 L1729.93 1491.07 L1748.57 1507.08 L1748.57 1491.07 L1751.97 1491.07 L1751.97 1511.88 L1748.08 1511.88 L1729.45 1495.86 L1729.45 1511.3 L1726.04 1511.3 Z" fill="#000000" fill-rule="evenodd" fill-opacity="1" /><path clip-path="url(#clip920)" d="M1751.97 1475.46 L1717.41 1488.66 L1717.41 1483.77 L1746.51 1472.83 L1717.41 1461.85 L1717.41 1456.99 L1751.97 1470.16 L1751.97 1475.46 Z" fill="#000000" fill-rule="evenodd" fill-opacity="1" /><path clip-path="url(#clip920)" d="M1722.02 1443.43 L1739.22 1449.77 L1739.22 1437.06 L1722.02 1443.43 M1717.41 1446.07 L1717.41 1440.77 L1751.97 1427.59 L1751.97 1432.46 L1743.1 1435.6 L1743.1 1451.18 L1751.97 1454.33 L1751.97 1459.26 L1717.41 1446.07 Z" fill="#000000" fill-rule="evenodd" fill-opacity="1" /><path clip-path="url(#clip920)" d="M1717.41 1424.21 L1717.41 1419.19 L1730.26 1410.6 L1717.41 1401.97 L1717.41 1396.95 L1734.01 1408.06 L1751.97 1396.21 L1751.97 1401.23 L1737.27 1410.95 L1751.97 1420.74 L1751.97 1425.79 L1733.52 1413.45 L1717.41 1424.21 Z" fill="#000000" fill-rule="evenodd" fill-opacity="1" /><path clip-path="url(#clip920)" d="M1733.38 1383.2 Q1735.26 1385.3 1737.13 1386.3 Q1738.98 1387.27 1741.02 1387.27 Q1744.4 1387.27 1746.65 1384.82 Q1748.89 1382.36 1748.89 1378.66 Q1748.89 1376.46 1748.17 1374.54 Q1747.43 1372.62 1745.95 1370.93 L1733.38 1383.2 M1730.79 1379.93 L1742.83 1368.17 Q1740.77 1366.81 1738.43 1366.04 Q1736.07 1365.28 1733.43 1365.14 L1733.43 1360.84 Q1736.48 1361.11 1739.47 1362.32 Q1742.46 1363.52 1745.37 1365.67 L1751.97 1359.22 L1751.97 1365.05 L1748.57 1368.36 Q1750.63 1370.77 1751.65 1373.4 Q1752.64 1376.04 1752.64 1379.08 Q1752.64 1384.65 1749.47 1388.2 Q1746.28 1391.74 1741.3 1391.74 Q1738.34 1391.74 1735.74 1390.19 Q1733.13 1388.64 1730.84 1385.53 Q1729.38 1386.65 1727.94 1387.22 Q1726.48 1387.8 1725.1 1387.8 Q1721.35 1387.8 1719.08 1385.23 Q1716.78 1382.66 1716.78 1378.4 Q1716.78 1376.48 1717.2 1374.59 Q1717.62 1372.66 1718.45 1370.7 L1722.66 1370.7 Q1721.58 1372.71 1721.02 1374.54 Q1720.44 1376.37 1720.44 1377.94 Q1720.44 1380.37 1721.74 1381.9 Q1723.01 1383.4 1725.05 1383.4 Q1726.23 1383.4 1727.43 1382.73 Q1728.61 1382.04 1730.79 1379.93 Z" fill="#000000" fill-rule="evenodd" fill-opacity="1" /><path clip-path="url(#clip920)" d="M1752.64 1345.03 Q1752.64 1354.63 1738.89 1354.63 Q1733.45 1354.63 1726.04 1351.04 L1726.04 1346.46 Q1733.45 1349.77 1739.01 1349.77 Q1749.03 1349.77 1749.03 1344.63 Q1749.03 1339.93 1736.58 1339.93 L1736.58 1336 Q1749.03 1336 1749.03 1331.3 Q1749.03 1326.16 1739.01 1326.16 Q1733.45 1326.16 1726.04 1329.47 L1726.04 1324.89 Q1733.45 1321.3 1738.89 1321.3 Q1752.64 1321.3 1752.64 1330.91 Q1752.64 1337.2 1745.72 1337.97 Q1752.64 1338.91 1752.64 1345.03 Z" fill="#000000" fill-rule="evenodd" fill-opacity="1" /><path clip-path="url(#clip920)" d="M1759.84 1293.89 L1763.15 1293.89 L1763.15 1318.52 L1759.84 1318.52 L1759.84 1293.89 Z" fill="#000000" fill-rule="evenodd" fill-opacity="1" /><path clip-path="url(#clip920)" d="M1751.25 1289.15 L1746.99 1289.15 Q1747.83 1287.39 1748.27 1285.58 Q1748.71 1283.78 1748.71 1282.04 Q1748.71 1277.41 1745.6 1274.98 Q1742.48 1272.53 1736.14 1272.18 Q1738.13 1273.52 1739.19 1275.58 Q1740.26 1277.64 1740.26 1280.14 Q1740.26 1285.33 1737.13 1288.36 Q1733.98 1291.37 1728.54 1291.37 Q1723.22 1291.37 1720 1288.22 Q1716.78 1285.07 1716.78 1279.84 Q1716.78 1273.85 1721.39 1270.7 Q1725.97 1267.53 1734.72 1267.53 Q1742.9 1267.53 1747.78 1271.41 Q1752.64 1275.28 1752.64 1281.83 Q1752.64 1283.59 1752.29 1285.4 Q1751.95 1287.2 1751.25 1289.15 M1736.6 1279.84 Q1736.6 1276.69 1734.45 1274.86 Q1732.29 1273.01 1728.54 1273.01 Q1724.82 1273.01 1722.66 1274.86 Q1720.49 1276.69 1720.49 1279.84 Q1720.49 1282.99 1722.66 1284.84 Q1724.82 1286.67 1728.54 1286.67 Q1732.29 1286.67 1734.45 1284.84 Q1736.6 1282.99 1736.6 1279.84 Z" fill="#000000" fill-rule="evenodd" fill-opacity="1" /><path clip-path="url(#clip920)" d="M1720.49 1249.12 Q1720.49 1252.73 1724.05 1254.56 Q1727.6 1256.37 1734.72 1256.37 Q1741.83 1256.37 1745.4 1254.56 Q1748.94 1252.73 1748.94 1249.12 Q1748.94 1245.49 1745.4 1243.68 Q1741.83 1241.85 1734.72 1241.85 Q1727.6 1241.85 1724.05 1243.68 Q1720.49 1245.49 1720.49 1249.12 M1716.78 1249.12 Q1716.78 1243.31 1721.39 1240.26 Q1725.97 1237.18 1734.72 1237.18 Q1743.45 1237.18 1748.06 1240.26 Q1752.64 1243.31 1752.64 1249.12 Q1752.64 1254.93 1748.06 1258.01 Q1743.45 1261.07 1734.72 1261.07 Q1725.97 1261.07 1721.39 1258.01 Q1716.78 1254.93 1716.78 1249.12 Z" fill="#000000" fill-rule="evenodd" fill-opacity="1" /><path clip-path="url(#clip920)" d="M2005.71 1541.46 L2005.71 1521.23 L2009.6 1521.23 L2028.24 1537.25 L2028.24 1521.23 L2031.64 1521.23 L2031.64 1542.04 L2027.75 1542.04 L2009.11 1526.02 L2009.11 1541.46 L2005.71 1541.46 Z" fill="#000000" fill-rule="evenodd" fill-opacity="1" /><path clip-path="url(#clip920)" d="M2031.64 1505.63 L1997.08 1518.82 L1997.08 1513.94 L2026.17 1502.99 L1997.08 1492.02 L1997.08 1487.15 L2031.64 1500.33 L2031.64 1505.63 Z" fill="#000000" fill-rule="evenodd" fill-opacity="1" /><path clip-path="url(#clip920)" d="M2001.68 1473.59 L2018.88 1479.93 L2018.88 1467.22 L2001.68 1473.59 M1997.08 1476.23 L1997.08 1470.93 L2031.64 1457.76 L2031.64 1462.62 L2022.77 1465.77 L2022.77 1481.34 L2031.64 1484.49 L2031.64 1489.42 L1997.08 1476.23 Z" fill="#000000" fill-rule="evenodd" fill-opacity="1" /><path clip-path="url(#clip920)" d="M1997.08 1454.38 L1997.08 1449.35 L2009.92 1440.77 L1997.08 1432.13 L1997.08 1427.11 L2013.67 1438.22 L2031.64 1426.37 L2031.64 1431.39 L2016.94 1441.11 L2031.64 1450.9 L2031.64 1455.95 L2013.19 1443.61 L1997.08 1454.38 Z" fill="#000000" fill-rule="evenodd" fill-opacity="1" /><path clip-path="url(#clip920)" d="M2013.05 1413.36 Q2014.92 1415.46 2016.8 1416.46 Q2018.65 1417.43 2020.69 1417.43 Q2024.07 1417.43 2026.31 1414.98 Q2028.56 1412.53 2028.56 1408.82 Q2028.56 1406.62 2027.84 1404.7 Q2027.1 1402.78 2025.62 1401.09 L2013.05 1413.36 M2010.46 1410.09 L2022.49 1398.34 Q2020.43 1396.97 2018.1 1396.21 Q2015.74 1395.44 2013.1 1395.3 L2013.1 1391 Q2016.15 1391.28 2019.14 1392.48 Q2022.12 1393.68 2025.04 1395.84 L2031.64 1389.38 L2031.64 1395.21 L2028.24 1398.52 Q2030.3 1400.93 2031.31 1403.57 Q2032.31 1406.21 2032.31 1409.24 Q2032.31 1414.82 2029.14 1418.36 Q2025.94 1421.9 2020.97 1421.9 Q2018 1421.9 2015.41 1420.35 Q2012.8 1418.8 2010.5 1415.7 Q2009.05 1416.81 2007.61 1417.39 Q2006.15 1417.96 2004.76 1417.96 Q2001.01 1417.96 1998.74 1415.4 Q1996.45 1412.83 1996.45 1408.57 Q1996.45 1406.65 1996.87 1404.75 Q1997.29 1402.83 1998.12 1400.86 L2002.33 1400.86 Q2001.24 1402.87 2000.69 1404.7 Q2000.11 1406.53 2000.11 1408.1 Q2000.11 1410.53 2001.41 1412.06 Q2002.68 1413.57 2004.72 1413.57 Q2005.9 1413.57 2007.1 1412.9 Q2008.28 1412.2 2010.46 1410.09 Z" fill="#000000" fill-rule="evenodd" fill-opacity="1" /><path clip-path="url(#clip920)" d="M2032.31 1375.19 Q2032.31 1384.79 2018.56 1384.79 Q2013.12 1384.79 2005.71 1381.21 L2005.71 1376.62 Q2013.12 1379.93 2018.67 1379.93 Q2028.7 1379.93 2028.7 1374.79 Q2028.7 1370.09 2016.24 1370.09 L2016.24 1366.16 Q2028.7 1366.16 2028.7 1361.46 Q2028.7 1356.32 2018.67 1356.32 Q2013.12 1356.32 2005.71 1359.63 L2005.71 1355.05 Q2013.12 1351.46 2018.56 1351.46 Q2032.31 1351.46 2032.31 1361.07 Q2032.31 1367.36 2025.39 1368.13 Q2032.31 1369.08 2032.31 1375.19 Z" fill="#000000" fill-rule="evenodd" fill-opacity="1" /><path clip-path="url(#clip920)" d="M2039.51 1324.05 L2042.82 1324.05 L2042.82 1348.68 L2039.51 1348.68 L2039.51 1324.05 Z" fill="#000000" fill-rule="evenodd" fill-opacity="1" /><path clip-path="url(#clip920)" d="M2027.7 1318.64 L2027.7 1311 L2001.34 1311 L2003 1319.31 L1998.74 1319.31 L1997.08 1311.04 L1997.08 1306.37 L2027.7 1306.37 L2027.7 1298.73 L2031.64 1298.73 L2031.64 1318.64 L2027.7 1318.64 Z" fill="#000000" fill-rule="evenodd" fill-opacity="1" /><path clip-path="url(#clip920)" d="M2015.23 1279.29 Q2015.23 1282.62 2017.01 1284.54 Q2018.79 1286.44 2021.92 1286.44 Q2025.04 1286.44 2026.82 1284.54 Q2028.61 1282.62 2028.61 1279.29 Q2028.61 1275.95 2026.82 1274.03 Q2025.02 1272.11 2021.92 1272.11 Q2018.79 1272.11 2017.01 1274.03 Q2015.23 1275.93 2015.23 1279.29 M2013.24 1283.96 Q2012.49 1286.97 2010.43 1288.66 Q2008.37 1290.33 2005.41 1290.33 Q2001.27 1290.33 1998.86 1287.39 Q1996.45 1284.42 1996.45 1279.29 Q1996.45 1274.12 1998.86 1271.18 Q2001.27 1268.24 2005.41 1268.24 Q2008.37 1268.24 2010.43 1269.93 Q2012.49 1271.6 2013.24 1274.59 Q2014.02 1271.21 2016.31 1269.33 Q2018.61 1267.43 2021.92 1267.43 Q2026.94 1267.43 2029.62 1270.51 Q2032.31 1273.57 2032.31 1279.29 Q2032.31 1285 2029.62 1288.08 Q2026.94 1291.14 2021.92 1291.14 Q2018.61 1291.14 2016.31 1289.24 Q2014.02 1287.34 2013.24 1283.96 M2005.85 1285.67 Q2008.54 1285.67 2010.04 1284.01 Q2011.55 1282.32 2011.55 1279.29 Q2011.55 1276.28 2010.04 1274.59 Q2008.54 1272.87 2005.85 1272.87 Q2003.17 1272.87 2001.66 1274.59 Q2000.16 1276.28 2000.16 1279.29 Q2000.16 1282.32 2001.66 1284.01 Q2003.17 1285.67 2005.85 1285.67 Z" fill="#000000" fill-rule="evenodd" fill-opacity="1" /><path clip-path="url(#clip920)" d="M2000.16 1249.12 Q2000.16 1252.73 2003.72 1254.56 Q2007.26 1256.37 2014.39 1256.37 Q2021.5 1256.37 2025.06 1254.56 Q2028.61 1252.73 2028.61 1249.12 Q2028.61 1245.49 2025.06 1243.68 Q2021.5 1241.85 2014.39 1241.85 Q2007.26 1241.85 2003.72 1243.68 Q2000.16 1245.49 2000.16 1249.12 M1996.45 1249.12 Q1996.45 1243.31 2001.06 1240.26 Q2005.64 1237.18 2014.39 1237.18 Q2023.12 1237.18 2027.73 1240.26 Q2032.31 1243.31 2032.31 1249.12 Q2032.31 1254.93 2027.73 1258.01 Q2023.12 1261.07 2014.39 1261.07 Q2005.64 1261.07 2001.06 1258.01 Q1996.45 1254.93 1996.45 1249.12 Z" fill="#000000" fill-rule="evenodd" fill-opacity="1" /><path clip-path="url(#clip920)" d="M2285.38 1541.46 L2285.38 1521.23 L2289.27 1521.23 L2307.9 1537.25 L2307.9 1521.23 L2311.31 1521.23 L2311.31 1542.04 L2307.42 1542.04 L2288.78 1526.02 L2288.78 1541.46 L2285.38 1541.46 Z" fill="#000000" fill-rule="evenodd" fill-opacity="1" /><path clip-path="url(#clip920)" d="M2311.31 1505.63 L2276.75 1518.82 L2276.75 1513.94 L2305.84 1502.99 L2276.75 1492.02 L2276.75 1487.15 L2311.31 1500.33 L2311.31 1505.63 Z" fill="#000000" fill-rule="evenodd" fill-opacity="1" /><path clip-path="url(#clip920)" d="M2281.35 1473.59 L2298.55 1479.93 L2298.55 1467.22 L2281.35 1473.59 M2276.75 1476.23 L2276.75 1470.93 L2311.31 1457.76 L2311.31 1462.62 L2302.44 1465.77 L2302.44 1481.34 L2311.31 1484.49 L2311.31 1489.42 L2276.75 1476.23 Z" fill="#000000" fill-rule="evenodd" fill-opacity="1" /><path clip-path="url(#clip920)" d="M2276.75 1454.38 L2276.75 1449.35 L2289.59 1440.77 L2276.75 1432.13 L2276.75 1427.11 L2293.34 1438.22 L2311.31 1426.37 L2311.31 1431.39 L2296.61 1441.11 L2311.31 1450.9 L2311.31 1455.95 L2292.86 1443.61 L2276.75 1454.38 Z" fill="#000000" fill-rule="evenodd" fill-opacity="1" /><path clip-path="url(#clip920)" d="M2292.72 1413.36 Q2294.59 1415.46 2296.47 1416.46 Q2298.32 1417.43 2300.36 1417.43 Q2303.74 1417.43 2305.98 1414.98 Q2308.23 1412.53 2308.23 1408.82 Q2308.23 1406.62 2307.51 1404.7 Q2306.77 1402.78 2305.29 1401.09 L2292.72 1413.36 M2290.13 1410.09 L2302.16 1398.34 Q2300.1 1396.97 2297.76 1396.21 Q2295.4 1395.44 2292.76 1395.3 L2292.76 1391 Q2295.82 1391.28 2298.81 1392.48 Q2301.79 1393.68 2304.71 1395.84 L2311.31 1389.38 L2311.31 1395.21 L2307.9 1398.52 Q2309.96 1400.93 2310.98 1403.57 Q2311.98 1406.21 2311.98 1409.24 Q2311.98 1414.82 2308.81 1418.36 Q2305.61 1421.9 2300.63 1421.9 Q2297.67 1421.9 2295.08 1420.35 Q2292.46 1418.8 2290.17 1415.7 Q2288.71 1416.81 2287.28 1417.39 Q2285.82 1417.96 2284.43 1417.96 Q2280.68 1417.96 2278.41 1415.4 Q2276.12 1412.83 2276.12 1408.57 Q2276.12 1406.65 2276.54 1404.75 Q2276.95 1402.83 2277.79 1400.86 L2282 1400.86 Q2280.91 1402.87 2280.36 1404.7 Q2279.78 1406.53 2279.78 1408.1 Q2279.78 1410.53 2281.07 1412.06 Q2282.35 1413.57 2284.38 1413.57 Q2285.57 1413.57 2286.77 1412.9 Q2287.95 1412.2 2290.13 1410.09 Z" fill="#000000" fill-rule="evenodd" fill-opacity="1" /><path clip-path="url(#clip920)" d="M2311.98 1375.19 Q2311.98 1384.79 2298.23 1384.79 Q2292.79 1384.79 2285.38 1381.21 L2285.38 1376.62 Q2292.79 1379.93 2298.34 1379.93 Q2308.37 1379.93 2308.37 1374.79 Q2308.37 1370.09 2295.91 1370.09 L2295.91 1366.16 Q2308.37 1366.16 2308.37 1361.46 Q2308.37 1356.32 2298.34 1356.32 Q2292.79 1356.32 2285.38 1359.63 L2285.38 1355.05 Q2292.79 1351.46 2298.23 1351.46 Q2311.98 1351.46 2311.98 1361.07 Q2311.98 1367.36 2305.06 1368.13 Q2311.98 1369.08 2311.98 1375.19 Z" fill="#000000" fill-rule="evenodd" fill-opacity="1" /><path clip-path="url(#clip920)" d="M2319.18 1324.05 L2322.49 1324.05 L2322.49 1348.68 L2319.18 1348.68 L2319.18 1324.05 Z" fill="#000000" fill-rule="evenodd" fill-opacity="1" /><path clip-path="url(#clip920)" d="M2307.37 1315.42 L2307.37 1299.1 L2311.31 1299.1 L2311.31 1321.04 L2307.37 1321.04 Q2304.62 1318.38 2299.99 1313.8 Q2295.33 1309.19 2293.99 1308.01 Q2291.47 1305.77 2289.73 1304.89 Q2287.97 1303.98 2286.28 1303.98 Q2283.53 1303.98 2281.79 1305.93 Q2280.06 1307.85 2280.06 1310.95 Q2280.06 1313.15 2280.82 1315.6 Q2281.58 1318.03 2283.13 1320.81 L2278.41 1320.81 Q2277.28 1317.99 2276.7 1315.53 Q2276.12 1313.08 2276.12 1311.04 Q2276.12 1305.67 2278.81 1302.48 Q2281.49 1299.28 2285.98 1299.28 Q2288.11 1299.28 2290.03 1300.1 Q2291.93 1300.88 2294.52 1302.99 Q2295.19 1303.57 2298.41 1306.67 Q2301.61 1309.77 2307.37 1315.42 Z" fill="#000000" fill-rule="evenodd" fill-opacity="1" /><path clip-path="url(#clip920)" d="M2276.75 1290.47 L2276.75 1268.24 L2278.74 1268.24 L2311.31 1280.79 L2311.31 1285.67 L2280.68 1273.87 L2280.68 1290.47 L2276.75 1290.47 Z" fill="#000000" fill-rule="evenodd" fill-opacity="1" /><path clip-path="url(#clip920)" d="M2279.82 1249.12 Q2279.82 1252.73 2283.39 1254.56 Q2286.93 1256.37 2294.06 1256.37 Q2301.17 1256.37 2304.73 1254.56 Q2308.27 1252.73 2308.27 1249.12 Q2308.27 1245.49 2304.73 1243.68 Q2301.17 1241.85 2294.06 1241.85 Q2286.93 1241.85 2283.39 1243.68 Q2279.82 1245.49 2279.82 1249.12 M2276.12 1249.12 Q2276.12 1243.31 2280.73 1240.26 Q2285.31 1237.18 2294.06 1237.18 Q2302.79 1237.18 2307.39 1240.26 Q2311.98 1243.31 2311.98 1249.12 Q2311.98 1254.93 2307.39 1258.01 Q2302.79 1261.07 2294.06 1261.07 Q2285.31 1261.07 2280.73 1258.01 Q2276.12 1254.93 2276.12 1249.12 Z" fill="#000000" fill-rule="evenodd" fill-opacity="1" /><polyline clip-path="url(#clip922)" style="stroke:#000000; stroke-linecap:round; stroke-linejoin:round; stroke-width:2; stroke-opacity:0.1; fill:none" points="
  277.621,1171.09 2352.76,1171.09 
  "/>
<polyline clip-path="url(#clip922)" style="stroke:#000000; stroke-linecap:round; stroke-linejoin:round; stroke-width:2; stroke-opacity:0.1; fill:none" points="
  277.621,897.53 2352.76,897.53 
  "/>
<polyline clip-path="url(#clip922)" style="stroke:#000000; stroke-linecap:round; stroke-linejoin:round; stroke-width:2; stroke-opacity:0.1; fill:none" points="
  277.621,623.968 2352.76,623.968 
  "/>
<polyline clip-path="url(#clip922)" style="stroke:#000000; stroke-linecap:round; stroke-linejoin:round; stroke-width:2; stroke-opacity:0.1; fill:none" points="
  277.621,350.405 2352.76,350.405 
  "/>
<polyline clip-path="url(#clip922)" style="stroke:#000000; stroke-linecap:round; stroke-linejoin:round; stroke-width:2; stroke-opacity:0.1; fill:none" points="
  277.621,76.8421 2352.76,76.8421 
  "/>
<polyline clip-path="url(#clip920)" style="stroke:#000000; stroke-linecap:round; stroke-linejoin:round; stroke-width:4; stroke-opacity:1; fill:none" points="
  277.621,1217.98 277.621,47.2441 
  "/>
<polyline clip-path="url(#clip920)" style="stroke:#000000; stroke-linecap:round; stroke-linejoin:round; stroke-width:4; stroke-opacity:1; fill:none" points="
  277.621,1171.09 296.518,1171.09 
  "/>
<polyline clip-path="url(#clip920)" style="stroke:#000000; stroke-linecap:round; stroke-linejoin:round; stroke-width:4; stroke-opacity:1; fill:none" points="
  277.621,897.53 296.518,897.53 
  "/>
<polyline clip-path="url(#clip920)" style="stroke:#000000; stroke-linecap:round; stroke-linejoin:round; stroke-width:4; stroke-opacity:1; fill:none" points="
  277.621,623.968 296.518,623.968 
  "/>
<polyline clip-path="url(#clip920)" style="stroke:#000000; stroke-linecap:round; stroke-linejoin:round; stroke-width:4; stroke-opacity:1; fill:none" points="
  277.621,350.405 296.518,350.405 
  "/>
<polyline clip-path="url(#clip920)" style="stroke:#000000; stroke-linecap:round; stroke-linejoin:round; stroke-width:4; stroke-opacity:1; fill:none" points="
  277.621,76.8421 296.518,76.8421 
  "/>
<path clip-path="url(#clip920)" d="M114.931 1184.44 L122.57 1184.44 L122.57 1158.07 L114.26 1159.74 L114.26 1155.48 L122.524 1153.81 L127.2 1153.81 L127.2 1184.44 L134.839 1184.44 L134.839 1188.37 L114.931 1188.37 L114.931 1184.44 Z" fill="#000000" fill-rule="evenodd" fill-opacity="1" /><path clip-path="url(#clip920)" d="M144.283 1182.49 L149.167 1182.49 L149.167 1188.37 L144.283 1188.37 L144.283 1182.49 Z" fill="#000000" fill-rule="evenodd" fill-opacity="1" /><path clip-path="url(#clip920)" d="M159.399 1153.81 L177.755 1153.81 L177.755 1157.75 L163.681 1157.75 L163.681 1166.22 Q164.7 1165.87 165.718 1165.71 Q166.737 1165.53 167.755 1165.53 Q173.542 1165.53 176.922 1168.7 Q180.301 1171.87 180.301 1177.29 Q180.301 1182.86 176.829 1185.97 Q173.357 1189.04 167.038 1189.04 Q164.862 1189.04 162.593 1188.67 Q160.348 1188.3 157.94 1187.56 L157.94 1182.86 Q160.024 1184 162.246 1184.55 Q164.468 1185.11 166.945 1185.11 Q170.95 1185.11 173.288 1183 Q175.626 1180.9 175.626 1177.29 Q175.626 1173.67 173.288 1171.57 Q170.95 1169.46 166.945 1169.46 Q165.07 1169.46 163.195 1169.88 Q161.343 1170.29 159.399 1171.17 L159.399 1153.81 Z" fill="#000000" fill-rule="evenodd" fill-opacity="1" /><path clip-path="url(#clip920)" d="M202.362 1157.89 L190.556 1176.34 L202.362 1176.34 L202.362 1157.89 M201.135 1153.81 L207.014 1153.81 L207.014 1176.34 L211.945 1176.34 L211.945 1180.22 L207.014 1180.22 L207.014 1188.37 L202.362 1188.37 L202.362 1180.22 L186.76 1180.22 L186.76 1175.71 L201.135 1153.81 Z" fill="#000000" fill-rule="evenodd" fill-opacity="1" /><path clip-path="url(#clip920)" d="M229.676 1156.89 Q226.065 1156.89 224.236 1160.46 Q222.431 1164 222.431 1171.13 Q222.431 1178.23 224.236 1181.8 Q226.065 1185.34 229.676 1185.34 Q233.31 1185.34 235.116 1181.8 Q236.945 1178.23 236.945 1171.13 Q236.945 1164 235.116 1160.46 Q233.31 1156.89 229.676 1156.89 M229.676 1153.19 Q235.486 1153.19 238.542 1157.79 Q241.621 1162.38 241.621 1171.13 Q241.621 1179.85 238.542 1184.46 Q235.486 1189.04 229.676 1189.04 Q223.866 1189.04 220.787 1184.46 Q217.732 1179.85 217.732 1171.13 Q217.732 1162.38 220.787 1157.79 Q223.866 1153.19 229.676 1153.19 Z" fill="#000000" fill-rule="evenodd" fill-opacity="1" /><path clip-path="url(#clip920)" d="M115.927 910.875 L123.566 910.875 L123.566 884.51 L115.256 886.176 L115.256 881.917 L123.519 880.25 L128.195 880.25 L128.195 910.875 L135.834 910.875 L135.834 914.81 L115.927 914.81 L115.927 910.875 Z" fill="#000000" fill-rule="evenodd" fill-opacity="1" /><path clip-path="url(#clip920)" d="M145.279 908.931 L150.163 908.931 L150.163 914.81 L145.279 914.81 L145.279 908.931 Z" fill="#000000" fill-rule="evenodd" fill-opacity="1" /><path clip-path="url(#clip920)" d="M160.394 880.25 L178.751 880.25 L178.751 884.185 L164.677 884.185 L164.677 892.658 Q165.695 892.31 166.714 892.148 Q167.732 891.963 168.751 891.963 Q174.538 891.963 177.917 895.134 Q181.297 898.306 181.297 903.722 Q181.297 909.301 177.825 912.403 Q174.352 915.482 168.033 915.482 Q165.857 915.482 163.589 915.111 Q161.343 914.741 158.936 914 L158.936 909.301 Q161.019 910.435 163.241 910.991 Q165.464 911.546 167.94 911.546 Q171.945 911.546 174.283 909.44 Q176.621 907.333 176.621 903.722 Q176.621 900.111 174.283 898.005 Q171.945 895.898 167.94 895.898 Q166.065 895.898 164.19 896.315 Q162.339 896.732 160.394 897.611 L160.394 880.25 Z" fill="#000000" fill-rule="evenodd" fill-opacity="1" /><path clip-path="url(#clip920)" d="M203.357 884.324 L191.551 902.773 L203.357 902.773 L203.357 884.324 M202.13 880.25 L208.01 880.25 L208.01 902.773 L212.94 902.773 L212.94 906.662 L208.01 906.662 L208.01 914.81 L203.357 914.81 L203.357 906.662 L187.755 906.662 L187.755 902.148 L202.13 880.25 Z" fill="#000000" fill-rule="evenodd" fill-opacity="1" /><path clip-path="url(#clip920)" d="M220.718 880.25 L239.074 880.25 L239.074 884.185 L225 884.185 L225 892.658 Q226.019 892.31 227.037 892.148 Q228.056 891.963 229.074 891.963 Q234.861 891.963 238.241 895.134 Q241.621 898.306 241.621 903.722 Q241.621 909.301 238.148 912.403 Q234.676 915.482 228.357 915.482 Q226.181 915.482 223.912 915.111 Q221.667 914.741 219.26 914 L219.26 909.301 Q221.343 910.435 223.565 910.991 Q225.787 911.546 228.264 911.546 Q232.269 911.546 234.607 909.44 Q236.945 907.333 236.945 903.722 Q236.945 900.111 234.607 898.005 Q232.269 895.898 228.264 895.898 Q226.389 895.898 224.514 896.315 Q222.662 896.732 220.718 897.611 L220.718 880.25 Z" fill="#000000" fill-rule="evenodd" fill-opacity="1" /><path clip-path="url(#clip920)" d="M114.931 637.312 L122.57 637.312 L122.57 610.947 L114.26 612.613 L114.26 608.354 L122.524 606.688 L127.2 606.688 L127.2 637.312 L134.839 637.312 L134.839 641.248 L114.931 641.248 L114.931 637.312 Z" fill="#000000" fill-rule="evenodd" fill-opacity="1" /><path clip-path="url(#clip920)" d="M144.283 635.368 L149.167 635.368 L149.167 641.248 L144.283 641.248 L144.283 635.368 Z" fill="#000000" fill-rule="evenodd" fill-opacity="1" /><path clip-path="url(#clip920)" d="M159.399 606.688 L177.755 606.688 L177.755 610.623 L163.681 610.623 L163.681 619.095 Q164.7 618.748 165.718 618.586 Q166.737 618.4 167.755 618.4 Q173.542 618.4 176.922 621.572 Q180.301 624.743 180.301 630.16 Q180.301 635.738 176.829 638.84 Q173.357 641.919 167.038 641.919 Q164.862 641.919 162.593 641.548 Q160.348 641.178 157.94 640.437 L157.94 635.738 Q160.024 636.873 162.246 637.428 Q164.468 637.984 166.945 637.984 Q170.95 637.984 173.288 635.877 Q175.626 633.771 175.626 630.16 Q175.626 626.549 173.288 624.442 Q170.95 622.336 166.945 622.336 Q165.07 622.336 163.195 622.752 Q161.343 623.169 159.399 624.049 L159.399 606.688 Z" fill="#000000" fill-rule="evenodd" fill-opacity="1" /><path clip-path="url(#clip920)" d="M189.561 606.688 L207.917 606.688 L207.917 610.623 L193.843 610.623 L193.843 619.095 Q194.862 618.748 195.88 618.586 Q196.899 618.4 197.917 618.4 Q203.704 618.4 207.084 621.572 Q210.463 624.743 210.463 630.16 Q210.463 635.738 206.991 638.84 Q203.519 641.919 197.2 641.919 Q195.024 641.919 192.755 641.548 Q190.51 641.178 188.102 640.437 L188.102 635.738 Q190.186 636.873 192.408 637.428 Q194.63 637.984 197.107 637.984 Q201.112 637.984 203.449 635.877 Q205.787 633.771 205.787 630.16 Q205.787 626.549 203.449 624.442 Q201.112 622.336 197.107 622.336 Q195.232 622.336 193.357 622.752 Q191.505 623.169 189.561 624.049 L189.561 606.688 Z" fill="#000000" fill-rule="evenodd" fill-opacity="1" /><path clip-path="url(#clip920)" d="M229.676 609.766 Q226.065 609.766 224.236 613.331 Q222.431 616.873 222.431 624.002 Q222.431 631.109 224.236 634.674 Q226.065 638.215 229.676 638.215 Q233.31 638.215 235.116 634.674 Q236.945 631.109 236.945 624.002 Q236.945 616.873 235.116 613.331 Q233.31 609.766 229.676 609.766 M229.676 606.063 Q235.486 606.063 238.542 610.669 Q241.621 615.252 241.621 624.002 Q241.621 632.729 238.542 637.336 Q235.486 641.919 229.676 641.919 Q223.866 641.919 220.787 637.336 Q217.732 632.729 217.732 624.002 Q217.732 615.252 220.787 610.669 Q223.866 606.063 229.676 606.063 Z" fill="#000000" fill-rule="evenodd" fill-opacity="1" /><path clip-path="url(#clip920)" d="M115.927 363.75 L123.566 363.75 L123.566 337.384 L115.256 339.051 L115.256 334.791 L123.519 333.125 L128.195 333.125 L128.195 363.75 L135.834 363.75 L135.834 367.685 L115.927 367.685 L115.927 363.75 Z" fill="#000000" fill-rule="evenodd" fill-opacity="1" /><path clip-path="url(#clip920)" d="M145.279 361.805 L150.163 361.805 L150.163 367.685 L145.279 367.685 L145.279 361.805 Z" fill="#000000" fill-rule="evenodd" fill-opacity="1" /><path clip-path="url(#clip920)" d="M160.394 333.125 L178.751 333.125 L178.751 337.06 L164.677 337.06 L164.677 345.532 Q165.695 345.185 166.714 345.023 Q167.732 344.838 168.751 344.838 Q174.538 344.838 177.917 348.009 Q181.297 351.18 181.297 356.597 Q181.297 362.176 177.825 365.277 Q174.352 368.356 168.033 368.356 Q165.857 368.356 163.589 367.986 Q161.343 367.615 158.936 366.875 L158.936 362.176 Q161.019 363.31 163.241 363.865 Q165.464 364.421 167.94 364.421 Q171.945 364.421 174.283 362.314 Q176.621 360.208 176.621 356.597 Q176.621 352.986 174.283 350.879 Q171.945 348.773 167.94 348.773 Q166.065 348.773 164.19 349.19 Q162.339 349.606 160.394 350.486 L160.394 333.125 Z" fill="#000000" fill-rule="evenodd" fill-opacity="1" /><path clip-path="url(#clip920)" d="M190.556 333.125 L208.912 333.125 L208.912 337.06 L194.838 337.06 L194.838 345.532 Q195.857 345.185 196.875 345.023 Q197.894 344.838 198.912 344.838 Q204.699 344.838 208.079 348.009 Q211.459 351.18 211.459 356.597 Q211.459 362.176 207.987 365.277 Q204.514 368.356 198.195 368.356 Q196.019 368.356 193.75 367.986 Q191.505 367.615 189.098 366.875 L189.098 362.176 Q191.181 363.31 193.403 363.865 Q195.625 364.421 198.102 364.421 Q202.107 364.421 204.445 362.314 Q206.783 360.208 206.783 356.597 Q206.783 352.986 204.445 350.879 Q202.107 348.773 198.102 348.773 Q196.227 348.773 194.352 349.19 Q192.5 349.606 190.556 350.486 L190.556 333.125 Z" fill="#000000" fill-rule="evenodd" fill-opacity="1" /><path clip-path="url(#clip920)" d="M220.718 333.125 L239.074 333.125 L239.074 337.06 L225 337.06 L225 345.532 Q226.019 345.185 227.037 345.023 Q228.056 344.838 229.074 344.838 Q234.861 344.838 238.241 348.009 Q241.621 351.18 241.621 356.597 Q241.621 362.176 238.148 365.277 Q234.676 368.356 228.357 368.356 Q226.181 368.356 223.912 367.986 Q221.667 367.615 219.26 366.875 L219.26 362.176 Q221.343 363.31 223.565 363.865 Q225.787 364.421 228.264 364.421 Q232.269 364.421 234.607 362.314 Q236.945 360.208 236.945 356.597 Q236.945 352.986 234.607 350.879 Q232.269 348.773 228.264 348.773 Q226.389 348.773 224.514 349.19 Q222.662 349.606 220.718 350.486 L220.718 333.125 Z" fill="#000000" fill-rule="evenodd" fill-opacity="1" /><path clip-path="url(#clip920)" d="M114.931 90.1869 L122.57 90.1869 L122.57 63.8213 L114.26 65.488 L114.26 61.2287 L122.524 59.5621 L127.2 59.5621 L127.2 90.1869 L134.839 90.1869 L134.839 94.1221 L114.931 94.1221 L114.931 90.1869 Z" fill="#000000" fill-rule="evenodd" fill-opacity="1" /><path clip-path="url(#clip920)" d="M144.283 88.2425 L149.167 88.2425 L149.167 94.1221 L144.283 94.1221 L144.283 88.2425 Z" fill="#000000" fill-rule="evenodd" fill-opacity="1" /><path clip-path="url(#clip920)" d="M159.399 59.5621 L177.755 59.5621 L177.755 63.4972 L163.681 63.4972 L163.681 71.9694 Q164.7 71.6222 165.718 71.4602 Q166.737 71.275 167.755 71.275 Q173.542 71.275 176.922 74.4462 Q180.301 77.6175 180.301 83.0342 Q180.301 88.6128 176.829 91.7147 Q173.357 94.7934 167.038 94.7934 Q164.862 94.7934 162.593 94.423 Q160.348 94.0526 157.94 93.3119 L157.94 88.6128 Q160.024 89.7471 162.246 90.3026 Q164.468 90.8582 166.945 90.8582 Q170.95 90.8582 173.288 88.7517 Q175.626 86.6453 175.626 83.0342 Q175.626 79.4231 173.288 77.3166 Q170.95 75.2101 166.945 75.2101 Q165.07 75.2101 163.195 75.6268 Q161.343 76.0435 159.399 76.9231 L159.399 59.5621 Z" fill="#000000" fill-rule="evenodd" fill-opacity="1" /><path clip-path="url(#clip920)" d="M200.093 74.9787 Q196.945 74.9787 195.093 77.1314 Q193.264 79.2842 193.264 83.0342 Q193.264 86.761 195.093 88.9369 Q196.945 91.0897 200.093 91.0897 Q203.241 91.0897 205.07 88.9369 Q206.922 86.761 206.922 83.0342 Q206.922 79.2842 205.07 77.1314 Q203.241 74.9787 200.093 74.9787 M209.375 60.326 L209.375 64.5852 Q207.616 63.7519 205.811 63.312 Q204.028 62.8722 202.269 62.8722 Q197.639 62.8722 195.186 65.9972 Q192.755 69.1222 192.408 75.4416 Q193.774 73.4277 195.834 72.3629 Q197.894 71.275 200.371 71.275 Q205.579 71.275 208.588 74.4462 Q211.621 77.5944 211.621 83.0342 Q211.621 88.3582 208.473 91.5758 Q205.324 94.7934 200.093 94.7934 Q194.098 94.7934 190.926 90.2101 Q187.755 85.6036 187.755 76.8768 Q187.755 68.6824 191.644 63.8213 Q195.533 58.9371 202.084 58.9371 Q203.843 58.9371 205.625 59.2843 Q207.431 59.6315 209.375 60.326 Z" fill="#000000" fill-rule="evenodd" fill-opacity="1" /><path clip-path="url(#clip920)" d="M229.676 62.6408 Q226.065 62.6408 224.236 66.2056 Q222.431 69.7472 222.431 76.8768 Q222.431 83.9832 224.236 87.548 Q226.065 91.0897 229.676 91.0897 Q233.31 91.0897 235.116 87.548 Q236.945 83.9832 236.945 76.8768 Q236.945 69.7472 235.116 66.2056 Q233.31 62.6408 229.676 62.6408 M229.676 58.9371 Q235.486 58.9371 238.542 63.5435 Q241.621 68.1268 241.621 76.8768 Q241.621 85.6036 238.542 90.2101 Q235.486 94.7934 229.676 94.7934 Q223.866 94.7934 220.787 90.2101 Q217.732 85.6036 217.732 76.8768 Q217.732 68.1268 220.787 63.5435 Q223.866 58.9371 229.676 58.9371 Z" fill="#000000" fill-rule="evenodd" fill-opacity="1" /><path clip-path="url(#clip920)" d="M21.7677 880.81 L58.7206 880.81 L58.7206 873.044 Q58.7206 863.209 54.2646 858.658 Q49.8086 854.074 40.1964 854.074 Q30.6479 854.074 26.2237 858.658 Q21.7677 863.209 21.7677 873.044 L21.7677 880.81 M16.4842 887.24 L16.4842 874.031 Q16.4842 860.217 22.2451 853.756 Q27.9743 847.295 40.1964 847.295 Q52.4822 847.295 58.2432 853.788 Q64.0042 860.281 64.0042 874.031 L64.0042 887.24 L16.4842 887.24 Z" fill="#000000" fill-rule="evenodd" fill-opacity="1" /><path clip-path="url(#clip920)" d="M49.9359 837.905 L28.3562 837.905 L28.3562 832.049 L49.7131 832.049 Q54.7739 832.049 57.3202 830.076 Q59.8346 828.102 59.8346 824.156 Q59.8346 819.413 56.8109 816.676 Q53.7872 813.907 48.5673 813.907 L28.3562 813.907 L28.3562 808.05 L64.0042 808.05 L64.0042 813.907 L58.5296 813.907 Q61.7762 816.039 63.3676 818.872 Q64.9272 821.673 64.9272 825.397 Q64.9272 831.54 61.1078 834.723 Q57.2883 837.905 49.9359 837.905 M27.4968 823.169 L27.4968 823.169 Z" fill="#000000" fill-rule="evenodd" fill-opacity="1" /><path clip-path="url(#clip920)" d="M29.4065 773.262 L34.9447 773.262 Q33.6716 775.744 33.035 778.418 Q32.3984 781.092 32.3984 783.956 Q32.3984 788.317 33.7352 790.513 Q35.072 792.677 37.7456 792.677 Q39.7826 792.677 40.9603 791.118 Q42.1061 789.558 43.1565 784.847 L43.6021 782.842 Q44.9389 776.604 47.3897 773.994 Q49.8086 771.352 54.1691 771.352 Q59.1344 771.352 62.0308 775.299 Q64.9272 779.214 64.9272 786.089 Q64.9272 788.953 64.3543 792.072 Q63.8132 795.16 62.6992 798.597 L56.6518 798.597 Q58.3387 795.351 59.198 792.2 Q60.0256 789.049 60.0256 785.961 Q60.0256 781.824 58.6251 779.596 Q57.1929 777.368 54.6147 777.368 Q52.2276 777.368 50.9545 778.991 Q49.6813 780.582 48.5037 786.025 L48.0262 788.062 Q46.8804 793.505 44.5251 795.924 Q42.138 798.343 38.0002 798.343 Q32.9713 798.343 30.2341 794.778 Q27.4968 791.213 27.4968 784.656 Q27.4968 781.41 27.9743 778.545 Q28.4517 775.681 29.4065 773.262 Z" fill="#000000" fill-rule="evenodd" fill-opacity="1" /><path clip-path="url(#clip920)" d="M18.2347 756.233 L28.3562 756.233 L28.3562 744.17 L32.9077 744.17 L32.9077 756.233 L52.2594 756.233 Q56.6199 756.233 57.8613 755.056 Q59.1026 753.846 59.1026 750.186 L59.1026 744.17 L64.0042 744.17 L64.0042 750.186 Q64.0042 756.966 61.4897 759.544 Q58.9434 762.122 52.2594 762.122 L32.9077 762.122 L32.9077 766.419 L28.3562 766.419 L28.3562 762.122 L18.2347 762.122 L18.2347 756.233 Z" fill="#000000" fill-rule="evenodd" fill-opacity="1" /><path clip-path="url(#clip920)" d="M46.212 690.157 Q39.7508 690.157 36.0905 692.831 Q32.3984 695.473 32.3984 700.12 Q32.3984 704.767 36.0905 707.44 Q39.7508 710.082 46.212 710.082 Q52.6732 710.082 56.3653 707.44 Q60.0256 704.767 60.0256 700.12 Q60.0256 695.473 56.3653 692.831 Q52.6732 690.157 46.212 690.157 M33.7671 710.082 Q30.5842 708.236 29.0564 705.435 Q27.4968 702.602 27.4968 698.687 Q27.4968 692.194 32.6531 688.152 Q37.8093 684.078 46.212 684.078 Q54.6147 684.078 59.771 688.152 Q64.9272 692.194 64.9272 698.687 Q64.9272 702.602 63.3994 705.435 Q61.8398 708.236 58.657 710.082 L64.0042 710.082 L64.0042 715.97 L14.479 715.97 L14.479 710.082 L33.7671 710.082 Z" fill="#000000" fill-rule="evenodd" fill-opacity="1" /><path clip-path="url(#clip920)" d="M44.7161 643.879 L47.5806 643.879 L47.5806 670.806 Q53.6281 670.424 56.8109 667.177 Q59.9619 663.899 59.9619 658.074 Q59.9619 654.7 59.1344 651.549 Q58.3069 648.367 56.6518 645.247 L62.1899 645.247 Q63.5267 648.398 64.227 651.709 Q64.9272 655.019 64.9272 658.424 Q64.9272 666.954 59.9619 671.952 Q54.9967 676.917 46.5303 676.917 Q37.7774 676.917 32.6531 672.206 Q27.4968 667.464 27.4968 659.443 Q27.4968 652.25 32.1438 648.08 Q36.7589 643.879 44.7161 643.879 M42.9973 649.735 Q38.1912 649.799 35.3266 652.441 Q32.4621 655.051 32.4621 659.379 Q32.4621 664.281 35.2312 667.241 Q38.0002 670.169 43.0292 670.615 L42.9973 649.735 Z" fill="#000000" fill-rule="evenodd" fill-opacity="1" /><path clip-path="url(#clip920)" d="M18.2347 628.474 L28.3562 628.474 L28.3562 616.411 L32.9077 616.411 L32.9077 628.474 L52.2594 628.474 Q56.6199 628.474 57.8613 627.296 Q59.1026 626.087 59.1026 622.426 L59.1026 616.411 L64.0042 616.411 L64.0042 622.426 Q64.0042 629.206 61.4897 631.784 Q58.9434 634.362 52.2594 634.362 L32.9077 634.362 L32.9077 638.659 L28.3562 638.659 L28.3562 634.362 L18.2347 634.362 L18.2347 628.474 Z" fill="#000000" fill-rule="evenodd" fill-opacity="1" /><path clip-path="url(#clip920)" d="M46.0847 592.507 Q46.0847 599.605 47.7079 602.343 Q49.3312 605.08 53.2461 605.08 Q56.3653 605.08 58.2114 603.043 Q60.0256 600.974 60.0256 597.441 Q60.0256 592.571 56.5881 589.643 Q53.1188 586.683 47.3897 586.683 L46.0847 586.683 L46.0847 592.507 M43.6657 580.826 L64.0042 580.826 L64.0042 586.683 L58.5933 586.683 Q61.8398 588.688 63.3994 591.68 Q64.9272 594.672 64.9272 599.001 Q64.9272 604.475 61.8716 607.722 Q58.7843 610.936 53.6281 610.936 Q47.6125 610.936 44.5569 606.926 Q41.5014 602.884 41.5014 594.895 L41.5014 586.683 L40.9285 586.683 Q36.8862 586.683 34.6901 589.356 Q32.4621 591.998 32.4621 596.804 Q32.4621 599.86 33.1941 602.756 Q33.9262 605.653 35.3903 608.326 L29.9795 608.326 Q28.7381 605.112 28.1334 602.088 Q27.4968 599.064 27.4968 596.2 Q27.4968 588.465 31.5072 584.646 Q35.5176 580.826 43.6657 580.826 Z" fill="#000000" fill-rule="evenodd" fill-opacity="1" /><path clip-path="url(#clip920)" d="M28.3562 548.043 L28.3562 542.187 L64.0042 542.187 L64.0042 548.043 L28.3562 548.043 M14.479 548.043 L14.479 542.187 L21.895 542.187 L21.895 548.043 L14.479 548.043 Z" fill="#000000" fill-rule="evenodd" fill-opacity="1" /><path clip-path="url(#clip920)" d="M42.4881 500.3 L64.0042 500.3 L64.0042 506.157 L42.679 506.157 Q37.6183 506.157 35.1038 508.13 Q32.5894 510.103 32.5894 514.05 Q32.5894 518.793 35.6131 521.53 Q38.6368 524.267 43.8567 524.267 L64.0042 524.267 L64.0042 530.155 L28.3562 530.155 L28.3562 524.267 L33.8944 524.267 Q30.6797 522.166 29.0883 519.334 Q27.4968 516.469 27.4968 512.745 Q27.4968 506.602 31.3163 503.451 Q35.1038 500.3 42.4881 500.3 Z" fill="#000000" fill-rule="evenodd" fill-opacity="1" /><path clip-path="url(#clip920)" d="M33.7671 465.162 L14.479 465.162 L14.479 459.305 L64.0042 459.305 L64.0042 465.162 L58.657 465.162 Q61.8398 467.008 63.3994 469.84 Q64.9272 472.641 64.9272 476.588 Q64.9272 483.049 59.771 487.123 Q54.6147 491.165 46.212 491.165 Q37.8093 491.165 32.6531 487.123 Q27.4968 483.049 27.4968 476.588 Q27.4968 472.641 29.0564 469.84 Q30.5842 467.008 33.7671 465.162 M46.212 485.118 Q52.6732 485.118 56.3653 482.476 Q60.0256 479.803 60.0256 475.156 Q60.0256 470.509 56.3653 467.835 Q52.6732 465.162 46.212 465.162 Q39.7508 465.162 36.0905 467.835 Q32.3984 470.509 32.3984 475.156 Q32.3984 479.803 36.0905 482.476 Q39.7508 485.118 46.212 485.118 Z" fill="#000000" fill-rule="evenodd" fill-opacity="1" /><path clip-path="url(#clip920)" d="M44.7161 416.75 L47.5806 416.75 L47.5806 443.677 Q53.6281 443.295 56.8109 440.049 Q59.9619 436.77 59.9619 430.946 Q59.9619 427.572 59.1344 424.421 Q58.3069 421.238 56.6518 418.119 L62.1899 418.119 Q63.5267 421.27 64.227 424.58 Q64.9272 427.89 64.9272 431.296 Q64.9272 439.826 59.9619 444.823 Q54.9967 449.788 46.5303 449.788 Q37.7774 449.788 32.6531 445.078 Q27.4968 440.335 27.4968 432.314 Q27.4968 425.121 32.1438 420.952 Q36.7589 416.75 44.7161 416.75 M42.9973 422.607 Q38.1912 422.67 35.3266 425.312 Q32.4621 427.922 32.4621 432.251 Q32.4621 437.152 35.2312 440.112 Q38.0002 443.041 43.0292 443.486 L42.9973 422.607 Z" fill="#000000" fill-rule="evenodd" fill-opacity="1" /><path clip-path="url(#clip920)" d="M28.3562 378.652 L45.7028 391.542 L64.0042 377.983 L64.0042 384.89 L49.9996 395.266 L64.0042 405.642 L64.0042 412.549 L45.3526 398.704 L28.3562 411.371 L28.3562 404.465 L41.0558 395.011 L28.3562 385.558 L28.3562 378.652 Z" fill="#000000" fill-rule="evenodd" fill-opacity="1" /><polyline clip-path="url(#clip922)" style="stroke:#000000; stroke-linecap:round; stroke-linejoin:round; stroke-width:4; stroke-opacity:1; fill:none" points="
  336.351,1179.22 336.351,80.8633 
  "/>
<line clip-path="url(#clip922)" x1="352.351" y1="1179.22" x2="320.351" y2="1179.22" style="stroke:#000000; stroke-width:3.2; stroke-opacity:1"/>
<line clip-path="url(#clip922)" x1="352.351" y1="80.8633" x2="320.351" y2="80.8633" style="stroke:#000000; stroke-width:3.2; stroke-opacity:1"/>
<circle clip-path="url(#clip922)" cx="336.351" cy="630.042" r="14.4" fill="#009af9" fill-rule="evenodd" fill-opacity="1" stroke="#000000" stroke-opacity="1" stroke-width="3.2"/>
<polyline clip-path="url(#clip922)" style="stroke:#000000; stroke-linecap:round; stroke-linejoin:round; stroke-width:4; stroke-opacity:1; fill:none" points="
  616.019,1184.84 616.019,86.4402 
  "/>
<line clip-path="url(#clip922)" x1="632.019" y1="1184.84" x2="600.019" y2="1184.84" style="stroke:#000000; stroke-width:3.2; stroke-opacity:1"/>
<line clip-path="url(#clip922)" x1="632.019" y1="86.4402" x2="600.019" y2="86.4402" style="stroke:#000000; stroke-width:3.2; stroke-opacity:1"/>
<circle clip-path="url(#clip922)" cx="616.019" cy="635.643" r="14.4" fill="#e26f46" fill-rule="evenodd" fill-opacity="1" stroke="#000000" stroke-opacity="1" stroke-width="3.2"/>
<polyline clip-path="url(#clip922)" style="stroke:#000000; stroke-linecap:round; stroke-linejoin:round; stroke-width:4; stroke-opacity:1; fill:none" points="
  895.686,1179.46 895.686,81.1036 
  "/>
<line clip-path="url(#clip922)" x1="911.686" y1="1179.46" x2="879.686" y2="1179.46" style="stroke:#000000; stroke-width:3.2; stroke-opacity:1"/>
<line clip-path="url(#clip922)" x1="911.686" y1="81.1036" x2="879.686" y2="81.1036" style="stroke:#000000; stroke-width:3.2; stroke-opacity:1"/>
<circle clip-path="url(#clip922)" cx="895.686" cy="630.283" r="14.4" fill="#3da44d" fill-rule="evenodd" fill-opacity="1" stroke="#000000" stroke-opacity="1" stroke-width="3.2"/>
<polyline clip-path="url(#clip922)" style="stroke:#000000; stroke-linecap:round; stroke-linejoin:round; stroke-width:4; stroke-opacity:1; fill:none" points="
  1175.35,1178.73 1175.35,80.3781 
  "/>
<line clip-path="url(#clip922)" x1="1191.35" y1="1178.73" x2="1159.35" y2="1178.73" style="stroke:#000000; stroke-width:3.2; stroke-opacity:1"/>
<line clip-path="url(#clip922)" x1="1191.35" y1="80.3781" x2="1159.35" y2="80.3781" style="stroke:#000000; stroke-width:3.2; stroke-opacity:1"/>
<circle clip-path="url(#clip922)" cx="1175.35" cy="629.554" r="14.4" fill="#c271d2" fill-rule="evenodd" fill-opacity="1" stroke="#000000" stroke-opacity="1" stroke-width="3.2"/>
<polyline clip-path="url(#clip922)" style="stroke:#000000; stroke-linecap:round; stroke-linejoin:round; stroke-width:4; stroke-opacity:1; fill:none" points="
  1455.02,1179.22 1455.02,80.8667 
  "/>
<line clip-path="url(#clip922)" x1="1471.02" y1="1179.22" x2="1439.02" y2="1179.22" style="stroke:#000000; stroke-width:3.2; stroke-opacity:1"/>
<line clip-path="url(#clip922)" x1="1471.02" y1="80.8667" x2="1439.02" y2="80.8667" style="stroke:#000000; stroke-width:3.2; stroke-opacity:1"/>
<circle clip-path="url(#clip922)" cx="1455.02" cy="630.045" r="14.4" fill="#ac8d18" fill-rule="evenodd" fill-opacity="1" stroke="#000000" stroke-opacity="1" stroke-width="3.2"/>
<polyline clip-path="url(#clip922)" style="stroke:#000000; stroke-linecap:round; stroke-linejoin:round; stroke-width:4; stroke-opacity:1; fill:none" points="
  1734.69,1179.24 1734.69,80.8836 
  "/>
<line clip-path="url(#clip922)" x1="1750.69" y1="1179.24" x2="1718.69" y2="1179.24" style="stroke:#000000; stroke-width:3.2; stroke-opacity:1"/>
<line clip-path="url(#clip922)" x1="1750.69" y1="80.8836" x2="1718.69" y2="80.8836" style="stroke:#000000; stroke-width:3.2; stroke-opacity:1"/>
<circle clip-path="url(#clip922)" cx="1734.69" cy="630.062" r="14.4" fill="#00a9ad" fill-rule="evenodd" fill-opacity="1" stroke="#000000" stroke-opacity="1" stroke-width="3.2"/>
<polyline clip-path="url(#clip922)" style="stroke:#000000; stroke-linecap:round; stroke-linejoin:round; stroke-width:4; stroke-opacity:1; fill:none" points="
  2014.36,1179.22 2014.36,80.8603 
  "/>
<line clip-path="url(#clip922)" x1="2030.36" y1="1179.22" x2="1998.36" y2="1179.22" style="stroke:#000000; stroke-width:3.2; stroke-opacity:1"/>
<line clip-path="url(#clip922)" x1="2030.36" y1="80.8603" x2="1998.36" y2="80.8603" style="stroke:#000000; stroke-width:3.2; stroke-opacity:1"/>
<circle clip-path="url(#clip922)" cx="2014.36" cy="630.038" r="14.4" fill="#ed5d92" fill-rule="evenodd" fill-opacity="1" stroke="#000000" stroke-opacity="1" stroke-width="3.2"/>
<polyline clip-path="url(#clip922)" style="stroke:#000000; stroke-linecap:round; stroke-linejoin:round; stroke-width:4; stroke-opacity:1; fill:none" points="
  2294.03,1179.22 2294.03,80.8655 
  "/>
<line clip-path="url(#clip922)" x1="2310.03" y1="1179.22" x2="2278.03" y2="1179.22" style="stroke:#000000; stroke-width:3.2; stroke-opacity:1"/>
<line clip-path="url(#clip922)" x1="2310.03" y1="80.8655" x2="2278.03" y2="80.8655" style="stroke:#000000; stroke-width:3.2; stroke-opacity:1"/>
<circle clip-path="url(#clip922)" cx="2294.03" cy="630.044" r="14.4" fill="#c68125" fill-rule="evenodd" fill-opacity="1" stroke="#000000" stroke-opacity="1" stroke-width="3.2"/>
</svg>
