<?xml version="1.0" encoding="utf-8"?>
<svg xmlns="http://www.w3.org/2000/svg" xmlns:xlink="http://www.w3.org/1999/xlink" width="600" height="400" viewBox="0 0 2400 1600">
<defs>
  <clipPath id="clip960">
    <rect x="0" y="0" width="2400" height="1600"/>
  </clipPath>
</defs>
<path clip-path="url(#clip960)" d="
M0 1600 L2400 1600 L2400 0 L0 0  Z
  " fill="#ffffff" fill-rule="evenodd" fill-opacity="1"/>
<defs>
  <clipPath id="clip961">
    <rect x="480" y="0" width="1681" height="1600"/>
  </clipPath>
</defs>
<path clip-path="url(#clip960)" d="
M249.195 1217.98 L2352.76 1217.98 L2352.76 47.2441 L249.195 47.2441  Z
  " fill="#ffffff" fill-rule="evenodd" fill-opacity="1"/>
<defs>
  <clipPath id="clip962">
    <rect x="249" y="47" width="2105" height="1172"/>
  </clipPath>
</defs>
<polyline clip-path="url(#clip962)" style="stroke:#000000; stroke-linecap:round; stroke-linejoin:round; stroke-width:2; stroke-opacity:0.1; fill:none" points="
  308.73,1217.98 308.73,47.2441 
  "/>
<polyline clip-path="url(#clip962)" style="stroke:#000000; stroke-linecap:round; stroke-linejoin:round; stroke-width:2; stroke-opacity:0.1; fill:none" points="
  592.228,1217.98 592.228,47.2441 
  "/>
<polyline clip-path="url(#clip962)" style="stroke:#000000; stroke-linecap:round; stroke-linejoin:round; stroke-width:2; stroke-opacity:0.1; fill:none" points="
  875.727,1217.98 875.727,47.2441 
  "/>
<polyline clip-path="url(#clip962)" style="stroke:#000000; stroke-linecap:round; stroke-linejoin:round; stroke-width:2; stroke-opacity:0.1; fill:none" points="
  1159.23,1217.98 1159.23,47.2441 
  "/>
<polyline clip-path="url(#clip962)" style="stroke:#000000; stroke-linecap:round; stroke-linejoin:round; stroke-width:2; stroke-opacity:0.1; fill:none" points="
  1442.72,1217.98 1442.72,47.2441 
  "/>
<polyline clip-path="url(#clip962)" style="stroke:#000000; stroke-linecap:round; stroke-linejoin:round; stroke-width:2; stroke-opacity:0.1; fill:none" points="
  1726.22,1217.98 1726.22,47.2441 
  "/>
<polyline clip-path="url(#clip962)" style="stroke:#000000; stroke-linecap:round; stroke-linejoin:round; stroke-width:2; stroke-opacity:0.1; fill:none" points="
  2009.72,1217.98 2009.72,47.2441 
  "/>
<polyline clip-path="url(#clip962)" style="stroke:#000000; stroke-linecap:round; stroke-linejoin:round; stroke-width:2; stroke-opacity:0.1; fill:none" points="
  2293.22,1217.98 2293.22,47.2441 
  "/>
<polyline clip-path="url(#clip960)" style="stroke:#000000; stroke-linecap:round; stroke-linejoin:round; stroke-width:4; stroke-opacity:1; fill:none" points="
  249.195,1217.98 2352.76,1217.98 
  "/>
<polyline clip-path="url(#clip960)" style="stroke:#000000; stroke-linecap:round; stroke-linejoin:round; stroke-width:4; stroke-opacity:1; fill:none" points="
  308.73,1217.98 308.73,1199.08 
  "/>
<polyline clip-path="url(#clip960)" style="stroke:#000000; stroke-linecap:round; stroke-linejoin:round; stroke-width:4; stroke-opacity:1; fill:none" points="
  592.228,1217.98 592.228,1199.08 
  "/>
<polyline clip-path="url(#clip960)" style="stroke:#000000; stroke-linecap:round; stroke-linejoin:round; stroke-width:4; stroke-opacity:1; fill:none" points="
  875.727,1217.98 875.727,1199.08 
  "/>
<polyline clip-path="url(#clip960)" style="stroke:#000000; stroke-linecap:round; stroke-linejoin:round; stroke-width:4; stroke-opacity:1; fill:none" points="
  1159.23,1217.98 1159.23,1199.08 
  "/>
<polyline clip-path="url(#clip960)" style="stroke:#000000; stroke-linecap:round; stroke-linejoin:round; stroke-width:4; stroke-opacity:1; fill:none" points="
  1442.72,1217.98 1442.72,1199.08 
  "/>
<polyline clip-path="url(#clip960)" style="stroke:#000000; stroke-linecap:round; stroke-linejoin:round; stroke-width:4; stroke-opacity:1; fill:none" points="
  1726.22,1217.98 1726.22,1199.08 
  "/>
<polyline clip-path="url(#clip960)" style="stroke:#000000; stroke-linecap:round; stroke-linejoin:round; stroke-width:4; stroke-opacity:1; fill:none" points="
  2009.72,1217.98 2009.72,1199.08 
  "/>
<polyline clip-path="url(#clip960)" style="stroke:#000000; stroke-linecap:round; stroke-linejoin:round; stroke-width:4; stroke-opacity:1; fill:none" points="
  2293.22,1217.98 2293.22,1199.08 
  "/>
<path clip-path="url(#clip960)" d="M300.084 1342.92 L300.084 1338.66 L326.01 1338.66 L326.01 1342.92 L300.084 1342.92 M289.991 1342.92 L289.991 1338.66 L295.385 1338.66 L295.385 1342.92 L289.991 1342.92 Z" fill="#000000" fill-rule="evenodd" fill-opacity="1" /><path clip-path="url(#clip960)" d="M304.019 1312.69 L289.991 1312.69 L289.991 1308.43 L326.01 1308.43 L326.01 1312.69 L322.121 1312.69 Q324.435 1314.03 325.57 1316.09 Q326.681 1318.13 326.681 1321 Q326.681 1325.7 322.931 1328.66 Q319.181 1331.6 313.07 1331.6 Q306.959 1331.6 303.209 1328.66 Q299.459 1325.7 299.459 1321 Q299.459 1318.13 300.593 1316.09 Q301.704 1314.03 304.019 1312.69 M313.07 1327.2 Q317.769 1327.2 320.454 1325.28 Q323.116 1323.34 323.116 1319.96 Q323.116 1316.58 320.454 1314.63 Q317.769 1312.69 313.07 1312.69 Q308.371 1312.69 305.709 1314.63 Q303.024 1316.58 303.024 1319.96 Q303.024 1323.34 305.709 1325.28 Q308.371 1327.2 313.07 1327.2 Z" fill="#000000" fill-rule="evenodd" fill-opacity="1" /><path clip-path="url(#clip960)" d="M311.982 1277.48 L314.065 1277.48 L314.065 1297.06 Q318.463 1296.78 320.778 1294.42 Q323.07 1292.04 323.07 1287.8 Q323.07 1285.35 322.468 1283.06 Q321.866 1280.74 320.662 1278.47 L324.69 1278.47 Q325.662 1280.77 326.172 1283.17 Q326.681 1285.58 326.681 1288.06 Q326.681 1294.26 323.07 1297.9 Q319.459 1301.51 313.301 1301.51 Q306.936 1301.51 303.209 1298.08 Q299.459 1294.63 299.459 1288.8 Q299.459 1283.57 302.838 1280.54 Q306.195 1277.48 311.982 1277.48 M310.732 1281.74 Q307.237 1281.79 305.153 1283.71 Q303.07 1285.6 303.07 1288.75 Q303.07 1292.32 305.084 1294.47 Q307.098 1296.6 310.755 1296.92 L310.732 1281.74 Z" fill="#000000" fill-rule="evenodd" fill-opacity="1" /><path clip-path="url(#clip960)" d="M312.977 1258.71 Q312.977 1263.87 314.158 1265.86 Q315.338 1267.85 318.186 1267.85 Q320.454 1267.85 321.797 1266.37 Q323.116 1264.86 323.116 1262.29 Q323.116 1258.75 320.616 1256.62 Q318.093 1254.47 313.926 1254.47 L312.977 1254.47 L312.977 1258.71 M311.218 1250.21 L326.01 1250.21 L326.01 1254.47 L322.074 1254.47 Q324.435 1255.93 325.57 1258.1 Q326.681 1260.28 326.681 1263.43 Q326.681 1267.41 324.459 1269.77 Q322.213 1272.11 318.463 1272.11 Q314.088 1272.11 311.866 1269.19 Q309.644 1266.25 309.644 1260.44 L309.644 1254.47 L309.227 1254.47 Q306.287 1254.47 304.69 1256.41 Q303.07 1258.34 303.07 1261.83 Q303.07 1264.05 303.602 1266.16 Q304.135 1268.27 305.199 1270.21 L301.264 1270.21 Q300.362 1267.87 299.922 1265.67 Q299.459 1263.47 299.459 1261.39 Q299.459 1255.77 302.375 1252.99 Q305.292 1250.21 311.218 1250.21 Z" fill="#000000" fill-rule="evenodd" fill-opacity="1" /><path clip-path="url(#clip960)" d="M289.991 1241.44 L289.991 1237.18 L326.01 1237.18 L326.01 1241.44 L289.991 1241.44 Z" fill="#000000" fill-rule="evenodd" fill-opacity="1" /><path clip-path="url(#clip960)" d="M596.476 1560.21 Q596.476 1565.37 597.657 1567.36 Q598.837 1569.35 601.684 1569.35 Q603.953 1569.35 605.295 1567.87 Q606.615 1566.37 606.615 1563.8 Q606.615 1560.26 604.115 1558.13 Q601.592 1555.97 597.425 1555.97 L596.476 1555.97 L596.476 1560.21 M594.717 1551.71 L609.508 1551.71 L609.508 1555.97 L605.573 1555.97 Q607.934 1557.43 609.069 1559.61 Q610.18 1561.78 610.18 1564.93 Q610.18 1568.91 607.957 1571.27 Q605.712 1573.61 601.962 1573.61 Q597.587 1573.61 595.365 1570.7 Q593.143 1567.76 593.143 1561.95 L593.143 1555.97 L592.726 1555.97 Q589.786 1555.97 588.189 1557.92 Q586.569 1559.84 586.569 1563.33 Q586.569 1565.56 587.101 1567.66 Q587.633 1569.77 588.698 1571.71 L584.763 1571.71 Q583.86 1569.38 583.421 1567.18 Q582.958 1564.98 582.958 1562.89 Q582.958 1557.27 585.874 1554.49 Q588.791 1551.71 594.717 1551.71 Z" fill="#000000" fill-rule="evenodd" fill-opacity="1" /><path clip-path="url(#clip960)" d="M573.49 1542.94 L573.49 1538.68 L609.508 1538.68 L609.508 1542.94 L573.49 1542.94 Z" fill="#000000" fill-rule="evenodd" fill-opacity="1" /><path clip-path="url(#clip960)" d="M576.222 1525.56 L583.583 1525.56 L583.583 1516.78 L586.893 1516.78 L586.893 1525.56 L600.967 1525.56 Q604.138 1525.56 605.041 1524.7 Q605.944 1523.82 605.944 1521.16 L605.944 1516.78 L609.508 1516.78 L609.508 1521.16 Q609.508 1526.09 607.68 1527.96 Q605.828 1529.84 600.967 1529.84 L586.893 1529.84 L586.893 1532.96 L583.583 1532.96 L583.583 1529.84 L576.222 1529.84 L576.222 1525.56 Z" fill="#000000" fill-rule="evenodd" fill-opacity="1" /><path clip-path="url(#clip960)" d="M583.583 1511.18 L583.583 1506.92 L609.508 1506.92 L609.508 1511.18 L583.583 1511.18 M573.49 1511.18 L573.49 1506.92 L578.884 1506.92 L578.884 1511.18 L573.49 1511.18 Z" fill="#000000" fill-rule="evenodd" fill-opacity="1" /><path clip-path="url(#clip960)" d="M576.222 1493.8 L583.583 1493.8 L583.583 1485.02 L586.893 1485.02 L586.893 1493.8 L600.967 1493.8 Q604.138 1493.8 605.041 1492.94 Q605.944 1492.06 605.944 1489.4 L605.944 1485.02 L609.508 1485.02 L609.508 1489.4 Q609.508 1494.33 607.68 1496.21 Q605.828 1498.08 600.967 1498.08 L586.893 1498.08 L586.893 1501.21 L583.583 1501.21 L583.583 1498.08 L576.222 1498.08 L576.222 1493.8 Z" fill="#000000" fill-rule="evenodd" fill-opacity="1" /><path clip-path="url(#clip960)" d="M599.277 1479.86 L583.583 1479.86 L583.583 1475.6 L599.115 1475.6 Q602.795 1475.6 604.647 1474.17 Q606.476 1472.73 606.476 1469.86 Q606.476 1466.41 604.277 1464.42 Q602.078 1462.41 598.282 1462.41 L583.583 1462.41 L583.583 1458.15 L609.508 1458.15 L609.508 1462.41 L605.527 1462.41 Q607.888 1463.96 609.045 1466.02 Q610.18 1468.06 610.18 1470.77 Q610.18 1475.23 607.402 1477.55 Q604.624 1479.86 599.277 1479.86 M582.958 1469.15 L582.958 1469.15 Z" fill="#000000" fill-rule="evenodd" fill-opacity="1" /><path clip-path="url(#clip960)" d="M587.518 1432.32 L573.49 1432.32 L573.49 1428.06 L609.508 1428.06 L609.508 1432.32 L605.619 1432.32 Q607.934 1433.66 609.069 1435.72 Q610.18 1437.76 610.18 1440.63 Q610.18 1445.33 606.43 1448.29 Q602.68 1451.23 596.569 1451.23 Q590.458 1451.23 586.708 1448.29 Q582.958 1445.33 582.958 1440.63 Q582.958 1437.76 584.092 1435.72 Q585.203 1433.66 587.518 1432.32 M596.569 1446.83 Q601.268 1446.83 603.953 1444.91 Q606.615 1442.96 606.615 1439.59 Q606.615 1436.21 603.953 1434.26 Q601.268 1432.32 596.569 1432.32 Q591.87 1432.32 589.208 1434.26 Q586.522 1436.21 586.522 1439.59 Q586.522 1442.96 589.208 1444.91 Q591.87 1446.83 596.569 1446.83 Z" fill="#000000" fill-rule="evenodd" fill-opacity="1" /><path clip-path="url(#clip960)" d="M595.481 1397.11 L597.564 1397.11 L597.564 1416.69 Q601.962 1416.41 604.277 1414.05 Q606.569 1411.67 606.569 1407.43 Q606.569 1404.98 605.967 1402.69 Q605.365 1400.37 604.161 1398.1 L608.189 1398.1 Q609.161 1400.4 609.67 1402.8 Q610.18 1405.21 610.18 1407.69 Q610.18 1413.89 606.569 1417.53 Q602.957 1421.14 596.8 1421.14 Q590.434 1421.14 586.708 1417.71 Q582.958 1414.26 582.958 1408.43 Q582.958 1403.2 586.337 1400.16 Q589.694 1397.11 595.481 1397.11 M594.231 1401.37 Q590.735 1401.41 588.652 1403.34 Q586.569 1405.23 586.569 1408.38 Q586.569 1411.95 588.583 1414.1 Q590.596 1416.23 594.254 1416.55 L594.231 1401.37 Z" fill="#000000" fill-rule="evenodd" fill-opacity="1" /><path clip-path="url(#clip960)" d="M617.379 1370.42 L620.689 1370.42 L620.689 1395.05 L617.379 1395.05 L617.379 1370.42 Z" fill="#000000" fill-rule="evenodd" fill-opacity="1" /><path clip-path="url(#clip960)" d="M586.569 1356.37 Q586.569 1359.79 589.254 1361.78 Q591.916 1363.78 596.569 1363.78 Q601.221 1363.78 603.907 1361.81 Q606.569 1359.82 606.569 1356.37 Q606.569 1352.97 603.883 1350.97 Q601.198 1348.98 596.569 1348.98 Q591.962 1348.98 589.277 1350.97 Q586.569 1352.97 586.569 1356.37 M582.958 1356.37 Q582.958 1350.81 586.569 1347.64 Q590.18 1344.47 596.569 1344.47 Q602.934 1344.47 606.569 1347.64 Q610.18 1350.81 610.18 1356.37 Q610.18 1361.95 606.569 1365.12 Q602.934 1368.27 596.569 1368.27 Q590.18 1368.27 586.569 1365.12 Q582.958 1361.95 582.958 1356.37 Z" fill="#000000" fill-rule="evenodd" fill-opacity="1" /><path clip-path="url(#clip960)" d="M573.49 1324.28 L577.032 1324.28 L577.032 1328.36 Q577.032 1330.65 577.958 1331.55 Q578.884 1332.43 581.291 1332.43 L583.583 1332.43 L583.583 1325.42 L586.893 1325.42 L586.893 1332.43 L609.508 1332.43 L609.508 1336.72 L586.893 1336.72 L586.893 1340.79 L583.583 1340.79 L583.583 1336.72 L581.777 1336.72 Q577.448 1336.72 575.481 1334.7 Q573.49 1332.69 573.49 1328.31 L573.49 1324.28 Z" fill="#000000" fill-rule="evenodd" fill-opacity="1" /><path clip-path="url(#clip960)" d="M573.49 1307.6 L577.032 1307.6 L577.032 1311.67 Q577.032 1313.96 577.958 1314.86 Q578.884 1315.74 581.291 1315.74 L583.583 1315.74 L583.583 1308.73 L586.893 1308.73 L586.893 1315.74 L609.508 1315.74 L609.508 1320.03 L586.893 1320.03 L586.893 1324.1 L583.583 1324.1 L583.583 1320.03 L581.777 1320.03 Q577.448 1320.03 575.481 1318.01 Q573.49 1316 573.49 1311.62 L573.49 1307.6 Z" fill="#000000" fill-rule="evenodd" fill-opacity="1" /><path clip-path="url(#clip960)" d="M584.346 1287.5 L588.374 1287.5 Q587.448 1289.31 586.985 1291.25 Q586.522 1293.2 586.522 1295.28 Q586.522 1298.45 587.495 1300.05 Q588.467 1301.62 590.411 1301.62 Q591.893 1301.62 592.749 1300.49 Q593.583 1299.35 594.346 1295.93 L594.67 1294.47 Q595.643 1289.93 597.425 1288.04 Q599.184 1286.11 602.356 1286.11 Q605.967 1286.11 608.073 1288.98 Q610.18 1291.83 610.18 1296.83 Q610.18 1298.91 609.763 1301.18 Q609.369 1303.43 608.559 1305.93 L604.161 1305.93 Q605.388 1303.57 606.013 1301.28 Q606.615 1298.98 606.615 1296.74 Q606.615 1293.73 605.596 1292.11 Q604.555 1290.49 602.68 1290.49 Q600.944 1290.49 600.018 1291.67 Q599.092 1292.83 598.235 1296.78 L597.888 1298.27 Q597.055 1302.22 595.342 1303.98 Q593.606 1305.74 590.596 1305.74 Q586.939 1305.74 584.948 1303.15 Q582.958 1300.56 582.958 1295.79 Q582.958 1293.43 583.305 1291.35 Q583.652 1289.26 584.346 1287.5 Z" fill="#000000" fill-rule="evenodd" fill-opacity="1" /><path clip-path="url(#clip960)" d="M595.481 1257.16 L597.564 1257.16 L597.564 1276.74 Q601.962 1276.46 604.277 1274.1 Q606.569 1271.72 606.569 1267.48 Q606.569 1265.03 605.967 1262.73 Q605.365 1260.42 604.161 1258.15 L608.189 1258.15 Q609.161 1260.44 609.67 1262.85 Q610.18 1265.26 610.18 1267.73 Q610.18 1273.94 606.569 1277.57 Q602.957 1281.18 596.8 1281.18 Q590.434 1281.18 586.708 1277.76 Q582.958 1274.31 582.958 1268.47 Q582.958 1263.24 586.337 1260.21 Q589.694 1257.16 595.481 1257.16 M594.231 1261.41 Q590.735 1261.46 588.652 1263.38 Q586.569 1265.28 586.569 1268.43 Q586.569 1271.99 588.583 1274.15 Q590.596 1276.28 594.254 1276.6 L594.231 1261.41 Z" fill="#000000" fill-rule="evenodd" fill-opacity="1" /><path clip-path="url(#clip960)" d="M576.222 1245.95 L583.583 1245.95 L583.583 1237.18 L586.893 1237.18 L586.893 1245.95 L600.967 1245.95 Q604.138 1245.95 605.041 1245.1 Q605.944 1244.22 605.944 1241.55 L605.944 1237.18 L609.508 1237.18 L609.508 1241.55 Q609.508 1246.48 607.68 1248.36 Q605.828 1250.23 600.967 1250.23 L586.893 1250.23 L586.893 1253.36 L583.583 1253.36 L583.583 1250.23 L576.222 1250.23 L576.222 1245.95 Z" fill="#000000" fill-rule="evenodd" fill-opacity="1" /><path clip-path="url(#clip960)" d="M879.743 1540.79 Q875.114 1540.79 872.567 1542.71 Q870.021 1544.61 870.021 1548.06 Q870.021 1551.48 872.567 1553.4 Q875.114 1555.3 879.743 1555.3 Q884.35 1555.3 886.896 1553.4 Q889.442 1551.48 889.442 1548.06 Q889.442 1544.61 886.896 1542.71 Q884.35 1540.79 879.743 1540.79 M889.79 1536.53 Q896.41 1536.53 899.627 1539.47 Q902.868 1542.41 902.868 1548.47 Q902.868 1550.72 902.521 1552.71 Q902.197 1554.7 901.502 1556.58 L897.359 1556.58 Q898.378 1554.7 898.864 1552.87 Q899.35 1551.04 899.35 1549.14 Q899.35 1544.95 897.151 1542.87 Q894.975 1540.79 890.553 1540.79 L888.447 1540.79 Q890.739 1542.11 891.873 1544.17 Q893.007 1546.23 893.007 1549.1 Q893.007 1553.87 889.373 1556.78 Q885.739 1559.7 879.743 1559.7 Q873.725 1559.7 870.091 1556.78 Q866.456 1553.87 866.456 1549.1 Q866.456 1546.23 867.591 1544.17 Q868.725 1542.11 871.017 1540.79 L867.081 1540.79 L867.081 1536.53 L889.79 1536.53 Z" fill="#000000" fill-rule="evenodd" fill-opacity="1" /><path clip-path="url(#clip960)" d="M871.063 1512.73 Q870.646 1513.45 870.461 1514.31 Q870.253 1515.14 870.253 1516.16 Q870.253 1519.77 872.614 1521.71 Q874.952 1523.64 879.35 1523.64 L893.007 1523.64 L893.007 1527.92 L867.081 1527.92 L867.081 1523.64 L871.109 1523.64 Q868.748 1522.29 867.614 1520.14 Q866.456 1517.99 866.456 1514.91 Q866.456 1514.47 866.526 1513.94 Q866.572 1513.4 866.688 1512.76 L871.063 1512.73 Z" fill="#000000" fill-rule="evenodd" fill-opacity="1" /><path clip-path="url(#clip960)" d="M870.067 1499.26 Q870.067 1502.69 872.753 1504.68 Q875.415 1506.67 880.067 1506.67 Q884.72 1506.67 887.405 1504.7 Q890.067 1502.71 890.067 1499.26 Q890.067 1495.86 887.382 1493.87 Q884.697 1491.88 880.067 1491.88 Q875.461 1491.88 872.776 1493.87 Q870.067 1495.86 870.067 1499.26 M866.456 1499.26 Q866.456 1493.71 870.067 1490.53 Q873.679 1487.36 880.067 1487.36 Q886.433 1487.36 890.067 1490.53 Q893.678 1493.71 893.678 1499.26 Q893.678 1504.84 890.067 1508.01 Q886.433 1511.16 880.067 1511.16 Q873.679 1511.16 870.067 1508.01 Q866.456 1504.84 866.456 1499.26 Z" fill="#000000" fill-rule="evenodd" fill-opacity="1" /><path clip-path="url(#clip960)" d="M882.776 1480.74 L867.081 1480.74 L867.081 1476.48 L882.614 1476.48 Q886.294 1476.48 888.146 1475.05 Q889.975 1473.61 889.975 1470.74 Q889.975 1467.29 887.776 1465.3 Q885.577 1463.29 881.78 1463.29 L867.081 1463.29 L867.081 1459.03 L893.007 1459.03 L893.007 1463.29 L889.026 1463.29 Q891.387 1464.84 892.544 1466.9 Q893.678 1468.94 893.678 1471.65 Q893.678 1476.11 890.901 1478.43 Q888.123 1480.74 882.776 1480.74 M866.456 1470.02 L866.456 1470.02 Z" fill="#000000" fill-rule="evenodd" fill-opacity="1" /><path clip-path="url(#clip960)" d="M877.359 1428.71 L893.007 1428.71 L893.007 1432.96 L877.498 1432.96 Q873.817 1432.96 871.989 1434.4 Q870.16 1435.84 870.16 1438.71 Q870.16 1442.15 872.359 1444.15 Q874.558 1446.14 878.354 1446.14 L893.007 1446.14 L893.007 1450.42 L867.081 1450.42 L867.081 1446.14 L871.109 1446.14 Q868.771 1444.61 867.614 1442.55 Q866.456 1440.46 866.456 1437.76 Q866.456 1433.29 869.234 1431 Q871.989 1428.71 877.359 1428.71 Z" fill="#000000" fill-rule="evenodd" fill-opacity="1" /><path clip-path="url(#clip960)" d="M871.017 1403.15 L856.989 1403.15 L856.989 1398.89 L893.007 1398.89 L893.007 1403.15 L889.118 1403.15 Q891.433 1404.49 892.567 1406.55 Q893.678 1408.59 893.678 1411.46 Q893.678 1416.16 889.928 1419.12 Q886.178 1422.06 880.067 1422.06 Q873.956 1422.06 870.206 1419.12 Q866.456 1416.16 866.456 1411.46 Q866.456 1408.59 867.591 1406.55 Q868.702 1404.49 871.017 1403.15 M880.067 1417.66 Q884.766 1417.66 887.452 1415.74 Q890.114 1413.8 890.114 1410.42 Q890.114 1407.04 887.452 1405.09 Q884.766 1403.15 880.067 1403.15 Q875.368 1403.15 872.706 1405.09 Q870.021 1407.04 870.021 1410.42 Q870.021 1413.8 872.706 1415.74 Q875.368 1417.66 880.067 1417.66 Z" fill="#000000" fill-rule="evenodd" fill-opacity="1" /><path clip-path="url(#clip960)" d="M900.877 1370.42 L904.188 1370.42 L904.188 1395.05 L900.877 1395.05 L900.877 1370.42 Z" fill="#000000" fill-rule="evenodd" fill-opacity="1" /><path clip-path="url(#clip960)" d="M870.067 1356.37 Q870.067 1359.79 872.753 1361.78 Q875.415 1363.78 880.067 1363.78 Q884.72 1363.78 887.405 1361.81 Q890.067 1359.82 890.067 1356.37 Q890.067 1352.97 887.382 1350.97 Q884.697 1348.98 880.067 1348.98 Q875.461 1348.98 872.776 1350.97 Q870.067 1352.97 870.067 1356.37 M866.456 1356.37 Q866.456 1350.81 870.067 1347.64 Q873.679 1344.47 880.067 1344.47 Q886.433 1344.47 890.067 1347.64 Q893.678 1350.81 893.678 1356.37 Q893.678 1361.95 890.067 1365.12 Q886.433 1368.27 880.067 1368.27 Q873.679 1368.27 870.067 1365.12 Q866.456 1361.95 866.456 1356.37 Z" fill="#000000" fill-rule="evenodd" fill-opacity="1" /><path clip-path="url(#clip960)" d="M856.989 1324.28 L860.53 1324.28 L860.53 1328.36 Q860.53 1330.65 861.456 1331.55 Q862.382 1332.43 864.79 1332.43 L867.081 1332.43 L867.081 1325.42 L870.392 1325.42 L870.392 1332.43 L893.007 1332.43 L893.007 1336.72 L870.392 1336.72 L870.392 1340.79 L867.081 1340.79 L867.081 1336.72 L865.276 1336.72 Q860.947 1336.72 858.98 1334.7 Q856.989 1332.69 856.989 1328.31 L856.989 1324.28 Z" fill="#000000" fill-rule="evenodd" fill-opacity="1" /><path clip-path="url(#clip960)" d="M856.989 1307.6 L860.53 1307.6 L860.53 1311.67 Q860.53 1313.96 861.456 1314.86 Q862.382 1315.74 864.79 1315.74 L867.081 1315.74 L867.081 1308.73 L870.392 1308.73 L870.392 1315.74 L893.007 1315.74 L893.007 1320.03 L870.392 1320.03 L870.392 1324.1 L867.081 1324.1 L867.081 1320.03 L865.276 1320.03 Q860.947 1320.03 858.98 1318.01 Q856.989 1316 856.989 1311.62 L856.989 1307.6 Z" fill="#000000" fill-rule="evenodd" fill-opacity="1" /><path clip-path="url(#clip960)" d="M867.845 1287.5 L871.873 1287.5 Q870.947 1289.31 870.484 1291.25 Q870.021 1293.2 870.021 1295.28 Q870.021 1298.45 870.993 1300.05 Q871.966 1301.62 873.91 1301.62 Q875.392 1301.62 876.248 1300.49 Q877.081 1299.35 877.845 1295.93 L878.169 1294.47 Q879.141 1289.93 880.924 1288.04 Q882.683 1286.11 885.854 1286.11 Q889.466 1286.11 891.572 1288.98 Q893.678 1291.83 893.678 1296.83 Q893.678 1298.91 893.262 1301.18 Q892.868 1303.43 892.058 1305.93 L887.66 1305.93 Q888.887 1303.57 889.512 1301.28 Q890.114 1298.98 890.114 1296.74 Q890.114 1293.73 889.095 1292.11 Q888.053 1290.49 886.178 1290.49 Q884.442 1290.49 883.516 1291.67 Q882.591 1292.83 881.734 1296.78 L881.387 1298.27 Q880.554 1302.22 878.841 1303.98 Q877.104 1305.74 874.095 1305.74 Q870.438 1305.74 868.447 1303.15 Q866.456 1300.56 866.456 1295.79 Q866.456 1293.43 866.804 1291.35 Q867.151 1289.26 867.845 1287.5 Z" fill="#000000" fill-rule="evenodd" fill-opacity="1" /><path clip-path="url(#clip960)" d="M878.979 1257.16 L881.063 1257.16 L881.063 1276.74 Q885.461 1276.46 887.776 1274.1 Q890.067 1271.72 890.067 1267.48 Q890.067 1265.03 889.466 1262.73 Q888.864 1260.42 887.66 1258.15 L891.688 1258.15 Q892.66 1260.44 893.169 1262.85 Q893.678 1265.26 893.678 1267.73 Q893.678 1273.94 890.067 1277.57 Q886.456 1281.18 880.299 1281.18 Q873.933 1281.18 870.206 1277.76 Q866.456 1274.31 866.456 1268.47 Q866.456 1263.24 869.836 1260.21 Q873.192 1257.16 878.979 1257.16 M877.729 1261.41 Q874.234 1261.46 872.151 1263.38 Q870.067 1265.28 870.067 1268.43 Q870.067 1271.99 872.081 1274.15 Q874.095 1276.28 877.753 1276.6 L877.729 1261.41 Z" fill="#000000" fill-rule="evenodd" fill-opacity="1" /><path clip-path="url(#clip960)" d="M859.72 1245.95 L867.081 1245.95 L867.081 1237.18 L870.392 1237.18 L870.392 1245.95 L884.466 1245.95 Q887.637 1245.95 888.54 1245.1 Q889.442 1244.22 889.442 1241.55 L889.442 1237.18 L893.007 1237.18 L893.007 1241.55 Q893.007 1246.48 891.178 1248.36 Q889.327 1250.23 884.466 1250.23 L870.392 1250.23 L870.392 1253.36 L867.081 1253.36 L867.081 1250.23 L859.72 1250.23 L859.72 1245.95 Z" fill="#000000" fill-rule="evenodd" fill-opacity="1" /><path clip-path="url(#clip960)" d="M1140.49 1312.09 L1144.03 1312.09 L1144.03 1316.16 Q1144.03 1318.45 1144.96 1319.35 Q1145.88 1320.23 1148.29 1320.23 L1150.58 1320.23 L1150.58 1313.22 L1153.89 1313.22 L1153.89 1320.23 L1176.51 1320.23 L1176.51 1324.52 L1153.89 1324.52 L1153.89 1328.59 L1150.58 1328.59 L1150.58 1324.52 L1148.77 1324.52 Q1144.45 1324.52 1142.48 1322.5 Q1140.49 1320.49 1140.49 1316.11 L1140.49 1312.09 Z" fill="#000000" fill-rule="evenodd" fill-opacity="1" /><path clip-path="url(#clip960)" d="M1153.57 1298.47 Q1153.57 1301.9 1156.25 1303.89 Q1158.91 1305.88 1163.57 1305.88 Q1168.22 1305.88 1170.9 1303.91 Q1173.57 1301.92 1173.57 1298.47 Q1173.57 1295.07 1170.88 1293.08 Q1168.2 1291.09 1163.57 1291.09 Q1158.96 1291.09 1156.27 1293.08 Q1153.57 1295.07 1153.57 1298.47 M1149.96 1298.47 Q1149.96 1292.92 1153.57 1289.75 Q1157.18 1286.58 1163.57 1286.58 Q1169.93 1286.58 1173.57 1289.75 Q1177.18 1292.92 1177.18 1298.47 Q1177.18 1304.05 1173.57 1307.22 Q1169.93 1310.37 1163.57 1310.37 Q1157.18 1310.37 1153.57 1307.22 Q1149.96 1304.05 1149.96 1298.47 Z" fill="#000000" fill-rule="evenodd" fill-opacity="1" /><path clip-path="url(#clip960)" d="M1154.56 1264.49 Q1154.14 1265.21 1153.96 1266.07 Q1153.75 1266.9 1153.75 1267.92 Q1153.75 1271.53 1156.11 1273.47 Q1158.45 1275.4 1162.85 1275.4 L1176.51 1275.4 L1176.51 1279.68 L1150.58 1279.68 L1150.58 1275.4 L1154.61 1275.4 Q1152.25 1274.05 1151.11 1271.9 Q1149.96 1269.75 1149.96 1266.67 Q1149.96 1266.23 1150.02 1265.7 Q1150.07 1265.16 1150.19 1264.52 L1154.56 1264.49 Z" fill="#000000" fill-rule="evenodd" fill-opacity="1" /><path clip-path="url(#clip960)" d="M1140.49 1260.19 L1140.49 1255.91 L1161.76 1255.91 L1150.58 1243.2 L1150.58 1237.76 L1162.71 1251.51 L1176.51 1237.18 L1176.51 1242.73 L1163.84 1255.91 L1176.51 1255.91 L1176.51 1260.19 L1140.49 1260.19 Z" fill="#000000" fill-rule="evenodd" fill-opacity="1" /><path clip-path="url(#clip960)" d="M1434.08 1481.14 L1434.08 1460.9 L1437.97 1460.9 L1456.6 1476.92 L1456.6 1460.9 L1460 1460.9 L1460 1481.71 L1456.12 1481.71 L1437.48 1465.7 L1437.48 1481.14 L1434.08 1481.14 Z" fill="#000000" fill-rule="evenodd" fill-opacity="1" /><path clip-path="url(#clip960)" d="M1460 1445.3 L1425.44 1458.5 L1425.44 1453.61 L1454.54 1442.66 L1425.44 1431.69 L1425.44 1426.83 L1460 1440 L1460 1445.3 Z" fill="#000000" fill-rule="evenodd" fill-opacity="1" /><path clip-path="url(#clip960)" d="M1430.05 1413.27 L1447.25 1419.61 L1447.25 1406.9 L1430.05 1413.27 M1425.44 1415.9 L1425.44 1410.6 L1460 1397.43 L1460 1402.29 L1451.14 1405.44 L1451.14 1421.02 L1460 1424.17 L1460 1429.1 L1425.44 1415.9 Z" fill="#000000" fill-rule="evenodd" fill-opacity="1" /><path clip-path="url(#clip960)" d="M1425.44 1394.05 L1425.44 1389.03 L1438.29 1380.44 L1425.44 1371.81 L1425.44 1366.78 L1442.04 1377.9 L1460 1366.04 L1460 1371.07 L1445.31 1380.79 L1460 1390.58 L1460 1395.63 L1441.56 1383.29 L1425.44 1394.05 Z" fill="#000000" fill-rule="evenodd" fill-opacity="1" /><path clip-path="url(#clip960)" d="M1441.42 1353.03 Q1443.29 1355.14 1445.17 1356.14 Q1447.02 1357.11 1449.06 1357.11 Q1452.44 1357.11 1454.68 1354.66 Q1456.93 1352.2 1456.93 1348.5 Q1456.93 1346.3 1456.21 1344.38 Q1455.47 1342.46 1453.99 1340.77 L1441.42 1353.03 M1438.82 1349.77 L1450.86 1338.01 Q1448.8 1336.65 1446.46 1335.88 Q1444.1 1335.12 1441.46 1334.98 L1441.46 1330.67 Q1444.52 1330.95 1447.5 1332.16 Q1450.49 1333.36 1453.41 1335.51 L1460 1329.05 L1460 1334.89 L1456.6 1338.2 Q1458.66 1340.6 1459.68 1343.24 Q1460.68 1345.88 1460.68 1348.91 Q1460.68 1354.49 1457.5 1358.03 Q1454.31 1361.58 1449.33 1361.58 Q1446.37 1361.58 1443.78 1360.03 Q1441.16 1358.47 1438.87 1355.37 Q1437.41 1356.48 1435.98 1357.06 Q1434.52 1357.64 1433.13 1357.64 Q1429.38 1357.64 1427.11 1355.07 Q1424.82 1352.5 1424.82 1348.24 Q1424.82 1346.32 1425.24 1344.42 Q1425.65 1342.5 1426.49 1340.53 L1430.7 1340.53 Q1429.61 1342.55 1429.06 1344.38 Q1428.48 1346.21 1428.48 1347.78 Q1428.48 1350.21 1429.77 1351.74 Q1431.05 1353.24 1433.08 1353.24 Q1434.26 1353.24 1435.47 1352.57 Q1436.65 1351.88 1438.82 1349.77 Z" fill="#000000" fill-rule="evenodd" fill-opacity="1" /><path clip-path="url(#clip960)" d="M1460.68 1314.86 Q1460.68 1324.47 1446.93 1324.47 Q1441.49 1324.47 1434.08 1320.88 L1434.08 1316.3 Q1441.49 1319.61 1447.04 1319.61 Q1457.06 1319.61 1457.06 1314.47 Q1457.06 1309.77 1444.61 1309.77 L1444.61 1305.84 Q1457.06 1305.84 1457.06 1301.14 Q1457.06 1296 1447.04 1296 Q1441.49 1296 1434.08 1299.31 L1434.08 1294.72 Q1441.49 1291.14 1446.93 1291.14 Q1460.68 1291.14 1460.68 1300.74 Q1460.68 1307.04 1453.75 1307.8 Q1460.68 1308.75 1460.68 1314.86 Z" fill="#000000" fill-rule="evenodd" fill-opacity="1" /><path clip-path="url(#clip960)" d="M1467.88 1263.73 L1471.19 1263.73 L1471.19 1288.36 L1467.88 1288.36 L1467.88 1263.73 Z" fill="#000000" fill-rule="evenodd" fill-opacity="1" /><path clip-path="url(#clip960)" d="M1428.52 1249.12 Q1428.52 1252.73 1432.09 1254.56 Q1435.63 1256.37 1442.76 1256.37 Q1449.87 1256.37 1453.43 1254.56 Q1456.97 1252.73 1456.97 1249.12 Q1456.97 1245.49 1453.43 1243.68 Q1449.87 1241.85 1442.76 1241.85 Q1435.63 1241.85 1432.09 1243.68 Q1428.52 1245.49 1428.52 1249.12 M1424.82 1249.12 Q1424.82 1243.31 1429.43 1240.26 Q1434.01 1237.18 1442.76 1237.18 Q1451.49 1237.18 1456.09 1240.26 Q1460.68 1243.31 1460.68 1249.12 Q1460.68 1254.93 1456.09 1258.01 Q1451.49 1261.07 1442.76 1261.07 Q1434.01 1261.07 1429.43 1258.01 Q1424.82 1254.93 1424.82 1249.12 Z" fill="#000000" fill-rule="evenodd" fill-opacity="1" /><path clip-path="url(#clip960)" d="M1717.58 1511.3 L1717.58 1491.07 L1721.47 1491.07 L1740.1 1507.08 L1740.1 1491.07 L1743.5 1491.07 L1743.5 1511.88 L1739.61 1511.88 L1720.98 1495.86 L1720.98 1511.3 L1717.58 1511.3 Z" fill="#000000" fill-rule="evenodd" fill-opacity="1" /><path clip-path="url(#clip960)" d="M1743.5 1475.46 L1708.94 1488.66 L1708.94 1483.77 L1738.04 1472.83 L1708.94 1461.85 L1708.94 1456.99 L1743.5 1470.16 L1743.5 1475.46 Z" fill="#000000" fill-rule="evenodd" fill-opacity="1" /><path clip-path="url(#clip960)" d="M1713.55 1443.43 L1730.75 1449.77 L1730.75 1437.06 L1713.55 1443.43 M1708.94 1446.07 L1708.94 1440.77 L1743.5 1427.59 L1743.5 1432.46 L1734.64 1435.6 L1734.64 1451.18 L1743.5 1454.33 L1743.5 1459.26 L1708.94 1446.07 Z" fill="#000000" fill-rule="evenodd" fill-opacity="1" /><path clip-path="url(#clip960)" d="M1708.94 1424.21 L1708.94 1419.19 L1721.79 1410.6 L1708.94 1401.97 L1708.94 1396.95 L1725.54 1408.06 L1743.5 1396.21 L1743.5 1401.23 L1728.8 1410.95 L1743.5 1420.74 L1743.5 1425.79 L1725.05 1413.45 L1708.94 1424.21 Z" fill="#000000" fill-rule="evenodd" fill-opacity="1" /><path clip-path="url(#clip960)" d="M1724.92 1383.2 Q1726.79 1385.3 1728.67 1386.3 Q1730.52 1387.27 1732.55 1387.27 Q1735.93 1387.27 1738.18 1384.82 Q1740.42 1382.36 1740.42 1378.66 Q1740.42 1376.46 1739.71 1374.54 Q1738.97 1372.62 1737.49 1370.93 L1724.92 1383.2 M1722.32 1379.93 L1734.36 1368.17 Q1732.3 1366.81 1729.96 1366.04 Q1727.6 1365.28 1724.96 1365.14 L1724.96 1360.84 Q1728.02 1361.11 1731 1362.32 Q1733.99 1363.52 1736.91 1365.67 L1743.5 1359.22 L1743.5 1365.05 L1740.1 1368.36 Q1742.16 1370.77 1743.18 1373.4 Q1744.17 1376.04 1744.17 1379.08 Q1744.17 1384.65 1741 1388.2 Q1737.81 1391.74 1732.83 1391.74 Q1729.87 1391.74 1727.28 1390.19 Q1724.66 1388.64 1722.37 1385.53 Q1720.91 1386.65 1719.48 1387.22 Q1718.02 1387.8 1716.63 1387.8 Q1712.88 1387.8 1710.61 1385.23 Q1708.32 1382.66 1708.32 1378.4 Q1708.32 1376.48 1708.74 1374.59 Q1709.15 1372.66 1709.99 1370.7 L1714.2 1370.7 Q1713.11 1372.71 1712.55 1374.54 Q1711.98 1376.37 1711.98 1377.94 Q1711.98 1380.37 1713.27 1381.9 Q1714.55 1383.4 1716.58 1383.4 Q1717.76 1383.4 1718.97 1382.73 Q1720.15 1382.04 1722.32 1379.93 Z" fill="#000000" fill-rule="evenodd" fill-opacity="1" /><path clip-path="url(#clip960)" d="M1744.17 1345.03 Q1744.17 1354.63 1730.42 1354.63 Q1724.99 1354.63 1717.58 1351.04 L1717.58 1346.46 Q1724.99 1349.77 1730.54 1349.77 Q1740.56 1349.77 1740.56 1344.63 Q1740.56 1339.93 1728.11 1339.93 L1728.11 1336 Q1740.56 1336 1740.56 1331.3 Q1740.56 1326.16 1730.54 1326.16 Q1724.99 1326.16 1717.58 1329.47 L1717.58 1324.89 Q1724.99 1321.3 1730.42 1321.3 Q1744.17 1321.3 1744.17 1330.91 Q1744.17 1337.2 1737.25 1337.97 Q1744.17 1338.91 1744.17 1345.03 Z" fill="#000000" fill-rule="evenodd" fill-opacity="1" /><path clip-path="url(#clip960)" d="M1751.37 1293.89 L1754.68 1293.89 L1754.68 1318.52 L1751.37 1318.52 L1751.37 1293.89 Z" fill="#000000" fill-rule="evenodd" fill-opacity="1" /><path clip-path="url(#clip960)" d="M1742.79 1289.15 L1738.53 1289.15 Q1739.36 1287.39 1739.8 1285.58 Q1740.24 1283.78 1740.24 1282.04 Q1740.24 1277.41 1737.14 1274.98 Q1734.01 1272.53 1727.67 1272.18 Q1729.66 1273.52 1730.73 1275.58 Q1731.79 1277.64 1731.79 1280.14 Q1731.79 1285.33 1728.67 1288.36 Q1725.52 1291.37 1720.08 1291.37 Q1714.75 1291.37 1711.54 1288.22 Q1708.32 1285.07 1708.32 1279.84 Q1708.32 1273.85 1712.93 1270.7 Q1717.51 1267.53 1726.26 1267.53 Q1734.43 1267.53 1739.31 1271.41 Q1744.17 1275.28 1744.17 1281.83 Q1744.17 1283.59 1743.83 1285.4 Q1743.48 1287.2 1742.79 1289.15 M1728.13 1279.84 Q1728.13 1276.69 1725.98 1274.86 Q1723.83 1273.01 1720.08 1273.01 Q1716.35 1273.01 1714.2 1274.86 Q1712.02 1276.69 1712.02 1279.84 Q1712.02 1282.99 1714.2 1284.84 Q1716.35 1286.67 1720.08 1286.67 Q1723.83 1286.67 1725.98 1284.84 Q1728.13 1282.99 1728.13 1279.84 Z" fill="#000000" fill-rule="evenodd" fill-opacity="1" /><path clip-path="url(#clip960)" d="M1712.02 1249.12 Q1712.02 1252.73 1715.59 1254.56 Q1719.13 1256.37 1726.26 1256.37 Q1733.36 1256.37 1736.93 1254.56 Q1740.47 1252.73 1740.47 1249.12 Q1740.47 1245.49 1736.93 1243.68 Q1733.36 1241.85 1726.26 1241.85 Q1719.13 1241.85 1715.59 1243.68 Q1712.02 1245.49 1712.02 1249.12 M1708.32 1249.12 Q1708.32 1243.31 1712.93 1240.26 Q1717.51 1237.18 1726.26 1237.18 Q1734.99 1237.18 1739.59 1240.26 Q1744.17 1243.31 1744.17 1249.12 Q1744.17 1254.93 1739.59 1258.01 Q1734.99 1261.07 1726.26 1261.07 Q1717.51 1261.07 1712.93 1258.01 Q1708.32 1254.93 1708.32 1249.12 Z" fill="#000000" fill-rule="evenodd" fill-opacity="1" /><path clip-path="url(#clip960)" d="M2001.08 1541.46 L2001.08 1521.23 L2004.97 1521.23 L2023.6 1537.25 L2023.6 1521.23 L2027 1521.23 L2027 1542.04 L2023.11 1542.04 L2004.48 1526.02 L2004.48 1541.46 L2001.08 1541.46 Z" fill="#000000" fill-rule="evenodd" fill-opacity="1" /><path clip-path="url(#clip960)" d="M2027 1505.63 L1992.44 1518.82 L1992.44 1513.94 L2021.54 1502.99 L1992.44 1492.02 L1992.44 1487.15 L2027 1500.33 L2027 1505.63 Z" fill="#000000" fill-rule="evenodd" fill-opacity="1" /><path clip-path="url(#clip960)" d="M1997.05 1473.59 L2014.25 1479.93 L2014.25 1467.22 L1997.05 1473.59 M1992.44 1476.23 L1992.44 1470.93 L2027 1457.76 L2027 1462.62 L2018.14 1465.77 L2018.14 1481.34 L2027 1484.49 L2027 1489.42 L1992.44 1476.23 Z" fill="#000000" fill-rule="evenodd" fill-opacity="1" /><path clip-path="url(#clip960)" d="M1992.44 1454.38 L1992.44 1449.35 L2005.29 1440.77 L1992.44 1432.13 L1992.44 1427.11 L2009.04 1438.22 L2027 1426.37 L2027 1431.39 L2012.3 1441.11 L2027 1450.9 L2027 1455.95 L2008.55 1443.61 L1992.44 1454.38 Z" fill="#000000" fill-rule="evenodd" fill-opacity="1" /><path clip-path="url(#clip960)" d="M2008.41 1413.36 Q2010.29 1415.46 2012.16 1416.46 Q2014.02 1417.43 2016.05 1417.43 Q2019.43 1417.43 2021.68 1414.98 Q2023.92 1412.53 2023.92 1408.82 Q2023.92 1406.62 2023.21 1404.7 Q2022.47 1402.78 2020.98 1401.09 L2008.41 1413.36 M2005.82 1410.09 L2017.86 1398.34 Q2015.8 1396.97 2013.46 1396.21 Q2011.1 1395.44 2008.46 1395.3 L2008.46 1391 Q2011.52 1391.28 2014.5 1392.48 Q2017.49 1393.68 2020.41 1395.84 L2027 1389.38 L2027 1395.21 L2023.6 1398.52 Q2025.66 1400.93 2026.68 1403.57 Q2027.67 1406.21 2027.67 1409.24 Q2027.67 1414.82 2024.5 1418.36 Q2021.31 1421.9 2016.33 1421.9 Q2013.37 1421.9 2010.78 1420.35 Q2008.16 1418.8 2005.87 1415.7 Q2004.41 1416.81 2002.97 1417.39 Q2001.52 1417.96 2000.13 1417.96 Q1996.38 1417.96 1994.11 1415.4 Q1991.82 1412.83 1991.82 1408.57 Q1991.82 1406.65 1992.23 1404.75 Q1992.65 1402.83 1993.48 1400.86 L1997.7 1400.86 Q1996.61 1402.87 1996.05 1404.7 Q1995.47 1406.53 1995.47 1408.1 Q1995.47 1410.53 1996.77 1412.06 Q1998.04 1413.57 2000.08 1413.57 Q2001.26 1413.57 2002.47 1412.9 Q2003.65 1412.2 2005.82 1410.09 Z" fill="#000000" fill-rule="evenodd" fill-opacity="1" /><path clip-path="url(#clip960)" d="M2027.67 1375.19 Q2027.67 1384.79 2013.92 1384.79 Q2008.48 1384.79 2001.08 1381.21 L2001.08 1376.62 Q2008.48 1379.93 2014.04 1379.93 Q2024.06 1379.93 2024.06 1374.79 Q2024.06 1370.09 2011.61 1370.09 L2011.61 1366.16 Q2024.06 1366.16 2024.06 1361.46 Q2024.06 1356.32 2014.04 1356.32 Q2008.48 1356.32 2001.08 1359.63 L2001.08 1355.05 Q2008.48 1351.46 2013.92 1351.46 Q2027.67 1351.46 2027.67 1361.07 Q2027.67 1367.36 2020.75 1368.13 Q2027.67 1369.08 2027.67 1375.19 Z" fill="#000000" fill-rule="evenodd" fill-opacity="1" /><path clip-path="url(#clip960)" d="M2034.87 1324.05 L2038.18 1324.05 L2038.18 1348.68 L2034.87 1348.68 L2034.87 1324.05 Z" fill="#000000" fill-rule="evenodd" fill-opacity="1" /><path clip-path="url(#clip960)" d="M2023.07 1318.64 L2023.07 1311 L1996.7 1311 L1998.37 1319.31 L1994.11 1319.31 L1992.44 1311.04 L1992.44 1306.37 L2023.07 1306.37 L2023.07 1298.73 L2027 1298.73 L2027 1318.64 L2023.07 1318.64 Z" fill="#000000" fill-rule="evenodd" fill-opacity="1" /><path clip-path="url(#clip960)" d="M2010.59 1279.29 Q2010.59 1282.62 2012.37 1284.54 Q2014.16 1286.44 2017.28 1286.44 Q2020.41 1286.44 2022.19 1284.54 Q2023.97 1282.62 2023.97 1279.29 Q2023.97 1275.95 2022.19 1274.03 Q2020.38 1272.11 2017.28 1272.11 Q2014.16 1272.11 2012.37 1274.03 Q2010.59 1275.93 2010.59 1279.29 M2008.6 1283.96 Q2007.86 1286.97 2005.8 1288.66 Q2003.74 1290.33 2000.78 1290.33 Q1996.63 1290.33 1994.22 1287.39 Q1991.82 1284.42 1991.82 1279.29 Q1991.82 1274.12 1994.22 1271.18 Q1996.63 1268.24 2000.78 1268.24 Q2003.74 1268.24 2005.8 1269.93 Q2007.86 1271.6 2008.6 1274.59 Q2009.39 1271.21 2011.68 1269.33 Q2013.97 1267.43 2017.28 1267.43 Q2022.3 1267.43 2024.99 1270.51 Q2027.67 1273.57 2027.67 1279.29 Q2027.67 1285 2024.99 1288.08 Q2022.3 1291.14 2017.28 1291.14 Q2013.97 1291.14 2011.68 1289.24 Q2009.39 1287.34 2008.6 1283.96 M2001.22 1285.67 Q2003.9 1285.67 2005.41 1284.01 Q2006.91 1282.32 2006.91 1279.29 Q2006.91 1276.28 2005.41 1274.59 Q2003.9 1272.87 2001.22 1272.87 Q1998.53 1272.87 1997.03 1274.59 Q1995.52 1276.28 1995.52 1279.29 Q1995.52 1282.32 1997.03 1284.01 Q1998.53 1285.67 2001.22 1285.67 Z" fill="#000000" fill-rule="evenodd" fill-opacity="1" /><path clip-path="url(#clip960)" d="M1995.52 1249.12 Q1995.52 1252.73 1999.09 1254.56 Q2002.63 1256.37 2009.76 1256.37 Q2016.86 1256.37 2020.43 1254.56 Q2023.97 1252.73 2023.97 1249.12 Q2023.97 1245.49 2020.43 1243.68 Q2016.86 1241.85 2009.76 1241.85 Q2002.63 1241.85 1999.09 1243.68 Q1995.52 1245.49 1995.52 1249.12 M1991.82 1249.12 Q1991.82 1243.31 1996.42 1240.26 Q2001.01 1237.18 2009.76 1237.18 Q2018.48 1237.18 2023.09 1240.26 Q2027.67 1243.31 2027.67 1249.12 Q2027.67 1254.93 2023.09 1258.01 Q2018.48 1261.07 2009.76 1261.07 Q2001.01 1261.07 1996.42 1258.01 Q1991.82 1254.93 1991.82 1249.12 Z" fill="#000000" fill-rule="evenodd" fill-opacity="1" /><path clip-path="url(#clip960)" d="M2284.58 1541.46 L2284.58 1521.23 L2288.46 1521.23 L2307.1 1537.25 L2307.1 1521.23 L2310.5 1521.23 L2310.5 1542.04 L2306.61 1542.04 L2287.98 1526.02 L2287.98 1541.46 L2284.58 1541.46 Z" fill="#000000" fill-rule="evenodd" fill-opacity="1" /><path clip-path="url(#clip960)" d="M2310.5 1505.63 L2275.94 1518.82 L2275.94 1513.94 L2305.04 1502.99 L2275.94 1492.02 L2275.94 1487.15 L2310.5 1500.33 L2310.5 1505.63 Z" fill="#000000" fill-rule="evenodd" fill-opacity="1" /><path clip-path="url(#clip960)" d="M2280.55 1473.59 L2297.75 1479.93 L2297.75 1467.22 L2280.55 1473.59 M2275.94 1476.23 L2275.94 1470.93 L2310.5 1457.76 L2310.5 1462.62 L2301.64 1465.77 L2301.64 1481.34 L2310.5 1484.49 L2310.5 1489.42 L2275.94 1476.23 Z" fill="#000000" fill-rule="evenodd" fill-opacity="1" /><path clip-path="url(#clip960)" d="M2275.94 1454.38 L2275.94 1449.35 L2288.79 1440.77 L2275.94 1432.13 L2275.94 1427.11 L2292.54 1438.22 L2310.5 1426.37 L2310.5 1431.39 L2295.8 1441.11 L2310.5 1450.9 L2310.5 1455.95 L2292.05 1443.61 L2275.94 1454.38 Z" fill="#000000" fill-rule="evenodd" fill-opacity="1" /><path clip-path="url(#clip960)" d="M2291.91 1413.36 Q2293.79 1415.46 2295.66 1416.46 Q2297.52 1417.43 2299.55 1417.43 Q2302.93 1417.43 2305.18 1414.98 Q2307.42 1412.53 2307.42 1408.82 Q2307.42 1406.62 2306.7 1404.7 Q2305.96 1402.78 2304.48 1401.09 L2291.91 1413.36 M2289.32 1410.09 L2301.36 1398.34 Q2299.3 1396.97 2296.96 1396.21 Q2294.6 1395.44 2291.96 1395.3 L2291.96 1391 Q2295.02 1391.28 2298 1392.48 Q2300.99 1393.68 2303.9 1395.84 L2310.5 1389.38 L2310.5 1395.21 L2307.1 1398.52 Q2309.16 1400.93 2310.18 1403.57 Q2311.17 1406.21 2311.17 1409.24 Q2311.17 1414.82 2308 1418.36 Q2304.81 1421.9 2299.83 1421.9 Q2296.87 1421.9 2294.27 1420.35 Q2291.66 1418.8 2289.37 1415.7 Q2287.91 1416.81 2286.47 1417.39 Q2285.02 1417.96 2283.63 1417.96 Q2279.88 1417.96 2277.61 1415.4 Q2275.32 1412.83 2275.32 1408.57 Q2275.32 1406.65 2275.73 1404.75 Q2276.15 1402.83 2276.98 1400.86 L2281.2 1400.86 Q2280.11 1402.87 2279.55 1404.7 Q2278.97 1406.53 2278.97 1408.1 Q2278.97 1410.53 2280.27 1412.06 Q2281.54 1413.57 2283.58 1413.57 Q2284.76 1413.57 2285.96 1412.9 Q2287.14 1412.2 2289.32 1410.09 Z" fill="#000000" fill-rule="evenodd" fill-opacity="1" /><path clip-path="url(#clip960)" d="M2311.17 1375.19 Q2311.17 1384.79 2297.42 1384.79 Q2291.98 1384.79 2284.58 1381.21 L2284.58 1376.62 Q2291.98 1379.93 2297.54 1379.93 Q2307.56 1379.93 2307.56 1374.79 Q2307.56 1370.09 2295.11 1370.09 L2295.11 1366.16 Q2307.56 1366.16 2307.56 1361.46 Q2307.56 1356.32 2297.54 1356.32 Q2291.98 1356.32 2284.58 1359.63 L2284.58 1355.05 Q2291.98 1351.46 2297.42 1351.46 Q2311.17 1351.46 2311.17 1361.07 Q2311.17 1367.36 2304.25 1368.13 Q2311.17 1369.08 2311.17 1375.19 Z" fill="#000000" fill-rule="evenodd" fill-opacity="1" /><path clip-path="url(#clip960)" d="M2318.37 1324.05 L2321.68 1324.05 L2321.68 1348.68 L2318.37 1348.68 L2318.37 1324.05 Z" fill="#000000" fill-rule="evenodd" fill-opacity="1" /><path clip-path="url(#clip960)" d="M2306.57 1315.42 L2306.57 1299.1 L2310.5 1299.1 L2310.5 1321.04 L2306.57 1321.04 Q2303.81 1318.38 2299.18 1313.8 Q2294.53 1309.19 2293.19 1308.01 Q2290.66 1305.77 2288.93 1304.89 Q2287.17 1303.98 2285.48 1303.98 Q2282.72 1303.98 2280.99 1305.93 Q2279.25 1307.85 2279.25 1310.95 Q2279.25 1313.15 2280.02 1315.6 Q2280.78 1318.03 2282.33 1320.81 L2277.61 1320.81 Q2276.47 1317.99 2275.89 1315.53 Q2275.32 1313.08 2275.32 1311.04 Q2275.32 1305.67 2278 1302.48 Q2280.69 1299.28 2285.18 1299.28 Q2287.31 1299.28 2289.23 1300.1 Q2291.13 1300.88 2293.72 1302.99 Q2294.39 1303.57 2297.61 1306.67 Q2300.8 1309.77 2306.57 1315.42 Z" fill="#000000" fill-rule="evenodd" fill-opacity="1" /><path clip-path="url(#clip960)" d="M2275.94 1290.47 L2275.94 1268.24 L2277.93 1268.24 L2310.5 1280.79 L2310.5 1285.67 L2279.88 1273.87 L2279.88 1290.47 L2275.94 1290.47 Z" fill="#000000" fill-rule="evenodd" fill-opacity="1" /><path clip-path="url(#clip960)" d="M2279.02 1249.12 Q2279.02 1252.73 2282.58 1254.56 Q2286.13 1256.37 2293.26 1256.37 Q2300.36 1256.37 2303.93 1254.56 Q2307.47 1252.73 2307.47 1249.12 Q2307.47 1245.49 2303.93 1243.68 Q2300.36 1241.85 2293.26 1241.85 Q2286.13 1241.85 2282.58 1243.68 Q2279.02 1245.49 2279.02 1249.12 M2275.32 1249.12 Q2275.32 1243.31 2279.92 1240.26 Q2284.51 1237.18 2293.26 1237.18 Q2301.98 1237.18 2306.59 1240.26 Q2311.17 1243.31 2311.17 1249.12 Q2311.17 1254.93 2306.59 1258.01 Q2301.98 1261.07 2293.26 1261.07 Q2284.51 1261.07 2279.92 1258.01 Q2275.32 1254.93 2275.32 1249.12 Z" fill="#000000" fill-rule="evenodd" fill-opacity="1" /><polyline clip-path="url(#clip962)" style="stroke:#000000; stroke-linecap:round; stroke-linejoin:round; stroke-width:2; stroke-opacity:0.1; fill:none" points="
  249.195,1213.28 2352.76,1213.28 
  "/>
<polyline clip-path="url(#clip962)" style="stroke:#000000; stroke-linecap:round; stroke-linejoin:round; stroke-width:2; stroke-opacity:0.1; fill:none" points="
  249.195,936.993 2352.76,936.993 
  "/>
<polyline clip-path="url(#clip962)" style="stroke:#000000; stroke-linecap:round; stroke-linejoin:round; stroke-width:2; stroke-opacity:0.1; fill:none" points="
  249.195,660.71 2352.76,660.71 
  "/>
<polyline clip-path="url(#clip962)" style="stroke:#000000; stroke-linecap:round; stroke-linejoin:round; stroke-width:2; stroke-opacity:0.1; fill:none" points="
  249.195,384.427 2352.76,384.427 
  "/>
<polyline clip-path="url(#clip962)" style="stroke:#000000; stroke-linecap:round; stroke-linejoin:round; stroke-width:2; stroke-opacity:0.1; fill:none" points="
  249.195,108.144 2352.76,108.144 
  "/>
<polyline clip-path="url(#clip960)" style="stroke:#000000; stroke-linecap:round; stroke-linejoin:round; stroke-width:4; stroke-opacity:1; fill:none" points="
  249.195,1217.98 249.195,47.2441 
  "/>
<polyline clip-path="url(#clip960)" style="stroke:#000000; stroke-linecap:round; stroke-linejoin:round; stroke-width:4; stroke-opacity:1; fill:none" points="
  249.195,1213.28 268.092,1213.28 
  "/>
<polyline clip-path="url(#clip960)" style="stroke:#000000; stroke-linecap:round; stroke-linejoin:round; stroke-width:4; stroke-opacity:1; fill:none" points="
  249.195,936.993 268.092,936.993 
  "/>
<polyline clip-path="url(#clip960)" style="stroke:#000000; stroke-linecap:round; stroke-linejoin:round; stroke-width:4; stroke-opacity:1; fill:none" points="
  249.195,660.71 268.092,660.71 
  "/>
<polyline clip-path="url(#clip960)" style="stroke:#000000; stroke-linecap:round; stroke-linejoin:round; stroke-width:4; stroke-opacity:1; fill:none" points="
  249.195,384.427 268.092,384.427 
  "/>
<polyline clip-path="url(#clip960)" style="stroke:#000000; stroke-linecap:round; stroke-linejoin:round; stroke-width:4; stroke-opacity:1; fill:none" points="
  249.195,108.144 268.092,108.144 
  "/>
<path clip-path="url(#clip960)" d="M118.265 1226.62 L125.904 1226.62 L125.904 1200.26 L117.593 1201.92 L117.593 1197.66 L125.857 1196 L130.533 1196 L130.533 1226.62 L138.172 1226.62 L138.172 1230.56 L118.265 1230.56 L118.265 1226.62 Z" fill="#000000" fill-rule="evenodd" fill-opacity="1" /><path clip-path="url(#clip960)" d="M147.755 1229.84 L147.755 1225.58 Q149.515 1226.41 151.32 1226.85 Q153.126 1227.29 154.862 1227.29 Q159.491 1227.29 161.922 1224.19 Q164.376 1221.07 164.723 1214.72 Q163.38 1216.71 161.32 1217.78 Q159.26 1218.84 156.76 1218.84 Q151.575 1218.84 148.542 1215.72 Q145.533 1212.57 145.533 1207.13 Q145.533 1201.81 148.681 1198.59 Q151.829 1195.37 157.061 1195.37 Q163.056 1195.37 166.204 1199.98 Q169.376 1204.56 169.376 1213.31 Q169.376 1221.48 165.487 1226.37 Q161.621 1231.23 155.07 1231.23 Q153.311 1231.23 151.505 1230.88 Q149.7 1230.53 147.755 1229.84 M157.061 1215.19 Q160.209 1215.19 162.038 1213.03 Q163.89 1210.88 163.89 1207.13 Q163.89 1203.4 162.038 1201.25 Q160.209 1199.07 157.061 1199.07 Q153.913 1199.07 152.061 1201.25 Q150.232 1203.4 150.232 1207.13 Q150.232 1210.88 152.061 1213.03 Q153.913 1215.19 157.061 1215.19 Z" fill="#000000" fill-rule="evenodd" fill-opacity="1" /><path clip-path="url(#clip960)" d="M177.778 1224.68 L182.663 1224.68 L182.663 1230.56 L177.778 1230.56 L177.778 1224.68 Z" fill="#000000" fill-rule="evenodd" fill-opacity="1" /><path clip-path="url(#clip960)" d="M196.875 1226.62 L213.195 1226.62 L213.195 1230.56 L191.25 1230.56 L191.25 1226.62 Q193.913 1223.87 198.496 1219.24 Q203.102 1214.58 204.283 1213.24 Q206.528 1210.72 207.408 1208.98 Q208.311 1207.22 208.311 1205.53 Q208.311 1202.78 206.366 1201.04 Q204.445 1199.31 201.343 1199.31 Q199.144 1199.31 196.69 1200.07 Q194.26 1200.83 191.482 1202.38 L191.482 1197.66 Q194.306 1196.53 196.76 1195.95 Q199.213 1195.37 201.25 1195.37 Q206.621 1195.37 209.815 1198.06 Q213.01 1200.74 213.01 1205.23 Q213.01 1207.36 212.199 1209.28 Q211.412 1211.18 209.306 1213.77 Q208.727 1214.45 205.625 1217.66 Q202.524 1220.86 196.875 1226.62 Z" fill="#000000" fill-rule="evenodd" fill-opacity="1" /><path clip-path="url(#clip960)" d="M116.181 950.338 L123.82 950.338 L123.82 923.972 L115.51 925.639 L115.51 921.38 L123.774 919.713 L128.45 919.713 L128.45 950.338 L136.089 950.338 L136.089 954.273 L116.181 954.273 L116.181 950.338 Z" fill="#000000" fill-rule="evenodd" fill-opacity="1" /><path clip-path="url(#clip960)" d="M145.672 953.556 L145.672 949.296 Q147.431 950.13 149.237 950.569 Q151.042 951.009 152.778 951.009 Q157.408 951.009 159.839 947.907 Q162.292 944.782 162.64 938.44 Q161.297 940.431 159.237 941.495 Q157.177 942.56 154.677 942.56 Q149.491 942.56 146.459 939.435 Q143.45 936.287 143.45 930.847 Q143.45 925.523 146.598 922.306 Q149.746 919.088 154.978 919.088 Q160.973 919.088 164.121 923.695 Q167.292 928.278 167.292 937.028 Q167.292 945.199 163.403 950.083 Q159.538 954.944 152.987 954.944 Q151.228 954.944 149.422 954.597 Q147.616 954.25 145.672 953.556 M154.978 938.903 Q158.126 938.903 159.954 936.75 Q161.806 934.597 161.806 930.847 Q161.806 927.121 159.954 924.968 Q158.126 922.792 154.978 922.792 Q151.829 922.792 149.978 924.968 Q148.149 927.121 148.149 930.847 Q148.149 934.597 149.978 936.75 Q151.829 938.903 154.978 938.903 Z" fill="#000000" fill-rule="evenodd" fill-opacity="1" /><path clip-path="url(#clip960)" d="M175.695 948.394 L180.579 948.394 L180.579 954.273 L175.695 954.273 L175.695 948.394 Z" fill="#000000" fill-rule="evenodd" fill-opacity="1" /><path clip-path="url(#clip960)" d="M203.612 923.787 L191.806 942.236 L203.612 942.236 L203.612 923.787 M202.385 919.713 L208.264 919.713 L208.264 942.236 L213.195 942.236 L213.195 946.125 L208.264 946.125 L208.264 954.273 L203.612 954.273 L203.612 946.125 L188.01 946.125 L188.01 941.611 L202.385 919.713 Z" fill="#000000" fill-rule="evenodd" fill-opacity="1" /><path clip-path="url(#clip960)" d="M116.506 674.055 L124.144 674.055 L124.144 647.689 L115.834 649.356 L115.834 645.097 L124.098 643.43 L128.774 643.43 L128.774 674.055 L136.413 674.055 L136.413 677.99 L116.506 677.99 L116.506 674.055 Z" fill="#000000" fill-rule="evenodd" fill-opacity="1" /><path clip-path="url(#clip960)" d="M145.996 677.273 L145.996 673.013 Q147.755 673.847 149.561 674.287 Q151.366 674.726 153.103 674.726 Q157.732 674.726 160.163 671.625 Q162.616 668.5 162.964 662.157 Q161.621 664.148 159.561 665.213 Q157.501 666.277 155.001 666.277 Q149.816 666.277 146.783 663.152 Q143.774 660.004 143.774 654.564 Q143.774 649.24 146.922 646.023 Q150.07 642.805 155.302 642.805 Q161.297 642.805 164.445 647.412 Q167.616 651.995 167.616 660.745 Q167.616 668.916 163.727 673.8 Q159.862 678.662 153.311 678.662 Q151.552 678.662 149.746 678.314 Q147.941 677.967 145.996 677.273 M155.302 662.62 Q158.45 662.62 160.278 660.467 Q162.13 658.314 162.13 654.564 Q162.13 650.838 160.278 648.685 Q158.45 646.509 155.302 646.509 Q152.153 646.509 150.302 648.685 Q148.473 650.838 148.473 654.564 Q148.473 658.314 150.302 660.467 Q152.153 662.62 155.302 662.62 Z" fill="#000000" fill-rule="evenodd" fill-opacity="1" /><path clip-path="url(#clip960)" d="M176.019 672.111 L180.903 672.111 L180.903 677.99 L176.019 677.99 L176.019 672.111 Z" fill="#000000" fill-rule="evenodd" fill-opacity="1" /><path clip-path="url(#clip960)" d="M201.667 658.847 Q198.519 658.847 196.667 661 Q194.838 663.152 194.838 666.902 Q194.838 670.629 196.667 672.805 Q198.519 674.958 201.667 674.958 Q204.815 674.958 206.644 672.805 Q208.496 670.629 208.496 666.902 Q208.496 663.152 206.644 661 Q204.815 658.847 201.667 658.847 M210.949 644.194 L210.949 648.453 Q209.19 647.62 207.385 647.18 Q205.602 646.74 203.843 646.74 Q199.213 646.74 196.76 649.865 Q194.329 652.99 193.982 659.31 Q195.348 657.296 197.408 656.231 Q199.468 655.143 201.945 655.143 Q207.153 655.143 210.162 658.314 Q213.195 661.463 213.195 666.902 Q213.195 672.226 210.047 675.444 Q206.899 678.662 201.667 678.662 Q195.672 678.662 192.5 674.078 Q189.329 669.472 189.329 660.745 Q189.329 652.551 193.218 647.689 Q197.107 642.805 203.658 642.805 Q205.417 642.805 207.199 643.152 Q209.005 643.5 210.949 644.194 Z" fill="#000000" fill-rule="evenodd" fill-opacity="1" /><path clip-path="url(#clip960)" d="M116.76 397.772 L124.399 397.772 L124.399 371.407 L116.089 373.073 L116.089 368.814 L124.353 367.147 L129.029 367.147 L129.029 397.772 L136.667 397.772 L136.667 401.707 L116.76 401.707 L116.76 397.772 Z" fill="#000000" fill-rule="evenodd" fill-opacity="1" /><path clip-path="url(#clip960)" d="M146.251 400.99 L146.251 396.73 Q148.01 397.564 149.816 398.004 Q151.621 398.443 153.357 398.443 Q157.987 398.443 160.417 395.342 Q162.871 392.217 163.218 385.874 Q161.876 387.865 159.815 388.93 Q157.755 389.994 155.255 389.994 Q150.07 389.994 147.038 386.869 Q144.029 383.721 144.029 378.281 Q144.029 372.957 147.177 369.74 Q150.325 366.522 155.556 366.522 Q161.552 366.522 164.7 371.129 Q167.871 375.712 167.871 384.462 Q167.871 392.633 163.982 397.517 Q160.116 402.379 153.566 402.379 Q151.806 402.379 150.001 402.031 Q148.195 401.684 146.251 400.99 M155.556 386.337 Q158.704 386.337 160.533 384.184 Q162.385 382.031 162.385 378.281 Q162.385 374.555 160.533 372.402 Q158.704 370.226 155.556 370.226 Q152.408 370.226 150.556 372.402 Q148.728 374.555 148.728 378.281 Q148.728 382.031 150.556 384.184 Q152.408 386.337 155.556 386.337 Z" fill="#000000" fill-rule="evenodd" fill-opacity="1" /><path clip-path="url(#clip960)" d="M176.274 395.828 L181.158 395.828 L181.158 401.707 L176.274 401.707 L176.274 395.828 Z" fill="#000000" fill-rule="evenodd" fill-opacity="1" /><path clip-path="url(#clip960)" d="M201.343 385.295 Q198.01 385.295 196.088 387.078 Q194.19 388.86 194.19 391.985 Q194.19 395.11 196.088 396.893 Q198.01 398.675 201.343 398.675 Q204.676 398.675 206.598 396.893 Q208.519 395.087 208.519 391.985 Q208.519 388.86 206.598 387.078 Q204.699 385.295 201.343 385.295 M196.667 383.305 Q193.658 382.564 191.968 380.504 Q190.301 378.444 190.301 375.481 Q190.301 371.337 193.241 368.93 Q196.204 366.522 201.343 366.522 Q206.505 366.522 209.445 368.93 Q212.385 371.337 212.385 375.481 Q212.385 378.444 210.695 380.504 Q209.028 382.564 206.042 383.305 Q209.422 384.092 211.297 386.383 Q213.195 388.675 213.195 391.985 Q213.195 397.008 210.116 399.693 Q207.061 402.379 201.343 402.379 Q195.625 402.379 192.547 399.693 Q189.491 397.008 189.491 391.985 Q189.491 388.675 191.389 386.383 Q193.288 384.092 196.667 383.305 M194.954 375.92 Q194.954 378.606 196.621 380.11 Q198.311 381.615 201.343 381.615 Q204.352 381.615 206.042 380.11 Q207.755 378.606 207.755 375.92 Q207.755 373.235 206.042 371.731 Q204.352 370.226 201.343 370.226 Q198.311 370.226 196.621 371.731 Q194.954 373.235 194.954 375.92 Z" fill="#000000" fill-rule="evenodd" fill-opacity="1" /><path clip-path="url(#clip960)" d="M119.885 121.489 L136.204 121.489 L136.204 125.424 L114.26 125.424 L114.26 121.489 Q116.922 118.735 121.505 114.105 Q126.112 109.452 127.292 108.11 Q129.538 105.586 130.417 103.85 Q131.32 102.091 131.32 100.401 Q131.32 97.6467 129.376 95.9106 Q127.455 94.1745 124.353 94.1745 Q122.154 94.1745 119.7 94.9384 Q117.269 95.7023 114.492 97.2532 L114.492 92.531 Q117.316 91.3968 119.769 90.8181 Q122.223 90.2394 124.26 90.2394 Q129.63 90.2394 132.825 92.9245 Q136.019 95.6097 136.019 100.1 Q136.019 102.23 135.209 104.151 Q134.422 106.049 132.316 108.642 Q131.737 109.313 128.635 112.531 Q125.533 115.725 119.885 121.489 Z" fill="#000000" fill-rule="evenodd" fill-opacity="1" /><path clip-path="url(#clip960)" d="M156.019 93.943 Q152.408 93.943 150.579 97.5078 Q148.774 101.049 148.774 108.179 Q148.774 115.286 150.579 118.85 Q152.408 122.392 156.019 122.392 Q159.653 122.392 161.459 118.85 Q163.288 115.286 163.288 108.179 Q163.288 101.049 161.459 97.5078 Q159.653 93.943 156.019 93.943 M156.019 90.2394 Q161.829 90.2394 164.885 94.8458 Q167.964 99.4291 167.964 108.179 Q167.964 116.906 164.885 121.512 Q161.829 126.096 156.019 126.096 Q150.209 126.096 147.13 121.512 Q144.075 116.906 144.075 108.179 Q144.075 99.4291 147.13 94.8458 Q150.209 90.2394 156.019 90.2394 Z" fill="#000000" fill-rule="evenodd" fill-opacity="1" /><path clip-path="url(#clip960)" d="M176.181 119.545 L181.065 119.545 L181.065 125.424 L176.181 125.424 L176.181 119.545 Z" fill="#000000" fill-rule="evenodd" fill-opacity="1" /><path clip-path="url(#clip960)" d="M201.25 93.943 Q197.639 93.943 195.811 97.5078 Q194.005 101.049 194.005 108.179 Q194.005 115.286 195.811 118.85 Q197.639 122.392 201.25 122.392 Q204.885 122.392 206.69 118.85 Q208.519 115.286 208.519 108.179 Q208.519 101.049 206.69 97.5078 Q204.885 93.943 201.25 93.943 M201.25 90.2394 Q207.061 90.2394 210.116 94.8458 Q213.195 99.4291 213.195 108.179 Q213.195 116.906 210.116 121.512 Q207.061 126.096 201.25 126.096 Q195.44 126.096 192.362 121.512 Q189.306 116.906 189.306 108.179 Q189.306 99.4291 192.362 94.8458 Q195.44 90.2394 201.25 90.2394 Z" fill="#000000" fill-rule="evenodd" fill-opacity="1" /><path clip-path="url(#clip960)" d="M21.7677 968.084 L58.7206 968.084 L58.7206 960.318 Q58.7206 950.483 54.2646 945.932 Q49.8086 941.348 40.1964 941.348 Q30.6479 941.348 26.2237 945.932 Q21.7677 950.483 21.7677 960.318 L21.7677 968.084 M16.4842 974.514 L16.4842 961.305 Q16.4842 947.491 22.2451 941.03 Q27.9743 934.569 40.1964 934.569 Q52.4822 934.569 58.2432 941.062 Q64.0042 947.555 64.0042 961.305 L64.0042 974.514 L16.4842 974.514 Z" fill="#000000" fill-rule="evenodd" fill-opacity="1" /><path clip-path="url(#clip960)" d="M49.9359 925.179 L28.3562 925.179 L28.3562 919.323 L49.7131 919.323 Q54.7739 919.323 57.3202 917.35 Q59.8346 915.376 59.8346 911.429 Q59.8346 906.687 56.8109 903.95 Q53.7872 901.181 48.5673 901.181 L28.3562 901.181 L28.3562 895.324 L64.0042 895.324 L64.0042 901.181 L58.5296 901.181 Q61.7762 903.313 63.3676 906.146 Q64.9272 908.947 64.9272 912.671 Q64.9272 918.814 61.1078 921.996 Q57.2883 925.179 49.9359 925.179 M27.4968 910.443 L27.4968 910.443 Z" fill="#000000" fill-rule="evenodd" fill-opacity="1" /><path clip-path="url(#clip960)" d="M29.4065 860.536 L34.9447 860.536 Q33.6716 863.018 33.035 865.692 Q32.3984 868.365 32.3984 871.23 Q32.3984 875.59 33.7352 877.787 Q35.072 879.951 37.7456 879.951 Q39.7826 879.951 40.9603 878.391 Q42.1061 876.832 43.1565 872.121 L43.6021 870.116 Q44.9389 863.878 47.3897 861.268 Q49.8086 858.626 54.1691 858.626 Q59.1344 858.626 62.0308 862.573 Q64.9272 866.488 64.9272 873.362 Q64.9272 876.227 64.3543 879.346 Q63.8132 882.434 62.6992 885.871 L56.6518 885.871 Q58.3387 882.625 59.198 879.474 Q60.0256 876.323 60.0256 873.235 Q60.0256 869.097 58.6251 866.869 Q57.1929 864.641 54.6147 864.641 Q52.2276 864.641 50.9545 866.265 Q49.6813 867.856 48.5037 873.299 L48.0262 875.336 Q46.8804 880.779 44.5251 883.197 Q42.138 885.616 38.0002 885.616 Q32.9713 885.616 30.2341 882.052 Q27.4968 878.487 27.4968 871.93 Q27.4968 868.684 27.9743 865.819 Q28.4517 862.955 29.4065 860.536 Z" fill="#000000" fill-rule="evenodd" fill-opacity="1" /><path clip-path="url(#clip960)" d="M18.2347 843.507 L28.3562 843.507 L28.3562 831.444 L32.9077 831.444 L32.9077 843.507 L52.2594 843.507 Q56.6199 843.507 57.8613 842.33 Q59.1026 841.12 59.1026 837.46 L59.1026 831.444 L64.0042 831.444 L64.0042 837.46 Q64.0042 844.239 61.4897 846.817 Q58.9434 849.396 52.2594 849.396 L32.9077 849.396 L32.9077 853.692 L28.3562 853.692 L28.3562 849.396 L18.2347 849.396 L18.2347 843.507 Z" fill="#000000" fill-rule="evenodd" fill-opacity="1" /><path clip-path="url(#clip960)" d="M18.2347 797.229 L28.3562 797.229 L28.3562 785.166 L32.9077 785.166 L32.9077 797.229 L52.2594 797.229 Q56.6199 797.229 57.8613 796.051 Q59.1026 794.841 59.1026 791.181 L59.1026 785.166 L64.0042 785.166 L64.0042 791.181 Q64.0042 797.961 61.4897 800.539 Q58.9434 803.117 52.2594 803.117 L32.9077 803.117 L32.9077 807.414 L28.3562 807.414 L28.3562 803.117 L18.2347 803.117 L18.2347 797.229 Z" fill="#000000" fill-rule="evenodd" fill-opacity="1" /><path clip-path="url(#clip960)" d="M44.7161 746.971 L47.5806 746.971 L47.5806 773.898 Q53.6281 773.516 56.8109 770.27 Q59.9619 766.992 59.9619 761.167 Q59.9619 757.793 59.1344 754.642 Q58.3069 751.459 56.6518 748.34 L62.1899 748.34 Q63.5267 751.491 64.227 754.801 Q64.9272 758.111 64.9272 761.517 Q64.9272 770.047 59.9619 775.044 Q54.9967 780.009 46.5303 780.009 Q37.7774 780.009 32.6531 775.299 Q27.4968 770.556 27.4968 762.536 Q27.4968 755.342 32.1438 751.173 Q36.7589 746.971 44.7161 746.971 M42.9973 752.828 Q38.1912 752.891 35.3266 755.533 Q32.4621 758.143 32.4621 762.472 Q32.4621 767.373 35.2312 770.334 Q38.0002 773.262 43.0292 773.707 L42.9973 752.828 Z" fill="#000000" fill-rule="evenodd" fill-opacity="1" /><path clip-path="url(#clip960)" d="M35.1993 709.605 Q31.2526 707.408 29.3747 704.353 Q27.4968 701.297 27.4968 697.16 Q27.4968 691.59 31.4117 688.566 Q35.2948 685.542 42.4881 685.542 L64.0042 685.542 L64.0042 691.431 L42.679 691.431 Q37.5546 691.431 35.072 693.245 Q32.5894 695.059 32.5894 698.783 Q32.5894 703.334 35.6131 705.976 Q38.6368 708.618 43.8567 708.618 L64.0042 708.618 L64.0042 714.506 L42.679 714.506 Q37.5228 714.506 35.072 716.32 Q32.5894 718.135 32.5894 721.922 Q32.5894 726.41 35.6449 729.052 Q38.6686 731.694 43.8567 731.694 L64.0042 731.694 L64.0042 737.582 L28.3562 737.582 L28.3562 731.694 L33.8944 731.694 Q30.616 729.688 29.0564 726.888 Q27.4968 724.087 27.4968 720.235 Q27.4968 716.352 29.4702 713.647 Q31.4436 710.91 35.1993 709.605 Z" fill="#000000" fill-rule="evenodd" fill-opacity="1" /><path clip-path="url(#clip960)" d="M58.657 668.196 L77.5631 668.196 L77.5631 674.084 L28.3562 674.084 L28.3562 668.196 L33.7671 668.196 Q30.5842 666.35 29.0564 663.549 Q27.4968 660.716 27.4968 656.801 Q27.4968 650.308 32.6531 646.266 Q37.8093 642.192 46.212 642.192 Q54.6147 642.192 59.771 646.266 Q64.9272 650.308 64.9272 656.801 Q64.9272 660.716 63.3994 663.549 Q61.8398 666.35 58.657 668.196 M46.212 648.271 Q39.7508 648.271 36.0905 650.945 Q32.3984 653.586 32.3984 658.233 Q32.3984 662.88 36.0905 665.554 Q39.7508 668.196 46.212 668.196 Q52.6732 668.196 56.3653 665.554 Q60.0256 662.88 60.0256 658.233 Q60.0256 653.586 56.3653 650.945 Q52.6732 648.271 46.212 648.271 Z" fill="#000000" fill-rule="evenodd" fill-opacity="1" /><path clip-path="url(#clip960)" d="M44.7161 601.992 L47.5806 601.992 L47.5806 628.919 Q53.6281 628.537 56.8109 625.291 Q59.9619 622.013 59.9619 616.188 Q59.9619 612.814 59.1344 609.663 Q58.3069 606.48 56.6518 603.361 L62.1899 603.361 Q63.5267 606.512 64.227 609.822 Q64.9272 613.132 64.9272 616.538 Q64.9272 625.068 59.9619 630.065 Q54.9967 635.03 46.5303 635.03 Q37.7774 635.03 32.6531 630.32 Q27.4968 625.577 27.4968 617.557 Q27.4968 610.363 32.1438 606.194 Q36.7589 601.992 44.7161 601.992 M42.9973 607.849 Q38.1912 607.913 35.3266 610.554 Q32.4621 613.164 32.4621 617.493 Q32.4621 622.394 35.2312 625.355 Q38.0002 628.283 43.0292 628.728 L42.9973 607.849 Z" fill="#000000" fill-rule="evenodd" fill-opacity="1" /><path clip-path="url(#clip960)" d="M33.8307 571.723 Q33.2578 572.71 33.0032 573.888 Q32.7167 575.034 32.7167 576.434 Q32.7167 581.399 35.9632 584.073 Q39.1779 586.715 45.2253 586.715 L64.0042 586.715 L64.0042 592.603 L28.3562 592.603 L28.3562 586.715 L33.8944 586.715 Q30.6479 584.869 29.0883 581.909 Q27.4968 578.949 27.4968 574.715 Q27.4968 574.111 27.5923 573.379 Q27.656 572.646 27.8151 571.755 L33.8307 571.723 Z" fill="#000000" fill-rule="evenodd" fill-opacity="1" /><path clip-path="url(#clip960)" d="M46.0847 549.38 Q46.0847 556.478 47.7079 559.215 Q49.3312 561.952 53.2461 561.952 Q56.3653 561.952 58.2114 559.915 Q60.0256 557.846 60.0256 554.313 Q60.0256 549.443 56.5881 546.515 Q53.1188 543.555 47.3897 543.555 L46.0847 543.555 L46.0847 549.38 M43.6657 537.699 L64.0042 537.699 L64.0042 543.555 L58.5933 543.555 Q61.8398 545.56 63.3994 548.552 Q64.9272 551.544 64.9272 555.873 Q64.9272 561.347 61.8716 564.594 Q58.7843 567.809 53.6281 567.809 Q47.6125 567.809 44.5569 563.798 Q41.5014 559.756 41.5014 551.767 L41.5014 543.555 L40.9285 543.555 Q36.8862 543.555 34.6901 546.229 Q32.4621 548.871 32.4621 553.677 Q32.4621 556.732 33.1941 559.629 Q33.9262 562.525 35.3903 565.199 L29.9795 565.199 Q28.7381 561.984 28.1334 558.96 Q27.4968 555.937 27.4968 553.072 Q27.4968 545.338 31.5072 541.518 Q35.5176 537.699 43.6657 537.699 Z" fill="#000000" fill-rule="evenodd" fill-opacity="1" /><path clip-path="url(#clip960)" d="M18.2347 519.843 L28.3562 519.843 L28.3562 507.78 L32.9077 507.78 L32.9077 519.843 L52.2594 519.843 Q56.6199 519.843 57.8613 518.665 Q59.1026 517.456 59.1026 513.796 L59.1026 507.78 L64.0042 507.78 L64.0042 513.796 Q64.0042 520.575 61.4897 523.153 Q58.9434 525.731 52.2594 525.731 L32.9077 525.731 L32.9077 530.028 L28.3562 530.028 L28.3562 525.731 L18.2347 525.731 L18.2347 519.843 Z" fill="#000000" fill-rule="evenodd" fill-opacity="1" /><path clip-path="url(#clip960)" d="M49.9359 500.682 L28.3562 500.682 L28.3562 494.826 L49.7131 494.826 Q54.7739 494.826 57.3202 492.852 Q59.8346 490.879 59.8346 486.932 Q59.8346 482.19 56.8109 479.453 Q53.7872 476.683 48.5673 476.683 L28.3562 476.683 L28.3562 470.827 L64.0042 470.827 L64.0042 476.683 L58.5296 476.683 Q61.7762 478.816 63.3676 481.649 Q64.9272 484.45 64.9272 488.174 Q64.9272 494.316 61.1078 497.499 Q57.2883 500.682 49.9359 500.682 M27.4968 485.946 L27.4968 485.946 Z" fill="#000000" fill-rule="evenodd" fill-opacity="1" /><path clip-path="url(#clip960)" d="M33.8307 438.107 Q33.2578 439.094 33.0032 440.272 Q32.7167 441.417 32.7167 442.818 Q32.7167 447.783 35.9632 450.457 Q39.1779 453.099 45.2253 453.099 L64.0042 453.099 L64.0042 458.987 L28.3562 458.987 L28.3562 453.099 L33.8944 453.099 Q30.6479 451.252 29.0883 448.292 Q27.4968 445.332 27.4968 441.099 Q27.4968 440.494 27.5923 439.762 Q27.656 439.03 27.8151 438.139 L33.8307 438.107 Z" fill="#000000" fill-rule="evenodd" fill-opacity="1" /><path clip-path="url(#clip960)" d="M44.7161 402.905 L47.5806 402.905 L47.5806 429.832 Q53.6281 429.45 56.8109 426.203 Q59.9619 422.925 59.9619 417.1 Q59.9619 413.727 59.1344 410.576 Q58.3069 407.393 56.6518 404.274 L62.1899 404.274 Q63.5267 407.425 64.227 410.735 Q64.9272 414.045 64.9272 417.451 Q64.9272 425.981 59.9619 430.978 Q54.9967 435.943 46.5303 435.943 Q37.7774 435.943 32.6531 431.232 Q27.4968 426.49 27.4968 418.469 Q27.4968 411.276 32.1438 407.106 Q36.7589 402.905 44.7161 402.905 M42.9973 408.761 Q38.1912 408.825 35.3266 411.467 Q32.4621 414.077 32.4621 418.405 Q32.4621 423.307 35.2312 426.267 Q38.0002 429.195 43.0292 429.641 L42.9973 408.761 Z" fill="#000000" fill-rule="evenodd" fill-opacity="1" /><path clip-path="url(#clip960)" d="M14.479 373.113 L14.479 359.618 L19.0304 359.618 L19.0304 367.257 L68.0464 367.257 L68.0464 359.618 L72.5979 359.618 L72.5979 373.113 L14.479 373.113 Z" fill="#000000" fill-rule="evenodd" fill-opacity="1" /><path clip-path="url(#clip960)" d="M16.4842 346.887 L16.4842 340.457 L36.568 340.457 L16.4842 319.132 L16.4842 310.857 L38.6368 334.442 L64.0042 309.17 L64.0042 317.636 L41.1194 340.457 L64.0042 340.457 L64.0042 346.887 L16.4842 346.887 Z" fill="#000000" fill-rule="evenodd" fill-opacity="1" /><path clip-path="url(#clip960)" d="M14.479 290.709 L72.5979 290.709 L72.5979 304.205 L68.0464 304.205 L68.0464 296.598 L19.0304 296.598 L19.0304 304.205 L14.479 304.205 L14.479 290.709 Z" fill="#000000" fill-rule="evenodd" fill-opacity="1" /><polyline clip-path="url(#clip962)" style="stroke:#000000; stroke-linecap:round; stroke-linejoin:round; stroke-width:4; stroke-opacity:1; fill:none" points="
  308.73,1184.4 308.73,86.0592 
  "/>
<line clip-path="url(#clip962)" x1="324.73" y1="1184.4" x2="292.73" y2="1184.4" style="stroke:#000000; stroke-width:3.2; stroke-opacity:1"/>
<line clip-path="url(#clip962)" x1="324.73" y1="86.0592" x2="292.73" y2="86.0592" style="stroke:#000000; stroke-width:3.2; stroke-opacity:1"/>
<circle clip-path="url(#clip962)" cx="308.73" cy="635.229" r="14.4" fill="#009af9" fill-rule="evenodd" fill-opacity="1" stroke="#000000" stroke-opacity="1" stroke-width="3.2"/>
<polyline clip-path="url(#clip962)" style="stroke:#000000; stroke-linecap:round; stroke-linejoin:round; stroke-width:4; stroke-opacity:1; fill:none" points="
  592.228,1179.24 592.228,80.3781 
  "/>
<line clip-path="url(#clip962)" x1="608.228" y1="1179.24" x2="576.228" y2="1179.24" style="stroke:#000000; stroke-width:3.2; stroke-opacity:1"/>
<line clip-path="url(#clip962)" x1="608.228" y1="80.3781" x2="576.228" y2="80.3781" style="stroke:#000000; stroke-width:3.2; stroke-opacity:1"/>
<circle clip-path="url(#clip962)" cx="592.228" cy="629.808" r="14.4" fill="#e26f46" fill-rule="evenodd" fill-opacity="1" stroke="#000000" stroke-opacity="1" stroke-width="3.2"/>
<polyline clip-path="url(#clip962)" style="stroke:#000000; stroke-linecap:round; stroke-linejoin:round; stroke-width:4; stroke-opacity:1; fill:none" points="
  875.727,1184.18 875.727,85.8143 
  "/>
<line clip-path="url(#clip962)" x1="891.727" y1="1184.18" x2="859.727" y2="1184.18" style="stroke:#000000; stroke-width:3.2; stroke-opacity:1"/>
<line clip-path="url(#clip962)" x1="891.727" y1="85.8143" x2="859.727" y2="85.8143" style="stroke:#000000; stroke-width:3.2; stroke-opacity:1"/>
<circle clip-path="url(#clip962)" cx="875.727" cy="634.995" r="14.4" fill="#3da44d" fill-rule="evenodd" fill-opacity="1" stroke="#000000" stroke-opacity="1" stroke-width="3.2"/>
<polyline clip-path="url(#clip962)" style="stroke:#000000; stroke-linecap:round; stroke-linejoin:round; stroke-width:4; stroke-opacity:1; fill:none" points="
  1159.23,1184.84 1159.23,86.5514 
  "/>
<line clip-path="url(#clip962)" x1="1175.23" y1="1184.84" x2="1143.23" y2="1184.84" style="stroke:#000000; stroke-width:3.2; stroke-opacity:1"/>
<line clip-path="url(#clip962)" x1="1175.23" y1="86.5514" x2="1143.23" y2="86.5514" style="stroke:#000000; stroke-width:3.2; stroke-opacity:1"/>
<circle clip-path="url(#clip962)" cx="1159.23" cy="635.698" r="14.4" fill="#c271d2" fill-rule="evenodd" fill-opacity="1" stroke="#000000" stroke-opacity="1" stroke-width="3.2"/>
<polyline clip-path="url(#clip962)" style="stroke:#000000; stroke-linecap:round; stroke-linejoin:round; stroke-width:4; stroke-opacity:1; fill:none" points="
  1442.72,1184.39 1442.72,86.0558 
  "/>
<line clip-path="url(#clip962)" x1="1458.72" y1="1184.39" x2="1426.72" y2="1184.39" style="stroke:#000000; stroke-width:3.2; stroke-opacity:1"/>
<line clip-path="url(#clip962)" x1="1458.72" y1="86.0558" x2="1426.72" y2="86.0558" style="stroke:#000000; stroke-width:3.2; stroke-opacity:1"/>
<circle clip-path="url(#clip962)" cx="1442.72" cy="635.225" r="14.4" fill="#ac8d18" fill-rule="evenodd" fill-opacity="1" stroke="#000000" stroke-opacity="1" stroke-width="3.2"/>
<polyline clip-path="url(#clip962)" style="stroke:#000000; stroke-linecap:round; stroke-linejoin:round; stroke-width:4; stroke-opacity:1; fill:none" points="
  1726.22,1184.38 1726.22,86.0375 
  "/>
<line clip-path="url(#clip962)" x1="1742.22" y1="1184.38" x2="1710.22" y2="1184.38" style="stroke:#000000; stroke-width:3.2; stroke-opacity:1"/>
<line clip-path="url(#clip962)" x1="1742.22" y1="86.0375" x2="1710.22" y2="86.0375" style="stroke:#000000; stroke-width:3.2; stroke-opacity:1"/>
<circle clip-path="url(#clip962)" cx="1726.22" cy="635.208" r="14.4" fill="#00a9ad" fill-rule="evenodd" fill-opacity="1" stroke="#000000" stroke-opacity="1" stroke-width="3.2"/>
<polyline clip-path="url(#clip962)" style="stroke:#000000; stroke-linecap:round; stroke-linejoin:round; stroke-width:4; stroke-opacity:1; fill:none" points="
  2009.72,1184.4 2009.72,86.0623 
  "/>
<line clip-path="url(#clip962)" x1="2025.72" y1="1184.4" x2="1993.72" y2="1184.4" style="stroke:#000000; stroke-width:3.2; stroke-opacity:1"/>
<line clip-path="url(#clip962)" x1="2025.72" y1="86.0623" x2="1993.72" y2="86.0623" style="stroke:#000000; stroke-width:3.2; stroke-opacity:1"/>
<circle clip-path="url(#clip962)" cx="2009.72" cy="635.232" r="14.4" fill="#ed5d92" fill-rule="evenodd" fill-opacity="1" stroke="#000000" stroke-opacity="1" stroke-width="3.2"/>
<polyline clip-path="url(#clip962)" style="stroke:#000000; stroke-linecap:round; stroke-linejoin:round; stroke-width:4; stroke-opacity:1; fill:none" points="
  2293.22,1184.4 2293.22,86.057 
  "/>
<line clip-path="url(#clip962)" x1="2309.22" y1="1184.4" x2="2277.22" y2="1184.4" style="stroke:#000000; stroke-width:3.2; stroke-opacity:1"/>
<line clip-path="url(#clip962)" x1="2309.22" y1="86.057" x2="2277.22" y2="86.057" style="stroke:#000000; stroke-width:3.2; stroke-opacity:1"/>
<circle clip-path="url(#clip962)" cx="2293.22" cy="635.227" r="14.4" fill="#c68125" fill-rule="evenodd" fill-opacity="1" stroke="#000000" stroke-opacity="1" stroke-width="3.2"/>
</svg>
