<?xml version="1.0" encoding="utf-8"?>
<svg xmlns="http://www.w3.org/2000/svg" xmlns:xlink="http://www.w3.org/1999/xlink" width="600" height="400" viewBox="0 0 2400 1600">
<defs>
  <clipPath id="clip790">
    <rect x="0" y="0" width="2400" height="1600"/>
  </clipPath>
</defs>
<path clip-path="url(#clip790)" d="
M0 1600 L2400 1600 L2400 0 L0 0  Z
  " fill="#ffffff" fill-rule="evenodd" fill-opacity="1"/>
<defs>
  <clipPath id="clip791">
    <rect x="480" y="0" width="1681" height="1600"/>
  </clipPath>
</defs>
<path clip-path="url(#clip790)" d="
M347.69 1217.98 L2352.76 1217.98 L2352.76 47.2441 L347.69 47.2441  Z
  " fill="#ffffff" fill-rule="evenodd" fill-opacity="1"/>
<defs>
  <clipPath id="clip792">
    <rect x="347" y="47" width="2006" height="1172"/>
  </clipPath>
</defs>
<polyline clip-path="url(#clip792)" style="stroke:#000000; stroke-linecap:round; stroke-linejoin:round; stroke-width:2; stroke-opacity:0.1; fill:none" points="
  404.437,1217.98 404.437,47.2441 
  "/>
<polyline clip-path="url(#clip792)" style="stroke:#000000; stroke-linecap:round; stroke-linejoin:round; stroke-width:2; stroke-opacity:0.1; fill:none" points="
  674.661,1217.98 674.661,47.2441 
  "/>
<polyline clip-path="url(#clip792)" style="stroke:#000000; stroke-linecap:round; stroke-linejoin:round; stroke-width:2; stroke-opacity:0.1; fill:none" points="
  944.886,1217.98 944.886,47.2441 
  "/>
<polyline clip-path="url(#clip792)" style="stroke:#000000; stroke-linecap:round; stroke-linejoin:round; stroke-width:2; stroke-opacity:0.1; fill:none" points="
  1215.11,1217.98 1215.11,47.2441 
  "/>
<polyline clip-path="url(#clip792)" style="stroke:#000000; stroke-linecap:round; stroke-linejoin:round; stroke-width:2; stroke-opacity:0.1; fill:none" points="
  1485.34,1217.98 1485.34,47.2441 
  "/>
<polyline clip-path="url(#clip792)" style="stroke:#000000; stroke-linecap:round; stroke-linejoin:round; stroke-width:2; stroke-opacity:0.1; fill:none" points="
  1755.56,1217.98 1755.56,47.2441 
  "/>
<polyline clip-path="url(#clip792)" style="stroke:#000000; stroke-linecap:round; stroke-linejoin:round; stroke-width:2; stroke-opacity:0.1; fill:none" points="
  2025.78,1217.98 2025.78,47.2441 
  "/>
<polyline clip-path="url(#clip792)" style="stroke:#000000; stroke-linecap:round; stroke-linejoin:round; stroke-width:2; stroke-opacity:0.1; fill:none" points="
  2296.01,1217.98 2296.01,47.2441 
  "/>
<polyline clip-path="url(#clip790)" style="stroke:#000000; stroke-linecap:round; stroke-linejoin:round; stroke-width:4; stroke-opacity:1; fill:none" points="
  347.69,1217.98 2352.76,1217.98 
  "/>
<polyline clip-path="url(#clip790)" style="stroke:#000000; stroke-linecap:round; stroke-linejoin:round; stroke-width:4; stroke-opacity:1; fill:none" points="
  404.437,1217.98 404.437,1199.08 
  "/>
<polyline clip-path="url(#clip790)" style="stroke:#000000; stroke-linecap:round; stroke-linejoin:round; stroke-width:4; stroke-opacity:1; fill:none" points="
  674.661,1217.98 674.661,1199.08 
  "/>
<polyline clip-path="url(#clip790)" style="stroke:#000000; stroke-linecap:round; stroke-linejoin:round; stroke-width:4; stroke-opacity:1; fill:none" points="
  944.886,1217.98 944.886,1199.08 
  "/>
<polyline clip-path="url(#clip790)" style="stroke:#000000; stroke-linecap:round; stroke-linejoin:round; stroke-width:4; stroke-opacity:1; fill:none" points="
  1215.11,1217.98 1215.11,1199.08 
  "/>
<polyline clip-path="url(#clip790)" style="stroke:#000000; stroke-linecap:round; stroke-linejoin:round; stroke-width:4; stroke-opacity:1; fill:none" points="
  1485.34,1217.98 1485.34,1199.08 
  "/>
<polyline clip-path="url(#clip790)" style="stroke:#000000; stroke-linecap:round; stroke-linejoin:round; stroke-width:4; stroke-opacity:1; fill:none" points="
  1755.56,1217.98 1755.56,1199.08 
  "/>
<polyline clip-path="url(#clip790)" style="stroke:#000000; stroke-linecap:round; stroke-linejoin:round; stroke-width:4; stroke-opacity:1; fill:none" points="
  2025.78,1217.98 2025.78,1199.08 
  "/>
<polyline clip-path="url(#clip790)" style="stroke:#000000; stroke-linecap:round; stroke-linejoin:round; stroke-width:4; stroke-opacity:1; fill:none" points="
  2296.01,1217.98 2296.01,1199.08 
  "/>
<path clip-path="url(#clip790)" d="M395.791 1342.92 L395.791 1338.66 L421.717 1338.66 L421.717 1342.92 L395.791 1342.92 M385.698 1342.92 L385.698 1338.66 L391.092 1338.66 L391.092 1342.92 L385.698 1342.92 Z" fill="#000000" fill-rule="evenodd" fill-opacity="1" /><path clip-path="url(#clip790)" d="M399.726 1312.69 L385.698 1312.69 L385.698 1308.43 L421.717 1308.43 L421.717 1312.69 L417.828 1312.69 Q420.143 1314.03 421.277 1316.09 Q422.388 1318.13 422.388 1321 Q422.388 1325.7 418.638 1328.66 Q414.888 1331.6 408.777 1331.6 Q402.666 1331.6 398.916 1328.66 Q395.166 1325.7 395.166 1321 Q395.166 1318.13 396.3 1316.09 Q397.411 1314.03 399.726 1312.69 M408.777 1327.2 Q413.476 1327.2 416.161 1325.28 Q418.823 1323.34 418.823 1319.96 Q418.823 1316.58 416.161 1314.63 Q413.476 1312.69 408.777 1312.69 Q404.078 1312.69 401.416 1314.63 Q398.731 1316.58 398.731 1319.96 Q398.731 1323.34 401.416 1325.28 Q404.078 1327.2 408.777 1327.2 Z" fill="#000000" fill-rule="evenodd" fill-opacity="1" /><path clip-path="url(#clip790)" d="M407.689 1277.48 L409.772 1277.48 L409.772 1297.06 Q414.171 1296.78 416.485 1294.42 Q418.777 1292.04 418.777 1287.8 Q418.777 1285.35 418.175 1283.06 Q417.573 1280.74 416.37 1278.47 L420.397 1278.47 Q421.37 1280.77 421.879 1283.17 Q422.388 1285.58 422.388 1288.06 Q422.388 1294.26 418.777 1297.9 Q415.166 1301.51 409.009 1301.51 Q402.643 1301.51 398.916 1298.08 Q395.166 1294.63 395.166 1288.8 Q395.166 1283.57 398.546 1280.54 Q401.902 1277.48 407.689 1277.48 M406.439 1281.74 Q402.944 1281.79 400.86 1283.71 Q398.777 1285.6 398.777 1288.75 Q398.777 1292.32 400.791 1294.47 Q402.805 1296.6 406.462 1296.92 L406.439 1281.74 Z" fill="#000000" fill-rule="evenodd" fill-opacity="1" /><path clip-path="url(#clip790)" d="M408.684 1258.71 Q408.684 1263.87 409.865 1265.86 Q411.046 1267.85 413.893 1267.85 Q416.161 1267.85 417.504 1266.37 Q418.823 1264.86 418.823 1262.29 Q418.823 1258.75 416.323 1256.62 Q413.8 1254.47 409.634 1254.47 L408.684 1254.47 L408.684 1258.71 M406.925 1250.21 L421.717 1250.21 L421.717 1254.47 L417.782 1254.47 Q420.143 1255.93 421.277 1258.1 Q422.388 1260.28 422.388 1263.43 Q422.388 1267.41 420.166 1269.77 Q417.921 1272.11 414.171 1272.11 Q409.796 1272.11 407.573 1269.19 Q405.351 1266.25 405.351 1260.44 L405.351 1254.47 L404.934 1254.47 Q401.995 1254.47 400.397 1256.41 Q398.777 1258.34 398.777 1261.83 Q398.777 1264.05 399.31 1266.16 Q399.842 1268.27 400.907 1270.21 L396.972 1270.21 Q396.069 1267.87 395.629 1265.67 Q395.166 1263.47 395.166 1261.39 Q395.166 1255.77 398.083 1252.99 Q400.999 1250.21 406.925 1250.21 Z" fill="#000000" fill-rule="evenodd" fill-opacity="1" /><path clip-path="url(#clip790)" d="M385.698 1241.44 L385.698 1237.18 L421.717 1237.18 L421.717 1241.44 L385.698 1241.44 Z" fill="#000000" fill-rule="evenodd" fill-opacity="1" /><path clip-path="url(#clip790)" d="M678.909 1560.21 Q678.909 1565.37 680.09 1567.36 Q681.27 1569.35 684.117 1569.35 Q686.386 1569.35 687.728 1567.87 Q689.048 1566.37 689.048 1563.8 Q689.048 1560.26 686.548 1558.13 Q684.025 1555.97 679.858 1555.97 L678.909 1555.97 L678.909 1560.21 M677.15 1551.71 L691.941 1551.71 L691.941 1555.97 L688.006 1555.97 Q690.367 1557.43 691.502 1559.61 Q692.613 1561.78 692.613 1564.93 Q692.613 1568.91 690.39 1571.27 Q688.145 1573.61 684.395 1573.61 Q680.02 1573.61 677.798 1570.7 Q675.576 1567.76 675.576 1561.95 L675.576 1555.97 L675.159 1555.97 Q672.219 1555.97 670.622 1557.92 Q669.002 1559.84 669.002 1563.33 Q669.002 1565.56 669.534 1567.66 Q670.066 1569.77 671.131 1571.71 L667.196 1571.71 Q666.293 1569.38 665.854 1567.18 Q665.391 1564.98 665.391 1562.89 Q665.391 1557.27 668.307 1554.49 Q671.224 1551.71 677.15 1551.71 Z" fill="#000000" fill-rule="evenodd" fill-opacity="1" /><path clip-path="url(#clip790)" d="M655.923 1542.94 L655.923 1538.68 L691.941 1538.68 L691.941 1542.94 L655.923 1542.94 Z" fill="#000000" fill-rule="evenodd" fill-opacity="1" /><path clip-path="url(#clip790)" d="M658.655 1525.56 L666.016 1525.56 L666.016 1516.78 L669.326 1516.78 L669.326 1525.56 L683.4 1525.56 Q686.571 1525.56 687.474 1524.7 Q688.377 1523.82 688.377 1521.16 L688.377 1516.78 L691.941 1516.78 L691.941 1521.16 Q691.941 1526.09 690.113 1527.96 Q688.261 1529.84 683.4 1529.84 L669.326 1529.84 L669.326 1532.96 L666.016 1532.96 L666.016 1529.84 L658.655 1529.84 L658.655 1525.56 Z" fill="#000000" fill-rule="evenodd" fill-opacity="1" /><path clip-path="url(#clip790)" d="M666.016 1511.18 L666.016 1506.92 L691.941 1506.92 L691.941 1511.18 L666.016 1511.18 M655.923 1511.18 L655.923 1506.92 L661.317 1506.92 L661.317 1511.18 L655.923 1511.18 Z" fill="#000000" fill-rule="evenodd" fill-opacity="1" /><path clip-path="url(#clip790)" d="M658.655 1493.8 L666.016 1493.8 L666.016 1485.02 L669.326 1485.02 L669.326 1493.8 L683.4 1493.8 Q686.571 1493.8 687.474 1492.94 Q688.377 1492.06 688.377 1489.4 L688.377 1485.02 L691.941 1485.02 L691.941 1489.4 Q691.941 1494.33 690.113 1496.21 Q688.261 1498.08 683.4 1498.08 L669.326 1498.08 L669.326 1501.21 L666.016 1501.21 L666.016 1498.08 L658.655 1498.08 L658.655 1493.8 Z" fill="#000000" fill-rule="evenodd" fill-opacity="1" /><path clip-path="url(#clip790)" d="M681.71 1479.86 L666.016 1479.86 L666.016 1475.6 L681.548 1475.6 Q685.228 1475.6 687.08 1474.17 Q688.909 1472.73 688.909 1469.86 Q688.909 1466.41 686.71 1464.42 Q684.511 1462.41 680.715 1462.41 L666.016 1462.41 L666.016 1458.15 L691.941 1458.15 L691.941 1462.41 L687.96 1462.41 Q690.321 1463.96 691.478 1466.02 Q692.613 1468.06 692.613 1470.77 Q692.613 1475.23 689.835 1477.55 Q687.057 1479.86 681.71 1479.86 M665.391 1469.15 L665.391 1469.15 Z" fill="#000000" fill-rule="evenodd" fill-opacity="1" /><path clip-path="url(#clip790)" d="M669.951 1432.32 L655.923 1432.32 L655.923 1428.06 L691.941 1428.06 L691.941 1432.32 L688.053 1432.32 Q690.367 1433.66 691.502 1435.72 Q692.613 1437.76 692.613 1440.63 Q692.613 1445.33 688.863 1448.29 Q685.113 1451.23 679.002 1451.23 Q672.891 1451.23 669.141 1448.29 Q665.391 1445.33 665.391 1440.63 Q665.391 1437.76 666.525 1435.72 Q667.636 1433.66 669.951 1432.32 M679.002 1446.83 Q683.701 1446.83 686.386 1444.91 Q689.048 1442.96 689.048 1439.59 Q689.048 1436.21 686.386 1434.26 Q683.701 1432.32 679.002 1432.32 Q674.303 1432.32 671.641 1434.26 Q668.955 1436.21 668.955 1439.59 Q668.955 1442.96 671.641 1444.91 Q674.303 1446.83 679.002 1446.83 Z" fill="#000000" fill-rule="evenodd" fill-opacity="1" /><path clip-path="url(#clip790)" d="M677.914 1397.11 L679.997 1397.11 L679.997 1416.69 Q684.395 1416.41 686.71 1414.05 Q689.002 1411.67 689.002 1407.43 Q689.002 1404.98 688.4 1402.69 Q687.798 1400.37 686.594 1398.1 L690.622 1398.1 Q691.594 1400.4 692.103 1402.8 Q692.613 1405.21 692.613 1407.69 Q692.613 1413.89 689.002 1417.53 Q685.39 1421.14 679.233 1421.14 Q672.867 1421.14 669.141 1417.71 Q665.391 1414.26 665.391 1408.43 Q665.391 1403.2 668.77 1400.16 Q672.127 1397.11 677.914 1397.11 M676.664 1401.37 Q673.168 1401.41 671.085 1403.34 Q669.002 1405.23 669.002 1408.38 Q669.002 1411.95 671.016 1414.1 Q673.029 1416.23 676.687 1416.55 L676.664 1401.37 Z" fill="#000000" fill-rule="evenodd" fill-opacity="1" /><path clip-path="url(#clip790)" d="M699.812 1370.42 L703.122 1370.42 L703.122 1395.05 L699.812 1395.05 L699.812 1370.42 Z" fill="#000000" fill-rule="evenodd" fill-opacity="1" /><path clip-path="url(#clip790)" d="M669.002 1356.37 Q669.002 1359.79 671.687 1361.78 Q674.349 1363.78 679.002 1363.78 Q683.654 1363.78 686.34 1361.81 Q689.002 1359.82 689.002 1356.37 Q689.002 1352.97 686.316 1350.97 Q683.631 1348.98 679.002 1348.98 Q674.395 1348.98 671.71 1350.97 Q669.002 1352.97 669.002 1356.37 M665.391 1356.37 Q665.391 1350.81 669.002 1347.64 Q672.613 1344.47 679.002 1344.47 Q685.367 1344.47 689.002 1347.64 Q692.613 1350.81 692.613 1356.37 Q692.613 1361.95 689.002 1365.12 Q685.367 1368.27 679.002 1368.27 Q672.613 1368.27 669.002 1365.12 Q665.391 1361.95 665.391 1356.37 Z" fill="#000000" fill-rule="evenodd" fill-opacity="1" /><path clip-path="url(#clip790)" d="M655.923 1324.28 L659.465 1324.28 L659.465 1328.36 Q659.465 1330.65 660.391 1331.55 Q661.317 1332.43 663.724 1332.43 L666.016 1332.43 L666.016 1325.42 L669.326 1325.42 L669.326 1332.43 L691.941 1332.43 L691.941 1336.72 L669.326 1336.72 L669.326 1340.79 L666.016 1340.79 L666.016 1336.72 L664.21 1336.72 Q659.881 1336.72 657.914 1334.7 Q655.923 1332.69 655.923 1328.31 L655.923 1324.28 Z" fill="#000000" fill-rule="evenodd" fill-opacity="1" /><path clip-path="url(#clip790)" d="M655.923 1307.6 L659.465 1307.6 L659.465 1311.67 Q659.465 1313.96 660.391 1314.86 Q661.317 1315.74 663.724 1315.74 L666.016 1315.74 L666.016 1308.73 L669.326 1308.73 L669.326 1315.74 L691.941 1315.74 L691.941 1320.03 L669.326 1320.03 L669.326 1324.1 L666.016 1324.1 L666.016 1320.03 L664.21 1320.03 Q659.881 1320.03 657.914 1318.01 Q655.923 1316 655.923 1311.62 L655.923 1307.6 Z" fill="#000000" fill-rule="evenodd" fill-opacity="1" /><path clip-path="url(#clip790)" d="M666.779 1287.5 L670.807 1287.5 Q669.881 1289.31 669.418 1291.25 Q668.955 1293.2 668.955 1295.28 Q668.955 1298.45 669.928 1300.05 Q670.9 1301.62 672.844 1301.62 Q674.326 1301.62 675.182 1300.49 Q676.016 1299.35 676.779 1295.93 L677.103 1294.47 Q678.076 1289.93 679.858 1288.04 Q681.617 1286.11 684.789 1286.11 Q688.4 1286.11 690.506 1288.98 Q692.613 1291.83 692.613 1296.83 Q692.613 1298.91 692.196 1301.18 Q691.802 1303.43 690.992 1305.93 L686.594 1305.93 Q687.821 1303.57 688.446 1301.28 Q689.048 1298.98 689.048 1296.74 Q689.048 1293.73 688.029 1292.11 Q686.988 1290.49 685.113 1290.49 Q683.377 1290.49 682.451 1291.67 Q681.525 1292.83 680.668 1296.78 L680.321 1298.27 Q679.488 1302.22 677.775 1303.98 Q676.039 1305.74 673.029 1305.74 Q669.372 1305.74 667.381 1303.15 Q665.391 1300.56 665.391 1295.79 Q665.391 1293.43 665.738 1291.35 Q666.085 1289.26 666.779 1287.5 Z" fill="#000000" fill-rule="evenodd" fill-opacity="1" /><path clip-path="url(#clip790)" d="M677.914 1257.16 L679.997 1257.16 L679.997 1276.74 Q684.395 1276.46 686.71 1274.1 Q689.002 1271.72 689.002 1267.48 Q689.002 1265.03 688.4 1262.73 Q687.798 1260.42 686.594 1258.15 L690.622 1258.15 Q691.594 1260.44 692.103 1262.85 Q692.613 1265.26 692.613 1267.73 Q692.613 1273.94 689.002 1277.57 Q685.39 1281.18 679.233 1281.18 Q672.867 1281.18 669.141 1277.76 Q665.391 1274.31 665.391 1268.47 Q665.391 1263.24 668.77 1260.21 Q672.127 1257.16 677.914 1257.16 M676.664 1261.41 Q673.168 1261.46 671.085 1263.38 Q669.002 1265.28 669.002 1268.43 Q669.002 1271.99 671.016 1274.15 Q673.029 1276.28 676.687 1276.6 L676.664 1261.41 Z" fill="#000000" fill-rule="evenodd" fill-opacity="1" /><path clip-path="url(#clip790)" d="M658.655 1245.95 L666.016 1245.95 L666.016 1237.18 L669.326 1237.18 L669.326 1245.95 L683.4 1245.95 Q686.571 1245.95 687.474 1245.1 Q688.377 1244.22 688.377 1241.55 L688.377 1237.18 L691.941 1237.18 L691.941 1241.55 Q691.941 1246.48 690.113 1248.36 Q688.261 1250.23 683.4 1250.23 L669.326 1250.23 L669.326 1253.36 L666.016 1253.36 L666.016 1250.23 L658.655 1250.23 L658.655 1245.95 Z" fill="#000000" fill-rule="evenodd" fill-opacity="1" /><path clip-path="url(#clip790)" d="M948.902 1540.79 Q944.273 1540.79 941.726 1542.71 Q939.18 1544.61 939.18 1548.06 Q939.18 1551.48 941.726 1553.4 Q944.273 1555.3 948.902 1555.3 Q953.509 1555.3 956.055 1553.4 Q958.601 1551.48 958.601 1548.06 Q958.601 1544.61 956.055 1542.71 Q953.509 1540.79 948.902 1540.79 M958.948 1536.53 Q965.569 1536.53 968.786 1539.47 Q972.027 1542.41 972.027 1548.47 Q972.027 1550.72 971.68 1552.71 Q971.356 1554.7 970.661 1556.58 L966.518 1556.58 Q967.536 1554.7 968.022 1552.87 Q968.508 1551.04 968.508 1549.14 Q968.508 1544.95 966.309 1542.87 Q964.134 1540.79 959.712 1540.79 L957.606 1540.79 Q959.897 1542.11 961.032 1544.17 Q962.166 1546.23 962.166 1549.1 Q962.166 1553.87 958.532 1556.78 Q954.897 1559.7 948.902 1559.7 Q942.884 1559.7 939.249 1556.78 Q935.615 1553.87 935.615 1549.1 Q935.615 1546.23 936.749 1544.17 Q937.884 1542.11 940.175 1540.79 L936.24 1540.79 L936.24 1536.53 L958.948 1536.53 Z" fill="#000000" fill-rule="evenodd" fill-opacity="1" /><path clip-path="url(#clip790)" d="M940.222 1512.73 Q939.805 1513.45 939.62 1514.31 Q939.411 1515.14 939.411 1516.16 Q939.411 1519.77 941.773 1521.71 Q944.11 1523.64 948.509 1523.64 L962.166 1523.64 L962.166 1527.92 L936.24 1527.92 L936.24 1523.64 L940.268 1523.64 Q937.907 1522.29 936.773 1520.14 Q935.615 1517.99 935.615 1514.91 Q935.615 1514.47 935.685 1513.94 Q935.731 1513.4 935.847 1512.76 L940.222 1512.73 Z" fill="#000000" fill-rule="evenodd" fill-opacity="1" /><path clip-path="url(#clip790)" d="M939.226 1499.26 Q939.226 1502.69 941.911 1504.68 Q944.573 1506.67 949.226 1506.67 Q953.879 1506.67 956.564 1504.7 Q959.226 1502.71 959.226 1499.26 Q959.226 1495.86 956.541 1493.87 Q953.856 1491.88 949.226 1491.88 Q944.62 1491.88 941.935 1493.87 Q939.226 1495.86 939.226 1499.26 M935.615 1499.26 Q935.615 1493.71 939.226 1490.53 Q942.837 1487.36 949.226 1487.36 Q955.592 1487.36 959.226 1490.53 Q962.837 1493.71 962.837 1499.26 Q962.837 1504.84 959.226 1508.01 Q955.592 1511.16 949.226 1511.16 Q942.837 1511.16 939.226 1508.01 Q935.615 1504.84 935.615 1499.26 Z" fill="#000000" fill-rule="evenodd" fill-opacity="1" /><path clip-path="url(#clip790)" d="M951.935 1480.74 L936.24 1480.74 L936.24 1476.48 L951.772 1476.48 Q955.453 1476.48 957.305 1475.05 Q959.134 1473.61 959.134 1470.74 Q959.134 1467.29 956.934 1465.3 Q954.735 1463.29 950.939 1463.29 L936.24 1463.29 L936.24 1459.03 L962.166 1459.03 L962.166 1463.29 L958.184 1463.29 Q960.546 1464.84 961.703 1466.9 Q962.837 1468.94 962.837 1471.65 Q962.837 1476.11 960.059 1478.43 Q957.282 1480.74 951.935 1480.74 M935.615 1470.02 L935.615 1470.02 Z" fill="#000000" fill-rule="evenodd" fill-opacity="1" /><path clip-path="url(#clip790)" d="M946.518 1428.71 L962.166 1428.71 L962.166 1432.96 L946.657 1432.96 Q942.976 1432.96 941.148 1434.4 Q939.319 1435.84 939.319 1438.71 Q939.319 1442.15 941.518 1444.15 Q943.717 1446.14 947.513 1446.14 L962.166 1446.14 L962.166 1450.42 L936.24 1450.42 L936.24 1446.14 L940.268 1446.14 Q937.93 1444.61 936.773 1442.55 Q935.615 1440.46 935.615 1437.76 Q935.615 1433.29 938.393 1431 Q941.148 1428.71 946.518 1428.71 Z" fill="#000000" fill-rule="evenodd" fill-opacity="1" /><path clip-path="url(#clip790)" d="M940.175 1403.15 L926.148 1403.15 L926.148 1398.89 L962.166 1398.89 L962.166 1403.15 L958.277 1403.15 Q960.592 1404.49 961.726 1406.55 Q962.837 1408.59 962.837 1411.46 Q962.837 1416.16 959.087 1419.12 Q955.337 1422.06 949.226 1422.06 Q943.115 1422.06 939.365 1419.12 Q935.615 1416.16 935.615 1411.46 Q935.615 1408.59 936.749 1406.55 Q937.861 1404.49 940.175 1403.15 M949.226 1417.66 Q953.925 1417.66 956.61 1415.74 Q959.272 1413.8 959.272 1410.42 Q959.272 1407.04 956.61 1405.09 Q953.925 1403.15 949.226 1403.15 Q944.527 1403.15 941.865 1405.09 Q939.18 1407.04 939.18 1410.42 Q939.18 1413.8 941.865 1415.74 Q944.527 1417.66 949.226 1417.66 Z" fill="#000000" fill-rule="evenodd" fill-opacity="1" /><path clip-path="url(#clip790)" d="M970.036 1370.42 L973.346 1370.42 L973.346 1395.05 L970.036 1395.05 L970.036 1370.42 Z" fill="#000000" fill-rule="evenodd" fill-opacity="1" /><path clip-path="url(#clip790)" d="M939.226 1356.37 Q939.226 1359.79 941.911 1361.78 Q944.573 1363.78 949.226 1363.78 Q953.879 1363.78 956.564 1361.81 Q959.226 1359.82 959.226 1356.37 Q959.226 1352.97 956.541 1350.97 Q953.856 1348.98 949.226 1348.98 Q944.62 1348.98 941.935 1350.97 Q939.226 1352.97 939.226 1356.37 M935.615 1356.37 Q935.615 1350.81 939.226 1347.64 Q942.837 1344.47 949.226 1344.47 Q955.592 1344.47 959.226 1347.64 Q962.837 1350.81 962.837 1356.37 Q962.837 1361.95 959.226 1365.12 Q955.592 1368.27 949.226 1368.27 Q942.837 1368.27 939.226 1365.12 Q935.615 1361.95 935.615 1356.37 Z" fill="#000000" fill-rule="evenodd" fill-opacity="1" /><path clip-path="url(#clip790)" d="M926.148 1324.28 L929.689 1324.28 L929.689 1328.36 Q929.689 1330.65 930.615 1331.55 Q931.541 1332.43 933.948 1332.43 L936.24 1332.43 L936.24 1325.42 L939.55 1325.42 L939.55 1332.43 L962.166 1332.43 L962.166 1336.72 L939.55 1336.72 L939.55 1340.79 L936.24 1340.79 L936.24 1336.72 L934.435 1336.72 Q930.106 1336.72 928.138 1334.7 Q926.148 1332.69 926.148 1328.31 L926.148 1324.28 Z" fill="#000000" fill-rule="evenodd" fill-opacity="1" /><path clip-path="url(#clip790)" d="M926.148 1307.6 L929.689 1307.6 L929.689 1311.67 Q929.689 1313.96 930.615 1314.86 Q931.541 1315.74 933.948 1315.74 L936.24 1315.74 L936.24 1308.73 L939.55 1308.73 L939.55 1315.74 L962.166 1315.74 L962.166 1320.03 L939.55 1320.03 L939.55 1324.1 L936.24 1324.1 L936.24 1320.03 L934.435 1320.03 Q930.106 1320.03 928.138 1318.01 Q926.148 1316 926.148 1311.62 L926.148 1307.6 Z" fill="#000000" fill-rule="evenodd" fill-opacity="1" /><path clip-path="url(#clip790)" d="M937.004 1287.5 L941.032 1287.5 Q940.106 1289.31 939.643 1291.25 Q939.18 1293.2 939.18 1295.28 Q939.18 1298.45 940.152 1300.05 Q941.124 1301.62 943.069 1301.62 Q944.55 1301.62 945.407 1300.49 Q946.24 1299.35 947.004 1295.93 L947.328 1294.47 Q948.3 1289.93 950.083 1288.04 Q951.842 1286.11 955.013 1286.11 Q958.624 1286.11 960.731 1288.98 Q962.837 1291.83 962.837 1296.83 Q962.837 1298.91 962.421 1301.18 Q962.027 1303.43 961.217 1305.93 L956.819 1305.93 Q958.046 1303.57 958.671 1301.28 Q959.272 1298.98 959.272 1296.74 Q959.272 1293.73 958.254 1292.11 Q957.212 1290.49 955.337 1290.49 Q953.601 1290.49 952.675 1291.67 Q951.749 1292.83 950.893 1296.78 L950.546 1298.27 Q949.712 1302.22 947.999 1303.98 Q946.263 1305.74 943.254 1305.74 Q939.597 1305.74 937.606 1303.15 Q935.615 1300.56 935.615 1295.79 Q935.615 1293.43 935.962 1291.35 Q936.31 1289.26 937.004 1287.5 Z" fill="#000000" fill-rule="evenodd" fill-opacity="1" /><path clip-path="url(#clip790)" d="M948.138 1257.16 L950.222 1257.16 L950.222 1276.74 Q954.62 1276.46 956.934 1274.1 Q959.226 1271.72 959.226 1267.48 Q959.226 1265.03 958.624 1262.73 Q958.022 1260.42 956.819 1258.15 L960.846 1258.15 Q961.819 1260.44 962.328 1262.85 Q962.837 1265.26 962.837 1267.73 Q962.837 1273.94 959.226 1277.57 Q955.615 1281.18 949.458 1281.18 Q943.092 1281.18 939.365 1277.76 Q935.615 1274.31 935.615 1268.47 Q935.615 1263.24 938.995 1260.21 Q942.351 1257.16 948.138 1257.16 M946.888 1261.41 Q943.393 1261.46 941.31 1263.38 Q939.226 1265.28 939.226 1268.43 Q939.226 1271.99 941.24 1274.15 Q943.254 1276.28 946.911 1276.6 L946.888 1261.41 Z" fill="#000000" fill-rule="evenodd" fill-opacity="1" /><path clip-path="url(#clip790)" d="M928.879 1245.95 L936.24 1245.95 L936.24 1237.18 L939.55 1237.18 L939.55 1245.95 L953.624 1245.95 Q956.796 1245.95 957.698 1245.1 Q958.601 1244.22 958.601 1241.55 L958.601 1237.18 L962.166 1237.18 L962.166 1241.55 Q962.166 1246.48 960.337 1248.36 Q958.485 1250.23 953.624 1250.23 L939.55 1250.23 L939.55 1253.36 L936.24 1253.36 L936.24 1250.23 L928.879 1250.23 L928.879 1245.95 Z" fill="#000000" fill-rule="evenodd" fill-opacity="1" /><path clip-path="url(#clip790)" d="M1196.37 1312.09 L1199.91 1312.09 L1199.91 1316.16 Q1199.91 1318.45 1200.84 1319.35 Q1201.77 1320.23 1204.17 1320.23 L1206.46 1320.23 L1206.46 1313.22 L1209.77 1313.22 L1209.77 1320.23 L1232.39 1320.23 L1232.39 1324.52 L1209.77 1324.52 L1209.77 1328.59 L1206.46 1328.59 L1206.46 1324.52 L1204.66 1324.52 Q1200.33 1324.52 1198.36 1322.5 Q1196.37 1320.49 1196.37 1316.11 L1196.37 1312.09 Z" fill="#000000" fill-rule="evenodd" fill-opacity="1" /><path clip-path="url(#clip790)" d="M1209.45 1298.47 Q1209.45 1301.9 1212.14 1303.89 Q1214.8 1305.88 1219.45 1305.88 Q1224.1 1305.88 1226.79 1303.91 Q1229.45 1301.92 1229.45 1298.47 Q1229.45 1295.07 1226.77 1293.08 Q1224.08 1291.09 1219.45 1291.09 Q1214.84 1291.09 1212.16 1293.08 Q1209.45 1295.07 1209.45 1298.47 M1205.84 1298.47 Q1205.84 1292.92 1209.45 1289.75 Q1213.06 1286.58 1219.45 1286.58 Q1225.82 1286.58 1229.45 1289.75 Q1233.06 1292.92 1233.06 1298.47 Q1233.06 1304.05 1229.45 1307.22 Q1225.82 1310.37 1219.45 1310.37 Q1213.06 1310.37 1209.45 1307.22 Q1205.84 1304.05 1205.84 1298.47 Z" fill="#000000" fill-rule="evenodd" fill-opacity="1" /><path clip-path="url(#clip790)" d="M1210.45 1264.49 Q1210.03 1265.21 1209.84 1266.07 Q1209.64 1266.9 1209.64 1267.92 Q1209.64 1271.53 1212 1273.47 Q1214.34 1275.4 1218.73 1275.4 L1232.39 1275.4 L1232.39 1279.68 L1206.46 1279.68 L1206.46 1275.4 L1210.49 1275.4 Q1208.13 1274.05 1207 1271.9 Q1205.84 1269.75 1205.84 1266.67 Q1205.84 1266.23 1205.91 1265.7 Q1205.96 1265.16 1206.07 1264.52 L1210.45 1264.49 Z" fill="#000000" fill-rule="evenodd" fill-opacity="1" /><path clip-path="url(#clip790)" d="M1196.37 1260.19 L1196.37 1255.91 L1217.65 1255.91 L1206.46 1243.2 L1206.46 1237.76 L1218.59 1251.51 L1232.39 1237.18 L1232.39 1242.73 L1219.73 1255.91 L1232.39 1255.91 L1232.39 1260.19 L1196.37 1260.19 Z" fill="#000000" fill-rule="evenodd" fill-opacity="1" /><path clip-path="url(#clip790)" d="M1476.69 1481.14 L1476.69 1460.9 L1480.58 1460.9 L1499.21 1476.92 L1499.21 1460.9 L1502.62 1460.9 L1502.62 1481.71 L1498.73 1481.71 L1480.09 1465.7 L1480.09 1481.14 L1476.69 1481.14 Z" fill="#000000" fill-rule="evenodd" fill-opacity="1" /><path clip-path="url(#clip790)" d="M1502.62 1445.3 L1468.06 1458.5 L1468.06 1453.61 L1497.15 1442.66 L1468.06 1431.69 L1468.06 1426.83 L1502.62 1440 L1502.62 1445.3 Z" fill="#000000" fill-rule="evenodd" fill-opacity="1" /><path clip-path="url(#clip790)" d="M1472.66 1413.27 L1489.86 1419.61 L1489.86 1406.9 L1472.66 1413.27 M1468.06 1415.9 L1468.06 1410.6 L1502.62 1397.43 L1502.62 1402.29 L1493.75 1405.44 L1493.75 1421.02 L1502.62 1424.17 L1502.62 1429.1 L1468.06 1415.9 Z" fill="#000000" fill-rule="evenodd" fill-opacity="1" /><path clip-path="url(#clip790)" d="M1468.06 1394.05 L1468.06 1389.03 L1480.9 1380.44 L1468.06 1371.81 L1468.06 1366.78 L1484.65 1377.9 L1502.62 1366.04 L1502.62 1371.07 L1487.92 1380.79 L1502.62 1390.58 L1502.62 1395.63 L1484.17 1383.29 L1468.06 1394.05 Z" fill="#000000" fill-rule="evenodd" fill-opacity="1" /><path clip-path="url(#clip790)" d="M1484.03 1353.03 Q1485.9 1355.14 1487.78 1356.14 Q1489.63 1357.11 1491.67 1357.11 Q1495.05 1357.11 1497.29 1354.66 Q1499.54 1352.2 1499.54 1348.5 Q1499.54 1346.3 1498.82 1344.38 Q1498.08 1342.46 1496.6 1340.77 L1484.03 1353.03 M1481.43 1349.77 L1493.47 1338.01 Q1491.41 1336.65 1489.07 1335.88 Q1486.71 1335.12 1484.07 1334.98 L1484.07 1330.67 Q1487.13 1330.95 1490.12 1332.16 Q1493.1 1333.36 1496.02 1335.51 L1502.62 1329.05 L1502.62 1334.89 L1499.21 1338.2 Q1501.27 1340.6 1502.29 1343.24 Q1503.29 1345.88 1503.29 1348.91 Q1503.29 1354.49 1500.12 1358.03 Q1496.92 1361.58 1491.94 1361.58 Q1488.98 1361.58 1486.39 1360.03 Q1483.77 1358.47 1481.48 1355.37 Q1480.02 1356.48 1478.59 1357.06 Q1477.13 1357.64 1475.74 1357.64 Q1471.99 1357.64 1469.72 1355.07 Q1467.43 1352.5 1467.43 1348.24 Q1467.43 1346.32 1467.85 1344.42 Q1468.26 1342.5 1469.1 1340.53 L1473.31 1340.53 Q1472.22 1342.55 1471.67 1344.38 Q1471.09 1346.21 1471.09 1347.78 Q1471.09 1350.21 1472.38 1351.74 Q1473.66 1353.24 1475.69 1353.24 Q1476.87 1353.24 1478.08 1352.57 Q1479.26 1351.88 1481.43 1349.77 Z" fill="#000000" fill-rule="evenodd" fill-opacity="1" /><path clip-path="url(#clip790)" d="M1503.29 1314.86 Q1503.29 1324.47 1489.54 1324.47 Q1484.1 1324.47 1476.69 1320.88 L1476.69 1316.3 Q1484.1 1319.61 1489.65 1319.61 Q1499.68 1319.61 1499.68 1314.47 Q1499.68 1309.77 1487.22 1309.77 L1487.22 1305.84 Q1499.68 1305.84 1499.68 1301.14 Q1499.68 1296 1489.65 1296 Q1484.1 1296 1476.69 1299.31 L1476.69 1294.72 Q1484.1 1291.14 1489.54 1291.14 Q1503.29 1291.14 1503.29 1300.74 Q1503.29 1307.04 1496.37 1307.8 Q1503.29 1308.75 1503.29 1314.86 Z" fill="#000000" fill-rule="evenodd" fill-opacity="1" /><path clip-path="url(#clip790)" d="M1510.49 1263.73 L1513.8 1263.73 L1513.8 1288.36 L1510.49 1288.36 L1510.49 1263.73 Z" fill="#000000" fill-rule="evenodd" fill-opacity="1" /><path clip-path="url(#clip790)" d="M1471.13 1249.12 Q1471.13 1252.73 1474.7 1254.56 Q1478.24 1256.37 1485.37 1256.37 Q1492.48 1256.37 1496.04 1254.56 Q1499.58 1252.73 1499.58 1249.12 Q1499.58 1245.49 1496.04 1243.68 Q1492.48 1241.85 1485.37 1241.85 Q1478.24 1241.85 1474.7 1243.68 Q1471.13 1245.49 1471.13 1249.12 M1467.43 1249.12 Q1467.43 1243.31 1472.04 1240.26 Q1476.62 1237.18 1485.37 1237.18 Q1494.1 1237.18 1498.7 1240.26 Q1503.29 1243.31 1503.29 1249.12 Q1503.29 1254.93 1498.7 1258.01 Q1494.1 1261.07 1485.37 1261.07 Q1476.62 1261.07 1472.04 1258.01 Q1467.43 1254.93 1467.43 1249.12 Z" fill="#000000" fill-rule="evenodd" fill-opacity="1" /><path clip-path="url(#clip790)" d="M1746.91 1511.3 L1746.91 1491.07 L1750.8 1491.07 L1769.44 1507.08 L1769.44 1491.07 L1772.84 1491.07 L1772.84 1511.88 L1768.95 1511.88 L1750.32 1495.86 L1750.32 1511.3 L1746.91 1511.3 Z" fill="#000000" fill-rule="evenodd" fill-opacity="1" /><path clip-path="url(#clip790)" d="M1772.84 1475.46 L1738.28 1488.66 L1738.28 1483.77 L1767.38 1472.83 L1738.28 1461.85 L1738.28 1456.99 L1772.84 1470.16 L1772.84 1475.46 Z" fill="#000000" fill-rule="evenodd" fill-opacity="1" /><path clip-path="url(#clip790)" d="M1742.89 1443.43 L1760.09 1449.77 L1760.09 1437.06 L1742.89 1443.43 M1738.28 1446.07 L1738.28 1440.77 L1772.84 1427.59 L1772.84 1432.46 L1763.97 1435.6 L1763.97 1451.18 L1772.84 1454.33 L1772.84 1459.26 L1738.28 1446.07 Z" fill="#000000" fill-rule="evenodd" fill-opacity="1" /><path clip-path="url(#clip790)" d="M1738.28 1424.21 L1738.28 1419.19 L1751.13 1410.6 L1738.28 1401.97 L1738.28 1396.95 L1754.88 1408.06 L1772.84 1396.21 L1772.84 1401.23 L1758.14 1410.95 L1772.84 1420.74 L1772.84 1425.79 L1754.39 1413.45 L1738.28 1424.21 Z" fill="#000000" fill-rule="evenodd" fill-opacity="1" /><path clip-path="url(#clip790)" d="M1754.25 1383.2 Q1756.13 1385.3 1758 1386.3 Q1759.85 1387.27 1761.89 1387.27 Q1765.27 1387.27 1767.52 1384.82 Q1769.76 1382.36 1769.76 1378.66 Q1769.76 1376.46 1769.04 1374.54 Q1768.3 1372.62 1766.82 1370.93 L1754.25 1383.2 M1751.66 1379.93 L1763.7 1368.17 Q1761.64 1366.81 1759.3 1366.04 Q1756.94 1365.28 1754.3 1365.14 L1754.3 1360.84 Q1757.35 1361.11 1760.34 1362.32 Q1763.33 1363.52 1766.24 1365.67 L1772.84 1359.22 L1772.84 1365.05 L1769.44 1368.36 Q1771.5 1370.77 1772.52 1373.4 Q1773.51 1376.04 1773.51 1379.08 Q1773.51 1384.65 1770.34 1388.2 Q1767.15 1391.74 1762.17 1391.74 Q1759.21 1391.74 1756.61 1390.19 Q1754 1388.64 1751.71 1385.53 Q1750.25 1386.65 1748.81 1387.22 Q1747.35 1387.8 1745.96 1387.8 Q1742.21 1387.8 1739.95 1385.23 Q1737.65 1382.66 1737.65 1378.4 Q1737.65 1376.48 1738.07 1374.59 Q1738.49 1372.66 1739.32 1370.7 L1743.53 1370.7 Q1742.45 1372.71 1741.89 1374.54 Q1741.31 1376.37 1741.31 1377.94 Q1741.31 1380.37 1742.61 1381.9 Q1743.88 1383.4 1745.92 1383.4 Q1747.1 1383.4 1748.3 1382.73 Q1749.48 1382.04 1751.66 1379.93 Z" fill="#000000" fill-rule="evenodd" fill-opacity="1" /><path clip-path="url(#clip790)" d="M1773.51 1345.03 Q1773.51 1354.63 1759.76 1354.63 Q1754.32 1354.63 1746.91 1351.04 L1746.91 1346.46 Q1754.32 1349.77 1759.88 1349.77 Q1769.9 1349.77 1769.9 1344.63 Q1769.9 1339.93 1757.45 1339.93 L1757.45 1336 Q1769.9 1336 1769.9 1331.3 Q1769.9 1326.16 1759.88 1326.16 Q1754.32 1326.16 1746.91 1329.47 L1746.91 1324.89 Q1754.32 1321.3 1759.76 1321.3 Q1773.51 1321.3 1773.51 1330.91 Q1773.51 1337.2 1766.59 1337.97 Q1773.51 1338.91 1773.51 1345.03 Z" fill="#000000" fill-rule="evenodd" fill-opacity="1" /><path clip-path="url(#clip790)" d="M1780.71 1293.89 L1784.02 1293.89 L1784.02 1318.52 L1780.71 1318.52 L1780.71 1293.89 Z" fill="#000000" fill-rule="evenodd" fill-opacity="1" /><path clip-path="url(#clip790)" d="M1772.12 1289.15 L1767.86 1289.15 Q1768.7 1287.39 1769.14 1285.58 Q1769.58 1283.78 1769.58 1282.04 Q1769.58 1277.41 1766.47 1274.98 Q1763.35 1272.53 1757.01 1272.18 Q1759 1273.52 1760.06 1275.58 Q1761.13 1277.64 1761.13 1280.14 Q1761.13 1285.33 1758 1288.36 Q1754.85 1291.37 1749.41 1291.37 Q1744.09 1291.37 1740.87 1288.22 Q1737.65 1285.07 1737.65 1279.84 Q1737.65 1273.85 1742.26 1270.7 Q1746.84 1267.53 1755.59 1267.53 Q1763.77 1267.53 1768.65 1271.41 Q1773.51 1275.28 1773.51 1281.83 Q1773.51 1283.59 1773.16 1285.4 Q1772.82 1287.2 1772.12 1289.15 M1757.47 1279.84 Q1757.47 1276.69 1755.32 1274.86 Q1753.16 1273.01 1749.41 1273.01 Q1745.69 1273.01 1743.53 1274.86 Q1741.36 1276.69 1741.36 1279.84 Q1741.36 1282.99 1743.53 1284.84 Q1745.69 1286.67 1749.41 1286.67 Q1753.16 1286.67 1755.32 1284.84 Q1757.47 1282.99 1757.47 1279.84 Z" fill="#000000" fill-rule="evenodd" fill-opacity="1" /><path clip-path="url(#clip790)" d="M1741.36 1249.12 Q1741.36 1252.73 1744.92 1254.56 Q1748.46 1256.37 1755.59 1256.37 Q1762.7 1256.37 1766.27 1254.56 Q1769.81 1252.73 1769.81 1249.12 Q1769.81 1245.49 1766.27 1243.68 Q1762.7 1241.85 1755.59 1241.85 Q1748.46 1241.85 1744.92 1243.68 Q1741.36 1245.49 1741.36 1249.12 M1737.65 1249.12 Q1737.65 1243.31 1742.26 1240.26 Q1746.84 1237.18 1755.59 1237.18 Q1764.32 1237.18 1768.93 1240.26 Q1773.51 1243.31 1773.51 1249.12 Q1773.51 1254.93 1768.93 1258.01 Q1764.32 1261.07 1755.59 1261.07 Q1746.84 1261.07 1742.26 1258.01 Q1737.65 1254.93 1737.65 1249.12 Z" fill="#000000" fill-rule="evenodd" fill-opacity="1" /><path clip-path="url(#clip790)" d="M2017.14 1541.46 L2017.14 1521.23 L2021.03 1521.23 L2039.66 1537.25 L2039.66 1521.23 L2043.06 1521.23 L2043.06 1542.04 L2039.18 1542.04 L2020.54 1526.02 L2020.54 1541.46 L2017.14 1541.46 Z" fill="#000000" fill-rule="evenodd" fill-opacity="1" /><path clip-path="url(#clip790)" d="M2043.06 1505.63 L2008.5 1518.82 L2008.5 1513.94 L2037.6 1502.99 L2008.5 1492.02 L2008.5 1487.15 L2043.06 1500.33 L2043.06 1505.63 Z" fill="#000000" fill-rule="evenodd" fill-opacity="1" /><path clip-path="url(#clip790)" d="M2013.11 1473.59 L2030.31 1479.93 L2030.31 1467.22 L2013.11 1473.59 M2008.5 1476.23 L2008.5 1470.93 L2043.06 1457.76 L2043.06 1462.62 L2034.2 1465.77 L2034.2 1481.34 L2043.06 1484.49 L2043.06 1489.42 L2008.5 1476.23 Z" fill="#000000" fill-rule="evenodd" fill-opacity="1" /><path clip-path="url(#clip790)" d="M2008.5 1454.38 L2008.5 1449.35 L2021.35 1440.77 L2008.5 1432.13 L2008.5 1427.11 L2025.1 1438.22 L2043.06 1426.37 L2043.06 1431.39 L2028.37 1441.11 L2043.06 1450.9 L2043.06 1455.95 L2024.62 1443.61 L2008.5 1454.38 Z" fill="#000000" fill-rule="evenodd" fill-opacity="1" /><path clip-path="url(#clip790)" d="M2024.48 1413.36 Q2026.35 1415.46 2028.23 1416.46 Q2030.08 1417.43 2032.12 1417.43 Q2035.49 1417.43 2037.74 1414.98 Q2039.99 1412.53 2039.99 1408.82 Q2039.99 1406.62 2039.27 1404.7 Q2038.53 1402.78 2037.05 1401.09 L2024.48 1413.36 M2021.88 1410.09 L2033.92 1398.34 Q2031.86 1396.97 2029.52 1396.21 Q2027.16 1395.44 2024.52 1395.3 L2024.52 1391 Q2027.58 1391.28 2030.56 1392.48 Q2033.55 1393.68 2036.47 1395.84 L2043.06 1389.38 L2043.06 1395.21 L2039.66 1398.52 Q2041.72 1400.93 2042.74 1403.57 Q2043.74 1406.21 2043.74 1409.24 Q2043.74 1414.82 2040.56 1418.36 Q2037.37 1421.9 2032.39 1421.9 Q2029.43 1421.9 2026.84 1420.35 Q2024.22 1418.8 2021.93 1415.7 Q2020.47 1416.81 2019.04 1417.39 Q2017.58 1417.96 2016.19 1417.96 Q2012.44 1417.96 2010.17 1415.4 Q2007.88 1412.83 2007.88 1408.57 Q2007.88 1406.65 2008.3 1404.75 Q2008.71 1402.83 2009.55 1400.86 L2013.76 1400.86 Q2012.67 1402.87 2012.12 1404.7 Q2011.54 1406.53 2011.54 1408.1 Q2011.54 1410.53 2012.83 1412.06 Q2014.11 1413.57 2016.14 1413.57 Q2017.32 1413.57 2018.53 1412.9 Q2019.71 1412.2 2021.88 1410.09 Z" fill="#000000" fill-rule="evenodd" fill-opacity="1" /><path clip-path="url(#clip790)" d="M2043.74 1375.19 Q2043.74 1384.79 2029.99 1384.79 Q2024.55 1384.79 2017.14 1381.21 L2017.14 1376.62 Q2024.55 1379.93 2030.1 1379.93 Q2040.12 1379.93 2040.12 1374.79 Q2040.12 1370.09 2027.67 1370.09 L2027.67 1366.16 Q2040.12 1366.16 2040.12 1361.46 Q2040.12 1356.32 2030.1 1356.32 Q2024.55 1356.32 2017.14 1359.63 L2017.14 1355.05 Q2024.55 1351.46 2029.99 1351.46 Q2043.74 1351.46 2043.74 1361.07 Q2043.74 1367.36 2036.81 1368.13 Q2043.74 1369.08 2043.74 1375.19 Z" fill="#000000" fill-rule="evenodd" fill-opacity="1" /><path clip-path="url(#clip790)" d="M2050.93 1324.05 L2054.24 1324.05 L2054.24 1348.68 L2050.93 1348.68 L2050.93 1324.05 Z" fill="#000000" fill-rule="evenodd" fill-opacity="1" /><path clip-path="url(#clip790)" d="M2039.13 1318.64 L2039.13 1311 L2012.76 1311 L2014.43 1319.31 L2010.17 1319.31 L2008.5 1311.04 L2008.5 1306.37 L2039.13 1306.37 L2039.13 1298.73 L2043.06 1298.73 L2043.06 1318.64 L2039.13 1318.64 Z" fill="#000000" fill-rule="evenodd" fill-opacity="1" /><path clip-path="url(#clip790)" d="M2026.65 1279.29 Q2026.65 1282.62 2028.43 1284.54 Q2030.22 1286.44 2033.34 1286.44 Q2036.47 1286.44 2038.25 1284.54 Q2040.03 1282.62 2040.03 1279.29 Q2040.03 1275.95 2038.25 1274.03 Q2036.44 1272.11 2033.34 1272.11 Q2030.22 1272.11 2028.43 1274.03 Q2026.65 1275.93 2026.65 1279.29 M2024.66 1283.96 Q2023.92 1286.97 2021.86 1288.66 Q2019.8 1290.33 2016.84 1290.33 Q2012.69 1290.33 2010.29 1287.39 Q2007.88 1284.42 2007.88 1279.29 Q2007.88 1274.12 2010.29 1271.18 Q2012.69 1268.24 2016.84 1268.24 Q2019.8 1268.24 2021.86 1269.93 Q2023.92 1271.6 2024.66 1274.59 Q2025.45 1271.21 2027.74 1269.33 Q2030.03 1267.43 2033.34 1267.43 Q2038.37 1267.43 2041.05 1270.51 Q2043.74 1273.57 2043.74 1279.29 Q2043.74 1285 2041.05 1288.08 Q2038.37 1291.14 2033.34 1291.14 Q2030.03 1291.14 2027.74 1289.24 Q2025.45 1287.34 2024.66 1283.96 M2017.28 1285.67 Q2019.96 1285.67 2021.47 1284.01 Q2022.97 1282.32 2022.97 1279.29 Q2022.97 1276.28 2021.47 1274.59 Q2019.96 1272.87 2017.28 1272.87 Q2014.59 1272.87 2013.09 1274.59 Q2011.58 1276.28 2011.58 1279.29 Q2011.58 1282.32 2013.09 1284.01 Q2014.59 1285.67 2017.28 1285.67 Z" fill="#000000" fill-rule="evenodd" fill-opacity="1" /><path clip-path="url(#clip790)" d="M2011.58 1249.12 Q2011.58 1252.73 2015.15 1254.56 Q2018.69 1256.37 2025.82 1256.37 Q2032.93 1256.37 2036.49 1254.56 Q2040.03 1252.73 2040.03 1249.12 Q2040.03 1245.49 2036.49 1243.68 Q2032.93 1241.85 2025.82 1241.85 Q2018.69 1241.85 2015.15 1243.68 Q2011.58 1245.49 2011.58 1249.12 M2007.88 1249.12 Q2007.88 1243.31 2012.49 1240.26 Q2017.07 1237.18 2025.82 1237.18 Q2034.55 1237.18 2039.15 1240.26 Q2043.74 1243.31 2043.74 1249.12 Q2043.74 1254.93 2039.15 1258.01 Q2034.55 1261.07 2025.82 1261.07 Q2017.07 1261.07 2012.49 1258.01 Q2007.88 1254.93 2007.88 1249.12 Z" fill="#000000" fill-rule="evenodd" fill-opacity="1" /><path clip-path="url(#clip790)" d="M2287.36 1541.46 L2287.36 1521.23 L2291.25 1521.23 L2309.89 1537.25 L2309.89 1521.23 L2313.29 1521.23 L2313.29 1542.04 L2309.4 1542.04 L2290.77 1526.02 L2290.77 1541.46 L2287.36 1541.46 Z" fill="#000000" fill-rule="evenodd" fill-opacity="1" /><path clip-path="url(#clip790)" d="M2313.29 1505.63 L2278.73 1518.82 L2278.73 1513.94 L2307.83 1502.99 L2278.73 1492.02 L2278.73 1487.15 L2313.29 1500.33 L2313.29 1505.63 Z" fill="#000000" fill-rule="evenodd" fill-opacity="1" /><path clip-path="url(#clip790)" d="M2283.34 1473.59 L2300.53 1479.93 L2300.53 1467.22 L2283.34 1473.59 M2278.73 1476.23 L2278.73 1470.93 L2313.29 1457.76 L2313.29 1462.62 L2304.42 1465.77 L2304.42 1481.34 L2313.29 1484.49 L2313.29 1489.42 L2278.73 1476.23 Z" fill="#000000" fill-rule="evenodd" fill-opacity="1" /><path clip-path="url(#clip790)" d="M2278.73 1454.38 L2278.73 1449.35 L2291.58 1440.77 L2278.73 1432.13 L2278.73 1427.11 L2295.33 1438.22 L2313.29 1426.37 L2313.29 1431.39 L2298.59 1441.11 L2313.29 1450.9 L2313.29 1455.95 L2294.84 1443.61 L2278.73 1454.38 Z" fill="#000000" fill-rule="evenodd" fill-opacity="1" /><path clip-path="url(#clip790)" d="M2294.7 1413.36 Q2296.58 1415.46 2298.45 1416.46 Q2300.3 1417.43 2302.34 1417.43 Q2305.72 1417.43 2307.96 1414.98 Q2310.21 1412.53 2310.21 1408.82 Q2310.21 1406.62 2309.49 1404.7 Q2308.75 1402.78 2307.27 1401.09 L2294.7 1413.36 M2292.11 1410.09 L2304.15 1398.34 Q2302.09 1396.97 2299.75 1396.21 Q2297.39 1395.44 2294.75 1395.3 L2294.75 1391 Q2297.8 1391.28 2300.79 1392.48 Q2303.77 1393.68 2306.69 1395.84 L2313.29 1389.38 L2313.29 1395.21 L2309.89 1398.52 Q2311.95 1400.93 2312.96 1403.57 Q2313.96 1406.21 2313.96 1409.24 Q2313.96 1414.82 2310.79 1418.36 Q2307.59 1421.9 2302.62 1421.9 Q2299.65 1421.9 2297.06 1420.35 Q2294.45 1418.8 2292.15 1415.7 Q2290.7 1416.81 2289.26 1417.39 Q2287.8 1417.96 2286.41 1417.96 Q2282.66 1417.96 2280.4 1415.4 Q2278.1 1412.83 2278.1 1408.57 Q2278.1 1406.65 2278.52 1404.75 Q2278.94 1402.83 2279.77 1400.86 L2283.98 1400.86 Q2282.9 1402.87 2282.34 1404.7 Q2281.76 1406.53 2281.76 1408.1 Q2281.76 1410.53 2283.06 1412.06 Q2284.33 1413.57 2286.37 1413.57 Q2287.55 1413.57 2288.75 1412.9 Q2289.93 1412.2 2292.11 1410.09 Z" fill="#000000" fill-rule="evenodd" fill-opacity="1" /><path clip-path="url(#clip790)" d="M2313.96 1375.19 Q2313.96 1384.79 2300.21 1384.79 Q2294.77 1384.79 2287.36 1381.21 L2287.36 1376.62 Q2294.77 1379.93 2300.33 1379.93 Q2310.35 1379.93 2310.35 1374.79 Q2310.35 1370.09 2297.9 1370.09 L2297.9 1366.16 Q2310.35 1366.16 2310.35 1361.46 Q2310.35 1356.32 2300.33 1356.32 Q2294.77 1356.32 2287.36 1359.63 L2287.36 1355.05 Q2294.77 1351.46 2300.21 1351.46 Q2313.96 1351.46 2313.96 1361.07 Q2313.96 1367.36 2307.04 1368.13 Q2313.96 1369.08 2313.96 1375.19 Z" fill="#000000" fill-rule="evenodd" fill-opacity="1" /><path clip-path="url(#clip790)" d="M2321.16 1324.05 L2324.47 1324.05 L2324.47 1348.68 L2321.16 1348.68 L2321.16 1324.05 Z" fill="#000000" fill-rule="evenodd" fill-opacity="1" /><path clip-path="url(#clip790)" d="M2309.35 1315.42 L2309.35 1299.1 L2313.29 1299.1 L2313.29 1321.04 L2309.35 1321.04 Q2306.6 1318.38 2301.97 1313.8 Q2297.32 1309.19 2295.97 1308.01 Q2293.45 1305.77 2291.71 1304.89 Q2289.96 1303.98 2288.27 1303.98 Q2285.51 1303.98 2283.78 1305.93 Q2282.04 1307.85 2282.04 1310.95 Q2282.04 1313.15 2282.8 1315.6 Q2283.57 1318.03 2285.12 1320.81 L2280.4 1320.81 Q2279.26 1317.99 2278.68 1315.53 Q2278.1 1313.08 2278.1 1311.04 Q2278.1 1305.67 2280.79 1302.48 Q2283.47 1299.28 2287.96 1299.28 Q2290.09 1299.28 2292.02 1300.1 Q2293.91 1300.88 2296.51 1302.99 Q2297.18 1303.57 2300.4 1306.67 Q2303.59 1309.77 2309.35 1315.42 Z" fill="#000000" fill-rule="evenodd" fill-opacity="1" /><path clip-path="url(#clip790)" d="M2278.73 1290.47 L2278.73 1268.24 L2280.72 1268.24 L2313.29 1280.79 L2313.29 1285.67 L2282.66 1273.87 L2282.66 1290.47 L2278.73 1290.47 Z" fill="#000000" fill-rule="evenodd" fill-opacity="1" /><path clip-path="url(#clip790)" d="M2281.81 1249.12 Q2281.81 1252.73 2285.37 1254.56 Q2288.91 1256.37 2296.04 1256.37 Q2303.15 1256.37 2306.71 1254.56 Q2310.26 1252.73 2310.26 1249.12 Q2310.26 1245.49 2306.71 1243.68 Q2303.15 1241.85 2296.04 1241.85 Q2288.91 1241.85 2285.37 1243.68 Q2281.81 1245.49 2281.81 1249.12 M2278.1 1249.12 Q2278.1 1243.31 2282.71 1240.26 Q2287.29 1237.18 2296.04 1237.18 Q2304.77 1237.18 2309.38 1240.26 Q2313.96 1243.31 2313.96 1249.12 Q2313.96 1254.93 2309.38 1258.01 Q2304.77 1261.07 2296.04 1261.07 Q2287.29 1261.07 2282.71 1258.01 Q2278.1 1254.93 2278.1 1249.12 Z" fill="#000000" fill-rule="evenodd" fill-opacity="1" /><polyline clip-path="url(#clip792)" style="stroke:#000000; stroke-linecap:round; stroke-linejoin:round; stroke-width:2; stroke-opacity:0.1; fill:none" points="
  347.69,1102.96 2352.76,1102.96 
  "/>
<polyline clip-path="url(#clip792)" style="stroke:#000000; stroke-linecap:round; stroke-linejoin:round; stroke-width:2; stroke-opacity:0.1; fill:none" points="
  347.69,925.141 2352.76,925.141 
  "/>
<polyline clip-path="url(#clip792)" style="stroke:#000000; stroke-linecap:round; stroke-linejoin:round; stroke-width:2; stroke-opacity:0.1; fill:none" points="
  347.69,747.322 2352.76,747.322 
  "/>
<polyline clip-path="url(#clip792)" style="stroke:#000000; stroke-linecap:round; stroke-linejoin:round; stroke-width:2; stroke-opacity:0.1; fill:none" points="
  347.69,569.502 2352.76,569.502 
  "/>
<polyline clip-path="url(#clip792)" style="stroke:#000000; stroke-linecap:round; stroke-linejoin:round; stroke-width:2; stroke-opacity:0.1; fill:none" points="
  347.69,391.683 2352.76,391.683 
  "/>
<polyline clip-path="url(#clip792)" style="stroke:#000000; stroke-linecap:round; stroke-linejoin:round; stroke-width:2; stroke-opacity:0.1; fill:none" points="
  347.69,213.863 2352.76,213.863 
  "/>
<polyline clip-path="url(#clip790)" style="stroke:#000000; stroke-linecap:round; stroke-linejoin:round; stroke-width:4; stroke-opacity:1; fill:none" points="
  347.69,1217.98 347.69,47.2441 
  "/>
<polyline clip-path="url(#clip790)" style="stroke:#000000; stroke-linecap:round; stroke-linejoin:round; stroke-width:4; stroke-opacity:1; fill:none" points="
  347.69,1102.96 366.587,1102.96 
  "/>
<polyline clip-path="url(#clip790)" style="stroke:#000000; stroke-linecap:round; stroke-linejoin:round; stroke-width:4; stroke-opacity:1; fill:none" points="
  347.69,925.141 366.587,925.141 
  "/>
<polyline clip-path="url(#clip790)" style="stroke:#000000; stroke-linecap:round; stroke-linejoin:round; stroke-width:4; stroke-opacity:1; fill:none" points="
  347.69,747.322 366.587,747.322 
  "/>
<polyline clip-path="url(#clip790)" style="stroke:#000000; stroke-linecap:round; stroke-linejoin:round; stroke-width:4; stroke-opacity:1; fill:none" points="
  347.69,569.502 366.587,569.502 
  "/>
<polyline clip-path="url(#clip790)" style="stroke:#000000; stroke-linecap:round; stroke-linejoin:round; stroke-width:4; stroke-opacity:1; fill:none" points="
  347.69,391.683 366.587,391.683 
  "/>
<polyline clip-path="url(#clip790)" style="stroke:#000000; stroke-linecap:round; stroke-linejoin:round; stroke-width:4; stroke-opacity:1; fill:none" points="
  347.69,213.863 366.587,213.863 
  "/>
<path clip-path="url(#clip790)" d="M114.26 1103.41 L143.936 1103.41 L143.936 1107.35 L114.26 1107.35 L114.26 1103.41 Z" fill="#000000" fill-rule="evenodd" fill-opacity="1" /><path clip-path="url(#clip790)" d="M168.195 1101.61 Q171.552 1102.32 173.427 1104.59 Q175.325 1106.86 175.325 1110.19 Q175.325 1115.31 171.806 1118.11 Q168.288 1120.91 161.806 1120.91 Q159.63 1120.91 157.315 1120.47 Q155.024 1120.06 152.57 1119.2 L152.57 1114.69 Q154.515 1115.82 156.829 1116.4 Q159.144 1116.98 161.667 1116.98 Q166.065 1116.98 168.357 1115.24 Q170.672 1113.5 170.672 1110.19 Q170.672 1107.14 168.519 1105.43 Q166.39 1103.69 162.57 1103.69 L158.542 1103.69 L158.542 1099.85 L162.755 1099.85 Q166.204 1099.85 168.033 1098.48 Q169.862 1097.09 169.862 1094.5 Q169.862 1091.84 167.964 1090.43 Q166.089 1088.99 162.57 1088.99 Q160.649 1088.99 158.45 1089.41 Q156.251 1089.82 153.612 1090.7 L153.612 1086.54 Q156.274 1085.8 158.589 1085.43 Q160.927 1085.06 162.987 1085.06 Q168.311 1085.06 171.413 1087.49 Q174.514 1089.89 174.514 1094.01 Q174.514 1096.88 172.871 1098.88 Q171.227 1100.84 168.195 1101.61 Z" fill="#000000" fill-rule="evenodd" fill-opacity="1" /><path clip-path="url(#clip790)" d="M184.19 1114.36 L189.075 1114.36 L189.075 1120.24 L184.19 1120.24 L184.19 1114.36 Z" fill="#000000" fill-rule="evenodd" fill-opacity="1" /><path clip-path="url(#clip790)" d="M209.26 1088.76 Q205.649 1088.76 203.82 1092.32 Q202.014 1095.87 202.014 1103 Q202.014 1110.1 203.82 1113.67 Q205.649 1117.21 209.26 1117.21 Q212.894 1117.21 214.699 1113.67 Q216.528 1110.1 216.528 1103 Q216.528 1095.87 214.699 1092.32 Q212.894 1088.76 209.26 1088.76 M209.26 1085.06 Q215.07 1085.06 218.125 1089.66 Q221.204 1094.25 221.204 1103 Q221.204 1111.72 218.125 1116.33 Q215.07 1120.91 209.26 1120.91 Q203.449 1120.91 200.371 1116.33 Q197.315 1111.72 197.315 1103 Q197.315 1094.25 200.371 1089.66 Q203.449 1085.06 209.26 1085.06 Z" fill="#000000" fill-rule="evenodd" fill-opacity="1" /><path clip-path="url(#clip790)" d="M239.422 1088.76 Q235.81 1088.76 233.982 1092.32 Q232.176 1095.87 232.176 1103 Q232.176 1110.1 233.982 1113.67 Q235.81 1117.21 239.422 1117.21 Q243.056 1117.21 244.861 1113.67 Q246.69 1110.1 246.69 1103 Q246.69 1095.87 244.861 1092.32 Q243.056 1088.76 239.422 1088.76 M239.422 1085.06 Q245.232 1085.06 248.287 1089.66 Q251.366 1094.25 251.366 1103 Q251.366 1111.72 248.287 1116.33 Q245.232 1120.91 239.422 1120.91 Q233.611 1120.91 230.533 1116.33 Q227.477 1111.72 227.477 1103 Q227.477 1094.25 230.533 1089.66 Q233.611 1085.06 239.422 1085.06 Z" fill="#000000" fill-rule="evenodd" fill-opacity="1" /><path clip-path="url(#clip790)" d="M269.583 1088.76 Q265.972 1088.76 264.144 1092.32 Q262.338 1095.87 262.338 1103 Q262.338 1110.1 264.144 1113.67 Q265.972 1117.21 269.583 1117.21 Q273.218 1117.21 275.023 1113.67 Q276.852 1110.1 276.852 1103 Q276.852 1095.87 275.023 1092.32 Q273.218 1088.76 269.583 1088.76 M269.583 1085.06 Q275.394 1085.06 278.449 1089.66 Q281.528 1094.25 281.528 1103 Q281.528 1111.72 278.449 1116.33 Q275.394 1120.91 269.583 1120.91 Q263.773 1120.91 260.695 1116.33 Q257.639 1111.72 257.639 1103 Q257.639 1094.25 260.695 1089.66 Q263.773 1085.06 269.583 1085.06 Z" fill="#000000" fill-rule="evenodd" fill-opacity="1" /><path clip-path="url(#clip790)" d="M299.745 1088.76 Q296.134 1088.76 294.305 1092.32 Q292.5 1095.87 292.5 1103 Q292.5 1110.1 294.305 1113.67 Q296.134 1117.21 299.745 1117.21 Q303.38 1117.21 305.185 1113.67 Q307.014 1110.1 307.014 1103 Q307.014 1095.87 305.185 1092.32 Q303.38 1088.76 299.745 1088.76 M299.745 1085.06 Q305.555 1085.06 308.611 1089.66 Q311.69 1094.25 311.69 1103 Q311.69 1111.72 308.611 1116.33 Q305.555 1120.91 299.745 1120.91 Q293.935 1120.91 290.856 1116.33 Q287.801 1111.72 287.801 1103 Q287.801 1094.25 290.856 1089.66 Q293.935 1085.06 299.745 1085.06 Z" fill="#000000" fill-rule="evenodd" fill-opacity="1" /><path clip-path="url(#clip790)" d="M115.256 925.593 L144.931 925.593 L144.931 929.528 L115.256 929.528 L115.256 925.593 Z" fill="#000000" fill-rule="evenodd" fill-opacity="1" /><path clip-path="url(#clip790)" d="M159.052 938.486 L175.371 938.486 L175.371 942.421 L153.427 942.421 L153.427 938.486 Q156.089 935.731 160.672 931.102 Q165.278 926.449 166.459 925.107 Q168.704 922.583 169.584 920.847 Q170.487 919.088 170.487 917.398 Q170.487 914.644 168.542 912.908 Q166.621 911.171 163.519 911.171 Q161.32 911.171 158.866 911.935 Q156.436 912.699 153.658 914.25 L153.658 909.528 Q156.482 908.394 158.936 907.815 Q161.39 907.236 163.427 907.236 Q168.797 907.236 171.991 909.921 Q175.186 912.607 175.186 917.097 Q175.186 919.227 174.376 921.148 Q173.589 923.046 171.482 925.639 Q170.903 926.31 167.802 929.528 Q164.7 932.722 159.052 938.486 Z" fill="#000000" fill-rule="evenodd" fill-opacity="1" /><path clip-path="url(#clip790)" d="M185.186 936.542 L190.07 936.542 L190.07 942.421 L185.186 942.421 L185.186 936.542 Z" fill="#000000" fill-rule="evenodd" fill-opacity="1" /><path clip-path="url(#clip790)" d="M200.394 941.704 L200.394 937.444 Q202.153 938.278 203.959 938.718 Q205.764 939.157 207.5 939.157 Q212.13 939.157 214.561 936.056 Q217.014 932.931 217.361 926.588 Q216.019 928.579 213.959 929.644 Q211.899 930.708 209.399 930.708 Q204.213 930.708 201.181 927.583 Q198.172 924.435 198.172 918.995 Q198.172 913.671 201.32 910.454 Q204.468 907.236 209.699 907.236 Q215.695 907.236 218.843 911.843 Q222.014 916.426 222.014 925.176 Q222.014 933.347 218.125 938.231 Q214.26 943.093 207.709 943.093 Q205.949 943.093 204.144 942.745 Q202.338 942.398 200.394 941.704 M209.699 927.051 Q212.848 927.051 214.676 924.898 Q216.528 922.745 216.528 918.995 Q216.528 915.269 214.676 913.116 Q212.848 910.94 209.699 910.94 Q206.551 910.94 204.699 913.116 Q202.871 915.269 202.871 918.995 Q202.871 922.745 204.699 924.898 Q206.551 927.051 209.699 927.051 Z" fill="#000000" fill-rule="evenodd" fill-opacity="1" /><path clip-path="url(#clip790)" d="M230.556 941.704 L230.556 937.444 Q232.315 938.278 234.121 938.718 Q235.926 939.157 237.662 939.157 Q242.292 939.157 244.722 936.056 Q247.176 932.931 247.523 926.588 Q246.181 928.579 244.121 929.644 Q242.06 930.708 239.56 930.708 Q234.375 930.708 231.343 927.583 Q228.334 924.435 228.334 918.995 Q228.334 913.671 231.482 910.454 Q234.63 907.236 239.861 907.236 Q245.857 907.236 249.005 911.843 Q252.176 916.426 252.176 925.176 Q252.176 933.347 248.287 938.231 Q244.421 943.093 237.871 943.093 Q236.111 943.093 234.306 942.745 Q232.5 942.398 230.556 941.704 M239.861 927.051 Q243.009 927.051 244.838 924.898 Q246.69 922.745 246.69 918.995 Q246.69 915.269 244.838 913.116 Q243.009 910.94 239.861 910.94 Q236.713 910.94 234.861 913.116 Q233.033 915.269 233.033 918.995 Q233.033 922.745 234.861 924.898 Q236.713 927.051 239.861 927.051 Z" fill="#000000" fill-rule="evenodd" fill-opacity="1" /><path clip-path="url(#clip790)" d="M260.718 941.704 L260.718 937.444 Q262.477 938.278 264.283 938.718 Q266.088 939.157 267.824 939.157 Q272.454 939.157 274.884 936.056 Q277.338 932.931 277.685 926.588 Q276.343 928.579 274.282 929.644 Q272.222 930.708 269.722 930.708 Q264.537 930.708 261.505 927.583 Q258.495 924.435 258.495 918.995 Q258.495 913.671 261.644 910.454 Q264.792 907.236 270.023 907.236 Q276.019 907.236 279.167 911.843 Q282.338 916.426 282.338 925.176 Q282.338 933.347 278.449 938.231 Q274.583 943.093 268.032 943.093 Q266.273 943.093 264.468 942.745 Q262.662 942.398 260.718 941.704 M270.023 927.051 Q273.171 927.051 275 924.898 Q276.852 922.745 276.852 918.995 Q276.852 915.269 275 913.116 Q273.171 910.94 270.023 910.94 Q266.875 910.94 265.023 913.116 Q263.195 915.269 263.195 918.995 Q263.195 922.745 265.023 924.898 Q266.875 927.051 270.023 927.051 Z" fill="#000000" fill-rule="evenodd" fill-opacity="1" /><path clip-path="url(#clip790)" d="M290.787 907.861 L309.143 907.861 L309.143 911.796 L295.069 911.796 L295.069 920.269 Q296.088 919.921 297.106 919.759 Q298.125 919.574 299.143 919.574 Q304.93 919.574 308.31 922.745 Q311.69 925.917 311.69 931.333 Q311.69 936.912 308.217 940.014 Q304.745 943.093 298.426 943.093 Q296.25 943.093 293.981 942.722 Q291.736 942.352 289.329 941.611 L289.329 936.912 Q291.412 938.046 293.634 938.602 Q295.856 939.157 298.333 939.157 Q302.338 939.157 304.676 937.051 Q307.014 934.944 307.014 931.333 Q307.014 927.722 304.676 925.616 Q302.338 923.509 298.333 923.509 Q296.458 923.509 294.583 923.926 Q292.731 924.343 290.787 925.222 L290.787 907.861 Z" fill="#000000" fill-rule="evenodd" fill-opacity="1" /><path clip-path="url(#clip790)" d="M114.26 747.773 L143.936 747.773 L143.936 751.708 L114.26 751.708 L114.26 747.773 Z" fill="#000000" fill-rule="evenodd" fill-opacity="1" /><path clip-path="url(#clip790)" d="M158.056 760.667 L174.376 760.667 L174.376 764.602 L152.431 764.602 L152.431 760.667 Q155.093 757.912 159.677 753.282 Q164.283 748.63 165.464 747.287 Q167.709 744.764 168.589 743.028 Q169.491 741.269 169.491 739.579 Q169.491 736.824 167.547 735.088 Q165.626 733.352 162.524 733.352 Q160.325 733.352 157.871 734.116 Q155.44 734.88 152.663 736.431 L152.663 731.708 Q155.487 730.574 157.94 729.995 Q160.394 729.417 162.431 729.417 Q167.802 729.417 170.996 732.102 Q174.19 734.787 174.19 739.278 Q174.19 741.407 173.38 743.329 Q172.593 745.227 170.487 747.819 Q169.908 748.491 166.806 751.708 Q163.704 754.903 158.056 760.667 Z" fill="#000000" fill-rule="evenodd" fill-opacity="1" /><path clip-path="url(#clip790)" d="M184.19 758.722 L189.075 758.722 L189.075 764.602 L184.19 764.602 L184.19 758.722 Z" fill="#000000" fill-rule="evenodd" fill-opacity="1" /><path clip-path="url(#clip790)" d="M199.399 763.884 L199.399 759.625 Q201.158 760.458 202.963 760.898 Q204.769 761.338 206.505 761.338 Q211.135 761.338 213.565 758.236 Q216.019 755.111 216.366 748.769 Q215.024 750.759 212.963 751.824 Q210.903 752.889 208.403 752.889 Q203.218 752.889 200.186 749.764 Q197.176 746.616 197.176 741.176 Q197.176 735.852 200.325 732.634 Q203.473 729.417 208.704 729.417 Q214.699 729.417 217.848 734.023 Q221.019 738.607 221.019 747.356 Q221.019 755.528 217.13 760.412 Q213.264 765.273 206.713 765.273 Q204.954 765.273 203.149 764.926 Q201.343 764.579 199.399 763.884 M208.704 749.231 Q211.852 749.231 213.681 747.079 Q215.533 744.926 215.533 741.176 Q215.533 737.449 213.681 735.296 Q211.852 733.12 208.704 733.12 Q205.556 733.12 203.704 735.296 Q201.875 737.449 201.875 741.176 Q201.875 744.926 203.704 747.079 Q205.556 749.231 208.704 749.231 Z" fill="#000000" fill-rule="evenodd" fill-opacity="1" /><path clip-path="url(#clip790)" d="M229.56 763.884 L229.56 759.625 Q231.32 760.458 233.125 760.898 Q234.931 761.338 236.667 761.338 Q241.297 761.338 243.727 758.236 Q246.181 755.111 246.528 748.769 Q245.185 750.759 243.125 751.824 Q241.065 752.889 238.565 752.889 Q233.38 752.889 230.347 749.764 Q227.338 746.616 227.338 741.176 Q227.338 735.852 230.486 732.634 Q233.635 729.417 238.866 729.417 Q244.861 729.417 248.009 734.023 Q251.181 738.607 251.181 747.356 Q251.181 755.528 247.292 760.412 Q243.426 765.273 236.875 765.273 Q235.116 765.273 233.31 764.926 Q231.505 764.579 229.56 763.884 M238.866 749.231 Q242.014 749.231 243.843 747.079 Q245.695 744.926 245.695 741.176 Q245.695 737.449 243.843 735.296 Q242.014 733.12 238.866 733.12 Q235.718 733.12 233.866 735.296 Q232.037 737.449 232.037 741.176 Q232.037 744.926 233.866 747.079 Q235.718 749.231 238.866 749.231 Z" fill="#000000" fill-rule="evenodd" fill-opacity="1" /><path clip-path="url(#clip790)" d="M259.722 763.884 L259.722 759.625 Q261.482 760.458 263.287 760.898 Q265.093 761.338 266.829 761.338 Q271.458 761.338 273.889 758.236 Q276.343 755.111 276.69 748.769 Q275.347 750.759 273.287 751.824 Q271.227 752.889 268.727 752.889 Q263.542 752.889 260.509 749.764 Q257.5 746.616 257.5 741.176 Q257.5 735.852 260.648 732.634 Q263.796 729.417 269.028 729.417 Q275.023 729.417 278.171 734.023 Q281.343 738.607 281.343 747.356 Q281.343 755.528 277.454 760.412 Q273.588 765.273 267.037 765.273 Q265.278 765.273 263.472 764.926 Q261.667 764.579 259.722 763.884 M269.028 749.231 Q272.176 749.231 274.005 747.079 Q275.857 744.926 275.857 741.176 Q275.857 737.449 274.005 735.296 Q272.176 733.12 269.028 733.12 Q265.88 733.12 264.028 735.296 Q262.199 737.449 262.199 741.176 Q262.199 744.926 264.028 747.079 Q265.88 749.231 269.028 749.231 Z" fill="#000000" fill-rule="evenodd" fill-opacity="1" /><path clip-path="url(#clip790)" d="M299.745 733.12 Q296.134 733.12 294.305 736.685 Q292.5 740.227 292.5 747.356 Q292.5 754.463 294.305 758.028 Q296.134 761.569 299.745 761.569 Q303.38 761.569 305.185 758.028 Q307.014 754.463 307.014 747.356 Q307.014 740.227 305.185 736.685 Q303.38 733.12 299.745 733.12 M299.745 729.417 Q305.555 729.417 308.611 734.023 Q311.69 738.607 311.69 747.356 Q311.69 756.083 308.611 760.69 Q305.555 765.273 299.745 765.273 Q293.935 765.273 290.856 760.69 Q287.801 756.083 287.801 747.356 Q287.801 738.607 290.856 734.023 Q293.935 729.417 299.745 729.417 Z" fill="#000000" fill-rule="evenodd" fill-opacity="1" /><path clip-path="url(#clip790)" d="M115.256 569.954 L144.931 569.954 L144.931 573.889 L115.256 573.889 L115.256 569.954 Z" fill="#000000" fill-rule="evenodd" fill-opacity="1" /><path clip-path="url(#clip790)" d="M159.052 582.847 L175.371 582.847 L175.371 586.782 L153.427 586.782 L153.427 582.847 Q156.089 580.093 160.672 575.463 Q165.278 570.81 166.459 569.468 Q168.704 566.944 169.584 565.208 Q170.487 563.449 170.487 561.759 Q170.487 559.005 168.542 557.269 Q166.621 555.532 163.519 555.532 Q161.32 555.532 158.866 556.296 Q156.436 557.06 153.658 558.611 L153.658 553.889 Q156.482 552.755 158.936 552.176 Q161.39 551.597 163.427 551.597 Q168.797 551.597 171.991 554.282 Q175.186 556.968 175.186 561.458 Q175.186 563.588 174.376 565.509 Q173.589 567.407 171.482 570 Q170.903 570.671 167.802 573.889 Q164.7 577.083 159.052 582.847 Z" fill="#000000" fill-rule="evenodd" fill-opacity="1" /><path clip-path="url(#clip790)" d="M185.186 580.903 L190.07 580.903 L190.07 586.782 L185.186 586.782 L185.186 580.903 Z" fill="#000000" fill-rule="evenodd" fill-opacity="1" /><path clip-path="url(#clip790)" d="M200.394 586.065 L200.394 581.805 Q202.153 582.639 203.959 583.079 Q205.764 583.518 207.5 583.518 Q212.13 583.518 214.561 580.417 Q217.014 577.292 217.361 570.949 Q216.019 572.94 213.959 574.005 Q211.899 575.069 209.399 575.069 Q204.213 575.069 201.181 571.944 Q198.172 568.796 198.172 563.356 Q198.172 558.032 201.32 554.815 Q204.468 551.597 209.699 551.597 Q215.695 551.597 218.843 556.204 Q222.014 560.787 222.014 569.537 Q222.014 577.708 218.125 582.592 Q214.26 587.454 207.709 587.454 Q205.949 587.454 204.144 587.106 Q202.338 586.759 200.394 586.065 M209.699 571.412 Q212.848 571.412 214.676 569.259 Q216.528 567.106 216.528 563.356 Q216.528 559.63 214.676 557.477 Q212.848 555.301 209.699 555.301 Q206.551 555.301 204.699 557.477 Q202.871 559.63 202.871 563.356 Q202.871 567.106 204.699 569.259 Q206.551 571.412 209.699 571.412 Z" fill="#000000" fill-rule="evenodd" fill-opacity="1" /><path clip-path="url(#clip790)" d="M230.556 586.065 L230.556 581.805 Q232.315 582.639 234.121 583.079 Q235.926 583.518 237.662 583.518 Q242.292 583.518 244.722 580.417 Q247.176 577.292 247.523 570.949 Q246.181 572.94 244.121 574.005 Q242.06 575.069 239.56 575.069 Q234.375 575.069 231.343 571.944 Q228.334 568.796 228.334 563.356 Q228.334 558.032 231.482 554.815 Q234.63 551.597 239.861 551.597 Q245.857 551.597 249.005 556.204 Q252.176 560.787 252.176 569.537 Q252.176 577.708 248.287 582.592 Q244.421 587.454 237.871 587.454 Q236.111 587.454 234.306 587.106 Q232.5 586.759 230.556 586.065 M239.861 571.412 Q243.009 571.412 244.838 569.259 Q246.69 567.106 246.69 563.356 Q246.69 559.63 244.838 557.477 Q243.009 555.301 239.861 555.301 Q236.713 555.301 234.861 557.477 Q233.033 559.63 233.033 563.356 Q233.033 567.106 234.861 569.259 Q236.713 571.412 239.861 571.412 Z" fill="#000000" fill-rule="evenodd" fill-opacity="1" /><path clip-path="url(#clip790)" d="M270.579 570.37 Q267.245 570.37 265.324 572.153 Q263.426 573.935 263.426 577.06 Q263.426 580.185 265.324 581.967 Q267.245 583.75 270.579 583.75 Q273.912 583.75 275.833 581.967 Q277.755 580.162 277.755 577.06 Q277.755 573.935 275.833 572.153 Q273.935 570.37 270.579 570.37 M265.903 568.38 Q262.894 567.639 261.204 565.579 Q259.537 563.519 259.537 560.556 Q259.537 556.412 262.477 554.005 Q265.44 551.597 270.579 551.597 Q275.741 551.597 278.681 554.005 Q281.62 556.412 281.62 560.556 Q281.62 563.519 279.931 565.579 Q278.264 567.639 275.278 568.38 Q278.657 569.167 280.532 571.458 Q282.431 573.75 282.431 577.06 Q282.431 582.083 279.352 584.768 Q276.296 587.454 270.579 587.454 Q264.861 587.454 261.783 584.768 Q258.727 582.083 258.727 577.06 Q258.727 573.75 260.625 571.458 Q262.523 569.167 265.903 568.38 M264.19 560.995 Q264.19 563.681 265.857 565.185 Q267.546 566.69 270.579 566.69 Q273.588 566.69 275.278 565.185 Q276.991 563.681 276.991 560.995 Q276.991 558.31 275.278 556.806 Q273.588 555.301 270.579 555.301 Q267.546 555.301 265.857 556.806 Q264.19 558.31 264.19 560.995 Z" fill="#000000" fill-rule="evenodd" fill-opacity="1" /><path clip-path="url(#clip790)" d="M290.787 552.222 L309.143 552.222 L309.143 556.157 L295.069 556.157 L295.069 564.63 Q296.088 564.282 297.106 564.12 Q298.125 563.935 299.143 563.935 Q304.93 563.935 308.31 567.106 Q311.69 570.278 311.69 575.694 Q311.69 581.273 308.217 584.375 Q304.745 587.454 298.426 587.454 Q296.25 587.454 293.981 587.083 Q291.736 586.713 289.329 585.972 L289.329 581.273 Q291.412 582.407 293.634 582.963 Q295.856 583.518 298.333 583.518 Q302.338 583.518 304.676 581.412 Q307.014 579.305 307.014 575.694 Q307.014 572.083 304.676 569.977 Q302.338 567.87 298.333 567.87 Q296.458 567.87 294.583 568.287 Q292.731 568.704 290.787 569.583 L290.787 552.222 Z" fill="#000000" fill-rule="evenodd" fill-opacity="1" /><path clip-path="url(#clip790)" d="M114.26 392.134 L143.936 392.134 L143.936 396.069 L114.26 396.069 L114.26 392.134 Z" fill="#000000" fill-rule="evenodd" fill-opacity="1" /><path clip-path="url(#clip790)" d="M158.056 405.028 L174.376 405.028 L174.376 408.963 L152.431 408.963 L152.431 405.028 Q155.093 402.273 159.677 397.643 Q164.283 392.991 165.464 391.648 Q167.709 389.125 168.589 387.389 Q169.491 385.63 169.491 383.94 Q169.491 381.185 167.547 379.449 Q165.626 377.713 162.524 377.713 Q160.325 377.713 157.871 378.477 Q155.44 379.241 152.663 380.792 L152.663 376.069 Q155.487 374.935 157.94 374.357 Q160.394 373.778 162.431 373.778 Q167.802 373.778 170.996 376.463 Q174.19 379.148 174.19 383.639 Q174.19 385.768 173.38 387.69 Q172.593 389.588 170.487 392.18 Q169.908 392.852 166.806 396.069 Q163.704 399.264 158.056 405.028 Z" fill="#000000" fill-rule="evenodd" fill-opacity="1" /><path clip-path="url(#clip790)" d="M184.19 403.083 L189.075 403.083 L189.075 408.963 L184.19 408.963 L184.19 403.083 Z" fill="#000000" fill-rule="evenodd" fill-opacity="1" /><path clip-path="url(#clip790)" d="M199.399 408.245 L199.399 403.986 Q201.158 404.819 202.963 405.259 Q204.769 405.699 206.505 405.699 Q211.135 405.699 213.565 402.597 Q216.019 399.472 216.366 393.13 Q215.024 395.12 212.963 396.185 Q210.903 397.25 208.403 397.25 Q203.218 397.25 200.186 394.125 Q197.176 390.977 197.176 385.537 Q197.176 380.213 200.325 376.995 Q203.473 373.778 208.704 373.778 Q214.699 373.778 217.848 378.384 Q221.019 382.968 221.019 391.718 Q221.019 399.889 217.13 404.773 Q213.264 409.634 206.713 409.634 Q204.954 409.634 203.149 409.287 Q201.343 408.94 199.399 408.245 M208.704 393.593 Q211.852 393.593 213.681 391.44 Q215.533 389.287 215.533 385.537 Q215.533 381.81 213.681 379.657 Q211.852 377.481 208.704 377.481 Q205.556 377.481 203.704 379.657 Q201.875 381.81 201.875 385.537 Q201.875 389.287 203.704 391.44 Q205.556 393.593 208.704 393.593 Z" fill="#000000" fill-rule="evenodd" fill-opacity="1" /><path clip-path="url(#clip790)" d="M229.56 408.245 L229.56 403.986 Q231.32 404.819 233.125 405.259 Q234.931 405.699 236.667 405.699 Q241.297 405.699 243.727 402.597 Q246.181 399.472 246.528 393.13 Q245.185 395.12 243.125 396.185 Q241.065 397.25 238.565 397.25 Q233.38 397.25 230.347 394.125 Q227.338 390.977 227.338 385.537 Q227.338 380.213 230.486 376.995 Q233.635 373.778 238.866 373.778 Q244.861 373.778 248.009 378.384 Q251.181 382.968 251.181 391.718 Q251.181 399.889 247.292 404.773 Q243.426 409.634 236.875 409.634 Q235.116 409.634 233.31 409.287 Q231.505 408.94 229.56 408.245 M238.866 393.593 Q242.014 393.593 243.843 391.44 Q245.695 389.287 245.695 385.537 Q245.695 381.81 243.843 379.657 Q242.014 377.481 238.866 377.481 Q235.718 377.481 233.866 379.657 Q232.037 381.81 232.037 385.537 Q232.037 389.287 233.866 391.44 Q235.718 393.593 238.866 393.593 Z" fill="#000000" fill-rule="evenodd" fill-opacity="1" /><path clip-path="url(#clip790)" d="M269.583 392.551 Q266.25 392.551 264.329 394.333 Q262.431 396.116 262.431 399.241 Q262.431 402.366 264.329 404.148 Q266.25 405.93 269.583 405.93 Q272.917 405.93 274.838 404.148 Q276.759 402.342 276.759 399.241 Q276.759 396.116 274.838 394.333 Q272.94 392.551 269.583 392.551 M264.907 390.56 Q261.898 389.819 260.208 387.759 Q258.542 385.699 258.542 382.736 Q258.542 378.593 261.482 376.185 Q264.445 373.778 269.583 373.778 Q274.745 373.778 277.685 376.185 Q280.625 378.593 280.625 382.736 Q280.625 385.699 278.935 387.759 Q277.269 389.819 274.282 390.56 Q277.662 391.347 279.537 393.639 Q281.435 395.93 281.435 399.241 Q281.435 404.264 278.357 406.949 Q275.301 409.634 269.583 409.634 Q263.866 409.634 260.787 406.949 Q257.732 404.264 257.732 399.241 Q257.732 395.93 259.63 393.639 Q261.528 391.347 264.907 390.56 M263.195 383.176 Q263.195 385.861 264.861 387.366 Q266.551 388.87 269.583 388.87 Q272.593 388.87 274.282 387.366 Q275.995 385.861 275.995 383.176 Q275.995 380.491 274.282 378.986 Q272.593 377.481 269.583 377.481 Q266.551 377.481 264.861 378.986 Q263.195 380.491 263.195 383.176 Z" fill="#000000" fill-rule="evenodd" fill-opacity="1" /><path clip-path="url(#clip790)" d="M299.745 377.481 Q296.134 377.481 294.305 381.046 Q292.5 384.588 292.5 391.718 Q292.5 398.824 294.305 402.389 Q296.134 405.93 299.745 405.93 Q303.38 405.93 305.185 402.389 Q307.014 398.824 307.014 391.718 Q307.014 384.588 305.185 381.046 Q303.38 377.481 299.745 377.481 M299.745 373.778 Q305.555 373.778 308.611 378.384 Q311.69 382.968 311.69 391.718 Q311.69 400.444 308.611 405.051 Q305.555 409.634 299.745 409.634 Q293.935 409.634 290.856 405.051 Q287.801 400.444 287.801 391.718 Q287.801 382.968 290.856 378.384 Q293.935 373.778 299.745 373.778 Z" fill="#000000" fill-rule="evenodd" fill-opacity="1" /><path clip-path="url(#clip790)" d="M115.256 214.315 L144.931 214.315 L144.931 218.25 L115.256 218.25 L115.256 214.315 Z" fill="#000000" fill-rule="evenodd" fill-opacity="1" /><path clip-path="url(#clip790)" d="M159.052 227.208 L175.371 227.208 L175.371 231.143 L153.427 231.143 L153.427 227.208 Q156.089 224.454 160.672 219.824 Q165.278 215.171 166.459 213.829 Q168.704 211.305 169.584 209.569 Q170.487 207.81 170.487 206.12 Q170.487 203.366 168.542 201.63 Q166.621 199.893 163.519 199.893 Q161.32 199.893 158.866 200.657 Q156.436 201.421 153.658 202.972 L153.658 198.25 Q156.482 197.116 158.936 196.537 Q161.39 195.958 163.427 195.958 Q168.797 195.958 171.991 198.643 Q175.186 201.329 175.186 205.819 Q175.186 207.949 174.376 209.87 Q173.589 211.768 171.482 214.361 Q170.903 215.032 167.802 218.25 Q164.7 221.444 159.052 227.208 Z" fill="#000000" fill-rule="evenodd" fill-opacity="1" /><path clip-path="url(#clip790)" d="M185.186 225.264 L190.07 225.264 L190.07 231.143 L185.186 231.143 L185.186 225.264 Z" fill="#000000" fill-rule="evenodd" fill-opacity="1" /><path clip-path="url(#clip790)" d="M200.394 230.426 L200.394 226.166 Q202.153 227 203.959 227.44 Q205.764 227.879 207.5 227.879 Q212.13 227.879 214.561 224.778 Q217.014 221.653 217.361 215.31 Q216.019 217.301 213.959 218.366 Q211.899 219.43 209.399 219.43 Q204.213 219.43 201.181 216.305 Q198.172 213.157 198.172 207.718 Q198.172 202.393 201.32 199.176 Q204.468 195.958 209.699 195.958 Q215.695 195.958 218.843 200.565 Q222.014 205.148 222.014 213.898 Q222.014 222.069 218.125 226.954 Q214.26 231.815 207.709 231.815 Q205.949 231.815 204.144 231.467 Q202.338 231.12 200.394 230.426 M209.699 215.773 Q212.848 215.773 214.676 213.62 Q216.528 211.467 216.528 207.718 Q216.528 203.991 214.676 201.838 Q212.848 199.662 209.699 199.662 Q206.551 199.662 204.699 201.838 Q202.871 203.991 202.871 207.718 Q202.871 211.467 204.699 213.62 Q206.551 215.773 209.699 215.773 Z" fill="#000000" fill-rule="evenodd" fill-opacity="1" /><path clip-path="url(#clip790)" d="M230.556 230.426 L230.556 226.166 Q232.315 227 234.121 227.44 Q235.926 227.879 237.662 227.879 Q242.292 227.879 244.722 224.778 Q247.176 221.653 247.523 215.31 Q246.181 217.301 244.121 218.366 Q242.06 219.43 239.56 219.43 Q234.375 219.43 231.343 216.305 Q228.334 213.157 228.334 207.718 Q228.334 202.393 231.482 199.176 Q234.63 195.958 239.861 195.958 Q245.857 195.958 249.005 200.565 Q252.176 205.148 252.176 213.898 Q252.176 222.069 248.287 226.954 Q244.421 231.815 237.871 231.815 Q236.111 231.815 234.306 231.467 Q232.5 231.12 230.556 230.426 M239.861 215.773 Q243.009 215.773 244.838 213.62 Q246.69 211.467 246.69 207.718 Q246.69 203.991 244.838 201.838 Q243.009 199.662 239.861 199.662 Q236.713 199.662 234.861 201.838 Q233.033 203.991 233.033 207.718 Q233.033 211.467 234.861 213.62 Q236.713 215.773 239.861 215.773 Z" fill="#000000" fill-rule="evenodd" fill-opacity="1" /><path clip-path="url(#clip790)" d="M259.398 196.583 L281.62 196.583 L281.62 198.574 L269.074 231.143 L264.19 231.143 L275.995 200.518 L259.398 200.518 L259.398 196.583 Z" fill="#000000" fill-rule="evenodd" fill-opacity="1" /><path clip-path="url(#clip790)" d="M290.787 196.583 L309.143 196.583 L309.143 200.518 L295.069 200.518 L295.069 208.991 Q296.088 208.643 297.106 208.481 Q298.125 208.296 299.143 208.296 Q304.93 208.296 308.31 211.467 Q311.69 214.639 311.69 220.055 Q311.69 225.634 308.217 228.736 Q304.745 231.815 298.426 231.815 Q296.25 231.815 293.981 231.444 Q291.736 231.074 289.329 230.333 L289.329 225.634 Q291.412 226.768 293.634 227.324 Q295.856 227.879 298.333 227.879 Q302.338 227.879 304.676 225.773 Q307.014 223.667 307.014 220.055 Q307.014 216.444 304.676 214.338 Q302.338 212.231 298.333 212.231 Q296.458 212.231 294.583 212.648 Q292.731 213.065 290.787 213.944 L290.787 196.583 Z" fill="#000000" fill-rule="evenodd" fill-opacity="1" /><path clip-path="url(#clip790)" d="M18.0438 1037.44 L24.314 1037.44 Q22.5634 1041.1 21.704 1044.35 Q20.8447 1047.59 20.8447 1050.62 Q20.8447 1055.87 22.8817 1058.73 Q24.9187 1061.56 28.6745 1061.56 Q31.8255 1061.56 33.4488 1059.69 Q35.0402 1057.78 36.0269 1052.49 L36.8226 1048.61 Q38.1912 1041.42 41.6605 1038.01 Q45.098 1034.57 50.8908 1034.57 Q57.7976 1034.57 61.3624 1039.22 Q64.9272 1043.84 64.9272 1052.78 Q64.9272 1056.15 64.1633 1059.97 Q63.3994 1063.76 61.9035 1067.83 L55.2831 1067.83 Q57.4793 1063.92 58.5933 1060.16 Q59.7073 1056.41 59.7073 1052.78 Q59.7073 1047.27 57.543 1044.28 Q55.3786 1041.29 51.3682 1041.29 Q47.8671 1041.29 45.8937 1043.45 Q43.9204 1045.59 42.9337 1050.49 L42.1698 1054.4 Q40.7375 1061.6 37.682 1064.81 Q34.6264 1068.03 29.1837 1068.03 Q22.8817 1068.03 19.2532 1063.6 Q15.6248 1059.15 15.6248 1051.35 Q15.6248 1048.01 16.2295 1044.54 Q16.8343 1041.07 18.0438 1037.44 Z" fill="#000000" fill-rule="evenodd" fill-opacity="1" /><path clip-path="url(#clip790)" d="M67.3143 1009.97 Q73.68 1012.45 75.6216 1014.81 Q77.5631 1017.16 77.5631 1021.11 L77.5631 1025.79 L72.6615 1025.79 L72.6615 1022.35 Q72.6615 1019.93 71.5157 1018.6 Q70.3699 1017.26 66.1048 1015.64 L63.4312 1014.59 L28.3562 1029 L28.3562 1022.8 L56.238 1011.66 L28.3562 1000.52 L28.3562 994.311 L67.3143 1009.97 Z" fill="#000000" fill-rule="evenodd" fill-opacity="1" /><path clip-path="url(#clip790)" d="M42.4881 956.594 L64.0042 956.594 L64.0042 962.451 L42.679 962.451 Q37.6183 962.451 35.1038 964.424 Q32.5894 966.397 32.5894 970.344 Q32.5894 975.086 35.6131 977.824 Q38.6368 980.561 43.8567 980.561 L64.0042 980.561 L64.0042 986.449 L28.3562 986.449 L28.3562 980.561 L33.8944 980.561 Q30.6797 978.46 29.0883 975.628 Q27.4968 972.763 27.4968 969.039 Q27.4968 962.896 31.3163 959.745 Q35.1038 956.594 42.4881 956.594 Z" fill="#000000" fill-rule="evenodd" fill-opacity="1" /><path clip-path="url(#clip790)" d="M29.7248 919.259 L35.1993 919.259 Q33.8307 921.742 33.1623 924.256 Q32.4621 926.739 32.4621 929.285 Q32.4621 934.983 36.0905 938.134 Q39.6872 941.285 46.212 941.285 Q52.7369 941.285 56.3653 938.134 Q59.9619 934.983 59.9619 929.285 Q59.9619 926.739 59.2935 924.256 Q58.5933 921.742 57.2247 919.259 L62.6355 919.259 Q63.7814 921.71 64.3543 924.352 Q64.9272 926.962 64.9272 929.922 Q64.9272 937.974 59.8664 942.717 Q54.8057 947.459 46.212 947.459 Q37.491 947.459 32.4939 942.685 Q27.4968 937.879 27.4968 929.54 Q27.4968 926.834 28.0697 924.256 Q28.6108 921.678 29.7248 919.259 Z" fill="#000000" fill-rule="evenodd" fill-opacity="1" /><path clip-path="url(#clip790)" d="M42.4881 879.442 L64.0042 879.442 L64.0042 885.298 L42.679 885.298 Q37.6183 885.298 35.1038 887.272 Q32.5894 889.245 32.5894 893.192 Q32.5894 897.934 35.6131 900.671 Q38.6368 903.409 43.8567 903.409 L64.0042 903.409 L64.0042 909.297 L14.479 909.297 L14.479 903.409 L33.8944 903.409 Q30.6797 901.308 29.0883 898.475 Q27.4968 895.611 27.4968 891.887 Q27.4968 885.744 31.3163 882.593 Q35.1038 879.442 42.4881 879.442 Z" fill="#000000" fill-rule="evenodd" fill-opacity="1" /><path clip-path="url(#clip790)" d="M33.8307 847.104 Q33.2578 848.091 33.0032 849.268 Q32.7167 850.414 32.7167 851.815 Q32.7167 856.78 35.9632 859.453 Q39.1779 862.095 45.2253 862.095 L64.0042 862.095 L64.0042 867.983 L28.3562 867.983 L28.3562 862.095 L33.8944 862.095 Q30.6479 860.249 29.0883 857.289 Q27.4968 854.329 27.4968 850.096 Q27.4968 849.491 27.5923 848.759 Q27.656 848.027 27.8151 847.136 L33.8307 847.104 Z" fill="#000000" fill-rule="evenodd" fill-opacity="1" /><path clip-path="url(#clip790)" d="M32.4621 828.58 Q32.4621 833.29 36.1542 836.028 Q39.8145 838.765 46.212 838.765 Q52.6095 838.765 56.3017 836.059 Q59.9619 833.322 59.9619 828.58 Q59.9619 823.901 56.2698 821.164 Q52.5777 818.426 46.212 818.426 Q39.8781 818.426 36.186 821.164 Q32.4621 823.901 32.4621 828.58 M27.4968 828.58 Q27.4968 820.941 32.4621 816.58 Q37.4273 812.22 46.212 812.22 Q54.9649 812.22 59.9619 816.58 Q64.9272 820.941 64.9272 828.58 Q64.9272 836.25 59.9619 840.611 Q54.9649 844.94 46.212 844.94 Q37.4273 844.94 32.4621 840.611 Q27.4968 836.25 27.4968 828.58 Z" fill="#000000" fill-rule="evenodd" fill-opacity="1" /><path clip-path="url(#clip790)" d="M18.2347 796.719 L28.3562 796.719 L28.3562 784.656 L32.9077 784.656 L32.9077 796.719 L52.2594 796.719 Q56.6199 796.719 57.8613 795.542 Q59.1026 794.332 59.1026 790.672 L59.1026 784.656 L64.0042 784.656 L64.0042 790.672 Q64.0042 797.451 61.4897 800.03 Q58.9434 802.608 52.2594 802.608 L32.9077 802.608 L32.9077 806.904 L28.3562 806.904 L28.3562 802.608 L18.2347 802.608 L18.2347 796.719 Z" fill="#000000" fill-rule="evenodd" fill-opacity="1" /><path clip-path="url(#clip790)" d="M33.8307 756.297 Q33.2578 757.284 33.0032 758.461 Q32.7167 759.607 32.7167 761.008 Q32.7167 765.973 35.9632 768.647 Q39.1779 771.288 45.2253 771.288 L64.0042 771.288 L64.0042 777.177 L28.3562 777.177 L28.3562 771.288 L33.8944 771.288 Q30.6479 769.442 29.0883 766.482 Q27.4968 763.522 27.4968 759.289 Q27.4968 758.684 27.5923 757.952 Q27.656 757.22 27.8151 756.329 L33.8307 756.297 Z" fill="#000000" fill-rule="evenodd" fill-opacity="1" /><path clip-path="url(#clip790)" d="M32.4621 737.773 Q32.4621 742.484 36.1542 745.221 Q39.8145 747.958 46.212 747.958 Q52.6095 747.958 56.3017 745.253 Q59.9619 742.515 59.9619 737.773 Q59.9619 733.094 56.2698 730.357 Q52.5777 727.62 46.212 727.62 Q39.8781 727.62 36.186 730.357 Q32.4621 733.094 32.4621 737.773 M27.4968 737.773 Q27.4968 730.134 32.4621 725.774 Q37.4273 721.413 46.212 721.413 Q54.9649 721.413 59.9619 725.774 Q64.9272 730.134 64.9272 737.773 Q64.9272 745.444 59.9619 749.804 Q54.9649 754.133 46.212 754.133 Q37.4273 754.133 32.4621 749.804 Q27.4968 745.444 27.4968 737.773 Z" fill="#000000" fill-rule="evenodd" fill-opacity="1" /><path clip-path="url(#clip790)" d="M42.4881 682.073 L64.0042 682.073 L64.0042 687.929 L42.679 687.929 Q37.6183 687.929 35.1038 689.903 Q32.5894 691.876 32.5894 695.823 Q32.5894 700.565 35.6131 703.303 Q38.6368 706.04 43.8567 706.04 L64.0042 706.04 L64.0042 711.928 L28.3562 711.928 L28.3562 706.04 L33.8944 706.04 Q30.6797 703.939 29.0883 701.106 Q27.4968 698.242 27.4968 694.518 Q27.4968 688.375 31.3163 685.224 Q35.1038 682.073 42.4881 682.073 Z" fill="#000000" fill-rule="evenodd" fill-opacity="1" /><path clip-path="url(#clip790)" d="M29.4065 626.946 L34.9447 626.946 Q33.6716 629.429 33.035 632.102 Q32.3984 634.776 32.3984 637.64 Q32.3984 642.001 33.7352 644.197 Q35.072 646.361 37.7456 646.361 Q39.7826 646.361 40.9603 644.802 Q42.1061 643.242 43.1565 638.532 L43.6021 636.526 Q44.9389 630.288 47.3897 627.678 Q49.8086 625.036 54.1691 625.036 Q59.1344 625.036 62.0308 628.983 Q64.9272 632.898 64.9272 639.773 Q64.9272 642.637 64.3543 645.757 Q63.8132 648.844 62.6992 652.281 L56.6518 652.281 Q58.3387 649.035 59.198 645.884 Q60.0256 642.733 60.0256 639.646 Q60.0256 635.508 58.6251 633.28 Q57.1929 631.052 54.6147 631.052 Q52.2276 631.052 50.9545 632.675 Q49.6813 634.267 48.5037 639.709 L48.0262 641.746 Q46.8804 647.189 44.5251 649.608 Q42.138 652.027 38.0002 652.027 Q32.9713 652.027 30.2341 648.462 Q27.4968 644.897 27.4968 638.341 Q27.4968 635.094 27.9743 632.23 Q28.4517 629.365 29.4065 626.946 Z" fill="#000000" fill-rule="evenodd" fill-opacity="1" /><path clip-path="url(#clip790)" d="M58.657 610.045 L77.5631 610.045 L77.5631 615.933 L28.3562 615.933 L28.3562 610.045 L33.7671 610.045 Q30.5842 608.199 29.0564 605.398 Q27.4968 602.565 27.4968 598.65 Q27.4968 592.157 32.6531 588.115 Q37.8093 584.041 46.212 584.041 Q54.6147 584.041 59.771 588.115 Q64.9272 592.157 64.9272 598.65 Q64.9272 602.565 63.3994 605.398 Q61.8398 608.199 58.657 610.045 M46.212 590.12 Q39.7508 590.12 36.0905 592.794 Q32.3984 595.436 32.3984 600.083 Q32.3984 604.73 36.0905 607.403 Q39.7508 610.045 46.212 610.045 Q52.6732 610.045 56.3653 607.403 Q60.0256 604.73 60.0256 600.083 Q60.0256 595.436 56.3653 592.794 Q52.6732 590.12 46.212 590.12 Z" fill="#000000" fill-rule="evenodd" fill-opacity="1" /><path clip-path="url(#clip790)" d="M44.7161 543.842 L47.5806 543.842 L47.5806 570.769 Q53.6281 570.387 56.8109 567.14 Q59.9619 563.862 59.9619 558.037 Q59.9619 554.663 59.1344 551.512 Q58.3069 548.329 56.6518 545.21 L62.1899 545.21 Q63.5267 548.361 64.227 551.671 Q64.9272 554.982 64.9272 558.387 Q64.9272 566.917 59.9619 571.914 Q54.9967 576.88 46.5303 576.88 Q37.7774 576.88 32.6531 572.169 Q27.4968 567.427 27.4968 559.406 Q27.4968 552.213 32.1438 548.043 Q36.7589 543.842 44.7161 543.842 M42.9973 549.698 Q38.1912 549.762 35.3266 552.404 Q32.4621 555.013 32.4621 559.342 Q32.4621 564.244 35.2312 567.204 Q38.0002 570.132 43.0292 570.578 L42.9973 549.698 Z" fill="#000000" fill-rule="evenodd" fill-opacity="1" /><path clip-path="url(#clip790)" d="M29.7248 508.576 L35.1993 508.576 Q33.8307 511.058 33.1623 513.573 Q32.4621 516.055 32.4621 518.602 Q32.4621 524.299 36.0905 527.45 Q39.6872 530.601 46.212 530.601 Q52.7369 530.601 56.3653 527.45 Q59.9619 524.299 59.9619 518.602 Q59.9619 516.055 59.2935 513.573 Q58.5933 511.058 57.2247 508.576 L62.6355 508.576 Q63.7814 511.026 64.3543 513.668 Q64.9272 516.278 64.9272 519.238 Q64.9272 527.291 59.8664 532.033 Q54.8057 536.776 46.212 536.776 Q37.491 536.776 32.4939 532.001 Q27.4968 527.195 27.4968 518.856 Q27.4968 516.151 28.0697 513.573 Q28.6108 510.995 29.7248 508.576 Z" fill="#000000" fill-rule="evenodd" fill-opacity="1" /><path clip-path="url(#clip790)" d="M18.2347 492.598 L28.3562 492.598 L28.3562 480.535 L32.9077 480.535 L32.9077 492.598 L52.2594 492.598 Q56.6199 492.598 57.8613 491.42 Q59.1026 490.211 59.1026 486.55 L59.1026 480.535 L64.0042 480.535 L64.0042 486.55 Q64.0042 493.33 61.4897 495.908 Q58.9434 498.486 52.2594 498.486 L32.9077 498.486 L32.9077 502.783 L28.3562 502.783 L28.3562 498.486 L18.2347 498.486 L18.2347 492.598 Z" fill="#000000" fill-rule="evenodd" fill-opacity="1" /><path clip-path="url(#clip790)" d="M33.8307 452.175 Q33.2578 453.162 33.0032 454.34 Q32.7167 455.486 32.7167 456.886 Q32.7167 461.851 35.9632 464.525 Q39.1779 467.167 45.2253 467.167 L64.0042 467.167 L64.0042 473.055 L28.3562 473.055 L28.3562 467.167 L33.8944 467.167 Q30.6479 465.321 29.0883 462.361 Q27.4968 459.401 27.4968 455.167 Q27.4968 454.563 27.5923 453.831 Q27.656 453.099 27.8151 452.207 L33.8307 452.175 Z" fill="#000000" fill-rule="evenodd" fill-opacity="1" /><path clip-path="url(#clip790)" d="M46.0847 429.832 Q46.0847 436.93 47.7079 439.667 Q49.3312 442.404 53.2461 442.404 Q56.3653 442.404 58.2114 440.367 Q60.0256 438.298 60.0256 434.765 Q60.0256 429.896 56.5881 426.967 Q53.1188 424.007 47.3897 424.007 L46.0847 424.007 L46.0847 429.832 M43.6657 418.151 L64.0042 418.151 L64.0042 424.007 L58.5933 424.007 Q61.8398 426.012 63.3994 429.004 Q64.9272 431.996 64.9272 436.325 Q64.9272 441.799 61.8716 445.046 Q58.7843 448.261 53.6281 448.261 Q47.6125 448.261 44.5569 444.25 Q41.5014 440.208 41.5014 432.219 L41.5014 424.007 L40.9285 424.007 Q36.8862 424.007 34.6901 426.681 Q32.4621 429.323 32.4621 434.129 Q32.4621 437.184 33.1941 440.081 Q33.9262 442.977 35.3903 445.651 L29.9795 445.651 Q28.7381 442.436 28.1334 439.412 Q27.4968 436.389 27.4968 433.524 Q27.4968 425.79 31.5072 421.97 Q35.5176 418.151 43.6657 418.151 Z" fill="#000000" fill-rule="evenodd" fill-opacity="1" /><path clip-path="url(#clip790)" d="M14.479 406.088 L14.479 400.231 L64.0042 400.231 L64.0042 406.088 L14.479 406.088 Z" fill="#000000" fill-rule="evenodd" fill-opacity="1" /><path clip-path="url(#clip790)" d="M28.3562 367.257 L28.3562 361.401 L64.0042 361.401 L64.0042 367.257 L28.3562 367.257 M14.479 367.257 L14.479 361.401 L21.895 361.401 L21.895 367.257 L14.479 367.257 Z" fill="#000000" fill-rule="evenodd" fill-opacity="1" /><path clip-path="url(#clip790)" d="M42.4881 319.514 L64.0042 319.514 L64.0042 325.371 L42.679 325.371 Q37.6183 325.371 35.1038 327.344 Q32.5894 329.317 32.5894 333.264 Q32.5894 338.007 35.6131 340.744 Q38.6368 343.481 43.8567 343.481 L64.0042 343.481 L64.0042 349.369 L28.3562 349.369 L28.3562 343.481 L33.8944 343.481 Q30.6797 341.38 29.0883 338.548 Q27.4968 335.683 27.4968 331.959 Q27.4968 325.816 31.3163 322.665 Q35.1038 319.514 42.4881 319.514 Z" fill="#000000" fill-rule="evenodd" fill-opacity="1" /><path clip-path="url(#clip790)" d="M33.7671 284.375 L14.479 284.375 L14.479 278.519 L64.0042 278.519 L64.0042 284.375 L58.657 284.375 Q61.8398 286.222 63.3994 289.054 Q64.9272 291.855 64.9272 295.802 Q64.9272 302.263 59.771 306.337 Q54.6147 310.379 46.212 310.379 Q37.8093 310.379 32.6531 306.337 Q27.4968 302.263 27.4968 295.802 Q27.4968 291.855 29.0564 289.054 Q30.5842 286.222 33.7671 284.375 M46.212 304.332 Q52.6732 304.332 56.3653 301.69 Q60.0256 299.017 60.0256 294.37 Q60.0256 289.723 56.3653 287.049 Q52.6732 284.375 46.212 284.375 Q39.7508 284.375 36.0905 287.049 Q32.3984 289.723 32.3984 294.37 Q32.3984 299.017 36.0905 301.69 Q39.7508 304.332 46.212 304.332 Z" fill="#000000" fill-rule="evenodd" fill-opacity="1" /><path clip-path="url(#clip790)" d="M44.7161 235.964 L47.5806 235.964 L47.5806 262.891 Q53.6281 262.509 56.8109 259.263 Q59.9619 255.984 59.9619 250.16 Q59.9619 246.786 59.1344 243.635 Q58.3069 240.452 56.6518 237.333 L62.1899 237.333 Q63.5267 240.484 64.227 243.794 Q64.9272 247.104 64.9272 250.51 Q64.9272 259.04 59.9619 264.037 Q54.9967 269.002 46.5303 269.002 Q37.7774 269.002 32.6531 264.292 Q27.4968 259.549 27.4968 251.528 Q27.4968 244.335 32.1438 240.166 Q36.7589 235.964 44.7161 235.964 M42.9973 241.821 Q38.1912 241.884 35.3266 244.526 Q32.4621 247.136 32.4621 251.465 Q32.4621 256.366 35.2312 259.326 Q38.0002 262.255 43.0292 262.7 L42.9973 241.821 Z" fill="#000000" fill-rule="evenodd" fill-opacity="1" /><path clip-path="url(#clip790)" d="M28.3562 197.866 L45.7028 210.756 L64.0042 197.197 L64.0042 204.104 L49.9996 214.48 L64.0042 224.856 L64.0042 231.763 L45.3526 217.917 L28.3562 230.585 L28.3562 223.678 L41.0558 214.225 L28.3562 204.772 L28.3562 197.866 Z" fill="#000000" fill-rule="evenodd" fill-opacity="1" /><polyline clip-path="url(#clip792)" style="stroke:#000000; stroke-linecap:round; stroke-linejoin:round; stroke-width:4; stroke-opacity:1; fill:none" points="
  404.437,1181.6 404.437,80.497 
  "/>
<line clip-path="url(#clip792)" x1="420.437" y1="1181.6" x2="388.437" y2="1181.6" style="stroke:#000000; stroke-width:3.2; stroke-opacity:1"/>
<line clip-path="url(#clip792)" x1="420.437" y1="80.497" x2="388.437" y2="80.497" style="stroke:#000000; stroke-width:3.2; stroke-opacity:1"/>
<circle clip-path="url(#clip792)" cx="404.437" cy="631.048" r="14.4" fill="#009af9" fill-rule="evenodd" fill-opacity="1" stroke="#000000" stroke-opacity="1" stroke-width="3.2"/>
<polyline clip-path="url(#clip792)" style="stroke:#000000; stroke-linecap:round; stroke-linejoin:round; stroke-width:4; stroke-opacity:1; fill:none" points="
  674.661,1184.84 674.661,83.7347 
  "/>
<line clip-path="url(#clip792)" x1="690.661" y1="1184.84" x2="658.661" y2="1184.84" style="stroke:#000000; stroke-width:3.2; stroke-opacity:1"/>
<line clip-path="url(#clip792)" x1="690.661" y1="83.7347" x2="658.661" y2="83.7347" style="stroke:#000000; stroke-width:3.2; stroke-opacity:1"/>
<circle clip-path="url(#clip792)" cx="674.661" cy="634.29" r="14.4" fill="#e26f46" fill-rule="evenodd" fill-opacity="1" stroke="#000000" stroke-opacity="1" stroke-width="3.2"/>
<polyline clip-path="url(#clip792)" style="stroke:#000000; stroke-linecap:round; stroke-linejoin:round; stroke-width:4; stroke-opacity:1; fill:none" points="
  944.886,1181.48 944.886,80.3781 
  "/>
<line clip-path="url(#clip792)" x1="960.886" y1="1181.48" x2="928.886" y2="1181.48" style="stroke:#000000; stroke-width:3.2; stroke-opacity:1"/>
<line clip-path="url(#clip792)" x1="960.886" y1="80.3781" x2="928.886" y2="80.3781" style="stroke:#000000; stroke-width:3.2; stroke-opacity:1"/>
<circle clip-path="url(#clip792)" cx="944.886" cy="630.929" r="14.4" fill="#3da44d" fill-rule="evenodd" fill-opacity="1" stroke="#000000" stroke-opacity="1" stroke-width="3.2"/>
<polyline clip-path="url(#clip792)" style="stroke:#000000; stroke-linecap:round; stroke-linejoin:round; stroke-width:4; stroke-opacity:1; fill:none" points="
  1215.11,1182.2 1215.11,81.0985 
  "/>
<line clip-path="url(#clip792)" x1="1231.11" y1="1182.2" x2="1199.11" y2="1182.2" style="stroke:#000000; stroke-width:3.2; stroke-opacity:1"/>
<line clip-path="url(#clip792)" x1="1231.11" y1="81.0985" x2="1199.11" y2="81.0985" style="stroke:#000000; stroke-width:3.2; stroke-opacity:1"/>
<circle clip-path="url(#clip792)" cx="1215.11" cy="631.65" r="14.4" fill="#c271d2" fill-rule="evenodd" fill-opacity="1" stroke="#000000" stroke-opacity="1" stroke-width="3.2"/>
<polyline clip-path="url(#clip792)" style="stroke:#000000; stroke-linecap:round; stroke-linejoin:round; stroke-width:4; stroke-opacity:1; fill:none" points="
  1485.34,1181.6 1485.34,80.4955 
  "/>
<line clip-path="url(#clip792)" x1="1501.34" y1="1181.6" x2="1469.34" y2="1181.6" style="stroke:#000000; stroke-width:3.2; stroke-opacity:1"/>
<line clip-path="url(#clip792)" x1="1501.34" y1="80.4955" x2="1469.34" y2="80.4955" style="stroke:#000000; stroke-width:3.2; stroke-opacity:1"/>
<circle clip-path="url(#clip792)" cx="1485.34" cy="631.047" r="14.4" fill="#ac8d18" fill-rule="evenodd" fill-opacity="1" stroke="#000000" stroke-opacity="1" stroke-width="3.2"/>
<polyline clip-path="url(#clip792)" style="stroke:#000000; stroke-linecap:round; stroke-linejoin:round; stroke-width:4; stroke-opacity:1; fill:none" points="
  1755.56,1181.6 1755.56,80.4944 
  "/>
<line clip-path="url(#clip792)" x1="1771.56" y1="1181.6" x2="1739.56" y2="1181.6" style="stroke:#000000; stroke-width:3.2; stroke-opacity:1"/>
<line clip-path="url(#clip792)" x1="1771.56" y1="80.4944" x2="1739.56" y2="80.4944" style="stroke:#000000; stroke-width:3.2; stroke-opacity:1"/>
<circle clip-path="url(#clip792)" cx="1755.56" cy="631.046" r="14.4" fill="#00a9ad" fill-rule="evenodd" fill-opacity="1" stroke="#000000" stroke-opacity="1" stroke-width="3.2"/>
<polyline clip-path="url(#clip792)" style="stroke:#000000; stroke-linecap:round; stroke-linejoin:round; stroke-width:4; stroke-opacity:1; fill:none" points="
  2025.78,1181.6 2025.78,80.4986 
  "/>
<line clip-path="url(#clip792)" x1="2041.78" y1="1181.6" x2="2009.78" y2="1181.6" style="stroke:#000000; stroke-width:3.2; stroke-opacity:1"/>
<line clip-path="url(#clip792)" x1="2041.78" y1="80.4986" x2="2009.78" y2="80.4986" style="stroke:#000000; stroke-width:3.2; stroke-opacity:1"/>
<circle clip-path="url(#clip792)" cx="2025.78" cy="631.05" r="14.4" fill="#ed5d92" fill-rule="evenodd" fill-opacity="1" stroke="#000000" stroke-opacity="1" stroke-width="3.2"/>
<polyline clip-path="url(#clip792)" style="stroke:#000000; stroke-linecap:round; stroke-linejoin:round; stroke-width:4; stroke-opacity:1; fill:none" points="
  2296.01,1181.6 2296.01,80.4985 
  "/>
<line clip-path="url(#clip792)" x1="2312.01" y1="1181.6" x2="2280.01" y2="1181.6" style="stroke:#000000; stroke-width:3.2; stroke-opacity:1"/>
<line clip-path="url(#clip792)" x1="2312.01" y1="80.4985" x2="2280.01" y2="80.4985" style="stroke:#000000; stroke-width:3.2; stroke-opacity:1"/>
<circle clip-path="url(#clip792)" cx="2296.01" cy="631.05" r="14.4" fill="#c68125" fill-rule="evenodd" fill-opacity="1" stroke="#000000" stroke-opacity="1" stroke-width="3.2"/>
</svg>
