<?xml version="1.0" encoding="utf-8"?>
<svg xmlns="http://www.w3.org/2000/svg" xmlns:xlink="http://www.w3.org/1999/xlink" width="600" height="400" viewBox="0 0 2400 1600">
<defs>
  <clipPath id="clip670">
    <rect x="0" y="0" width="2400" height="1600"/>
  </clipPath>
</defs>
<path clip-path="url(#clip670)" d="
M0 1600 L2400 1600 L2400 0 L0 0  Z
  " fill="#ffffff" fill-rule="evenodd" fill-opacity="1"/>
<defs>
  <clipPath id="clip671">
    <rect x="480" y="0" width="1681" height="1600"/>
  </clipPath>
</defs>
<path clip-path="url(#clip670)" d="
M219.519 1217.98 L2352.76 1217.98 L2352.76 47.2441 L219.519 47.2441  Z
  " fill="#ffffff" fill-rule="evenodd" fill-opacity="1"/>
<defs>
  <clipPath id="clip672">
    <rect x="219" y="47" width="2134" height="1172"/>
  </clipPath>
</defs>
<polyline clip-path="url(#clip672)" style="stroke:#000000; stroke-linecap:round; stroke-linejoin:round; stroke-width:2; stroke-opacity:0.1; fill:none" points="
  279.894,1217.98 279.894,47.2441 
  "/>
<polyline clip-path="url(#clip672)" style="stroke:#000000; stroke-linecap:round; stroke-linejoin:round; stroke-width:2; stroke-opacity:0.1; fill:none" points="
  567.392,1217.98 567.392,47.2441 
  "/>
<polyline clip-path="url(#clip672)" style="stroke:#000000; stroke-linecap:round; stroke-linejoin:round; stroke-width:2; stroke-opacity:0.1; fill:none" points="
  854.89,1217.98 854.89,47.2441 
  "/>
<polyline clip-path="url(#clip672)" style="stroke:#000000; stroke-linecap:round; stroke-linejoin:round; stroke-width:2; stroke-opacity:0.1; fill:none" points="
  1142.39,1217.98 1142.39,47.2441 
  "/>
<polyline clip-path="url(#clip672)" style="stroke:#000000; stroke-linecap:round; stroke-linejoin:round; stroke-width:2; stroke-opacity:0.1; fill:none" points="
  1429.89,1217.98 1429.89,47.2441 
  "/>
<polyline clip-path="url(#clip672)" style="stroke:#000000; stroke-linecap:round; stroke-linejoin:round; stroke-width:2; stroke-opacity:0.1; fill:none" points="
  1717.38,1217.98 1717.38,47.2441 
  "/>
<polyline clip-path="url(#clip672)" style="stroke:#000000; stroke-linecap:round; stroke-linejoin:round; stroke-width:2; stroke-opacity:0.1; fill:none" points="
  2004.88,1217.98 2004.88,47.2441 
  "/>
<polyline clip-path="url(#clip672)" style="stroke:#000000; stroke-linecap:round; stroke-linejoin:round; stroke-width:2; stroke-opacity:0.1; fill:none" points="
  2292.38,1217.98 2292.38,47.2441 
  "/>
<polyline clip-path="url(#clip670)" style="stroke:#000000; stroke-linecap:round; stroke-linejoin:round; stroke-width:4; stroke-opacity:1; fill:none" points="
  219.519,1217.98 2352.76,1217.98 
  "/>
<polyline clip-path="url(#clip670)" style="stroke:#000000; stroke-linecap:round; stroke-linejoin:round; stroke-width:4; stroke-opacity:1; fill:none" points="
  279.894,1217.98 279.894,1199.08 
  "/>
<polyline clip-path="url(#clip670)" style="stroke:#000000; stroke-linecap:round; stroke-linejoin:round; stroke-width:4; stroke-opacity:1; fill:none" points="
  567.392,1217.98 567.392,1199.08 
  "/>
<polyline clip-path="url(#clip670)" style="stroke:#000000; stroke-linecap:round; stroke-linejoin:round; stroke-width:4; stroke-opacity:1; fill:none" points="
  854.89,1217.98 854.89,1199.08 
  "/>
<polyline clip-path="url(#clip670)" style="stroke:#000000; stroke-linecap:round; stroke-linejoin:round; stroke-width:4; stroke-opacity:1; fill:none" points="
  1142.39,1217.98 1142.39,1199.08 
  "/>
<polyline clip-path="url(#clip670)" style="stroke:#000000; stroke-linecap:round; stroke-linejoin:round; stroke-width:4; stroke-opacity:1; fill:none" points="
  1429.89,1217.98 1429.89,1199.08 
  "/>
<polyline clip-path="url(#clip670)" style="stroke:#000000; stroke-linecap:round; stroke-linejoin:round; stroke-width:4; stroke-opacity:1; fill:none" points="
  1717.38,1217.98 1717.38,1199.08 
  "/>
<polyline clip-path="url(#clip670)" style="stroke:#000000; stroke-linecap:round; stroke-linejoin:round; stroke-width:4; stroke-opacity:1; fill:none" points="
  2004.88,1217.98 2004.88,1199.08 
  "/>
<polyline clip-path="url(#clip670)" style="stroke:#000000; stroke-linecap:round; stroke-linejoin:round; stroke-width:4; stroke-opacity:1; fill:none" points="
  2292.38,1217.98 2292.38,1199.08 
  "/>
<path clip-path="url(#clip670)" d="M271.248 1342.92 L271.248 1338.66 L297.174 1338.66 L297.174 1342.92 L271.248 1342.92 M261.155 1342.92 L261.155 1338.66 L266.549 1338.66 L266.549 1342.92 L261.155 1342.92 Z" fill="#000000" fill-rule="evenodd" fill-opacity="1" /><path clip-path="url(#clip670)" d="M275.183 1312.69 L261.155 1312.69 L261.155 1308.43 L297.174 1308.43 L297.174 1312.69 L293.285 1312.69 Q295.6 1314.03 296.734 1316.09 Q297.845 1318.13 297.845 1321 Q297.845 1325.7 294.095 1328.66 Q290.345 1331.6 284.234 1331.6 Q278.123 1331.6 274.373 1328.66 Q270.623 1325.7 270.623 1321 Q270.623 1318.13 271.757 1316.09 Q272.868 1314.03 275.183 1312.69 M284.234 1327.2 Q288.933 1327.2 291.618 1325.28 Q294.28 1323.34 294.28 1319.96 Q294.28 1316.58 291.618 1314.63 Q288.933 1312.69 284.234 1312.69 Q279.535 1312.69 276.873 1314.63 Q274.188 1316.58 274.188 1319.96 Q274.188 1323.34 276.873 1325.28 Q279.535 1327.2 284.234 1327.2 Z" fill="#000000" fill-rule="evenodd" fill-opacity="1" /><path clip-path="url(#clip670)" d="M283.146 1277.48 L285.229 1277.48 L285.229 1297.06 Q289.627 1296.78 291.942 1294.42 Q294.234 1292.04 294.234 1287.8 Q294.234 1285.35 293.632 1283.06 Q293.03 1280.74 291.826 1278.47 L295.854 1278.47 Q296.826 1280.77 297.336 1283.17 Q297.845 1285.58 297.845 1288.06 Q297.845 1294.26 294.234 1297.9 Q290.623 1301.51 284.465 1301.51 Q278.1 1301.51 274.373 1298.08 Q270.623 1294.63 270.623 1288.8 Q270.623 1283.57 274.003 1280.54 Q277.359 1277.48 283.146 1277.48 M281.896 1281.74 Q278.401 1281.79 276.317 1283.71 Q274.234 1285.6 274.234 1288.75 Q274.234 1292.32 276.248 1294.47 Q278.262 1296.6 281.919 1296.92 L281.896 1281.74 Z" fill="#000000" fill-rule="evenodd" fill-opacity="1" /><path clip-path="url(#clip670)" d="M284.141 1258.71 Q284.141 1263.87 285.322 1265.86 Q286.502 1267.85 289.35 1267.85 Q291.618 1267.85 292.961 1266.37 Q294.28 1264.86 294.28 1262.29 Q294.28 1258.75 291.78 1256.62 Q289.257 1254.47 285.09 1254.47 L284.141 1254.47 L284.141 1258.71 M282.382 1250.21 L297.174 1250.21 L297.174 1254.47 L293.239 1254.47 Q295.6 1255.93 296.734 1258.1 Q297.845 1260.28 297.845 1263.43 Q297.845 1267.41 295.623 1269.77 Q293.377 1272.11 289.627 1272.11 Q285.252 1272.11 283.03 1269.19 Q280.808 1266.25 280.808 1260.44 L280.808 1254.47 L280.391 1254.47 Q277.452 1254.47 275.854 1256.41 Q274.234 1258.34 274.234 1261.83 Q274.234 1264.05 274.766 1266.16 Q275.299 1268.27 276.364 1270.21 L272.428 1270.21 Q271.526 1267.87 271.086 1265.67 Q270.623 1263.47 270.623 1261.39 Q270.623 1255.77 273.54 1252.99 Q276.456 1250.21 282.382 1250.21 Z" fill="#000000" fill-rule="evenodd" fill-opacity="1" /><path clip-path="url(#clip670)" d="M261.155 1241.44 L261.155 1237.18 L297.174 1237.18 L297.174 1241.44 L261.155 1241.44 Z" fill="#000000" fill-rule="evenodd" fill-opacity="1" /><path clip-path="url(#clip670)" d="M571.64 1560.21 Q571.64 1565.37 572.82 1567.36 Q574.001 1569.35 576.848 1569.35 Q579.116 1569.35 580.459 1567.87 Q581.778 1566.37 581.778 1563.8 Q581.778 1560.26 579.278 1558.13 Q576.755 1555.97 572.589 1555.97 L571.64 1555.97 L571.64 1560.21 M569.88 1551.71 L584.672 1551.71 L584.672 1555.97 L580.737 1555.97 Q583.098 1557.43 584.232 1559.61 Q585.343 1561.78 585.343 1564.93 Q585.343 1568.91 583.121 1571.27 Q580.876 1573.61 577.126 1573.61 Q572.751 1573.61 570.528 1570.7 Q568.306 1567.76 568.306 1561.95 L568.306 1555.97 L567.89 1555.97 Q564.95 1555.97 563.353 1557.92 Q561.732 1559.84 561.732 1563.33 Q561.732 1565.56 562.265 1567.66 Q562.797 1569.77 563.862 1571.71 L559.927 1571.71 Q559.024 1569.38 558.584 1567.18 Q558.121 1564.98 558.121 1562.89 Q558.121 1557.27 561.038 1554.49 Q563.954 1551.71 569.88 1551.71 Z" fill="#000000" fill-rule="evenodd" fill-opacity="1" /><path clip-path="url(#clip670)" d="M548.654 1542.94 L548.654 1538.68 L584.672 1538.68 L584.672 1542.94 L548.654 1542.94 Z" fill="#000000" fill-rule="evenodd" fill-opacity="1" /><path clip-path="url(#clip670)" d="M551.385 1525.56 L558.746 1525.56 L558.746 1516.78 L562.056 1516.78 L562.056 1525.56 L576.13 1525.56 Q579.302 1525.56 580.204 1524.7 Q581.107 1523.82 581.107 1521.16 L581.107 1516.78 L584.672 1516.78 L584.672 1521.16 Q584.672 1526.09 582.843 1527.96 Q580.991 1529.84 576.13 1529.84 L562.056 1529.84 L562.056 1532.96 L558.746 1532.96 L558.746 1529.84 L551.385 1529.84 L551.385 1525.56 Z" fill="#000000" fill-rule="evenodd" fill-opacity="1" /><path clip-path="url(#clip670)" d="M558.746 1511.18 L558.746 1506.92 L584.672 1506.92 L584.672 1511.18 L558.746 1511.18 M548.654 1511.18 L548.654 1506.92 L554.047 1506.92 L554.047 1511.18 L548.654 1511.18 Z" fill="#000000" fill-rule="evenodd" fill-opacity="1" /><path clip-path="url(#clip670)" d="M551.385 1493.8 L558.746 1493.8 L558.746 1485.02 L562.056 1485.02 L562.056 1493.8 L576.13 1493.8 Q579.302 1493.8 580.204 1492.94 Q581.107 1492.06 581.107 1489.4 L581.107 1485.02 L584.672 1485.02 L584.672 1489.4 Q584.672 1494.33 582.843 1496.21 Q580.991 1498.08 576.13 1498.08 L562.056 1498.08 L562.056 1501.21 L558.746 1501.21 L558.746 1498.08 L551.385 1498.08 L551.385 1493.8 Z" fill="#000000" fill-rule="evenodd" fill-opacity="1" /><path clip-path="url(#clip670)" d="M574.44 1479.86 L558.746 1479.86 L558.746 1475.6 L574.278 1475.6 Q577.959 1475.6 579.811 1474.17 Q581.64 1472.73 581.64 1469.86 Q581.64 1466.41 579.44 1464.42 Q577.241 1462.41 573.445 1462.41 L558.746 1462.41 L558.746 1458.15 L584.672 1458.15 L584.672 1462.41 L580.69 1462.41 Q583.052 1463.96 584.209 1466.02 Q585.343 1468.06 585.343 1470.77 Q585.343 1475.23 582.565 1477.55 Q579.788 1479.86 574.44 1479.86 M558.121 1469.15 L558.121 1469.15 Z" fill="#000000" fill-rule="evenodd" fill-opacity="1" /><path clip-path="url(#clip670)" d="M562.681 1432.32 L548.654 1432.32 L548.654 1428.06 L584.672 1428.06 L584.672 1432.32 L580.783 1432.32 Q583.098 1433.66 584.232 1435.72 Q585.343 1437.76 585.343 1440.63 Q585.343 1445.33 581.593 1448.29 Q577.843 1451.23 571.732 1451.23 Q565.621 1451.23 561.871 1448.29 Q558.121 1445.33 558.121 1440.63 Q558.121 1437.76 559.255 1435.72 Q560.366 1433.66 562.681 1432.32 M571.732 1446.83 Q576.431 1446.83 579.116 1444.91 Q581.778 1442.96 581.778 1439.59 Q581.778 1436.21 579.116 1434.26 Q576.431 1432.32 571.732 1432.32 Q567.033 1432.32 564.371 1434.26 Q561.686 1436.21 561.686 1439.59 Q561.686 1442.96 564.371 1444.91 Q567.033 1446.83 571.732 1446.83 Z" fill="#000000" fill-rule="evenodd" fill-opacity="1" /><path clip-path="url(#clip670)" d="M570.644 1397.11 L572.728 1397.11 L572.728 1416.69 Q577.126 1416.41 579.44 1414.05 Q581.732 1411.67 581.732 1407.43 Q581.732 1404.98 581.13 1402.69 Q580.528 1400.37 579.325 1398.1 L583.352 1398.1 Q584.325 1400.4 584.834 1402.8 Q585.343 1405.21 585.343 1407.69 Q585.343 1413.89 581.732 1417.53 Q578.121 1421.14 571.964 1421.14 Q565.598 1421.14 561.871 1417.71 Q558.121 1414.26 558.121 1408.43 Q558.121 1403.2 561.501 1400.16 Q564.857 1397.11 570.644 1397.11 M569.394 1401.37 Q565.899 1401.41 563.816 1403.34 Q561.732 1405.23 561.732 1408.38 Q561.732 1411.95 563.746 1414.1 Q565.76 1416.23 569.417 1416.55 L569.394 1401.37 Z" fill="#000000" fill-rule="evenodd" fill-opacity="1" /><path clip-path="url(#clip670)" d="M592.542 1370.42 L595.852 1370.42 L595.852 1395.05 L592.542 1395.05 L592.542 1370.42 Z" fill="#000000" fill-rule="evenodd" fill-opacity="1" /><path clip-path="url(#clip670)" d="M561.732 1356.37 Q561.732 1359.79 564.417 1361.78 Q567.079 1363.78 571.732 1363.78 Q576.385 1363.78 579.07 1361.81 Q581.732 1359.82 581.732 1356.37 Q581.732 1352.97 579.047 1350.97 Q576.362 1348.98 571.732 1348.98 Q567.126 1348.98 564.441 1350.97 Q561.732 1352.97 561.732 1356.37 M558.121 1356.37 Q558.121 1350.81 561.732 1347.64 Q565.343 1344.47 571.732 1344.47 Q578.098 1344.47 581.732 1347.64 Q585.343 1350.81 585.343 1356.37 Q585.343 1361.95 581.732 1365.12 Q578.098 1368.27 571.732 1368.27 Q565.343 1368.27 561.732 1365.12 Q558.121 1361.95 558.121 1356.37 Z" fill="#000000" fill-rule="evenodd" fill-opacity="1" /><path clip-path="url(#clip670)" d="M548.654 1324.28 L552.195 1324.28 L552.195 1328.36 Q552.195 1330.65 553.121 1331.55 Q554.047 1332.43 556.454 1332.43 L558.746 1332.43 L558.746 1325.42 L562.056 1325.42 L562.056 1332.43 L584.672 1332.43 L584.672 1336.72 L562.056 1336.72 L562.056 1340.79 L558.746 1340.79 L558.746 1336.72 L556.941 1336.72 Q552.612 1336.72 550.644 1334.7 Q548.654 1332.69 548.654 1328.31 L548.654 1324.28 Z" fill="#000000" fill-rule="evenodd" fill-opacity="1" /><path clip-path="url(#clip670)" d="M548.654 1307.6 L552.195 1307.6 L552.195 1311.67 Q552.195 1313.96 553.121 1314.86 Q554.047 1315.74 556.454 1315.74 L558.746 1315.74 L558.746 1308.73 L562.056 1308.73 L562.056 1315.74 L584.672 1315.74 L584.672 1320.03 L562.056 1320.03 L562.056 1324.1 L558.746 1324.1 L558.746 1320.03 L556.941 1320.03 Q552.612 1320.03 550.644 1318.01 Q548.654 1316 548.654 1311.62 L548.654 1307.6 Z" fill="#000000" fill-rule="evenodd" fill-opacity="1" /><path clip-path="url(#clip670)" d="M559.51 1287.5 L563.538 1287.5 Q562.612 1289.31 562.149 1291.25 Q561.686 1293.2 561.686 1295.28 Q561.686 1298.45 562.658 1300.05 Q563.63 1301.62 565.575 1301.62 Q567.056 1301.62 567.913 1300.49 Q568.746 1299.35 569.51 1295.93 L569.834 1294.47 Q570.806 1289.93 572.589 1288.04 Q574.348 1286.11 577.519 1286.11 Q581.13 1286.11 583.237 1288.98 Q585.343 1291.83 585.343 1296.83 Q585.343 1298.91 584.927 1301.18 Q584.533 1303.43 583.723 1305.93 L579.325 1305.93 Q580.552 1303.57 581.177 1301.28 Q581.778 1298.98 581.778 1296.74 Q581.778 1293.73 580.76 1292.11 Q579.718 1290.49 577.843 1290.49 Q576.107 1290.49 575.181 1291.67 Q574.255 1292.83 573.399 1296.78 L573.052 1298.27 Q572.218 1302.22 570.505 1303.98 Q568.769 1305.74 565.76 1305.74 Q562.103 1305.74 560.112 1303.15 Q558.121 1300.56 558.121 1295.79 Q558.121 1293.43 558.468 1291.35 Q558.816 1289.26 559.51 1287.5 Z" fill="#000000" fill-rule="evenodd" fill-opacity="1" /><path clip-path="url(#clip670)" d="M570.644 1257.16 L572.728 1257.16 L572.728 1276.74 Q577.126 1276.46 579.44 1274.1 Q581.732 1271.72 581.732 1267.48 Q581.732 1265.03 581.13 1262.73 Q580.528 1260.42 579.325 1258.15 L583.352 1258.15 Q584.325 1260.44 584.834 1262.85 Q585.343 1265.26 585.343 1267.73 Q585.343 1273.94 581.732 1277.57 Q578.121 1281.18 571.964 1281.18 Q565.598 1281.18 561.871 1277.76 Q558.121 1274.31 558.121 1268.47 Q558.121 1263.24 561.501 1260.21 Q564.857 1257.16 570.644 1257.16 M569.394 1261.41 Q565.899 1261.46 563.816 1263.38 Q561.732 1265.28 561.732 1268.43 Q561.732 1271.99 563.746 1274.15 Q565.76 1276.28 569.417 1276.6 L569.394 1261.41 Z" fill="#000000" fill-rule="evenodd" fill-opacity="1" /><path clip-path="url(#clip670)" d="M551.385 1245.95 L558.746 1245.95 L558.746 1237.18 L562.056 1237.18 L562.056 1245.95 L576.13 1245.95 Q579.302 1245.95 580.204 1245.1 Q581.107 1244.22 581.107 1241.55 L581.107 1237.18 L584.672 1237.18 L584.672 1241.55 Q584.672 1246.48 582.843 1248.36 Q580.991 1250.23 576.13 1250.23 L562.056 1250.23 L562.056 1253.36 L558.746 1253.36 L558.746 1250.23 L551.385 1250.23 L551.385 1245.95 Z" fill="#000000" fill-rule="evenodd" fill-opacity="1" /><path clip-path="url(#clip670)" d="M858.906 1540.79 Q854.277 1540.79 851.73 1542.71 Q849.184 1544.61 849.184 1548.06 Q849.184 1551.48 851.73 1553.4 Q854.277 1555.3 858.906 1555.3 Q863.513 1555.3 866.059 1553.4 Q868.605 1551.48 868.605 1548.06 Q868.605 1544.61 866.059 1542.71 Q863.513 1540.79 858.906 1540.79 M868.953 1536.53 Q875.573 1536.53 878.79 1539.47 Q882.031 1542.41 882.031 1548.47 Q882.031 1550.72 881.684 1552.71 Q881.36 1554.7 880.665 1556.58 L876.522 1556.58 Q877.54 1554.7 878.027 1552.87 Q878.513 1551.04 878.513 1549.14 Q878.513 1544.95 876.314 1542.87 Q874.138 1540.79 869.716 1540.79 L867.61 1540.79 Q869.902 1542.11 871.036 1544.17 Q872.17 1546.23 872.17 1549.1 Q872.17 1553.87 868.536 1556.78 Q864.902 1559.7 858.906 1559.7 Q852.888 1559.7 849.254 1556.78 Q845.619 1553.87 845.619 1549.1 Q845.619 1546.23 846.754 1544.17 Q847.888 1542.11 850.18 1540.79 L846.244 1540.79 L846.244 1536.53 L868.953 1536.53 Z" fill="#000000" fill-rule="evenodd" fill-opacity="1" /><path clip-path="url(#clip670)" d="M850.226 1512.73 Q849.809 1513.45 849.624 1514.31 Q849.416 1515.14 849.416 1516.16 Q849.416 1519.77 851.777 1521.71 Q854.115 1523.64 858.513 1523.64 L872.17 1523.64 L872.17 1527.92 L846.244 1527.92 L846.244 1523.64 L850.272 1523.64 Q847.911 1522.29 846.777 1520.14 Q845.619 1517.99 845.619 1514.91 Q845.619 1514.47 845.689 1513.94 Q845.735 1513.4 845.851 1512.76 L850.226 1512.73 Z" fill="#000000" fill-rule="evenodd" fill-opacity="1" /><path clip-path="url(#clip670)" d="M849.23 1499.26 Q849.23 1502.69 851.916 1504.68 Q854.578 1506.67 859.23 1506.67 Q863.883 1506.67 866.568 1504.7 Q869.23 1502.71 869.23 1499.26 Q869.23 1495.86 866.545 1493.87 Q863.86 1491.88 859.23 1491.88 Q854.624 1491.88 851.939 1493.87 Q849.23 1495.86 849.23 1499.26 M845.619 1499.26 Q845.619 1493.71 849.23 1490.53 Q852.842 1487.36 859.23 1487.36 Q865.596 1487.36 869.23 1490.53 Q872.841 1493.71 872.841 1499.26 Q872.841 1504.84 869.23 1508.01 Q865.596 1511.16 859.23 1511.16 Q852.842 1511.16 849.23 1508.01 Q845.619 1504.84 845.619 1499.26 Z" fill="#000000" fill-rule="evenodd" fill-opacity="1" /><path clip-path="url(#clip670)" d="M861.939 1480.74 L846.244 1480.74 L846.244 1476.48 L861.777 1476.48 Q865.457 1476.48 867.309 1475.05 Q869.138 1473.61 869.138 1470.74 Q869.138 1467.29 866.939 1465.3 Q864.74 1463.29 860.943 1463.29 L846.244 1463.29 L846.244 1459.03 L872.17 1459.03 L872.17 1463.29 L868.189 1463.29 Q870.55 1464.84 871.707 1466.9 Q872.841 1468.94 872.841 1471.65 Q872.841 1476.11 870.064 1478.43 Q867.286 1480.74 861.939 1480.74 M845.619 1470.02 L845.619 1470.02 Z" fill="#000000" fill-rule="evenodd" fill-opacity="1" /><path clip-path="url(#clip670)" d="M856.522 1428.71 L872.17 1428.71 L872.17 1432.96 L856.661 1432.96 Q852.98 1432.96 851.152 1434.4 Q849.323 1435.84 849.323 1438.71 Q849.323 1442.15 851.522 1444.15 Q853.721 1446.14 857.517 1446.14 L872.17 1446.14 L872.17 1450.42 L846.244 1450.42 L846.244 1446.14 L850.272 1446.14 Q847.934 1444.61 846.777 1442.55 Q845.619 1440.46 845.619 1437.76 Q845.619 1433.29 848.397 1431 Q851.152 1428.71 856.522 1428.71 Z" fill="#000000" fill-rule="evenodd" fill-opacity="1" /><path clip-path="url(#clip670)" d="M850.18 1403.15 L836.152 1403.15 L836.152 1398.89 L872.17 1398.89 L872.17 1403.15 L868.281 1403.15 Q870.596 1404.49 871.73 1406.55 Q872.841 1408.59 872.841 1411.46 Q872.841 1416.16 869.091 1419.12 Q865.341 1422.06 859.23 1422.06 Q853.119 1422.06 849.369 1419.12 Q845.619 1416.16 845.619 1411.46 Q845.619 1408.59 846.754 1406.55 Q847.865 1404.49 850.18 1403.15 M859.23 1417.66 Q863.929 1417.66 866.615 1415.74 Q869.277 1413.8 869.277 1410.42 Q869.277 1407.04 866.615 1405.09 Q863.929 1403.15 859.23 1403.15 Q854.531 1403.15 851.869 1405.09 Q849.184 1407.04 849.184 1410.42 Q849.184 1413.8 851.869 1415.74 Q854.531 1417.66 859.23 1417.66 Z" fill="#000000" fill-rule="evenodd" fill-opacity="1" /><path clip-path="url(#clip670)" d="M880.04 1370.42 L883.351 1370.42 L883.351 1395.05 L880.04 1395.05 L880.04 1370.42 Z" fill="#000000" fill-rule="evenodd" fill-opacity="1" /><path clip-path="url(#clip670)" d="M849.23 1356.37 Q849.23 1359.79 851.916 1361.78 Q854.578 1363.78 859.23 1363.78 Q863.883 1363.78 866.568 1361.81 Q869.23 1359.82 869.23 1356.37 Q869.23 1352.97 866.545 1350.97 Q863.86 1348.98 859.23 1348.98 Q854.624 1348.98 851.939 1350.97 Q849.23 1352.97 849.23 1356.37 M845.619 1356.37 Q845.619 1350.81 849.23 1347.64 Q852.842 1344.47 859.23 1344.47 Q865.596 1344.47 869.23 1347.64 Q872.841 1350.81 872.841 1356.37 Q872.841 1361.95 869.23 1365.12 Q865.596 1368.27 859.23 1368.27 Q852.842 1368.27 849.23 1365.12 Q845.619 1361.95 845.619 1356.37 Z" fill="#000000" fill-rule="evenodd" fill-opacity="1" /><path clip-path="url(#clip670)" d="M836.152 1324.28 L839.693 1324.28 L839.693 1328.36 Q839.693 1330.65 840.619 1331.55 Q841.545 1332.43 843.953 1332.43 L846.244 1332.43 L846.244 1325.42 L849.555 1325.42 L849.555 1332.43 L872.17 1332.43 L872.17 1336.72 L849.555 1336.72 L849.555 1340.79 L846.244 1340.79 L846.244 1336.72 L844.439 1336.72 Q840.11 1336.72 838.143 1334.7 Q836.152 1332.69 836.152 1328.31 L836.152 1324.28 Z" fill="#000000" fill-rule="evenodd" fill-opacity="1" /><path clip-path="url(#clip670)" d="M836.152 1307.6 L839.693 1307.6 L839.693 1311.67 Q839.693 1313.96 840.619 1314.86 Q841.545 1315.74 843.953 1315.74 L846.244 1315.74 L846.244 1308.73 L849.555 1308.73 L849.555 1315.74 L872.17 1315.74 L872.17 1320.03 L849.555 1320.03 L849.555 1324.1 L846.244 1324.1 L846.244 1320.03 L844.439 1320.03 Q840.11 1320.03 838.143 1318.01 Q836.152 1316 836.152 1311.62 L836.152 1307.6 Z" fill="#000000" fill-rule="evenodd" fill-opacity="1" /><path clip-path="url(#clip670)" d="M847.008 1287.5 L851.036 1287.5 Q850.11 1289.31 849.647 1291.25 Q849.184 1293.2 849.184 1295.28 Q849.184 1298.45 850.156 1300.05 Q851.129 1301.62 853.073 1301.62 Q854.554 1301.62 855.411 1300.49 Q856.244 1299.35 857.008 1295.93 L857.332 1294.47 Q858.304 1289.93 860.087 1288.04 Q861.846 1286.11 865.017 1286.11 Q868.628 1286.11 870.735 1288.98 Q872.841 1291.83 872.841 1296.83 Q872.841 1298.91 872.425 1301.18 Q872.031 1303.43 871.221 1305.93 L866.823 1305.93 Q868.05 1303.57 868.675 1301.28 Q869.277 1298.98 869.277 1296.74 Q869.277 1293.73 868.258 1292.11 Q867.216 1290.49 865.341 1290.49 Q863.605 1290.49 862.679 1291.67 Q861.754 1292.83 860.897 1296.78 L860.55 1298.27 Q859.716 1302.22 858.004 1303.98 Q856.267 1305.74 853.258 1305.74 Q849.601 1305.74 847.61 1303.15 Q845.619 1300.56 845.619 1295.79 Q845.619 1293.43 845.967 1291.35 Q846.314 1289.26 847.008 1287.5 Z" fill="#000000" fill-rule="evenodd" fill-opacity="1" /><path clip-path="url(#clip670)" d="M858.142 1257.16 L860.226 1257.16 L860.226 1276.74 Q864.624 1276.46 866.939 1274.1 Q869.23 1271.72 869.23 1267.48 Q869.23 1265.03 868.628 1262.73 Q868.027 1260.42 866.823 1258.15 L870.851 1258.15 Q871.823 1260.44 872.332 1262.85 Q872.841 1265.26 872.841 1267.73 Q872.841 1273.94 869.23 1277.57 Q865.619 1281.18 859.462 1281.18 Q853.096 1281.18 849.369 1277.76 Q845.619 1274.31 845.619 1268.47 Q845.619 1263.24 848.999 1260.21 Q852.355 1257.16 858.142 1257.16 M856.892 1261.41 Q853.397 1261.46 851.314 1263.38 Q849.23 1265.28 849.23 1268.43 Q849.23 1271.99 851.244 1274.15 Q853.258 1276.28 856.916 1276.6 L856.892 1261.41 Z" fill="#000000" fill-rule="evenodd" fill-opacity="1" /><path clip-path="url(#clip670)" d="M838.883 1245.95 L846.244 1245.95 L846.244 1237.18 L849.555 1237.18 L849.555 1245.95 L863.629 1245.95 Q866.8 1245.95 867.703 1245.1 Q868.605 1244.22 868.605 1241.55 L868.605 1237.18 L872.17 1237.18 L872.17 1241.55 Q872.17 1246.48 870.341 1248.36 Q868.49 1250.23 863.629 1250.23 L849.555 1250.23 L849.555 1253.36 L846.244 1253.36 L846.244 1250.23 L838.883 1250.23 L838.883 1245.95 Z" fill="#000000" fill-rule="evenodd" fill-opacity="1" /><path clip-path="url(#clip670)" d="M1123.65 1312.09 L1127.19 1312.09 L1127.19 1316.16 Q1127.19 1318.45 1128.12 1319.35 Q1129.04 1320.23 1131.45 1320.23 L1133.74 1320.23 L1133.74 1313.22 L1137.05 1313.22 L1137.05 1320.23 L1159.67 1320.23 L1159.67 1324.52 L1137.05 1324.52 L1137.05 1328.59 L1133.74 1328.59 L1133.74 1324.52 L1131.94 1324.52 Q1127.61 1324.52 1125.64 1322.5 Q1123.65 1320.49 1123.65 1316.11 L1123.65 1312.09 Z" fill="#000000" fill-rule="evenodd" fill-opacity="1" /><path clip-path="url(#clip670)" d="M1136.73 1298.47 Q1136.73 1301.9 1139.41 1303.89 Q1142.08 1305.88 1146.73 1305.88 Q1151.38 1305.88 1154.07 1303.91 Q1156.73 1301.92 1156.73 1298.47 Q1156.73 1295.07 1154.04 1293.08 Q1151.36 1291.09 1146.73 1291.09 Q1142.12 1291.09 1139.44 1293.08 Q1136.73 1295.07 1136.73 1298.47 M1133.12 1298.47 Q1133.12 1292.92 1136.73 1289.75 Q1140.34 1286.58 1146.73 1286.58 Q1153.09 1286.58 1156.73 1289.75 Q1160.34 1292.92 1160.34 1298.47 Q1160.34 1304.05 1156.73 1307.22 Q1153.09 1310.37 1146.73 1310.37 Q1140.34 1310.37 1136.73 1307.22 Q1133.12 1304.05 1133.12 1298.47 Z" fill="#000000" fill-rule="evenodd" fill-opacity="1" /><path clip-path="url(#clip670)" d="M1137.72 1264.49 Q1137.31 1265.21 1137.12 1266.07 Q1136.91 1266.9 1136.91 1267.92 Q1136.91 1271.53 1139.27 1273.47 Q1141.61 1275.4 1146.01 1275.4 L1159.67 1275.4 L1159.67 1279.68 L1133.74 1279.68 L1133.74 1275.4 L1137.77 1275.4 Q1135.41 1274.05 1134.27 1271.9 Q1133.12 1269.75 1133.12 1266.67 Q1133.12 1266.23 1133.19 1265.7 Q1133.23 1265.16 1133.35 1264.52 L1137.72 1264.49 Z" fill="#000000" fill-rule="evenodd" fill-opacity="1" /><path clip-path="url(#clip670)" d="M1123.65 1260.19 L1123.65 1255.91 L1144.92 1255.91 L1133.74 1243.2 L1133.74 1237.76 L1145.87 1251.51 L1159.67 1237.18 L1159.67 1242.73 L1147.01 1255.91 L1159.67 1255.91 L1159.67 1260.19 L1123.65 1260.19 Z" fill="#000000" fill-rule="evenodd" fill-opacity="1" /><path clip-path="url(#clip670)" d="M1421.24 1481.14 L1421.24 1460.9 L1425.13 1460.9 L1443.76 1476.92 L1443.76 1460.9 L1447.17 1460.9 L1447.17 1481.71 L1443.28 1481.71 L1424.64 1465.7 L1424.64 1481.14 L1421.24 1481.14 Z" fill="#000000" fill-rule="evenodd" fill-opacity="1" /><path clip-path="url(#clip670)" d="M1447.17 1445.3 L1412.61 1458.5 L1412.61 1453.61 L1441.7 1442.66 L1412.61 1431.69 L1412.61 1426.83 L1447.17 1440 L1447.17 1445.3 Z" fill="#000000" fill-rule="evenodd" fill-opacity="1" /><path clip-path="url(#clip670)" d="M1417.21 1413.27 L1434.41 1419.61 L1434.41 1406.9 L1417.21 1413.27 M1412.61 1415.9 L1412.61 1410.6 L1447.17 1397.43 L1447.17 1402.29 L1438.3 1405.44 L1438.3 1421.02 L1447.17 1424.17 L1447.17 1429.1 L1412.61 1415.9 Z" fill="#000000" fill-rule="evenodd" fill-opacity="1" /><path clip-path="url(#clip670)" d="M1412.61 1394.05 L1412.61 1389.03 L1425.45 1380.44 L1412.61 1371.81 L1412.61 1366.78 L1429.2 1377.9 L1447.17 1366.04 L1447.17 1371.07 L1432.47 1380.79 L1447.17 1390.58 L1447.17 1395.63 L1428.72 1383.29 L1412.61 1394.05 Z" fill="#000000" fill-rule="evenodd" fill-opacity="1" /><path clip-path="url(#clip670)" d="M1428.58 1353.03 Q1430.45 1355.14 1432.33 1356.14 Q1434.18 1357.11 1436.22 1357.11 Q1439.6 1357.11 1441.84 1354.66 Q1444.09 1352.2 1444.09 1348.5 Q1444.09 1346.3 1443.37 1344.38 Q1442.63 1342.46 1441.15 1340.77 L1428.58 1353.03 M1425.99 1349.77 L1438.02 1338.01 Q1435.96 1336.65 1433.62 1335.88 Q1431.26 1335.12 1428.63 1334.98 L1428.63 1330.67 Q1431.68 1330.95 1434.67 1332.16 Q1437.65 1333.36 1440.57 1335.51 L1447.17 1329.05 L1447.17 1334.89 L1443.76 1338.2 Q1445.82 1340.6 1446.84 1343.24 Q1447.84 1345.88 1447.84 1348.91 Q1447.84 1354.49 1444.67 1358.03 Q1441.47 1361.58 1436.5 1361.58 Q1433.53 1361.58 1430.94 1360.03 Q1428.32 1358.47 1426.03 1355.37 Q1424.57 1356.48 1423.14 1357.06 Q1421.68 1357.64 1420.29 1357.64 Q1416.54 1357.64 1414.27 1355.07 Q1411.98 1352.5 1411.98 1348.24 Q1411.98 1346.32 1412.4 1344.42 Q1412.81 1342.5 1413.65 1340.53 L1417.86 1340.53 Q1416.77 1342.55 1416.22 1344.38 Q1415.64 1346.21 1415.64 1347.78 Q1415.64 1350.21 1416.94 1351.74 Q1418.21 1353.24 1420.25 1353.24 Q1421.43 1353.24 1422.63 1352.57 Q1423.81 1351.88 1425.99 1349.77 Z" fill="#000000" fill-rule="evenodd" fill-opacity="1" /><path clip-path="url(#clip670)" d="M1447.84 1314.86 Q1447.84 1324.47 1434.09 1324.47 Q1428.65 1324.47 1421.24 1320.88 L1421.24 1316.3 Q1428.65 1319.61 1434.2 1319.61 Q1444.23 1319.61 1444.23 1314.47 Q1444.23 1309.77 1431.77 1309.77 L1431.77 1305.84 Q1444.23 1305.84 1444.23 1301.14 Q1444.23 1296 1434.2 1296 Q1428.65 1296 1421.24 1299.31 L1421.24 1294.72 Q1428.65 1291.14 1434.09 1291.14 Q1447.84 1291.14 1447.84 1300.74 Q1447.84 1307.04 1440.92 1307.8 Q1447.84 1308.75 1447.84 1314.86 Z" fill="#000000" fill-rule="evenodd" fill-opacity="1" /><path clip-path="url(#clip670)" d="M1455.04 1263.73 L1458.35 1263.73 L1458.35 1288.36 L1455.04 1288.36 L1455.04 1263.73 Z" fill="#000000" fill-rule="evenodd" fill-opacity="1" /><path clip-path="url(#clip670)" d="M1415.69 1249.12 Q1415.69 1252.73 1419.25 1254.56 Q1422.79 1256.37 1429.92 1256.37 Q1437.03 1256.37 1440.59 1254.56 Q1444.13 1252.73 1444.13 1249.12 Q1444.13 1245.49 1440.59 1243.68 Q1437.03 1241.85 1429.92 1241.85 Q1422.79 1241.85 1419.25 1243.68 Q1415.69 1245.49 1415.69 1249.12 M1411.98 1249.12 Q1411.98 1243.31 1416.59 1240.26 Q1421.17 1237.18 1429.92 1237.18 Q1438.65 1237.18 1443.25 1240.26 Q1447.84 1243.31 1447.84 1249.12 Q1447.84 1254.93 1443.25 1258.01 Q1438.65 1261.07 1429.92 1261.07 Q1421.17 1261.07 1416.59 1258.01 Q1411.98 1254.93 1411.98 1249.12 Z" fill="#000000" fill-rule="evenodd" fill-opacity="1" /><path clip-path="url(#clip670)" d="M1708.74 1511.3 L1708.74 1491.07 L1712.63 1491.07 L1731.26 1507.08 L1731.26 1491.07 L1734.66 1491.07 L1734.66 1511.88 L1730.78 1511.88 L1712.14 1495.86 L1712.14 1511.3 L1708.74 1511.3 Z" fill="#000000" fill-rule="evenodd" fill-opacity="1" /><path clip-path="url(#clip670)" d="M1734.66 1475.46 L1700.1 1488.66 L1700.1 1483.77 L1729.2 1472.83 L1700.1 1461.85 L1700.1 1456.99 L1734.66 1470.16 L1734.66 1475.46 Z" fill="#000000" fill-rule="evenodd" fill-opacity="1" /><path clip-path="url(#clip670)" d="M1704.71 1443.43 L1721.91 1449.77 L1721.91 1437.06 L1704.71 1443.43 M1700.1 1446.07 L1700.1 1440.77 L1734.66 1427.59 L1734.66 1432.46 L1725.8 1435.6 L1725.8 1451.18 L1734.66 1454.33 L1734.66 1459.26 L1700.1 1446.07 Z" fill="#000000" fill-rule="evenodd" fill-opacity="1" /><path clip-path="url(#clip670)" d="M1700.1 1424.21 L1700.1 1419.19 L1712.95 1410.6 L1700.1 1401.97 L1700.1 1396.95 L1716.7 1408.06 L1734.66 1396.21 L1734.66 1401.23 L1719.97 1410.95 L1734.66 1420.74 L1734.66 1425.79 L1716.22 1413.45 L1700.1 1424.21 Z" fill="#000000" fill-rule="evenodd" fill-opacity="1" /><path clip-path="url(#clip670)" d="M1716.08 1383.2 Q1717.95 1385.3 1719.83 1386.3 Q1721.68 1387.27 1723.72 1387.27 Q1727.1 1387.27 1729.34 1384.82 Q1731.59 1382.36 1731.59 1378.66 Q1731.59 1376.46 1730.87 1374.54 Q1730.13 1372.62 1728.65 1370.93 L1716.08 1383.2 M1713.48 1379.93 L1725.52 1368.17 Q1723.46 1366.81 1721.12 1366.04 Q1718.76 1365.28 1716.12 1365.14 L1716.12 1360.84 Q1719.18 1361.11 1722.16 1362.32 Q1725.15 1363.52 1728.07 1365.67 L1734.66 1359.22 L1734.66 1365.05 L1731.26 1368.36 Q1733.32 1370.77 1734.34 1373.4 Q1735.34 1376.04 1735.34 1379.08 Q1735.34 1384.65 1732.16 1388.2 Q1728.97 1391.74 1723.99 1391.74 Q1721.03 1391.74 1718.44 1390.19 Q1715.82 1388.64 1713.53 1385.53 Q1712.07 1386.65 1710.64 1387.22 Q1709.18 1387.8 1707.79 1387.8 Q1704.04 1387.8 1701.77 1385.23 Q1699.48 1382.66 1699.48 1378.4 Q1699.48 1376.48 1699.9 1374.59 Q1700.31 1372.66 1701.15 1370.7 L1705.36 1370.7 Q1704.27 1372.71 1703.72 1374.54 Q1703.14 1376.37 1703.14 1377.94 Q1703.14 1380.37 1704.43 1381.9 Q1705.71 1383.4 1707.74 1383.4 Q1708.92 1383.4 1710.13 1382.73 Q1711.31 1382.04 1713.48 1379.93 Z" fill="#000000" fill-rule="evenodd" fill-opacity="1" /><path clip-path="url(#clip670)" d="M1735.34 1345.03 Q1735.34 1354.63 1721.59 1354.63 Q1716.15 1354.63 1708.74 1351.04 L1708.74 1346.46 Q1716.15 1349.77 1721.7 1349.77 Q1731.73 1349.77 1731.73 1344.63 Q1731.73 1339.93 1719.27 1339.93 L1719.27 1336 Q1731.73 1336 1731.73 1331.3 Q1731.73 1326.16 1721.7 1326.16 Q1716.15 1326.16 1708.74 1329.47 L1708.74 1324.89 Q1716.15 1321.3 1721.59 1321.3 Q1735.34 1321.3 1735.34 1330.91 Q1735.34 1337.2 1728.41 1337.97 Q1735.34 1338.91 1735.34 1345.03 Z" fill="#000000" fill-rule="evenodd" fill-opacity="1" /><path clip-path="url(#clip670)" d="M1742.54 1293.89 L1745.85 1293.89 L1745.85 1318.52 L1742.54 1318.52 L1742.54 1293.89 Z" fill="#000000" fill-rule="evenodd" fill-opacity="1" /><path clip-path="url(#clip670)" d="M1733.95 1289.15 L1729.69 1289.15 Q1730.52 1287.39 1730.96 1285.58 Q1731.4 1283.78 1731.4 1282.04 Q1731.4 1277.41 1728.3 1274.98 Q1725.17 1272.53 1718.83 1272.18 Q1720.82 1273.52 1721.89 1275.58 Q1722.95 1277.64 1722.95 1280.14 Q1722.95 1285.33 1719.83 1288.36 Q1716.68 1291.37 1711.24 1291.37 Q1705.91 1291.37 1702.7 1288.22 Q1699.48 1285.07 1699.48 1279.84 Q1699.48 1273.85 1704.09 1270.7 Q1708.67 1267.53 1717.42 1267.53 Q1725.59 1267.53 1730.48 1271.41 Q1735.34 1275.28 1735.34 1281.83 Q1735.34 1283.59 1734.99 1285.4 Q1734.64 1287.2 1733.95 1289.15 M1719.29 1279.84 Q1719.29 1276.69 1717.14 1274.86 Q1714.99 1273.01 1711.24 1273.01 Q1707.51 1273.01 1705.36 1274.86 Q1703.18 1276.69 1703.18 1279.84 Q1703.18 1282.99 1705.36 1284.84 Q1707.51 1286.67 1711.24 1286.67 Q1714.99 1286.67 1717.14 1284.84 Q1719.29 1282.99 1719.29 1279.84 Z" fill="#000000" fill-rule="evenodd" fill-opacity="1" /><path clip-path="url(#clip670)" d="M1703.18 1249.12 Q1703.18 1252.73 1706.75 1254.56 Q1710.29 1256.37 1717.42 1256.37 Q1724.53 1256.37 1728.09 1254.56 Q1731.63 1252.73 1731.63 1249.12 Q1731.63 1245.49 1728.09 1243.68 Q1724.53 1241.85 1717.42 1241.85 Q1710.29 1241.85 1706.75 1243.68 Q1703.18 1245.49 1703.18 1249.12 M1699.48 1249.12 Q1699.48 1243.31 1704.09 1240.26 Q1708.67 1237.18 1717.42 1237.18 Q1726.15 1237.18 1730.75 1240.26 Q1735.34 1243.31 1735.34 1249.12 Q1735.34 1254.93 1730.75 1258.01 Q1726.15 1261.07 1717.42 1261.07 Q1708.67 1261.07 1704.09 1258.01 Q1699.48 1254.93 1699.48 1249.12 Z" fill="#000000" fill-rule="evenodd" fill-opacity="1" /><path clip-path="url(#clip670)" d="M1996.24 1541.46 L1996.24 1521.23 L2000.13 1521.23 L2018.76 1537.25 L2018.76 1521.23 L2022.16 1521.23 L2022.16 1542.04 L2018.27 1542.04 L1999.64 1526.02 L1999.64 1541.46 L1996.24 1541.46 Z" fill="#000000" fill-rule="evenodd" fill-opacity="1" /><path clip-path="url(#clip670)" d="M2022.16 1505.63 L1987.6 1518.82 L1987.6 1513.94 L2016.7 1502.99 L1987.6 1492.02 L1987.6 1487.15 L2022.16 1500.33 L2022.16 1505.63 Z" fill="#000000" fill-rule="evenodd" fill-opacity="1" /><path clip-path="url(#clip670)" d="M1992.21 1473.59 L2009.41 1479.93 L2009.41 1467.22 L1992.21 1473.59 M1987.6 1476.23 L1987.6 1470.93 L2022.16 1457.76 L2022.16 1462.62 L2013.3 1465.77 L2013.3 1481.34 L2022.16 1484.49 L2022.16 1489.42 L1987.6 1476.23 Z" fill="#000000" fill-rule="evenodd" fill-opacity="1" /><path clip-path="url(#clip670)" d="M1987.6 1454.38 L1987.6 1449.35 L2000.45 1440.77 L1987.6 1432.13 L1987.6 1427.11 L2004.2 1438.22 L2022.16 1426.37 L2022.16 1431.39 L2007.46 1441.11 L2022.16 1450.9 L2022.16 1455.95 L2003.71 1443.61 L1987.6 1454.38 Z" fill="#000000" fill-rule="evenodd" fill-opacity="1" /><path clip-path="url(#clip670)" d="M2003.58 1413.36 Q2005.45 1415.46 2007.33 1416.46 Q2009.18 1417.43 2011.21 1417.43 Q2014.59 1417.43 2016.84 1414.98 Q2019.08 1412.53 2019.08 1408.82 Q2019.08 1406.62 2018.37 1404.7 Q2017.63 1402.78 2016.14 1401.09 L2003.58 1413.36 M2000.98 1410.09 L2013.02 1398.34 Q2010.96 1396.97 2008.62 1396.21 Q2006.26 1395.44 2003.62 1395.3 L2003.62 1391 Q2006.68 1391.28 2009.66 1392.48 Q2012.65 1393.68 2015.57 1395.84 L2022.16 1389.38 L2022.16 1395.21 L2018.76 1398.52 Q2020.82 1400.93 2021.84 1403.57 Q2022.83 1406.21 2022.83 1409.24 Q2022.83 1414.82 2019.66 1418.36 Q2016.47 1421.9 2011.49 1421.9 Q2008.53 1421.9 2005.94 1420.35 Q2003.32 1418.8 2001.03 1415.7 Q1999.57 1416.81 1998.14 1417.39 Q1996.68 1417.96 1995.29 1417.96 Q1991.54 1417.96 1989.27 1415.4 Q1986.98 1412.83 1986.98 1408.57 Q1986.98 1406.65 1987.39 1404.75 Q1987.81 1402.83 1988.64 1400.86 L1992.86 1400.86 Q1991.77 1402.87 1991.21 1404.7 Q1990.64 1406.53 1990.64 1408.1 Q1990.64 1410.53 1991.93 1412.06 Q1993.2 1413.57 1995.24 1413.57 Q1996.42 1413.57 1997.63 1412.9 Q1998.81 1412.2 2000.98 1410.09 Z" fill="#000000" fill-rule="evenodd" fill-opacity="1" /><path clip-path="url(#clip670)" d="M2022.83 1375.19 Q2022.83 1384.79 2009.08 1384.79 Q2003.64 1384.79 1996.24 1381.21 L1996.24 1376.62 Q2003.64 1379.93 2009.2 1379.93 Q2019.22 1379.93 2019.22 1374.79 Q2019.22 1370.09 2006.77 1370.09 L2006.77 1366.16 Q2019.22 1366.16 2019.22 1361.46 Q2019.22 1356.32 2009.2 1356.32 Q2003.64 1356.32 1996.24 1359.63 L1996.24 1355.05 Q2003.64 1351.46 2009.08 1351.46 Q2022.83 1351.46 2022.83 1361.07 Q2022.83 1367.36 2015.91 1368.13 Q2022.83 1369.08 2022.83 1375.19 Z" fill="#000000" fill-rule="evenodd" fill-opacity="1" /><path clip-path="url(#clip670)" d="M2030.03 1324.05 L2033.34 1324.05 L2033.34 1348.68 L2030.03 1348.68 L2030.03 1324.05 Z" fill="#000000" fill-rule="evenodd" fill-opacity="1" /><path clip-path="url(#clip670)" d="M2018.23 1318.64 L2018.23 1311 L1991.86 1311 L1993.53 1319.31 L1989.27 1319.31 L1987.6 1311.04 L1987.6 1306.37 L2018.23 1306.37 L2018.23 1298.73 L2022.16 1298.73 L2022.16 1318.64 L2018.23 1318.64 Z" fill="#000000" fill-rule="evenodd" fill-opacity="1" /><path clip-path="url(#clip670)" d="M2005.75 1279.29 Q2005.75 1282.62 2007.53 1284.54 Q2009.32 1286.44 2012.44 1286.44 Q2015.57 1286.44 2017.35 1284.54 Q2019.13 1282.62 2019.13 1279.29 Q2019.13 1275.95 2017.35 1274.03 Q2015.54 1272.11 2012.44 1272.11 Q2009.32 1272.11 2007.53 1274.03 Q2005.75 1275.93 2005.75 1279.29 M2003.76 1283.96 Q2003.02 1286.97 2000.96 1288.66 Q1998.9 1290.33 1995.94 1290.33 Q1991.79 1290.33 1989.39 1287.39 Q1986.98 1284.42 1986.98 1279.29 Q1986.98 1274.12 1989.39 1271.18 Q1991.79 1268.24 1995.94 1268.24 Q1998.9 1268.24 2000.96 1269.93 Q2003.02 1271.6 2003.76 1274.59 Q2004.55 1271.21 2006.84 1269.33 Q2009.13 1267.43 2012.44 1267.43 Q2017.46 1267.43 2020.15 1270.51 Q2022.83 1273.57 2022.83 1279.29 Q2022.83 1285 2020.15 1288.08 Q2017.46 1291.14 2012.44 1291.14 Q2009.13 1291.14 2006.84 1289.24 Q2004.55 1287.34 2003.76 1283.96 M1996.38 1285.67 Q1999.06 1285.67 2000.57 1284.01 Q2002.07 1282.32 2002.07 1279.29 Q2002.07 1276.28 2000.57 1274.59 Q1999.06 1272.87 1996.38 1272.87 Q1993.69 1272.87 1992.19 1274.59 Q1990.68 1276.28 1990.68 1279.29 Q1990.68 1282.32 1992.19 1284.01 Q1993.69 1285.67 1996.38 1285.67 Z" fill="#000000" fill-rule="evenodd" fill-opacity="1" /><path clip-path="url(#clip670)" d="M1990.68 1249.12 Q1990.68 1252.73 1994.25 1254.56 Q1997.79 1256.37 2004.92 1256.37 Q2012.02 1256.37 2015.59 1254.56 Q2019.13 1252.73 2019.13 1249.12 Q2019.13 1245.49 2015.59 1243.68 Q2012.02 1241.85 2004.92 1241.85 Q1997.79 1241.85 1994.25 1243.68 Q1990.68 1245.49 1990.68 1249.12 M1986.98 1249.12 Q1986.98 1243.31 1991.58 1240.26 Q1996.17 1237.18 2004.92 1237.18 Q2013.64 1237.18 2018.25 1240.26 Q2022.83 1243.31 2022.83 1249.12 Q2022.83 1254.93 2018.25 1258.01 Q2013.64 1261.07 2004.92 1261.07 Q1996.17 1261.07 1991.58 1258.01 Q1986.98 1254.93 1986.98 1249.12 Z" fill="#000000" fill-rule="evenodd" fill-opacity="1" /><path clip-path="url(#clip670)" d="M2283.74 1541.46 L2283.74 1521.23 L2287.62 1521.23 L2306.26 1537.25 L2306.26 1521.23 L2309.66 1521.23 L2309.66 1542.04 L2305.77 1542.04 L2287.14 1526.02 L2287.14 1541.46 L2283.74 1541.46 Z" fill="#000000" fill-rule="evenodd" fill-opacity="1" /><path clip-path="url(#clip670)" d="M2309.66 1505.63 L2275.1 1518.82 L2275.1 1513.94 L2304.2 1502.99 L2275.1 1492.02 L2275.1 1487.15 L2309.66 1500.33 L2309.66 1505.63 Z" fill="#000000" fill-rule="evenodd" fill-opacity="1" /><path clip-path="url(#clip670)" d="M2279.71 1473.59 L2296.91 1479.93 L2296.91 1467.22 L2279.71 1473.59 M2275.1 1476.23 L2275.1 1470.93 L2309.66 1457.76 L2309.66 1462.62 L2300.8 1465.77 L2300.8 1481.34 L2309.66 1484.49 L2309.66 1489.42 L2275.1 1476.23 Z" fill="#000000" fill-rule="evenodd" fill-opacity="1" /><path clip-path="url(#clip670)" d="M2275.1 1454.38 L2275.1 1449.35 L2287.95 1440.77 L2275.1 1432.13 L2275.1 1427.11 L2291.7 1438.22 L2309.66 1426.37 L2309.66 1431.39 L2294.96 1441.11 L2309.66 1450.9 L2309.66 1455.95 L2291.21 1443.61 L2275.1 1454.38 Z" fill="#000000" fill-rule="evenodd" fill-opacity="1" /><path clip-path="url(#clip670)" d="M2291.07 1413.36 Q2292.95 1415.46 2294.82 1416.46 Q2296.68 1417.43 2298.71 1417.43 Q2302.09 1417.43 2304.34 1414.98 Q2306.58 1412.53 2306.58 1408.82 Q2306.58 1406.62 2305.87 1404.7 Q2305.12 1402.78 2303.64 1401.09 L2291.07 1413.36 M2288.48 1410.09 L2300.52 1398.34 Q2298.46 1396.97 2296.12 1396.21 Q2293.76 1395.44 2291.12 1395.3 L2291.12 1391 Q2294.18 1391.28 2297.16 1392.48 Q2300.15 1393.68 2303.06 1395.84 L2309.66 1389.38 L2309.66 1395.21 L2306.26 1398.52 Q2308.32 1400.93 2309.34 1403.57 Q2310.33 1406.21 2310.33 1409.24 Q2310.33 1414.82 2307.16 1418.36 Q2303.97 1421.9 2298.99 1421.9 Q2296.03 1421.9 2293.43 1420.35 Q2290.82 1418.8 2288.53 1415.7 Q2287.07 1416.81 2285.63 1417.39 Q2284.18 1417.96 2282.79 1417.96 Q2279.04 1417.96 2276.77 1415.4 Q2274.48 1412.83 2274.48 1408.57 Q2274.48 1406.65 2274.89 1404.75 Q2275.31 1402.83 2276.14 1400.86 L2280.36 1400.86 Q2279.27 1402.87 2278.71 1404.7 Q2278.13 1406.53 2278.13 1408.1 Q2278.13 1410.53 2279.43 1412.06 Q2280.7 1413.57 2282.74 1413.57 Q2283.92 1413.57 2285.12 1412.9 Q2286.3 1412.2 2288.48 1410.09 Z" fill="#000000" fill-rule="evenodd" fill-opacity="1" /><path clip-path="url(#clip670)" d="M2310.33 1375.19 Q2310.33 1384.79 2296.58 1384.79 Q2291.14 1384.79 2283.74 1381.21 L2283.74 1376.62 Q2291.14 1379.93 2296.7 1379.93 Q2306.72 1379.93 2306.72 1374.79 Q2306.72 1370.09 2294.27 1370.09 L2294.27 1366.16 Q2306.72 1366.16 2306.72 1361.46 Q2306.72 1356.32 2296.7 1356.32 Q2291.14 1356.32 2283.74 1359.63 L2283.74 1355.05 Q2291.14 1351.46 2296.58 1351.46 Q2310.33 1351.46 2310.33 1361.07 Q2310.33 1367.36 2303.41 1368.13 Q2310.33 1369.08 2310.33 1375.19 Z" fill="#000000" fill-rule="evenodd" fill-opacity="1" /><path clip-path="url(#clip670)" d="M2317.53 1324.05 L2320.84 1324.05 L2320.84 1348.68 L2317.53 1348.68 L2317.53 1324.05 Z" fill="#000000" fill-rule="evenodd" fill-opacity="1" /><path clip-path="url(#clip670)" d="M2305.73 1315.42 L2305.73 1299.1 L2309.66 1299.1 L2309.66 1321.04 L2305.73 1321.04 Q2302.97 1318.38 2298.34 1313.8 Q2293.69 1309.19 2292.35 1308.01 Q2289.82 1305.77 2288.09 1304.89 Q2286.33 1303.98 2284.64 1303.98 Q2281.88 1303.98 2280.15 1305.93 Q2278.41 1307.85 2278.41 1310.95 Q2278.41 1313.15 2279.18 1315.6 Q2279.94 1318.03 2281.49 1320.81 L2276.77 1320.81 Q2275.63 1317.99 2275.05 1315.53 Q2274.48 1313.08 2274.48 1311.04 Q2274.48 1305.67 2277.16 1302.48 Q2279.85 1299.28 2284.34 1299.28 Q2286.47 1299.28 2288.39 1300.1 Q2290.29 1300.88 2292.88 1302.99 Q2293.55 1303.57 2296.77 1306.67 Q2299.96 1309.77 2305.73 1315.42 Z" fill="#000000" fill-rule="evenodd" fill-opacity="1" /><path clip-path="url(#clip670)" d="M2275.1 1290.47 L2275.1 1268.24 L2277.09 1268.24 L2309.66 1280.79 L2309.66 1285.67 L2279.04 1273.87 L2279.04 1290.47 L2275.1 1290.47 Z" fill="#000000" fill-rule="evenodd" fill-opacity="1" /><path clip-path="url(#clip670)" d="M2278.18 1249.12 Q2278.18 1252.73 2281.74 1254.56 Q2285.29 1256.37 2292.42 1256.37 Q2299.52 1256.37 2303.09 1254.56 Q2306.63 1252.73 2306.63 1249.12 Q2306.63 1245.49 2303.09 1243.68 Q2299.52 1241.85 2292.42 1241.85 Q2285.29 1241.85 2281.74 1243.68 Q2278.18 1245.49 2278.18 1249.12 M2274.48 1249.12 Q2274.48 1243.31 2279.08 1240.26 Q2283.67 1237.18 2292.42 1237.18 Q2301.14 1237.18 2305.75 1240.26 Q2310.33 1243.31 2310.33 1249.12 Q2310.33 1254.93 2305.75 1258.01 Q2301.14 1261.07 2292.42 1261.07 Q2283.67 1261.07 2279.08 1258.01 Q2274.48 1254.93 2274.48 1249.12 Z" fill="#000000" fill-rule="evenodd" fill-opacity="1" /><polyline clip-path="url(#clip672)" style="stroke:#000000; stroke-linecap:round; stroke-linejoin:round; stroke-width:2; stroke-opacity:0.1; fill:none" points="
  219.519,1040.93 2352.76,1040.93 
  "/>
<polyline clip-path="url(#clip672)" style="stroke:#000000; stroke-linecap:round; stroke-linejoin:round; stroke-width:2; stroke-opacity:0.1; fill:none" points="
  219.519,834.687 2352.76,834.687 
  "/>
<polyline clip-path="url(#clip672)" style="stroke:#000000; stroke-linecap:round; stroke-linejoin:round; stroke-width:2; stroke-opacity:0.1; fill:none" points="
  219.519,628.444 2352.76,628.444 
  "/>
<polyline clip-path="url(#clip672)" style="stroke:#000000; stroke-linecap:round; stroke-linejoin:round; stroke-width:2; stroke-opacity:0.1; fill:none" points="
  219.519,422.201 2352.76,422.201 
  "/>
<polyline clip-path="url(#clip672)" style="stroke:#000000; stroke-linecap:round; stroke-linejoin:round; stroke-width:2; stroke-opacity:0.1; fill:none" points="
  219.519,215.958 2352.76,215.958 
  "/>
<polyline clip-path="url(#clip670)" style="stroke:#000000; stroke-linecap:round; stroke-linejoin:round; stroke-width:4; stroke-opacity:1; fill:none" points="
  219.519,1217.98 219.519,47.2441 
  "/>
<polyline clip-path="url(#clip670)" style="stroke:#000000; stroke-linecap:round; stroke-linejoin:round; stroke-width:4; stroke-opacity:1; fill:none" points="
  219.519,1040.93 238.417,1040.93 
  "/>
<polyline clip-path="url(#clip670)" style="stroke:#000000; stroke-linecap:round; stroke-linejoin:round; stroke-width:4; stroke-opacity:1; fill:none" points="
  219.519,834.687 238.417,834.687 
  "/>
<polyline clip-path="url(#clip670)" style="stroke:#000000; stroke-linecap:round; stroke-linejoin:round; stroke-width:4; stroke-opacity:1; fill:none" points="
  219.519,628.444 238.417,628.444 
  "/>
<polyline clip-path="url(#clip670)" style="stroke:#000000; stroke-linecap:round; stroke-linejoin:round; stroke-width:4; stroke-opacity:1; fill:none" points="
  219.519,422.201 238.417,422.201 
  "/>
<polyline clip-path="url(#clip670)" style="stroke:#000000; stroke-linecap:round; stroke-linejoin:round; stroke-width:4; stroke-opacity:1; fill:none" points="
  219.519,215.958 238.417,215.958 
  "/>
<path clip-path="url(#clip670)" d="M116.992 1054.28 L124.63 1054.28 L124.63 1027.91 L116.32 1029.58 L116.32 1025.32 L124.584 1023.65 L129.26 1023.65 L129.26 1054.28 L136.899 1054.28 L136.899 1058.21 L116.992 1058.21 L116.992 1054.28 Z" fill="#000000" fill-rule="evenodd" fill-opacity="1" /><path clip-path="url(#clip670)" d="M146.343 1052.33 L151.228 1052.33 L151.228 1058.21 L146.343 1058.21 L146.343 1052.33 Z" fill="#000000" fill-rule="evenodd" fill-opacity="1" /><path clip-path="url(#clip670)" d="M171.991 1039.07 Q168.843 1039.07 166.991 1041.22 Q165.163 1043.37 165.163 1047.12 Q165.163 1050.85 166.991 1053.03 Q168.843 1055.18 171.991 1055.18 Q175.139 1055.18 176.968 1053.03 Q178.82 1050.85 178.82 1047.12 Q178.82 1043.37 176.968 1041.22 Q175.139 1039.07 171.991 1039.07 M181.274 1024.41 L181.274 1028.67 Q179.514 1027.84 177.709 1027.4 Q175.926 1026.96 174.167 1026.96 Q169.538 1026.96 167.084 1030.09 Q164.653 1033.21 164.306 1039.53 Q165.672 1037.52 167.732 1036.45 Q169.792 1035.36 172.269 1035.36 Q177.477 1035.36 180.487 1038.53 Q183.519 1041.68 183.519 1047.12 Q183.519 1052.45 180.371 1055.66 Q177.223 1058.88 171.991 1058.88 Q165.996 1058.88 162.825 1054.3 Q159.653 1049.69 159.653 1040.97 Q159.653 1032.77 163.542 1027.91 Q167.431 1023.03 173.982 1023.03 Q175.741 1023.03 177.524 1023.37 Q179.329 1023.72 181.274 1024.41 Z" fill="#000000" fill-rule="evenodd" fill-opacity="1" /><path clip-path="url(#clip670)" d="M117.246 848.032 L124.885 848.032 L124.885 821.667 L116.575 823.333 L116.575 819.074 L124.839 817.407 L129.515 817.407 L129.515 848.032 L137.154 848.032 L137.154 851.967 L117.246 851.967 L117.246 848.032 Z" fill="#000000" fill-rule="evenodd" fill-opacity="1" /><path clip-path="url(#clip670)" d="M146.598 846.088 L151.482 846.088 L151.482 851.967 L146.598 851.967 L146.598 846.088 Z" fill="#000000" fill-rule="evenodd" fill-opacity="1" /><path clip-path="url(#clip670)" d="M171.667 835.555 Q168.334 835.555 166.413 837.338 Q164.515 839.12 164.515 842.245 Q164.515 845.37 166.413 847.153 Q168.334 848.935 171.667 848.935 Q175.001 848.935 176.922 847.153 Q178.843 845.347 178.843 842.245 Q178.843 839.12 176.922 837.338 Q175.024 835.555 171.667 835.555 M166.991 833.565 Q163.982 832.824 162.292 830.764 Q160.626 828.704 160.626 825.741 Q160.626 821.597 163.565 819.19 Q166.528 816.782 171.667 816.782 Q176.829 816.782 179.769 819.19 Q182.709 821.597 182.709 825.741 Q182.709 828.704 181.019 830.764 Q179.352 832.824 176.366 833.565 Q179.746 834.352 181.621 836.643 Q183.519 838.935 183.519 842.245 Q183.519 847.268 180.44 849.953 Q177.385 852.639 171.667 852.639 Q165.95 852.639 162.871 849.953 Q159.815 847.268 159.815 842.245 Q159.815 838.935 161.714 836.643 Q163.612 834.352 166.991 833.565 M165.278 826.18 Q165.278 828.866 166.945 830.37 Q168.635 831.875 171.667 831.875 Q174.677 831.875 176.366 830.37 Q178.079 828.866 178.079 826.18 Q178.079 823.495 176.366 821.991 Q174.677 820.486 171.667 820.486 Q168.635 820.486 166.945 821.991 Q165.278 823.495 165.278 826.18 Z" fill="#000000" fill-rule="evenodd" fill-opacity="1" /><path clip-path="url(#clip670)" d="M120.371 641.789 L136.691 641.789 L136.691 645.724 L114.746 645.724 L114.746 641.789 Q117.408 639.034 121.992 634.405 Q126.598 629.752 127.779 628.41 Q130.024 625.886 130.904 624.15 Q131.806 622.391 131.806 620.701 Q131.806 617.947 129.862 616.21 Q127.941 614.474 124.839 614.474 Q122.64 614.474 120.186 615.238 Q117.756 616.002 114.978 617.553 L114.978 612.831 Q117.802 611.697 120.255 611.118 Q122.709 610.539 124.746 610.539 Q130.117 610.539 133.311 613.224 Q136.505 615.91 136.505 620.4 Q136.505 622.53 135.695 624.451 Q134.908 626.349 132.802 628.942 Q132.223 629.613 129.121 632.831 Q126.019 636.025 120.371 641.789 Z" fill="#000000" fill-rule="evenodd" fill-opacity="1" /><path clip-path="url(#clip670)" d="M146.505 639.845 L151.39 639.845 L151.39 645.724 L146.505 645.724 L146.505 639.845 Z" fill="#000000" fill-rule="evenodd" fill-opacity="1" /><path clip-path="url(#clip670)" d="M171.575 614.243 Q167.964 614.243 166.135 617.808 Q164.329 621.349 164.329 628.479 Q164.329 635.585 166.135 639.15 Q167.964 642.692 171.575 642.692 Q175.209 642.692 177.014 639.15 Q178.843 635.585 178.843 628.479 Q178.843 621.349 177.014 617.808 Q175.209 614.243 171.575 614.243 M171.575 610.539 Q177.385 610.539 180.44 615.146 Q183.519 619.729 183.519 628.479 Q183.519 637.206 180.44 641.812 Q177.385 646.396 171.575 646.396 Q165.765 646.396 162.686 641.812 Q159.63 637.206 159.63 628.479 Q159.63 619.729 162.686 615.146 Q165.765 610.539 171.575 610.539 Z" fill="#000000" fill-rule="evenodd" fill-opacity="1" /><path clip-path="url(#clip670)" d="M121.968 435.546 L138.288 435.546 L138.288 439.481 L116.343 439.481 L116.343 435.546 Q119.006 432.791 123.589 428.162 Q128.195 423.509 129.376 422.166 Q131.621 419.643 132.501 417.907 Q133.404 416.148 133.404 414.458 Q133.404 411.704 131.459 409.967 Q129.538 408.231 126.436 408.231 Q124.237 408.231 121.783 408.995 Q119.353 409.759 116.575 411.31 L116.575 406.588 Q119.399 405.454 121.853 404.875 Q124.306 404.296 126.343 404.296 Q131.714 404.296 134.908 406.981 Q138.103 409.667 138.103 414.157 Q138.103 416.287 137.292 418.208 Q136.505 420.106 134.399 422.699 Q133.82 423.37 130.718 426.588 Q127.617 429.782 121.968 435.546 Z" fill="#000000" fill-rule="evenodd" fill-opacity="1" /><path clip-path="url(#clip670)" d="M148.103 433.602 L152.987 433.602 L152.987 439.481 L148.103 439.481 L148.103 433.602 Z" fill="#000000" fill-rule="evenodd" fill-opacity="1" /><path clip-path="url(#clip670)" d="M167.2 435.546 L183.519 435.546 L183.519 439.481 L161.575 439.481 L161.575 435.546 Q164.237 432.791 168.82 428.162 Q173.427 423.509 174.607 422.166 Q176.852 419.643 177.732 417.907 Q178.635 416.148 178.635 414.458 Q178.635 411.704 176.69 409.967 Q174.769 408.231 171.667 408.231 Q169.468 408.231 167.015 408.995 Q164.584 409.759 161.806 411.31 L161.806 406.588 Q164.63 405.454 167.084 404.875 Q169.538 404.296 171.575 404.296 Q176.945 404.296 180.139 406.981 Q183.334 409.667 183.334 414.157 Q183.334 416.287 182.524 418.208 Q181.737 420.106 179.63 422.699 Q179.051 423.37 175.95 426.588 Q172.848 429.782 167.2 435.546 Z" fill="#000000" fill-rule="evenodd" fill-opacity="1" /><path clip-path="url(#clip670)" d="M119.885 229.303 L136.204 229.303 L136.204 233.238 L114.26 233.238 L114.26 229.303 Q116.922 226.548 121.505 221.919 Q126.112 217.266 127.292 215.923 Q129.538 213.4 130.417 211.664 Q131.32 209.905 131.32 208.215 Q131.32 205.46 129.376 203.724 Q127.455 201.988 124.353 201.988 Q122.154 201.988 119.7 202.752 Q117.269 203.516 114.492 205.067 L114.492 200.345 Q117.316 199.211 119.769 198.632 Q122.223 198.053 124.26 198.053 Q129.63 198.053 132.825 200.738 Q136.019 203.423 136.019 207.914 Q136.019 210.044 135.209 211.965 Q134.422 213.863 132.316 216.456 Q131.737 217.127 128.635 220.345 Q125.533 223.539 119.885 229.303 Z" fill="#000000" fill-rule="evenodd" fill-opacity="1" /><path clip-path="url(#clip670)" d="M146.019 227.359 L150.903 227.359 L150.903 233.238 L146.019 233.238 L146.019 227.359 Z" fill="#000000" fill-rule="evenodd" fill-opacity="1" /><path clip-path="url(#clip670)" d="M173.936 202.752 L162.13 221.201 L173.936 221.201 L173.936 202.752 M172.709 198.678 L178.589 198.678 L178.589 221.201 L183.519 221.201 L183.519 225.09 L178.589 225.09 L178.589 233.238 L173.936 233.238 L173.936 225.09 L158.334 225.09 L158.334 220.576 L172.709 198.678 Z" fill="#000000" fill-rule="evenodd" fill-opacity="1" /><path clip-path="url(#clip670)" d="M21.7677 880.81 L58.7206 880.81 L58.7206 873.044 Q58.7206 863.209 54.2646 858.658 Q49.8086 854.074 40.1964 854.074 Q30.6479 854.074 26.2237 858.658 Q21.7677 863.209 21.7677 873.044 L21.7677 880.81 M16.4842 887.24 L16.4842 874.031 Q16.4842 860.217 22.2451 853.756 Q27.9743 847.295 40.1964 847.295 Q52.4822 847.295 58.2432 853.788 Q64.0042 860.281 64.0042 874.031 L64.0042 887.24 L16.4842 887.24 Z" fill="#000000" fill-rule="evenodd" fill-opacity="1" /><path clip-path="url(#clip670)" d="M49.9359 837.905 L28.3562 837.905 L28.3562 832.049 L49.7131 832.049 Q54.7739 832.049 57.3202 830.076 Q59.8346 828.102 59.8346 824.156 Q59.8346 819.413 56.8109 816.676 Q53.7872 813.907 48.5673 813.907 L28.3562 813.907 L28.3562 808.05 L64.0042 808.05 L64.0042 813.907 L58.5296 813.907 Q61.7762 816.039 63.3676 818.872 Q64.9272 821.673 64.9272 825.397 Q64.9272 831.54 61.1078 834.723 Q57.2883 837.905 49.9359 837.905 M27.4968 823.169 L27.4968 823.169 Z" fill="#000000" fill-rule="evenodd" fill-opacity="1" /><path clip-path="url(#clip670)" d="M29.4065 773.262 L34.9447 773.262 Q33.6716 775.744 33.035 778.418 Q32.3984 781.092 32.3984 783.956 Q32.3984 788.317 33.7352 790.513 Q35.072 792.677 37.7456 792.677 Q39.7826 792.677 40.9603 791.118 Q42.1061 789.558 43.1565 784.847 L43.6021 782.842 Q44.9389 776.604 47.3897 773.994 Q49.8086 771.352 54.1691 771.352 Q59.1344 771.352 62.0308 775.299 Q64.9272 779.214 64.9272 786.089 Q64.9272 788.953 64.3543 792.072 Q63.8132 795.16 62.6992 798.597 L56.6518 798.597 Q58.3387 795.351 59.198 792.2 Q60.0256 789.049 60.0256 785.961 Q60.0256 781.824 58.6251 779.596 Q57.1929 777.368 54.6147 777.368 Q52.2276 777.368 50.9545 778.991 Q49.6813 780.582 48.5037 786.025 L48.0262 788.062 Q46.8804 793.505 44.5251 795.924 Q42.138 798.343 38.0002 798.343 Q32.9713 798.343 30.2341 794.778 Q27.4968 791.213 27.4968 784.656 Q27.4968 781.41 27.9743 778.545 Q28.4517 775.681 29.4065 773.262 Z" fill="#000000" fill-rule="evenodd" fill-opacity="1" /><path clip-path="url(#clip670)" d="M18.2347 756.233 L28.3562 756.233 L28.3562 744.17 L32.9077 744.17 L32.9077 756.233 L52.2594 756.233 Q56.6199 756.233 57.8613 755.056 Q59.1026 753.846 59.1026 750.186 L59.1026 744.17 L64.0042 744.17 L64.0042 750.186 Q64.0042 756.966 61.4897 759.544 Q58.9434 762.122 52.2594 762.122 L32.9077 762.122 L32.9077 766.419 L28.3562 766.419 L28.3562 762.122 L18.2347 762.122 L18.2347 756.233 Z" fill="#000000" fill-rule="evenodd" fill-opacity="1" /><path clip-path="url(#clip670)" d="M46.212 690.157 Q39.7508 690.157 36.0905 692.831 Q32.3984 695.473 32.3984 700.12 Q32.3984 704.767 36.0905 707.44 Q39.7508 710.082 46.212 710.082 Q52.6732 710.082 56.3653 707.44 Q60.0256 704.767 60.0256 700.12 Q60.0256 695.473 56.3653 692.831 Q52.6732 690.157 46.212 690.157 M33.7671 710.082 Q30.5842 708.236 29.0564 705.435 Q27.4968 702.602 27.4968 698.687 Q27.4968 692.194 32.6531 688.152 Q37.8093 684.078 46.212 684.078 Q54.6147 684.078 59.771 688.152 Q64.9272 692.194 64.9272 698.687 Q64.9272 702.602 63.3994 705.435 Q61.8398 708.236 58.657 710.082 L64.0042 710.082 L64.0042 715.97 L14.479 715.97 L14.479 710.082 L33.7671 710.082 Z" fill="#000000" fill-rule="evenodd" fill-opacity="1" /><path clip-path="url(#clip670)" d="M44.7161 643.879 L47.5806 643.879 L47.5806 670.806 Q53.6281 670.424 56.8109 667.177 Q59.9619 663.899 59.9619 658.074 Q59.9619 654.7 59.1344 651.549 Q58.3069 648.367 56.6518 645.247 L62.1899 645.247 Q63.5267 648.398 64.227 651.709 Q64.9272 655.019 64.9272 658.424 Q64.9272 666.954 59.9619 671.952 Q54.9967 676.917 46.5303 676.917 Q37.7774 676.917 32.6531 672.206 Q27.4968 667.464 27.4968 659.443 Q27.4968 652.25 32.1438 648.08 Q36.7589 643.879 44.7161 643.879 M42.9973 649.735 Q38.1912 649.799 35.3266 652.441 Q32.4621 655.051 32.4621 659.379 Q32.4621 664.281 35.2312 667.241 Q38.0002 670.169 43.0292 670.615 L42.9973 649.735 Z" fill="#000000" fill-rule="evenodd" fill-opacity="1" /><path clip-path="url(#clip670)" d="M18.2347 628.474 L28.3562 628.474 L28.3562 616.411 L32.9077 616.411 L32.9077 628.474 L52.2594 628.474 Q56.6199 628.474 57.8613 627.296 Q59.1026 626.087 59.1026 622.426 L59.1026 616.411 L64.0042 616.411 L64.0042 622.426 Q64.0042 629.206 61.4897 631.784 Q58.9434 634.362 52.2594 634.362 L32.9077 634.362 L32.9077 638.659 L28.3562 638.659 L28.3562 634.362 L18.2347 634.362 L18.2347 628.474 Z" fill="#000000" fill-rule="evenodd" fill-opacity="1" /><path clip-path="url(#clip670)" d="M46.0847 592.507 Q46.0847 599.605 47.7079 602.343 Q49.3312 605.08 53.2461 605.08 Q56.3653 605.08 58.2114 603.043 Q60.0256 600.974 60.0256 597.441 Q60.0256 592.571 56.5881 589.643 Q53.1188 586.683 47.3897 586.683 L46.0847 586.683 L46.0847 592.507 M43.6657 580.826 L64.0042 580.826 L64.0042 586.683 L58.5933 586.683 Q61.8398 588.688 63.3994 591.68 Q64.9272 594.672 64.9272 599.001 Q64.9272 604.475 61.8716 607.722 Q58.7843 610.936 53.6281 610.936 Q47.6125 610.936 44.5569 606.926 Q41.5014 602.884 41.5014 594.895 L41.5014 586.683 L40.9285 586.683 Q36.8862 586.683 34.6901 589.356 Q32.4621 591.998 32.4621 596.804 Q32.4621 599.86 33.1941 602.756 Q33.9262 605.653 35.3903 608.326 L29.9795 608.326 Q28.7381 605.112 28.1334 602.088 Q27.4968 599.064 27.4968 596.2 Q27.4968 588.465 31.5072 584.646 Q35.5176 580.826 43.6657 580.826 Z" fill="#000000" fill-rule="evenodd" fill-opacity="1" /><path clip-path="url(#clip670)" d="M28.3562 548.043 L28.3562 542.187 L64.0042 542.187 L64.0042 548.043 L28.3562 548.043 M14.479 548.043 L14.479 542.187 L21.895 542.187 L21.895 548.043 L14.479 548.043 Z" fill="#000000" fill-rule="evenodd" fill-opacity="1" /><path clip-path="url(#clip670)" d="M42.4881 500.3 L64.0042 500.3 L64.0042 506.157 L42.679 506.157 Q37.6183 506.157 35.1038 508.13 Q32.5894 510.103 32.5894 514.05 Q32.5894 518.793 35.6131 521.53 Q38.6368 524.267 43.8567 524.267 L64.0042 524.267 L64.0042 530.155 L28.3562 530.155 L28.3562 524.267 L33.8944 524.267 Q30.6797 522.166 29.0883 519.334 Q27.4968 516.469 27.4968 512.745 Q27.4968 506.602 31.3163 503.451 Q35.1038 500.3 42.4881 500.3 Z" fill="#000000" fill-rule="evenodd" fill-opacity="1" /><path clip-path="url(#clip670)" d="M33.7671 465.162 L14.479 465.162 L14.479 459.305 L64.0042 459.305 L64.0042 465.162 L58.657 465.162 Q61.8398 467.008 63.3994 469.84 Q64.9272 472.641 64.9272 476.588 Q64.9272 483.049 59.771 487.123 Q54.6147 491.165 46.212 491.165 Q37.8093 491.165 32.6531 487.123 Q27.4968 483.049 27.4968 476.588 Q27.4968 472.641 29.0564 469.84 Q30.5842 467.008 33.7671 465.162 M46.212 485.118 Q52.6732 485.118 56.3653 482.476 Q60.0256 479.803 60.0256 475.156 Q60.0256 470.509 56.3653 467.835 Q52.6732 465.162 46.212 465.162 Q39.7508 465.162 36.0905 467.835 Q32.3984 470.509 32.3984 475.156 Q32.3984 479.803 36.0905 482.476 Q39.7508 485.118 46.212 485.118 Z" fill="#000000" fill-rule="evenodd" fill-opacity="1" /><path clip-path="url(#clip670)" d="M44.7161 416.75 L47.5806 416.75 L47.5806 443.677 Q53.6281 443.295 56.8109 440.049 Q59.9619 436.77 59.9619 430.946 Q59.9619 427.572 59.1344 424.421 Q58.3069 421.238 56.6518 418.119 L62.1899 418.119 Q63.5267 421.27 64.227 424.58 Q64.9272 427.89 64.9272 431.296 Q64.9272 439.826 59.9619 444.823 Q54.9967 449.788 46.5303 449.788 Q37.7774 449.788 32.6531 445.078 Q27.4968 440.335 27.4968 432.314 Q27.4968 425.121 32.1438 420.952 Q36.7589 416.75 44.7161 416.75 M42.9973 422.607 Q38.1912 422.67 35.3266 425.312 Q32.4621 427.922 32.4621 432.251 Q32.4621 437.152 35.2312 440.112 Q38.0002 443.041 43.0292 443.486 L42.9973 422.607 Z" fill="#000000" fill-rule="evenodd" fill-opacity="1" /><path clip-path="url(#clip670)" d="M28.3562 378.652 L45.7028 391.542 L64.0042 377.983 L64.0042 384.89 L49.9996 395.266 L64.0042 405.642 L64.0042 412.549 L45.3526 398.704 L28.3562 411.371 L28.3562 404.465 L41.0558 395.011 L28.3562 385.558 L28.3562 378.652 Z" fill="#000000" fill-rule="evenodd" fill-opacity="1" /><polyline clip-path="url(#clip672)" style="stroke:#000000; stroke-linecap:round; stroke-linejoin:round; stroke-width:4; stroke-opacity:1; fill:none" points="
  279.894,1184.84 279.894,184.501 
  "/>
<line clip-path="url(#clip672)" x1="295.894" y1="1184.84" x2="263.894" y2="1184.84" style="stroke:#000000; stroke-width:3.2; stroke-opacity:1"/>
<line clip-path="url(#clip672)" x1="295.894" y1="184.501" x2="263.894" y2="184.501" style="stroke:#000000; stroke-width:3.2; stroke-opacity:1"/>
<circle clip-path="url(#clip672)" cx="279.894" cy="684.673" r="14.4" fill="#009af9" fill-rule="evenodd" fill-opacity="1" stroke="#000000" stroke-opacity="1" stroke-width="3.2"/>
<polyline clip-path="url(#clip672)" style="stroke:#000000; stroke-linecap:round; stroke-linejoin:round; stroke-width:4; stroke-opacity:1; fill:none" points="
  567.392,1059.14 567.392,82.4255 
  "/>
<line clip-path="url(#clip672)" x1="583.392" y1="1059.14" x2="551.392" y2="1059.14" style="stroke:#000000; stroke-width:3.2; stroke-opacity:1"/>
<line clip-path="url(#clip672)" x1="583.392" y1="82.4255" x2="551.392" y2="82.4255" style="stroke:#000000; stroke-width:3.2; stroke-opacity:1"/>
<circle clip-path="url(#clip672)" cx="567.392" cy="570.782" r="14.4" fill="#e26f46" fill-rule="evenodd" fill-opacity="1" stroke="#000000" stroke-opacity="1" stroke-width="3.2"/>
<polyline clip-path="url(#clip672)" style="stroke:#000000; stroke-linecap:round; stroke-linejoin:round; stroke-width:4; stroke-opacity:1; fill:none" points="
  854.89,1056.29 854.89,80.4104 
  "/>
<line clip-path="url(#clip672)" x1="870.89" y1="1056.29" x2="838.89" y2="1056.29" style="stroke:#000000; stroke-width:3.2; stroke-opacity:1"/>
<line clip-path="url(#clip672)" x1="870.89" y1="80.4104" x2="838.89" y2="80.4104" style="stroke:#000000; stroke-width:3.2; stroke-opacity:1"/>
<circle clip-path="url(#clip672)" cx="854.89" cy="568.351" r="14.4" fill="#3da44d" fill-rule="evenodd" fill-opacity="1" stroke="#000000" stroke-opacity="1" stroke-width="3.2"/>
<polyline clip-path="url(#clip672)" style="stroke:#000000; stroke-linecap:round; stroke-linejoin:round; stroke-width:4; stroke-opacity:1; fill:none" points="
  1142.39,1056.27 1142.39,80.4344 
  "/>
<line clip-path="url(#clip672)" x1="1158.39" y1="1056.27" x2="1126.39" y2="1056.27" style="stroke:#000000; stroke-width:3.2; stroke-opacity:1"/>
<line clip-path="url(#clip672)" x1="1158.39" y1="80.4344" x2="1126.39" y2="80.4344" style="stroke:#000000; stroke-width:3.2; stroke-opacity:1"/>
<circle clip-path="url(#clip672)" cx="1142.39" cy="568.35" r="14.4" fill="#c271d2" fill-rule="evenodd" fill-opacity="1" stroke="#000000" stroke-opacity="1" stroke-width="3.2"/>
<polyline clip-path="url(#clip672)" style="stroke:#000000; stroke-linecap:round; stroke-linejoin:round; stroke-width:4; stroke-opacity:1; fill:none" points="
  1429.89,1056.23 1429.89,80.3811 
  "/>
<line clip-path="url(#clip672)" x1="1445.89" y1="1056.23" x2="1413.89" y2="1056.23" style="stroke:#000000; stroke-width:3.2; stroke-opacity:1"/>
<line clip-path="url(#clip672)" x1="1445.89" y1="80.3811" x2="1413.89" y2="80.3811" style="stroke:#000000; stroke-width:3.2; stroke-opacity:1"/>
<circle clip-path="url(#clip672)" cx="1429.89" cy="568.308" r="14.4" fill="#ac8d18" fill-rule="evenodd" fill-opacity="1" stroke="#000000" stroke-opacity="1" stroke-width="3.2"/>
<polyline clip-path="url(#clip672)" style="stroke:#000000; stroke-linecap:round; stroke-linejoin:round; stroke-width:4; stroke-opacity:1; fill:none" points="
  1717.38,1056.24 1717.38,80.3864 
  "/>
<line clip-path="url(#clip672)" x1="1733.38" y1="1056.24" x2="1701.38" y2="1056.24" style="stroke:#000000; stroke-width:3.2; stroke-opacity:1"/>
<line clip-path="url(#clip672)" x1="1733.38" y1="80.3864" x2="1701.38" y2="80.3864" style="stroke:#000000; stroke-width:3.2; stroke-opacity:1"/>
<circle clip-path="url(#clip672)" cx="1717.38" cy="568.314" r="14.4" fill="#00a9ad" fill-rule="evenodd" fill-opacity="1" stroke="#000000" stroke-opacity="1" stroke-width="3.2"/>
<polyline clip-path="url(#clip672)" style="stroke:#000000; stroke-linecap:round; stroke-linejoin:round; stroke-width:4; stroke-opacity:1; fill:none" points="
  2004.88,1056.23 2004.88,80.3781 
  "/>
<line clip-path="url(#clip672)" x1="2020.88" y1="1056.23" x2="1988.88" y2="1056.23" style="stroke:#000000; stroke-width:3.2; stroke-opacity:1"/>
<line clip-path="url(#clip672)" x1="2020.88" y1="80.3781" x2="1988.88" y2="80.3781" style="stroke:#000000; stroke-width:3.2; stroke-opacity:1"/>
<circle clip-path="url(#clip672)" cx="2004.88" cy="568.304" r="14.4" fill="#ed5d92" fill-rule="evenodd" fill-opacity="1" stroke="#000000" stroke-opacity="1" stroke-width="3.2"/>
<polyline clip-path="url(#clip672)" style="stroke:#000000; stroke-linecap:round; stroke-linejoin:round; stroke-width:4; stroke-opacity:1; fill:none" points="
  2292.38,1056.28 2292.38,80.4096 
  "/>
<line clip-path="url(#clip672)" x1="2308.38" y1="1056.28" x2="2276.38" y2="1056.28" style="stroke:#000000; stroke-width:3.2; stroke-opacity:1"/>
<line clip-path="url(#clip672)" x1="2308.38" y1="80.4096" x2="2276.38" y2="80.4096" style="stroke:#000000; stroke-width:3.2; stroke-opacity:1"/>
<circle clip-path="url(#clip672)" cx="2292.38" cy="568.343" r="14.4" fill="#c68125" fill-rule="evenodd" fill-opacity="1" stroke="#000000" stroke-opacity="1" stroke-width="3.2"/>
</svg>
