<?xml version="1.0" encoding="utf-8"?>
<svg xmlns="http://www.w3.org/2000/svg" xmlns:xlink="http://www.w3.org/1999/xlink" width="600" height="400" viewBox="0 0 2400 1600">
<defs>
  <clipPath id="clip710">
    <rect x="0" y="0" width="2400" height="1600"/>
  </clipPath>
</defs>
<path clip-path="url(#clip710)" d="
M0 1600 L2400 1600 L2400 0 L0 0  Z
  " fill="#ffffff" fill-rule="evenodd" fill-opacity="1"/>
<defs>
  <clipPath id="clip711">
    <rect x="480" y="0" width="1681" height="1600"/>
  </clipPath>
</defs>
<path clip-path="url(#clip710)" d="
M247.459 1217.98 L2352.76 1217.98 L2352.76 47.2441 L247.459 47.2441  Z
  " fill="#ffffff" fill-rule="evenodd" fill-opacity="1"/>
<defs>
  <clipPath id="clip712">
    <rect x="247" y="47" width="2106" height="1172"/>
  </clipPath>
</defs>
<polyline clip-path="url(#clip712)" style="stroke:#000000; stroke-linecap:round; stroke-linejoin:round; stroke-width:2; stroke-opacity:0.1; fill:none" points="
  307.043,1217.98 307.043,47.2441 
  "/>
<polyline clip-path="url(#clip712)" style="stroke:#000000; stroke-linecap:round; stroke-linejoin:round; stroke-width:2; stroke-opacity:0.1; fill:none" points="
  590.775,1217.98 590.775,47.2441 
  "/>
<polyline clip-path="url(#clip712)" style="stroke:#000000; stroke-linecap:round; stroke-linejoin:round; stroke-width:2; stroke-opacity:0.1; fill:none" points="
  874.508,1217.98 874.508,47.2441 
  "/>
<polyline clip-path="url(#clip712)" style="stroke:#000000; stroke-linecap:round; stroke-linejoin:round; stroke-width:2; stroke-opacity:0.1; fill:none" points="
  1158.24,1217.98 1158.24,47.2441 
  "/>
<polyline clip-path="url(#clip712)" style="stroke:#000000; stroke-linecap:round; stroke-linejoin:round; stroke-width:2; stroke-opacity:0.1; fill:none" points="
  1441.97,1217.98 1441.97,47.2441 
  "/>
<polyline clip-path="url(#clip712)" style="stroke:#000000; stroke-linecap:round; stroke-linejoin:round; stroke-width:2; stroke-opacity:0.1; fill:none" points="
  1725.71,1217.98 1725.71,47.2441 
  "/>
<polyline clip-path="url(#clip712)" style="stroke:#000000; stroke-linecap:round; stroke-linejoin:round; stroke-width:2; stroke-opacity:0.1; fill:none" points="
  2009.44,1217.98 2009.44,47.2441 
  "/>
<polyline clip-path="url(#clip712)" style="stroke:#000000; stroke-linecap:round; stroke-linejoin:round; stroke-width:2; stroke-opacity:0.1; fill:none" points="
  2293.17,1217.98 2293.17,47.2441 
  "/>
<polyline clip-path="url(#clip710)" style="stroke:#000000; stroke-linecap:round; stroke-linejoin:round; stroke-width:4; stroke-opacity:1; fill:none" points="
  247.459,1217.98 2352.76,1217.98 
  "/>
<polyline clip-path="url(#clip710)" style="stroke:#000000; stroke-linecap:round; stroke-linejoin:round; stroke-width:4; stroke-opacity:1; fill:none" points="
  307.043,1217.98 307.043,1199.08 
  "/>
<polyline clip-path="url(#clip710)" style="stroke:#000000; stroke-linecap:round; stroke-linejoin:round; stroke-width:4; stroke-opacity:1; fill:none" points="
  590.775,1217.98 590.775,1199.08 
  "/>
<polyline clip-path="url(#clip710)" style="stroke:#000000; stroke-linecap:round; stroke-linejoin:round; stroke-width:4; stroke-opacity:1; fill:none" points="
  874.508,1217.98 874.508,1199.08 
  "/>
<polyline clip-path="url(#clip710)" style="stroke:#000000; stroke-linecap:round; stroke-linejoin:round; stroke-width:4; stroke-opacity:1; fill:none" points="
  1158.24,1217.98 1158.24,1199.08 
  "/>
<polyline clip-path="url(#clip710)" style="stroke:#000000; stroke-linecap:round; stroke-linejoin:round; stroke-width:4; stroke-opacity:1; fill:none" points="
  1441.97,1217.98 1441.97,1199.08 
  "/>
<polyline clip-path="url(#clip710)" style="stroke:#000000; stroke-linecap:round; stroke-linejoin:round; stroke-width:4; stroke-opacity:1; fill:none" points="
  1725.71,1217.98 1725.71,1199.08 
  "/>
<polyline clip-path="url(#clip710)" style="stroke:#000000; stroke-linecap:round; stroke-linejoin:round; stroke-width:4; stroke-opacity:1; fill:none" points="
  2009.44,1217.98 2009.44,1199.08 
  "/>
<polyline clip-path="url(#clip710)" style="stroke:#000000; stroke-linecap:round; stroke-linejoin:round; stroke-width:4; stroke-opacity:1; fill:none" points="
  2293.17,1217.98 2293.17,1199.08 
  "/>
<path clip-path="url(#clip710)" d="M298.397 1342.92 L298.397 1338.66 L324.323 1338.66 L324.323 1342.92 L298.397 1342.92 M288.304 1342.92 L288.304 1338.66 L293.698 1338.66 L293.698 1342.92 L288.304 1342.92 Z" fill="#000000" fill-rule="evenodd" fill-opacity="1" /><path clip-path="url(#clip710)" d="M302.332 1312.69 L288.304 1312.69 L288.304 1308.43 L324.323 1308.43 L324.323 1312.69 L320.434 1312.69 Q322.749 1314.03 323.883 1316.09 Q324.994 1318.13 324.994 1321 Q324.994 1325.7 321.244 1328.66 Q317.494 1331.6 311.383 1331.6 Q305.272 1331.6 301.522 1328.66 Q297.772 1325.7 297.772 1321 Q297.772 1318.13 298.906 1316.09 Q300.017 1314.03 302.332 1312.69 M311.383 1327.2 Q316.082 1327.2 318.767 1325.28 Q321.429 1323.34 321.429 1319.96 Q321.429 1316.58 318.767 1314.63 Q316.082 1312.69 311.383 1312.69 Q306.684 1312.69 304.022 1314.63 Q301.337 1316.58 301.337 1319.96 Q301.337 1323.34 304.022 1325.28 Q306.684 1327.2 311.383 1327.2 Z" fill="#000000" fill-rule="evenodd" fill-opacity="1" /><path clip-path="url(#clip710)" d="M310.295 1277.48 L312.378 1277.48 L312.378 1297.06 Q316.776 1296.78 319.091 1294.42 Q321.383 1292.04 321.383 1287.8 Q321.383 1285.35 320.781 1283.06 Q320.179 1280.74 318.975 1278.47 L323.003 1278.47 Q323.975 1280.77 324.485 1283.17 Q324.994 1285.58 324.994 1288.06 Q324.994 1294.26 321.383 1297.9 Q317.772 1301.51 311.614 1301.51 Q305.249 1301.51 301.522 1298.08 Q297.772 1294.63 297.772 1288.8 Q297.772 1283.57 301.151 1280.54 Q304.508 1277.48 310.295 1277.48 M309.045 1281.74 Q305.55 1281.79 303.466 1283.71 Q301.383 1285.6 301.383 1288.75 Q301.383 1292.32 303.397 1294.47 Q305.411 1296.6 309.068 1296.92 L309.045 1281.74 Z" fill="#000000" fill-rule="evenodd" fill-opacity="1" /><path clip-path="url(#clip710)" d="M311.29 1258.71 Q311.29 1263.87 312.471 1265.86 Q313.651 1267.85 316.499 1267.85 Q318.767 1267.85 320.11 1266.37 Q321.429 1264.86 321.429 1262.29 Q321.429 1258.75 318.929 1256.62 Q316.406 1254.47 312.239 1254.47 L311.29 1254.47 L311.29 1258.71 M309.531 1250.21 L324.323 1250.21 L324.323 1254.47 L320.387 1254.47 Q322.749 1255.93 323.883 1258.1 Q324.994 1260.28 324.994 1263.43 Q324.994 1267.41 322.772 1269.77 Q320.526 1272.11 316.776 1272.11 Q312.401 1272.11 310.179 1269.19 Q307.957 1266.25 307.957 1260.44 L307.957 1254.47 L307.54 1254.47 Q304.6 1254.47 303.003 1256.41 Q301.383 1258.34 301.383 1261.83 Q301.383 1264.05 301.915 1266.16 Q302.448 1268.27 303.513 1270.21 L299.577 1270.21 Q298.675 1267.87 298.235 1265.67 Q297.772 1263.47 297.772 1261.39 Q297.772 1255.77 300.688 1252.99 Q303.605 1250.21 309.531 1250.21 Z" fill="#000000" fill-rule="evenodd" fill-opacity="1" /><path clip-path="url(#clip710)" d="M288.304 1241.44 L288.304 1237.18 L324.323 1237.18 L324.323 1241.44 L288.304 1241.44 Z" fill="#000000" fill-rule="evenodd" fill-opacity="1" /><path clip-path="url(#clip710)" d="M595.023 1560.21 Q595.023 1565.37 596.204 1567.36 Q597.384 1569.35 600.231 1569.35 Q602.5 1569.35 603.842 1567.87 Q605.162 1566.37 605.162 1563.8 Q605.162 1560.26 602.662 1558.13 Q600.139 1555.97 595.972 1555.97 L595.023 1555.97 L595.023 1560.21 M593.264 1551.71 L608.055 1551.71 L608.055 1555.97 L604.12 1555.97 Q606.481 1557.43 607.616 1559.61 Q608.727 1561.78 608.727 1564.93 Q608.727 1568.91 606.504 1571.27 Q604.259 1573.61 600.509 1573.61 Q596.134 1573.61 593.912 1570.7 Q591.69 1567.76 591.69 1561.95 L591.69 1555.97 L591.273 1555.97 Q588.333 1555.97 586.736 1557.92 Q585.116 1559.84 585.116 1563.33 Q585.116 1565.56 585.648 1567.66 Q586.18 1569.77 587.245 1571.71 L583.31 1571.71 Q582.407 1569.38 581.968 1567.18 Q581.505 1564.98 581.505 1562.89 Q581.505 1557.27 584.421 1554.49 Q587.338 1551.71 593.264 1551.71 Z" fill="#000000" fill-rule="evenodd" fill-opacity="1" /><path clip-path="url(#clip710)" d="M572.037 1542.94 L572.037 1538.68 L608.055 1538.68 L608.055 1542.94 L572.037 1542.94 Z" fill="#000000" fill-rule="evenodd" fill-opacity="1" /><path clip-path="url(#clip710)" d="M574.769 1525.56 L582.13 1525.56 L582.13 1516.78 L585.44 1516.78 L585.44 1525.56 L599.514 1525.56 Q602.685 1525.56 603.588 1524.7 Q604.491 1523.82 604.491 1521.16 L604.491 1516.78 L608.055 1516.78 L608.055 1521.16 Q608.055 1526.09 606.227 1527.96 Q604.375 1529.84 599.514 1529.84 L585.44 1529.84 L585.44 1532.96 L582.13 1532.96 L582.13 1529.84 L574.769 1529.84 L574.769 1525.56 Z" fill="#000000" fill-rule="evenodd" fill-opacity="1" /><path clip-path="url(#clip710)" d="M582.13 1511.18 L582.13 1506.92 L608.055 1506.92 L608.055 1511.18 L582.13 1511.18 M572.037 1511.18 L572.037 1506.92 L577.431 1506.92 L577.431 1511.18 L572.037 1511.18 Z" fill="#000000" fill-rule="evenodd" fill-opacity="1" /><path clip-path="url(#clip710)" d="M574.769 1493.8 L582.13 1493.8 L582.13 1485.02 L585.44 1485.02 L585.44 1493.8 L599.514 1493.8 Q602.685 1493.8 603.588 1492.94 Q604.491 1492.06 604.491 1489.4 L604.491 1485.02 L608.055 1485.02 L608.055 1489.4 Q608.055 1494.33 606.227 1496.21 Q604.375 1498.08 599.514 1498.08 L585.44 1498.08 L585.44 1501.21 L582.13 1501.21 L582.13 1498.08 L574.769 1498.08 L574.769 1493.8 Z" fill="#000000" fill-rule="evenodd" fill-opacity="1" /><path clip-path="url(#clip710)" d="M597.824 1479.86 L582.13 1479.86 L582.13 1475.6 L597.662 1475.6 Q601.342 1475.6 603.194 1474.17 Q605.023 1472.73 605.023 1469.86 Q605.023 1466.41 602.824 1464.42 Q600.625 1462.41 596.829 1462.41 L582.13 1462.41 L582.13 1458.15 L608.055 1458.15 L608.055 1462.41 L604.074 1462.41 Q606.435 1463.96 607.592 1466.02 Q608.727 1468.06 608.727 1470.77 Q608.727 1475.23 605.949 1477.55 Q603.171 1479.86 597.824 1479.86 M581.505 1469.15 L581.505 1469.15 Z" fill="#000000" fill-rule="evenodd" fill-opacity="1" /><path clip-path="url(#clip710)" d="M586.065 1432.32 L572.037 1432.32 L572.037 1428.06 L608.055 1428.06 L608.055 1432.32 L604.167 1432.32 Q606.481 1433.66 607.616 1435.72 Q608.727 1437.76 608.727 1440.63 Q608.727 1445.33 604.977 1448.29 Q601.227 1451.23 595.116 1451.23 Q589.005 1451.23 585.255 1448.29 Q581.505 1445.33 581.505 1440.63 Q581.505 1437.76 582.639 1435.72 Q583.75 1433.66 586.065 1432.32 M595.116 1446.83 Q599.815 1446.83 602.5 1444.91 Q605.162 1442.96 605.162 1439.59 Q605.162 1436.21 602.5 1434.26 Q599.815 1432.32 595.116 1432.32 Q590.417 1432.32 587.755 1434.26 Q585.069 1436.21 585.069 1439.59 Q585.069 1442.96 587.755 1444.91 Q590.417 1446.83 595.116 1446.83 Z" fill="#000000" fill-rule="evenodd" fill-opacity="1" /><path clip-path="url(#clip710)" d="M594.028 1397.11 L596.111 1397.11 L596.111 1416.69 Q600.509 1416.41 602.824 1414.05 Q605.116 1411.67 605.116 1407.43 Q605.116 1404.98 604.514 1402.69 Q603.912 1400.37 602.708 1398.1 L606.736 1398.1 Q607.708 1400.4 608.217 1402.8 Q608.727 1405.21 608.727 1407.69 Q608.727 1413.89 605.116 1417.53 Q601.504 1421.14 595.347 1421.14 Q588.981 1421.14 585.255 1417.71 Q581.505 1414.26 581.505 1408.43 Q581.505 1403.2 584.884 1400.16 Q588.241 1397.11 594.028 1397.11 M592.778 1401.37 Q589.282 1401.41 587.199 1403.34 Q585.116 1405.23 585.116 1408.38 Q585.116 1411.95 587.13 1414.1 Q589.143 1416.23 592.801 1416.55 L592.778 1401.37 Z" fill="#000000" fill-rule="evenodd" fill-opacity="1" /><path clip-path="url(#clip710)" d="M615.926 1370.42 L619.236 1370.42 L619.236 1395.05 L615.926 1395.05 L615.926 1370.42 Z" fill="#000000" fill-rule="evenodd" fill-opacity="1" /><path clip-path="url(#clip710)" d="M585.116 1356.37 Q585.116 1359.79 587.801 1361.78 Q590.463 1363.78 595.116 1363.78 Q599.768 1363.78 602.454 1361.81 Q605.116 1359.82 605.116 1356.37 Q605.116 1352.97 602.43 1350.97 Q599.745 1348.98 595.116 1348.98 Q590.509 1348.98 587.824 1350.97 Q585.116 1352.97 585.116 1356.37 M581.505 1356.37 Q581.505 1350.81 585.116 1347.64 Q588.727 1344.47 595.116 1344.47 Q601.481 1344.47 605.116 1347.64 Q608.727 1350.81 608.727 1356.37 Q608.727 1361.95 605.116 1365.12 Q601.481 1368.27 595.116 1368.27 Q588.727 1368.27 585.116 1365.12 Q581.505 1361.95 581.505 1356.37 Z" fill="#000000" fill-rule="evenodd" fill-opacity="1" /><path clip-path="url(#clip710)" d="M572.037 1324.28 L575.579 1324.28 L575.579 1328.36 Q575.579 1330.65 576.505 1331.55 Q577.431 1332.43 579.838 1332.43 L582.13 1332.43 L582.13 1325.42 L585.44 1325.42 L585.44 1332.43 L608.055 1332.43 L608.055 1336.72 L585.44 1336.72 L585.44 1340.79 L582.13 1340.79 L582.13 1336.72 L580.324 1336.72 Q575.995 1336.72 574.028 1334.7 Q572.037 1332.69 572.037 1328.31 L572.037 1324.28 Z" fill="#000000" fill-rule="evenodd" fill-opacity="1" /><path clip-path="url(#clip710)" d="M572.037 1307.6 L575.579 1307.6 L575.579 1311.67 Q575.579 1313.96 576.505 1314.86 Q577.431 1315.74 579.838 1315.74 L582.13 1315.74 L582.13 1308.73 L585.44 1308.73 L585.44 1315.74 L608.055 1315.74 L608.055 1320.03 L585.44 1320.03 L585.44 1324.1 L582.13 1324.1 L582.13 1320.03 L580.324 1320.03 Q575.995 1320.03 574.028 1318.01 Q572.037 1316 572.037 1311.62 L572.037 1307.6 Z" fill="#000000" fill-rule="evenodd" fill-opacity="1" /><path clip-path="url(#clip710)" d="M582.893 1287.5 L586.921 1287.5 Q585.995 1289.31 585.532 1291.25 Q585.069 1293.2 585.069 1295.28 Q585.069 1298.45 586.042 1300.05 Q587.014 1301.62 588.958 1301.62 Q590.44 1301.62 591.296 1300.49 Q592.13 1299.35 592.893 1295.93 L593.217 1294.47 Q594.19 1289.93 595.972 1288.04 Q597.731 1286.11 600.903 1286.11 Q604.514 1286.11 606.62 1288.98 Q608.727 1291.83 608.727 1296.83 Q608.727 1298.91 608.31 1301.18 Q607.916 1303.43 607.106 1305.93 L602.708 1305.93 Q603.935 1303.57 604.56 1301.28 Q605.162 1298.98 605.162 1296.74 Q605.162 1293.73 604.143 1292.11 Q603.102 1290.49 601.227 1290.49 Q599.491 1290.49 598.565 1291.67 Q597.639 1292.83 596.782 1296.78 L596.435 1298.27 Q595.602 1302.22 593.889 1303.98 Q592.153 1305.74 589.143 1305.74 Q585.486 1305.74 583.495 1303.15 Q581.505 1300.56 581.505 1295.79 Q581.505 1293.43 581.852 1291.35 Q582.199 1289.26 582.893 1287.5 Z" fill="#000000" fill-rule="evenodd" fill-opacity="1" /><path clip-path="url(#clip710)" d="M594.028 1257.16 L596.111 1257.16 L596.111 1276.74 Q600.509 1276.46 602.824 1274.1 Q605.116 1271.72 605.116 1267.48 Q605.116 1265.03 604.514 1262.73 Q603.912 1260.42 602.708 1258.15 L606.736 1258.15 Q607.708 1260.44 608.217 1262.85 Q608.727 1265.26 608.727 1267.73 Q608.727 1273.94 605.116 1277.57 Q601.504 1281.18 595.347 1281.18 Q588.981 1281.18 585.255 1277.76 Q581.505 1274.31 581.505 1268.47 Q581.505 1263.24 584.884 1260.21 Q588.241 1257.16 594.028 1257.16 M592.778 1261.41 Q589.282 1261.46 587.199 1263.38 Q585.116 1265.28 585.116 1268.43 Q585.116 1271.99 587.13 1274.15 Q589.143 1276.28 592.801 1276.6 L592.778 1261.41 Z" fill="#000000" fill-rule="evenodd" fill-opacity="1" /><path clip-path="url(#clip710)" d="M574.769 1245.95 L582.13 1245.95 L582.13 1237.18 L585.44 1237.18 L585.44 1245.95 L599.514 1245.95 Q602.685 1245.95 603.588 1245.1 Q604.491 1244.22 604.491 1241.55 L604.491 1237.18 L608.055 1237.18 L608.055 1241.55 Q608.055 1246.48 606.227 1248.36 Q604.375 1250.23 599.514 1250.23 L585.44 1250.23 L585.44 1253.36 L582.13 1253.36 L582.13 1250.23 L574.769 1250.23 L574.769 1245.95 Z" fill="#000000" fill-rule="evenodd" fill-opacity="1" /><path clip-path="url(#clip710)" d="M878.524 1540.79 Q873.895 1540.79 871.348 1542.71 Q868.802 1544.61 868.802 1548.06 Q868.802 1551.48 871.348 1553.4 Q873.895 1555.3 878.524 1555.3 Q883.131 1555.3 885.677 1553.4 Q888.223 1551.48 888.223 1548.06 Q888.223 1544.61 885.677 1542.71 Q883.131 1540.79 878.524 1540.79 M888.571 1536.53 Q895.191 1536.53 898.408 1539.47 Q901.649 1542.41 901.649 1548.47 Q901.649 1550.72 901.302 1552.71 Q900.978 1554.7 900.283 1556.58 L896.14 1556.58 Q897.158 1554.7 897.645 1552.87 Q898.131 1551.04 898.131 1549.14 Q898.131 1544.95 895.932 1542.87 Q893.756 1540.79 889.334 1540.79 L887.228 1540.79 Q889.52 1542.11 890.654 1544.17 Q891.788 1546.23 891.788 1549.1 Q891.788 1553.87 888.154 1556.78 Q884.52 1559.7 878.524 1559.7 Q872.506 1559.7 868.872 1556.78 Q865.237 1553.87 865.237 1549.1 Q865.237 1546.23 866.372 1544.17 Q867.506 1542.11 869.798 1540.79 L865.862 1540.79 L865.862 1536.53 L888.571 1536.53 Z" fill="#000000" fill-rule="evenodd" fill-opacity="1" /><path clip-path="url(#clip710)" d="M869.844 1512.73 Q869.427 1513.45 869.242 1514.31 Q869.034 1515.14 869.034 1516.16 Q869.034 1519.77 871.395 1521.71 Q873.733 1523.64 878.131 1523.64 L891.788 1523.64 L891.788 1527.92 L865.862 1527.92 L865.862 1523.64 L869.89 1523.64 Q867.529 1522.29 866.395 1520.14 Q865.237 1517.99 865.237 1514.91 Q865.237 1514.47 865.307 1513.94 Q865.353 1513.4 865.469 1512.76 L869.844 1512.73 Z" fill="#000000" fill-rule="evenodd" fill-opacity="1" /><path clip-path="url(#clip710)" d="M868.848 1499.26 Q868.848 1502.69 871.534 1504.68 Q874.196 1506.67 878.848 1506.67 Q883.501 1506.67 886.186 1504.7 Q888.848 1502.71 888.848 1499.26 Q888.848 1495.86 886.163 1493.87 Q883.478 1491.88 878.848 1491.88 Q874.242 1491.88 871.557 1493.87 Q868.848 1495.86 868.848 1499.26 M865.237 1499.26 Q865.237 1493.71 868.848 1490.53 Q872.46 1487.36 878.848 1487.36 Q885.214 1487.36 888.848 1490.53 Q892.459 1493.71 892.459 1499.26 Q892.459 1504.84 888.848 1508.01 Q885.214 1511.16 878.848 1511.16 Q872.46 1511.16 868.848 1508.01 Q865.237 1504.84 865.237 1499.26 Z" fill="#000000" fill-rule="evenodd" fill-opacity="1" /><path clip-path="url(#clip710)" d="M881.557 1480.74 L865.862 1480.74 L865.862 1476.48 L881.395 1476.48 Q885.075 1476.48 886.927 1475.05 Q888.756 1473.61 888.756 1470.74 Q888.756 1467.29 886.557 1465.3 Q884.358 1463.29 880.561 1463.29 L865.862 1463.29 L865.862 1459.03 L891.788 1459.03 L891.788 1463.29 L887.807 1463.29 Q890.168 1464.84 891.325 1466.9 Q892.459 1468.94 892.459 1471.65 Q892.459 1476.11 889.682 1478.43 Q886.904 1480.74 881.557 1480.74 M865.237 1470.02 L865.237 1470.02 Z" fill="#000000" fill-rule="evenodd" fill-opacity="1" /><path clip-path="url(#clip710)" d="M876.14 1428.71 L891.788 1428.71 L891.788 1432.96 L876.279 1432.96 Q872.598 1432.96 870.77 1434.4 Q868.941 1435.84 868.941 1438.71 Q868.941 1442.15 871.14 1444.15 Q873.339 1446.14 877.135 1446.14 L891.788 1446.14 L891.788 1450.42 L865.862 1450.42 L865.862 1446.14 L869.89 1446.14 Q867.552 1444.61 866.395 1442.55 Q865.237 1440.46 865.237 1437.76 Q865.237 1433.29 868.015 1431 Q870.77 1428.71 876.14 1428.71 Z" fill="#000000" fill-rule="evenodd" fill-opacity="1" /><path clip-path="url(#clip710)" d="M869.798 1403.15 L855.77 1403.15 L855.77 1398.89 L891.788 1398.89 L891.788 1403.15 L887.899 1403.15 Q890.214 1404.49 891.348 1406.55 Q892.459 1408.59 892.459 1411.46 Q892.459 1416.16 888.709 1419.12 Q884.959 1422.06 878.848 1422.06 Q872.737 1422.06 868.987 1419.12 Q865.237 1416.16 865.237 1411.46 Q865.237 1408.59 866.372 1406.55 Q867.483 1404.49 869.798 1403.15 M878.848 1417.66 Q883.547 1417.66 886.233 1415.74 Q888.895 1413.8 888.895 1410.42 Q888.895 1407.04 886.233 1405.09 Q883.547 1403.15 878.848 1403.15 Q874.149 1403.15 871.487 1405.09 Q868.802 1407.04 868.802 1410.42 Q868.802 1413.8 871.487 1415.74 Q874.149 1417.66 878.848 1417.66 Z" fill="#000000" fill-rule="evenodd" fill-opacity="1" /><path clip-path="url(#clip710)" d="M899.658 1370.42 L902.969 1370.42 L902.969 1395.05 L899.658 1395.05 L899.658 1370.42 Z" fill="#000000" fill-rule="evenodd" fill-opacity="1" /><path clip-path="url(#clip710)" d="M868.848 1356.37 Q868.848 1359.79 871.534 1361.78 Q874.196 1363.78 878.848 1363.78 Q883.501 1363.78 886.186 1361.81 Q888.848 1359.82 888.848 1356.37 Q888.848 1352.97 886.163 1350.97 Q883.478 1348.98 878.848 1348.98 Q874.242 1348.98 871.557 1350.97 Q868.848 1352.97 868.848 1356.37 M865.237 1356.37 Q865.237 1350.81 868.848 1347.64 Q872.46 1344.47 878.848 1344.47 Q885.214 1344.47 888.848 1347.64 Q892.459 1350.81 892.459 1356.37 Q892.459 1361.95 888.848 1365.12 Q885.214 1368.27 878.848 1368.27 Q872.46 1368.27 868.848 1365.12 Q865.237 1361.95 865.237 1356.37 Z" fill="#000000" fill-rule="evenodd" fill-opacity="1" /><path clip-path="url(#clip710)" d="M855.77 1324.28 L859.311 1324.28 L859.311 1328.36 Q859.311 1330.65 860.237 1331.55 Q861.163 1332.43 863.571 1332.43 L865.862 1332.43 L865.862 1325.42 L869.173 1325.42 L869.173 1332.43 L891.788 1332.43 L891.788 1336.72 L869.173 1336.72 L869.173 1340.79 L865.862 1340.79 L865.862 1336.72 L864.057 1336.72 Q859.728 1336.72 857.761 1334.7 Q855.77 1332.69 855.77 1328.31 L855.77 1324.28 Z" fill="#000000" fill-rule="evenodd" fill-opacity="1" /><path clip-path="url(#clip710)" d="M855.77 1307.6 L859.311 1307.6 L859.311 1311.67 Q859.311 1313.96 860.237 1314.86 Q861.163 1315.74 863.571 1315.74 L865.862 1315.74 L865.862 1308.73 L869.173 1308.73 L869.173 1315.74 L891.788 1315.74 L891.788 1320.03 L869.173 1320.03 L869.173 1324.1 L865.862 1324.1 L865.862 1320.03 L864.057 1320.03 Q859.728 1320.03 857.761 1318.01 Q855.77 1316 855.77 1311.62 L855.77 1307.6 Z" fill="#000000" fill-rule="evenodd" fill-opacity="1" /><path clip-path="url(#clip710)" d="M866.626 1287.5 L870.654 1287.5 Q869.728 1289.31 869.265 1291.25 Q868.802 1293.2 868.802 1295.28 Q868.802 1298.45 869.774 1300.05 Q870.747 1301.62 872.691 1301.62 Q874.172 1301.62 875.029 1300.49 Q875.862 1299.35 876.626 1295.93 L876.95 1294.47 Q877.922 1289.93 879.705 1288.04 Q881.464 1286.11 884.635 1286.11 Q888.246 1286.11 890.353 1288.98 Q892.459 1291.83 892.459 1296.83 Q892.459 1298.91 892.043 1301.18 Q891.649 1303.43 890.839 1305.93 L886.441 1305.93 Q887.668 1303.57 888.293 1301.28 Q888.895 1298.98 888.895 1296.74 Q888.895 1293.73 887.876 1292.11 Q886.834 1290.49 884.959 1290.49 Q883.223 1290.49 882.297 1291.67 Q881.372 1292.83 880.515 1296.78 L880.168 1298.27 Q879.335 1302.22 877.622 1303.98 Q875.885 1305.74 872.876 1305.74 Q869.219 1305.74 867.228 1303.15 Q865.237 1300.56 865.237 1295.79 Q865.237 1293.43 865.585 1291.35 Q865.932 1289.26 866.626 1287.5 Z" fill="#000000" fill-rule="evenodd" fill-opacity="1" /><path clip-path="url(#clip710)" d="M877.76 1257.16 L879.844 1257.16 L879.844 1276.74 Q884.242 1276.46 886.557 1274.1 Q888.848 1271.72 888.848 1267.48 Q888.848 1265.03 888.246 1262.73 Q887.645 1260.42 886.441 1258.15 L890.469 1258.15 Q891.441 1260.44 891.95 1262.85 Q892.459 1265.26 892.459 1267.73 Q892.459 1273.94 888.848 1277.57 Q885.237 1281.18 879.08 1281.18 Q872.714 1281.18 868.987 1277.76 Q865.237 1274.31 865.237 1268.47 Q865.237 1263.24 868.617 1260.21 Q871.973 1257.16 877.76 1257.16 M876.51 1261.41 Q873.015 1261.46 870.932 1263.38 Q868.848 1265.28 868.848 1268.43 Q868.848 1271.99 870.862 1274.15 Q872.876 1276.28 876.534 1276.6 L876.51 1261.41 Z" fill="#000000" fill-rule="evenodd" fill-opacity="1" /><path clip-path="url(#clip710)" d="M858.501 1245.95 L865.862 1245.95 L865.862 1237.18 L869.173 1237.18 L869.173 1245.95 L883.247 1245.95 Q886.418 1245.95 887.321 1245.1 Q888.223 1244.22 888.223 1241.55 L888.223 1237.18 L891.788 1237.18 L891.788 1241.55 Q891.788 1246.48 889.959 1248.36 Q888.108 1250.23 883.247 1250.23 L869.173 1250.23 L869.173 1253.36 L865.862 1253.36 L865.862 1250.23 L858.501 1250.23 L858.501 1245.95 Z" fill="#000000" fill-rule="evenodd" fill-opacity="1" /><path clip-path="url(#clip710)" d="M1139.5 1312.09 L1143.04 1312.09 L1143.04 1316.16 Q1143.04 1318.45 1143.97 1319.35 Q1144.9 1320.23 1147.3 1320.23 L1149.6 1320.23 L1149.6 1313.22 L1152.91 1313.22 L1152.91 1320.23 L1175.52 1320.23 L1175.52 1324.52 L1152.91 1324.52 L1152.91 1328.59 L1149.6 1328.59 L1149.6 1324.52 L1147.79 1324.52 Q1143.46 1324.52 1141.49 1322.5 Q1139.5 1320.49 1139.5 1316.11 L1139.5 1312.09 Z" fill="#000000" fill-rule="evenodd" fill-opacity="1" /><path clip-path="url(#clip710)" d="M1152.58 1298.47 Q1152.58 1301.9 1155.27 1303.89 Q1157.93 1305.88 1162.58 1305.88 Q1167.23 1305.88 1169.92 1303.91 Q1172.58 1301.92 1172.58 1298.47 Q1172.58 1295.07 1169.9 1293.08 Q1167.21 1291.09 1162.58 1291.09 Q1157.97 1291.09 1155.29 1293.08 Q1152.58 1295.07 1152.58 1298.47 M1148.97 1298.47 Q1148.97 1292.92 1152.58 1289.75 Q1156.19 1286.58 1162.58 1286.58 Q1168.95 1286.58 1172.58 1289.75 Q1176.19 1292.92 1176.19 1298.47 Q1176.19 1304.05 1172.58 1307.22 Q1168.95 1310.37 1162.58 1310.37 Q1156.19 1310.37 1152.58 1307.22 Q1148.97 1304.05 1148.97 1298.47 Z" fill="#000000" fill-rule="evenodd" fill-opacity="1" /><path clip-path="url(#clip710)" d="M1153.58 1264.49 Q1153.16 1265.21 1152.97 1266.07 Q1152.77 1266.9 1152.77 1267.92 Q1152.77 1271.53 1155.13 1273.47 Q1157.47 1275.4 1161.86 1275.4 L1175.52 1275.4 L1175.52 1279.68 L1149.6 1279.68 L1149.6 1275.4 L1153.62 1275.4 Q1151.26 1274.05 1150.13 1271.9 Q1148.97 1269.75 1148.97 1266.67 Q1148.97 1266.23 1149.04 1265.7 Q1149.09 1265.16 1149.2 1264.52 L1153.58 1264.49 Z" fill="#000000" fill-rule="evenodd" fill-opacity="1" /><path clip-path="url(#clip710)" d="M1139.5 1260.19 L1139.5 1255.91 L1160.78 1255.91 L1149.6 1243.2 L1149.6 1237.76 L1161.72 1251.51 L1175.52 1237.18 L1175.52 1242.73 L1162.86 1255.91 L1175.52 1255.91 L1175.52 1260.19 L1139.5 1260.19 Z" fill="#000000" fill-rule="evenodd" fill-opacity="1" /><path clip-path="url(#clip710)" d="M1433.33 1481.14 L1433.33 1460.9 L1437.22 1460.9 L1455.85 1476.92 L1455.85 1460.9 L1459.25 1460.9 L1459.25 1481.71 L1455.36 1481.71 L1436.73 1465.7 L1436.73 1481.14 L1433.33 1481.14 Z" fill="#000000" fill-rule="evenodd" fill-opacity="1" /><path clip-path="url(#clip710)" d="M1459.25 1445.3 L1424.69 1458.5 L1424.69 1453.61 L1453.79 1442.66 L1424.69 1431.69 L1424.69 1426.83 L1459.25 1440 L1459.25 1445.3 Z" fill="#000000" fill-rule="evenodd" fill-opacity="1" /><path clip-path="url(#clip710)" d="M1429.3 1413.27 L1446.5 1419.61 L1446.5 1406.9 L1429.3 1413.27 M1424.69 1415.9 L1424.69 1410.6 L1459.25 1397.43 L1459.25 1402.29 L1450.39 1405.44 L1450.39 1421.02 L1459.25 1424.17 L1459.25 1429.1 L1424.69 1415.9 Z" fill="#000000" fill-rule="evenodd" fill-opacity="1" /><path clip-path="url(#clip710)" d="M1424.69 1394.05 L1424.69 1389.03 L1437.54 1380.44 L1424.69 1371.81 L1424.69 1366.78 L1441.29 1377.9 L1459.25 1366.04 L1459.25 1371.07 L1444.55 1380.79 L1459.25 1390.58 L1459.25 1395.63 L1440.8 1383.29 L1424.69 1394.05 Z" fill="#000000" fill-rule="evenodd" fill-opacity="1" /><path clip-path="url(#clip710)" d="M1440.67 1353.03 Q1442.54 1355.14 1444.42 1356.14 Q1446.27 1357.11 1448.3 1357.11 Q1451.68 1357.11 1453.93 1354.66 Q1456.18 1352.2 1456.18 1348.5 Q1456.18 1346.3 1455.46 1344.38 Q1454.72 1342.46 1453.24 1340.77 L1440.67 1353.03 M1438.07 1349.77 L1450.11 1338.01 Q1448.05 1336.65 1445.71 1335.88 Q1443.35 1335.12 1440.71 1334.98 L1440.71 1330.67 Q1443.77 1330.95 1446.75 1332.16 Q1449.74 1333.36 1452.66 1335.51 L1459.25 1329.05 L1459.25 1334.89 L1455.85 1338.2 Q1457.91 1340.6 1458.93 1343.24 Q1459.92 1345.88 1459.92 1348.91 Q1459.92 1354.49 1456.75 1358.03 Q1453.56 1361.58 1448.58 1361.58 Q1445.62 1361.58 1443.03 1360.03 Q1440.41 1358.47 1438.12 1355.37 Q1436.66 1356.48 1435.23 1357.06 Q1433.77 1357.64 1432.38 1357.64 Q1428.63 1357.64 1426.36 1355.07 Q1424.07 1352.5 1424.07 1348.24 Q1424.07 1346.32 1424.49 1344.42 Q1424.9 1342.5 1425.74 1340.53 L1429.95 1340.53 Q1428.86 1342.55 1428.3 1344.38 Q1427.73 1346.21 1427.73 1347.78 Q1427.73 1350.21 1429.02 1351.74 Q1430.3 1353.24 1432.33 1353.24 Q1433.51 1353.24 1434.72 1352.57 Q1435.9 1351.88 1438.07 1349.77 Z" fill="#000000" fill-rule="evenodd" fill-opacity="1" /><path clip-path="url(#clip710)" d="M1459.92 1314.86 Q1459.92 1324.47 1446.18 1324.47 Q1440.74 1324.47 1433.33 1320.88 L1433.33 1316.3 Q1440.74 1319.61 1446.29 1319.61 Q1456.31 1319.61 1456.31 1314.47 Q1456.31 1309.77 1443.86 1309.77 L1443.86 1305.84 Q1456.31 1305.84 1456.31 1301.14 Q1456.31 1296 1446.29 1296 Q1440.74 1296 1433.33 1299.31 L1433.33 1294.72 Q1440.74 1291.14 1446.18 1291.14 Q1459.92 1291.14 1459.92 1300.74 Q1459.92 1307.04 1453 1307.8 Q1459.92 1308.75 1459.92 1314.86 Z" fill="#000000" fill-rule="evenodd" fill-opacity="1" /><path clip-path="url(#clip710)" d="M1467.12 1263.73 L1470.43 1263.73 L1470.43 1288.36 L1467.12 1288.36 L1467.12 1263.73 Z" fill="#000000" fill-rule="evenodd" fill-opacity="1" /><path clip-path="url(#clip710)" d="M1427.77 1249.12 Q1427.77 1252.73 1431.34 1254.56 Q1434.88 1256.37 1442.01 1256.37 Q1449.11 1256.37 1452.68 1254.56 Q1456.22 1252.73 1456.22 1249.12 Q1456.22 1245.49 1452.68 1243.68 Q1449.11 1241.85 1442.01 1241.85 Q1434.88 1241.85 1431.34 1243.68 Q1427.77 1245.49 1427.77 1249.12 M1424.07 1249.12 Q1424.07 1243.31 1428.68 1240.26 Q1433.26 1237.18 1442.01 1237.18 Q1450.74 1237.18 1455.34 1240.26 Q1459.92 1243.31 1459.92 1249.12 Q1459.92 1254.93 1455.34 1258.01 Q1450.74 1261.07 1442.01 1261.07 Q1433.26 1261.07 1428.68 1258.01 Q1424.07 1254.93 1424.07 1249.12 Z" fill="#000000" fill-rule="evenodd" fill-opacity="1" /><path clip-path="url(#clip710)" d="M1717.06 1511.3 L1717.06 1491.07 L1720.95 1491.07 L1739.58 1507.08 L1739.58 1491.07 L1742.99 1491.07 L1742.99 1511.88 L1739.1 1511.88 L1720.46 1495.86 L1720.46 1511.3 L1717.06 1511.3 Z" fill="#000000" fill-rule="evenodd" fill-opacity="1" /><path clip-path="url(#clip710)" d="M1742.99 1475.46 L1708.43 1488.66 L1708.43 1483.77 L1737.52 1472.83 L1708.43 1461.85 L1708.43 1456.99 L1742.99 1470.16 L1742.99 1475.46 Z" fill="#000000" fill-rule="evenodd" fill-opacity="1" /><path clip-path="url(#clip710)" d="M1713.03 1443.43 L1730.23 1449.77 L1730.23 1437.06 L1713.03 1443.43 M1708.43 1446.07 L1708.43 1440.77 L1742.99 1427.59 L1742.99 1432.46 L1734.12 1435.6 L1734.12 1451.18 L1742.99 1454.33 L1742.99 1459.26 L1708.43 1446.07 Z" fill="#000000" fill-rule="evenodd" fill-opacity="1" /><path clip-path="url(#clip710)" d="M1708.43 1424.21 L1708.43 1419.19 L1721.27 1410.6 L1708.43 1401.97 L1708.43 1396.95 L1725.02 1408.06 L1742.99 1396.21 L1742.99 1401.23 L1728.29 1410.95 L1742.99 1420.74 L1742.99 1425.79 L1724.54 1413.45 L1708.43 1424.21 Z" fill="#000000" fill-rule="evenodd" fill-opacity="1" /><path clip-path="url(#clip710)" d="M1724.4 1383.2 Q1726.27 1385.3 1728.15 1386.3 Q1730 1387.27 1732.04 1387.27 Q1735.42 1387.27 1737.66 1384.82 Q1739.91 1382.36 1739.91 1378.66 Q1739.91 1376.46 1739.19 1374.54 Q1738.45 1372.62 1736.97 1370.93 L1724.4 1383.2 M1721.81 1379.93 L1733.84 1368.17 Q1731.78 1366.81 1729.44 1366.04 Q1727.08 1365.28 1724.44 1365.14 L1724.44 1360.84 Q1727.5 1361.11 1730.49 1362.32 Q1733.47 1363.52 1736.39 1365.67 L1742.99 1359.22 L1742.99 1365.05 L1739.58 1368.36 Q1741.64 1370.77 1742.66 1373.4 Q1743.66 1376.04 1743.66 1379.08 Q1743.66 1384.65 1740.49 1388.2 Q1737.29 1391.74 1732.32 1391.74 Q1729.35 1391.74 1726.76 1390.19 Q1724.14 1388.64 1721.85 1385.53 Q1720.39 1386.65 1718.96 1387.22 Q1717.5 1387.8 1716.11 1387.8 Q1712.36 1387.8 1710.09 1385.23 Q1707.8 1382.66 1707.8 1378.4 Q1707.8 1376.48 1708.22 1374.59 Q1708.63 1372.66 1709.47 1370.7 L1713.68 1370.7 Q1712.59 1372.71 1712.04 1374.54 Q1711.46 1376.37 1711.46 1377.94 Q1711.46 1380.37 1712.76 1381.9 Q1714.03 1383.4 1716.07 1383.4 Q1717.25 1383.4 1718.45 1382.73 Q1719.63 1382.04 1721.81 1379.93 Z" fill="#000000" fill-rule="evenodd" fill-opacity="1" /><path clip-path="url(#clip710)" d="M1743.66 1345.03 Q1743.66 1354.63 1729.91 1354.63 Q1724.47 1354.63 1717.06 1351.04 L1717.06 1346.46 Q1724.47 1349.77 1730.02 1349.77 Q1740.05 1349.77 1740.05 1344.63 Q1740.05 1339.93 1727.59 1339.93 L1727.59 1336 Q1740.05 1336 1740.05 1331.3 Q1740.05 1326.16 1730.02 1326.16 Q1724.47 1326.16 1717.06 1329.47 L1717.06 1324.89 Q1724.47 1321.3 1729.91 1321.3 Q1743.66 1321.3 1743.66 1330.91 Q1743.66 1337.2 1736.74 1337.97 Q1743.66 1338.91 1743.66 1345.03 Z" fill="#000000" fill-rule="evenodd" fill-opacity="1" /><path clip-path="url(#clip710)" d="M1750.86 1293.89 L1754.17 1293.89 L1754.17 1318.52 L1750.86 1318.52 L1750.86 1293.89 Z" fill="#000000" fill-rule="evenodd" fill-opacity="1" /><path clip-path="url(#clip710)" d="M1742.27 1289.15 L1738.01 1289.15 Q1738.84 1287.39 1739.28 1285.58 Q1739.72 1283.78 1739.72 1282.04 Q1739.72 1277.41 1736.62 1274.98 Q1733.5 1272.53 1727.15 1272.18 Q1729.14 1273.52 1730.21 1275.58 Q1731.27 1277.64 1731.27 1280.14 Q1731.27 1285.33 1728.15 1288.36 Q1725 1291.37 1719.56 1291.37 Q1714.24 1291.37 1711.02 1288.22 Q1707.8 1285.07 1707.8 1279.84 Q1707.8 1273.85 1712.41 1270.7 Q1716.99 1267.53 1725.74 1267.53 Q1733.91 1267.53 1738.8 1271.41 Q1743.66 1275.28 1743.66 1281.83 Q1743.66 1283.59 1743.31 1285.4 Q1742.96 1287.2 1742.27 1289.15 M1727.62 1279.84 Q1727.62 1276.69 1725.46 1274.86 Q1723.31 1273.01 1719.56 1273.01 Q1715.83 1273.01 1713.68 1274.86 Q1711.51 1276.69 1711.51 1279.84 Q1711.51 1282.99 1713.68 1284.84 Q1715.83 1286.67 1719.56 1286.67 Q1723.31 1286.67 1725.46 1284.84 Q1727.62 1282.99 1727.62 1279.84 Z" fill="#000000" fill-rule="evenodd" fill-opacity="1" /><path clip-path="url(#clip710)" d="M1711.51 1249.12 Q1711.51 1252.73 1715.07 1254.56 Q1718.61 1256.37 1725.74 1256.37 Q1732.85 1256.37 1736.41 1254.56 Q1739.95 1252.73 1739.95 1249.12 Q1739.95 1245.49 1736.41 1243.68 Q1732.85 1241.85 1725.74 1241.85 Q1718.61 1241.85 1715.07 1243.68 Q1711.51 1245.49 1711.51 1249.12 M1707.8 1249.12 Q1707.8 1243.31 1712.41 1240.26 Q1716.99 1237.18 1725.74 1237.18 Q1734.47 1237.18 1739.07 1240.26 Q1743.66 1243.31 1743.66 1249.12 Q1743.66 1254.93 1739.07 1258.01 Q1734.47 1261.07 1725.74 1261.07 Q1716.99 1261.07 1712.41 1258.01 Q1707.8 1254.93 1707.8 1249.12 Z" fill="#000000" fill-rule="evenodd" fill-opacity="1" /><path clip-path="url(#clip710)" d="M2000.79 1541.46 L2000.79 1521.23 L2004.68 1521.23 L2023.32 1537.25 L2023.32 1521.23 L2026.72 1521.23 L2026.72 1542.04 L2022.83 1542.04 L2004.2 1526.02 L2004.2 1541.46 L2000.79 1541.46 Z" fill="#000000" fill-rule="evenodd" fill-opacity="1" /><path clip-path="url(#clip710)" d="M2026.72 1505.63 L1992.16 1518.82 L1992.16 1513.94 L2021.26 1502.99 L1992.16 1492.02 L1992.16 1487.15 L2026.72 1500.33 L2026.72 1505.63 Z" fill="#000000" fill-rule="evenodd" fill-opacity="1" /><path clip-path="url(#clip710)" d="M1996.77 1473.59 L2013.96 1479.93 L2013.96 1467.22 L1996.77 1473.59 M1992.16 1476.23 L1992.16 1470.93 L2026.72 1457.76 L2026.72 1462.62 L2017.85 1465.77 L2017.85 1481.34 L2026.72 1484.49 L2026.72 1489.42 L1992.16 1476.23 Z" fill="#000000" fill-rule="evenodd" fill-opacity="1" /><path clip-path="url(#clip710)" d="M1992.16 1454.38 L1992.16 1449.35 L2005.01 1440.77 L1992.16 1432.13 L1992.16 1427.11 L2008.76 1438.22 L2026.72 1426.37 L2026.72 1431.39 L2012.02 1441.11 L2026.72 1450.9 L2026.72 1455.95 L2008.27 1443.61 L1992.16 1454.38 Z" fill="#000000" fill-rule="evenodd" fill-opacity="1" /><path clip-path="url(#clip710)" d="M2008.13 1413.36 Q2010.01 1415.46 2011.88 1416.46 Q2013.73 1417.43 2015.77 1417.43 Q2019.15 1417.43 2021.4 1414.98 Q2023.64 1412.53 2023.64 1408.82 Q2023.64 1406.62 2022.92 1404.7 Q2022.18 1402.78 2020.7 1401.09 L2008.13 1413.36 M2005.54 1410.09 L2017.58 1398.34 Q2015.52 1396.97 2013.18 1396.21 Q2010.82 1395.44 2008.18 1395.3 L2008.18 1391 Q2011.23 1391.28 2014.22 1392.48 Q2017.21 1393.68 2020.12 1395.84 L2026.72 1389.38 L2026.72 1395.21 L2023.32 1398.52 Q2025.38 1400.93 2026.4 1403.57 Q2027.39 1406.21 2027.39 1409.24 Q2027.39 1414.82 2024.22 1418.36 Q2021.02 1421.9 2016.05 1421.9 Q2013.09 1421.9 2010.49 1420.35 Q2007.88 1418.8 2005.59 1415.7 Q2004.13 1416.81 2002.69 1417.39 Q2001.23 1417.96 1999.84 1417.96 Q1996.09 1417.96 1993.83 1415.4 Q1991.53 1412.83 1991.53 1408.57 Q1991.53 1406.65 1991.95 1404.75 Q1992.37 1402.83 1993.2 1400.86 L1997.41 1400.86 Q1996.33 1402.87 1995.77 1404.7 Q1995.19 1406.53 1995.19 1408.1 Q1995.19 1410.53 1996.49 1412.06 Q1997.76 1413.57 1999.8 1413.57 Q2000.98 1413.57 2002.18 1412.9 Q2003.36 1412.2 2005.54 1410.09 Z" fill="#000000" fill-rule="evenodd" fill-opacity="1" /><path clip-path="url(#clip710)" d="M2027.39 1375.19 Q2027.39 1384.79 2013.64 1384.79 Q2008.2 1384.79 2000.79 1381.21 L2000.79 1376.62 Q2008.2 1379.93 2013.76 1379.93 Q2023.78 1379.93 2023.78 1374.79 Q2023.78 1370.09 2011.33 1370.09 L2011.33 1366.16 Q2023.78 1366.16 2023.78 1361.46 Q2023.78 1356.32 2013.76 1356.32 Q2008.2 1356.32 2000.79 1359.63 L2000.79 1355.05 Q2008.2 1351.46 2013.64 1351.46 Q2027.39 1351.46 2027.39 1361.07 Q2027.39 1367.36 2020.47 1368.13 Q2027.39 1369.08 2027.39 1375.19 Z" fill="#000000" fill-rule="evenodd" fill-opacity="1" /><path clip-path="url(#clip710)" d="M2034.59 1324.05 L2037.9 1324.05 L2037.9 1348.68 L2034.59 1348.68 L2034.59 1324.05 Z" fill="#000000" fill-rule="evenodd" fill-opacity="1" /><path clip-path="url(#clip710)" d="M2022.78 1318.64 L2022.78 1311 L1996.42 1311 L1998.09 1319.31 L1993.83 1319.31 L1992.16 1311.04 L1992.16 1306.37 L2022.78 1306.37 L2022.78 1298.73 L2026.72 1298.73 L2026.72 1318.64 L2022.78 1318.64 Z" fill="#000000" fill-rule="evenodd" fill-opacity="1" /><path clip-path="url(#clip710)" d="M2010.31 1279.29 Q2010.31 1282.62 2012.09 1284.54 Q2013.87 1286.44 2017 1286.44 Q2020.12 1286.44 2021.9 1284.54 Q2023.69 1282.62 2023.69 1279.29 Q2023.69 1275.95 2021.9 1274.03 Q2020.1 1272.11 2017 1272.11 Q2013.87 1272.11 2012.09 1274.03 Q2010.31 1275.93 2010.31 1279.29 M2008.32 1283.96 Q2007.58 1286.97 2005.52 1288.66 Q2003.46 1290.33 2000.49 1290.33 Q1996.35 1290.33 1993.94 1287.39 Q1991.53 1284.42 1991.53 1279.29 Q1991.53 1274.12 1993.94 1271.18 Q1996.35 1268.24 2000.49 1268.24 Q2003.46 1268.24 2005.52 1269.93 Q2007.58 1271.6 2008.32 1274.59 Q2009.1 1271.21 2011.4 1269.33 Q2013.69 1267.43 2017 1267.43 Q2022.02 1267.43 2024.71 1270.51 Q2027.39 1273.57 2027.39 1279.29 Q2027.39 1285 2024.71 1288.08 Q2022.02 1291.14 2017 1291.14 Q2013.69 1291.14 2011.4 1289.24 Q2009.1 1287.34 2008.32 1283.96 M2000.93 1285.67 Q2003.62 1285.67 2005.12 1284.01 Q2006.63 1282.32 2006.63 1279.29 Q2006.63 1276.28 2005.12 1274.59 Q2003.62 1272.87 2000.93 1272.87 Q1998.25 1272.87 1996.74 1274.59 Q1995.24 1276.28 1995.24 1279.29 Q1995.24 1282.32 1996.74 1284.01 Q1998.25 1285.67 2000.93 1285.67 Z" fill="#000000" fill-rule="evenodd" fill-opacity="1" /><path clip-path="url(#clip710)" d="M1995.24 1249.12 Q1995.24 1252.73 1998.8 1254.56 Q2002.34 1256.37 2009.47 1256.37 Q2016.58 1256.37 2020.15 1254.56 Q2023.69 1252.73 2023.69 1249.12 Q2023.69 1245.49 2020.15 1243.68 Q2016.58 1241.85 2009.47 1241.85 Q2002.34 1241.85 1998.8 1243.68 Q1995.24 1245.49 1995.24 1249.12 M1991.53 1249.12 Q1991.53 1243.31 1996.14 1240.26 Q2000.72 1237.18 2009.47 1237.18 Q2018.2 1237.18 2022.81 1240.26 Q2027.39 1243.31 2027.39 1249.12 Q2027.39 1254.93 2022.81 1258.01 Q2018.2 1261.07 2009.47 1261.07 Q2000.72 1261.07 1996.14 1258.01 Q1991.53 1254.93 1991.53 1249.12 Z" fill="#000000" fill-rule="evenodd" fill-opacity="1" /><path clip-path="url(#clip710)" d="M2284.53 1541.46 L2284.53 1521.23 L2288.42 1521.23 L2307.05 1537.25 L2307.05 1521.23 L2310.45 1521.23 L2310.45 1542.04 L2306.56 1542.04 L2287.93 1526.02 L2287.93 1541.46 L2284.53 1541.46 Z" fill="#000000" fill-rule="evenodd" fill-opacity="1" /><path clip-path="url(#clip710)" d="M2310.45 1505.63 L2275.89 1518.82 L2275.89 1513.94 L2304.99 1502.99 L2275.89 1492.02 L2275.89 1487.15 L2310.45 1500.33 L2310.45 1505.63 Z" fill="#000000" fill-rule="evenodd" fill-opacity="1" /><path clip-path="url(#clip710)" d="M2280.5 1473.59 L2297.7 1479.93 L2297.7 1467.22 L2280.5 1473.59 M2275.89 1476.23 L2275.89 1470.93 L2310.45 1457.76 L2310.45 1462.62 L2301.59 1465.77 L2301.59 1481.34 L2310.45 1484.49 L2310.45 1489.42 L2275.89 1476.23 Z" fill="#000000" fill-rule="evenodd" fill-opacity="1" /><path clip-path="url(#clip710)" d="M2275.89 1454.38 L2275.89 1449.35 L2288.74 1440.77 L2275.89 1432.13 L2275.89 1427.11 L2292.49 1438.22 L2310.45 1426.37 L2310.45 1431.39 L2295.75 1441.11 L2310.45 1450.9 L2310.45 1455.95 L2292 1443.61 L2275.89 1454.38 Z" fill="#000000" fill-rule="evenodd" fill-opacity="1" /><path clip-path="url(#clip710)" d="M2291.86 1413.36 Q2293.74 1415.46 2295.61 1416.46 Q2297.47 1417.43 2299.5 1417.43 Q2302.88 1417.43 2305.13 1414.98 Q2307.37 1412.53 2307.37 1408.82 Q2307.37 1406.62 2306.66 1404.7 Q2305.92 1402.78 2304.43 1401.09 L2291.86 1413.36 M2289.27 1410.09 L2301.31 1398.34 Q2299.25 1396.97 2296.91 1396.21 Q2294.55 1395.44 2291.91 1395.3 L2291.91 1391 Q2294.97 1391.28 2297.95 1392.48 Q2300.94 1393.68 2303.85 1395.84 L2310.45 1389.38 L2310.45 1395.21 L2307.05 1398.52 Q2309.11 1400.93 2310.13 1403.57 Q2311.12 1406.21 2311.12 1409.24 Q2311.12 1414.82 2307.95 1418.36 Q2304.76 1421.9 2299.78 1421.9 Q2296.82 1421.9 2294.23 1420.35 Q2291.61 1418.8 2289.32 1415.7 Q2287.86 1416.81 2286.42 1417.39 Q2284.97 1417.96 2283.58 1417.96 Q2279.83 1417.96 2277.56 1415.4 Q2275.27 1412.83 2275.27 1408.57 Q2275.27 1406.65 2275.68 1404.75 Q2276.1 1402.83 2276.93 1400.86 L2281.15 1400.86 Q2280.06 1402.87 2279.5 1404.7 Q2278.92 1406.53 2278.92 1408.1 Q2278.92 1410.53 2280.22 1412.06 Q2281.49 1413.57 2283.53 1413.57 Q2284.71 1413.57 2285.92 1412.9 Q2287.1 1412.2 2289.27 1410.09 Z" fill="#000000" fill-rule="evenodd" fill-opacity="1" /><path clip-path="url(#clip710)" d="M2311.12 1375.19 Q2311.12 1384.79 2297.37 1384.79 Q2291.93 1384.79 2284.53 1381.21 L2284.53 1376.62 Q2291.93 1379.93 2297.49 1379.93 Q2307.51 1379.93 2307.51 1374.79 Q2307.51 1370.09 2295.06 1370.09 L2295.06 1366.16 Q2307.51 1366.16 2307.51 1361.46 Q2307.51 1356.32 2297.49 1356.32 Q2291.93 1356.32 2284.53 1359.63 L2284.53 1355.05 Q2291.93 1351.46 2297.37 1351.46 Q2311.12 1351.46 2311.12 1361.07 Q2311.12 1367.36 2304.2 1368.13 Q2311.12 1369.08 2311.12 1375.19 Z" fill="#000000" fill-rule="evenodd" fill-opacity="1" /><path clip-path="url(#clip710)" d="M2318.32 1324.05 L2321.63 1324.05 L2321.63 1348.68 L2318.32 1348.68 L2318.32 1324.05 Z" fill="#000000" fill-rule="evenodd" fill-opacity="1" /><path clip-path="url(#clip710)" d="M2306.52 1315.42 L2306.52 1299.1 L2310.45 1299.1 L2310.45 1321.04 L2306.52 1321.04 Q2303.76 1318.38 2299.13 1313.8 Q2294.48 1309.19 2293.14 1308.01 Q2290.61 1305.77 2288.88 1304.89 Q2287.12 1303.98 2285.43 1303.98 Q2282.67 1303.98 2280.94 1305.93 Q2279.2 1307.85 2279.2 1310.95 Q2279.2 1313.15 2279.97 1315.6 Q2280.73 1318.03 2282.28 1320.81 L2277.56 1320.81 Q2276.42 1317.99 2275.85 1315.53 Q2275.27 1313.08 2275.27 1311.04 Q2275.27 1305.67 2277.95 1302.48 Q2280.64 1299.28 2285.13 1299.28 Q2287.26 1299.28 2289.18 1300.1 Q2291.08 1300.88 2293.67 1302.99 Q2294.34 1303.57 2297.56 1306.67 Q2300.75 1309.77 2306.52 1315.42 Z" fill="#000000" fill-rule="evenodd" fill-opacity="1" /><path clip-path="url(#clip710)" d="M2275.89 1290.47 L2275.89 1268.24 L2277.88 1268.24 L2310.45 1280.79 L2310.45 1285.67 L2279.83 1273.87 L2279.83 1290.47 L2275.89 1290.47 Z" fill="#000000" fill-rule="evenodd" fill-opacity="1" /><path clip-path="url(#clip710)" d="M2278.97 1249.12 Q2278.97 1252.73 2282.54 1254.56 Q2286.08 1256.37 2293.21 1256.37 Q2300.31 1256.37 2303.88 1254.56 Q2307.42 1252.73 2307.42 1249.12 Q2307.42 1245.49 2303.88 1243.68 Q2300.31 1241.85 2293.21 1241.85 Q2286.08 1241.85 2282.54 1243.68 Q2278.97 1245.49 2278.97 1249.12 M2275.27 1249.12 Q2275.27 1243.31 2279.87 1240.26 Q2284.46 1237.18 2293.21 1237.18 Q2301.93 1237.18 2306.54 1240.26 Q2311.12 1243.31 2311.12 1249.12 Q2311.12 1254.93 2306.54 1258.01 Q2301.93 1261.07 2293.21 1261.07 Q2284.46 1261.07 2279.87 1258.01 Q2275.27 1254.93 2275.27 1249.12 Z" fill="#000000" fill-rule="evenodd" fill-opacity="1" /><polyline clip-path="url(#clip712)" style="stroke:#000000; stroke-linecap:round; stroke-linejoin:round; stroke-width:2; stroke-opacity:0.1; fill:none" points="
  247.459,1165.54 2352.76,1165.54 
  "/>
<polyline clip-path="url(#clip712)" style="stroke:#000000; stroke-linecap:round; stroke-linejoin:round; stroke-width:2; stroke-opacity:0.1; fill:none" points="
  247.459,925.355 2352.76,925.355 
  "/>
<polyline clip-path="url(#clip712)" style="stroke:#000000; stroke-linecap:round; stroke-linejoin:round; stroke-width:2; stroke-opacity:0.1; fill:none" points="
  247.459,685.171 2352.76,685.171 
  "/>
<polyline clip-path="url(#clip712)" style="stroke:#000000; stroke-linecap:round; stroke-linejoin:round; stroke-width:2; stroke-opacity:0.1; fill:none" points="
  247.459,444.987 2352.76,444.987 
  "/>
<polyline clip-path="url(#clip712)" style="stroke:#000000; stroke-linecap:round; stroke-linejoin:round; stroke-width:2; stroke-opacity:0.1; fill:none" points="
  247.459,204.802 2352.76,204.802 
  "/>
<polyline clip-path="url(#clip710)" style="stroke:#000000; stroke-linecap:round; stroke-linejoin:round; stroke-width:4; stroke-opacity:1; fill:none" points="
  247.459,1217.98 247.459,47.2441 
  "/>
<polyline clip-path="url(#clip710)" style="stroke:#000000; stroke-linecap:round; stroke-linejoin:round; stroke-width:4; stroke-opacity:1; fill:none" points="
  247.459,1165.54 266.356,1165.54 
  "/>
<polyline clip-path="url(#clip710)" style="stroke:#000000; stroke-linecap:round; stroke-linejoin:round; stroke-width:4; stroke-opacity:1; fill:none" points="
  247.459,925.355 266.356,925.355 
  "/>
<polyline clip-path="url(#clip710)" style="stroke:#000000; stroke-linecap:round; stroke-linejoin:round; stroke-width:4; stroke-opacity:1; fill:none" points="
  247.459,685.171 266.356,685.171 
  "/>
<polyline clip-path="url(#clip710)" style="stroke:#000000; stroke-linecap:round; stroke-linejoin:round; stroke-width:4; stroke-opacity:1; fill:none" points="
  247.459,444.987 266.356,444.987 
  "/>
<polyline clip-path="url(#clip710)" style="stroke:#000000; stroke-linecap:round; stroke-linejoin:round; stroke-width:4; stroke-opacity:1; fill:none" points="
  247.459,204.802 266.356,204.802 
  "/>
<path clip-path="url(#clip710)" d="M144.329 1148.26 L162.686 1148.26 L162.686 1152.19 L148.612 1152.19 L148.612 1160.67 Q149.63 1160.32 150.649 1160.16 Q151.667 1159.97 152.686 1159.97 Q158.473 1159.97 161.852 1163.14 Q165.232 1166.31 165.232 1171.73 Q165.232 1177.31 161.76 1180.41 Q158.288 1183.49 151.968 1183.49 Q149.792 1183.49 147.524 1183.12 Q145.279 1182.75 142.871 1182.01 L142.871 1177.31 Q144.954 1178.44 147.177 1179 Q149.399 1179.55 151.876 1179.55 Q155.88 1179.55 158.218 1177.45 Q160.556 1175.34 160.556 1171.73 Q160.556 1168.12 158.218 1166.01 Q155.88 1163.91 151.876 1163.91 Q150.001 1163.91 148.126 1164.32 Q146.274 1164.74 144.329 1165.62 L144.329 1148.26 Z" fill="#000000" fill-rule="evenodd" fill-opacity="1" /><path clip-path="url(#clip710)" d="M174.445 1176.94 L179.329 1176.94 L179.329 1182.82 L174.445 1182.82 L174.445 1176.94 Z" fill="#000000" fill-rule="evenodd" fill-opacity="1" /><path clip-path="url(#clip710)" d="M199.514 1151.34 Q195.903 1151.34 194.075 1154.9 Q192.269 1158.44 192.269 1165.57 Q192.269 1172.68 194.075 1176.24 Q195.903 1179.79 199.514 1179.79 Q203.149 1179.79 204.954 1176.24 Q206.783 1172.68 206.783 1165.57 Q206.783 1158.44 204.954 1154.9 Q203.149 1151.34 199.514 1151.34 M199.514 1147.63 Q205.324 1147.63 208.38 1152.24 Q211.459 1156.82 211.459 1165.57 Q211.459 1174.3 208.38 1178.91 Q205.324 1183.49 199.514 1183.49 Q193.704 1183.49 190.625 1178.91 Q187.57 1174.3 187.57 1165.57 Q187.57 1156.82 190.625 1152.24 Q193.704 1147.63 199.514 1147.63 Z" fill="#000000" fill-rule="evenodd" fill-opacity="1" /><path clip-path="url(#clip710)" d="M144.098 908.075 L166.32 908.075 L166.32 910.065 L153.774 942.635 L148.89 942.635 L160.695 912.01 L144.098 912.01 L144.098 908.075 Z" fill="#000000" fill-rule="evenodd" fill-opacity="1" /><path clip-path="url(#clip710)" d="M175.44 936.755 L180.325 936.755 L180.325 942.635 L175.44 942.635 L175.44 936.755 Z" fill="#000000" fill-rule="evenodd" fill-opacity="1" /><path clip-path="url(#clip710)" d="M190.556 908.075 L208.912 908.075 L208.912 912.01 L194.838 912.01 L194.838 920.482 Q195.857 920.135 196.875 919.973 Q197.894 919.788 198.912 919.788 Q204.699 919.788 208.079 922.959 Q211.459 926.13 211.459 931.547 Q211.459 937.125 207.987 940.227 Q204.514 943.306 198.195 943.306 Q196.019 943.306 193.75 942.936 Q191.505 942.565 189.098 941.824 L189.098 937.125 Q191.181 938.26 193.403 938.815 Q195.625 939.371 198.102 939.371 Q202.107 939.371 204.445 937.264 Q206.783 935.158 206.783 931.547 Q206.783 927.936 204.445 925.829 Q202.107 923.723 198.102 923.723 Q196.227 923.723 194.352 924.139 Q192.5 924.556 190.556 925.436 L190.556 908.075 Z" fill="#000000" fill-rule="evenodd" fill-opacity="1" /><path clip-path="url(#clip710)" d="M114.931 698.515 L122.57 698.515 L122.57 672.15 L114.26 673.816 L114.26 669.557 L122.524 667.891 L127.2 667.891 L127.2 698.515 L134.839 698.515 L134.839 702.451 L114.931 702.451 L114.931 698.515 Z" fill="#000000" fill-rule="evenodd" fill-opacity="1" /><path clip-path="url(#clip710)" d="M154.283 670.969 Q150.672 670.969 148.843 674.534 Q147.038 678.076 147.038 685.205 Q147.038 692.312 148.843 695.877 Q150.672 699.418 154.283 699.418 Q157.917 699.418 159.723 695.877 Q161.552 692.312 161.552 685.205 Q161.552 678.076 159.723 674.534 Q157.917 670.969 154.283 670.969 M154.283 667.266 Q160.093 667.266 163.149 671.872 Q166.227 676.455 166.227 685.205 Q166.227 693.932 163.149 698.539 Q160.093 703.122 154.283 703.122 Q148.473 703.122 145.394 698.539 Q142.339 693.932 142.339 685.205 Q142.339 676.455 145.394 671.872 Q148.473 667.266 154.283 667.266 Z" fill="#000000" fill-rule="evenodd" fill-opacity="1" /><path clip-path="url(#clip710)" d="M174.445 696.571 L179.329 696.571 L179.329 702.451 L174.445 702.451 L174.445 696.571 Z" fill="#000000" fill-rule="evenodd" fill-opacity="1" /><path clip-path="url(#clip710)" d="M199.514 670.969 Q195.903 670.969 194.075 674.534 Q192.269 678.076 192.269 685.205 Q192.269 692.312 194.075 695.877 Q195.903 699.418 199.514 699.418 Q203.149 699.418 204.954 695.877 Q206.783 692.312 206.783 685.205 Q206.783 678.076 204.954 674.534 Q203.149 670.969 199.514 670.969 M199.514 667.266 Q205.324 667.266 208.38 671.872 Q211.459 676.455 211.459 685.205 Q211.459 693.932 208.38 698.539 Q205.324 703.122 199.514 703.122 Q193.704 703.122 190.625 698.539 Q187.57 693.932 187.57 685.205 Q187.57 676.455 190.625 671.872 Q193.704 667.266 199.514 667.266 Z" fill="#000000" fill-rule="evenodd" fill-opacity="1" /><path clip-path="url(#clip710)" d="M115.927 458.331 L123.566 458.331 L123.566 431.966 L115.256 433.632 L115.256 429.373 L123.519 427.707 L128.195 427.707 L128.195 458.331 L135.834 458.331 L135.834 462.267 L115.927 462.267 L115.927 458.331 Z" fill="#000000" fill-rule="evenodd" fill-opacity="1" /><path clip-path="url(#clip710)" d="M149.306 458.331 L165.626 458.331 L165.626 462.267 L143.681 462.267 L143.681 458.331 Q146.343 455.577 150.927 450.947 Q155.533 446.294 156.714 444.952 Q158.959 442.429 159.839 440.693 Q160.741 438.933 160.741 437.244 Q160.741 434.489 158.797 432.753 Q156.876 431.017 153.774 431.017 Q151.575 431.017 149.121 431.781 Q146.691 432.544 143.913 434.095 L143.913 429.373 Q146.737 428.239 149.191 427.66 Q151.644 427.082 153.681 427.082 Q159.052 427.082 162.246 429.767 Q165.44 432.452 165.44 436.943 Q165.44 439.072 164.63 440.993 Q163.843 442.892 161.737 445.484 Q161.158 446.156 158.056 449.373 Q154.954 452.568 149.306 458.331 Z" fill="#000000" fill-rule="evenodd" fill-opacity="1" /><path clip-path="url(#clip710)" d="M175.44 456.387 L180.325 456.387 L180.325 462.267 L175.44 462.267 L175.44 456.387 Z" fill="#000000" fill-rule="evenodd" fill-opacity="1" /><path clip-path="url(#clip710)" d="M190.556 427.707 L208.912 427.707 L208.912 431.642 L194.838 431.642 L194.838 440.114 Q195.857 439.767 196.875 439.605 Q197.894 439.419 198.912 439.419 Q204.699 439.419 208.079 442.591 Q211.459 445.762 211.459 451.179 Q211.459 456.757 207.987 459.859 Q204.514 462.938 198.195 462.938 Q196.019 462.938 193.75 462.567 Q191.505 462.197 189.098 461.456 L189.098 456.757 Q191.181 457.892 193.403 458.447 Q195.625 459.003 198.102 459.003 Q202.107 459.003 204.445 456.896 Q206.783 454.79 206.783 451.179 Q206.783 447.568 204.445 445.461 Q202.107 443.355 198.102 443.355 Q196.227 443.355 194.352 443.771 Q192.5 444.188 190.556 445.068 L190.556 427.707 Z" fill="#000000" fill-rule="evenodd" fill-opacity="1" /><path clip-path="url(#clip710)" d="M114.931 218.147 L122.57 218.147 L122.57 191.782 L114.26 193.448 L114.26 189.189 L122.524 187.522 L127.2 187.522 L127.2 218.147 L134.839 218.147 L134.839 222.082 L114.931 222.082 L114.931 218.147 Z" fill="#000000" fill-rule="evenodd" fill-opacity="1" /><path clip-path="url(#clip710)" d="M144.329 187.522 L162.686 187.522 L162.686 191.458 L148.612 191.458 L148.612 199.93 Q149.63 199.583 150.649 199.421 Q151.667 199.235 152.686 199.235 Q158.473 199.235 161.852 202.407 Q165.232 205.578 165.232 210.995 Q165.232 216.573 161.76 219.675 Q158.288 222.754 151.968 222.754 Q149.792 222.754 147.524 222.383 Q145.279 222.013 142.871 221.272 L142.871 216.573 Q144.954 217.707 147.177 218.263 Q149.399 218.819 151.876 218.819 Q155.88 218.819 158.218 216.712 Q160.556 214.606 160.556 210.995 Q160.556 207.383 158.218 205.277 Q155.88 203.171 151.876 203.171 Q150.001 203.171 148.126 203.587 Q146.274 204.004 144.329 204.883 L144.329 187.522 Z" fill="#000000" fill-rule="evenodd" fill-opacity="1" /><path clip-path="url(#clip710)" d="M174.445 216.203 L179.329 216.203 L179.329 222.082 L174.445 222.082 L174.445 216.203 Z" fill="#000000" fill-rule="evenodd" fill-opacity="1" /><path clip-path="url(#clip710)" d="M199.514 190.601 Q195.903 190.601 194.075 194.166 Q192.269 197.708 192.269 204.837 Q192.269 211.944 194.075 215.508 Q195.903 219.05 199.514 219.05 Q203.149 219.05 204.954 215.508 Q206.783 211.944 206.783 204.837 Q206.783 197.708 204.954 194.166 Q203.149 190.601 199.514 190.601 M199.514 186.897 Q205.324 186.897 208.38 191.504 Q211.459 196.087 211.459 204.837 Q211.459 213.564 208.38 218.17 Q205.324 222.754 199.514 222.754 Q193.704 222.754 190.625 218.17 Q187.57 213.564 187.57 204.837 Q187.57 196.087 190.625 191.504 Q193.704 186.897 199.514 186.897 Z" fill="#000000" fill-rule="evenodd" fill-opacity="1" /><path clip-path="url(#clip710)" d="M21.7677 968.084 L58.7206 968.084 L58.7206 960.318 Q58.7206 950.483 54.2646 945.932 Q49.8086 941.348 40.1964 941.348 Q30.6479 941.348 26.2237 945.932 Q21.7677 950.483 21.7677 960.318 L21.7677 968.084 M16.4842 974.514 L16.4842 961.305 Q16.4842 947.491 22.2451 941.03 Q27.9743 934.569 40.1964 934.569 Q52.4822 934.569 58.2432 941.062 Q64.0042 947.555 64.0042 961.305 L64.0042 974.514 L16.4842 974.514 Z" fill="#000000" fill-rule="evenodd" fill-opacity="1" /><path clip-path="url(#clip710)" d="M49.9359 925.179 L28.3562 925.179 L28.3562 919.323 L49.7131 919.323 Q54.7739 919.323 57.3202 917.35 Q59.8346 915.376 59.8346 911.429 Q59.8346 906.687 56.8109 903.95 Q53.7872 901.181 48.5673 901.181 L28.3562 901.181 L28.3562 895.324 L64.0042 895.324 L64.0042 901.181 L58.5296 901.181 Q61.7762 903.313 63.3676 906.146 Q64.9272 908.947 64.9272 912.671 Q64.9272 918.814 61.1078 921.996 Q57.2883 925.179 49.9359 925.179 M27.4968 910.443 L27.4968 910.443 Z" fill="#000000" fill-rule="evenodd" fill-opacity="1" /><path clip-path="url(#clip710)" d="M29.4065 860.536 L34.9447 860.536 Q33.6716 863.018 33.035 865.692 Q32.3984 868.365 32.3984 871.23 Q32.3984 875.59 33.7352 877.787 Q35.072 879.951 37.7456 879.951 Q39.7826 879.951 40.9603 878.391 Q42.1061 876.832 43.1565 872.121 L43.6021 870.116 Q44.9389 863.878 47.3897 861.268 Q49.8086 858.626 54.1691 858.626 Q59.1344 858.626 62.0308 862.573 Q64.9272 866.488 64.9272 873.362 Q64.9272 876.227 64.3543 879.346 Q63.8132 882.434 62.6992 885.871 L56.6518 885.871 Q58.3387 882.625 59.198 879.474 Q60.0256 876.323 60.0256 873.235 Q60.0256 869.097 58.6251 866.869 Q57.1929 864.641 54.6147 864.641 Q52.2276 864.641 50.9545 866.265 Q49.6813 867.856 48.5037 873.299 L48.0262 875.336 Q46.8804 880.779 44.5251 883.197 Q42.138 885.616 38.0002 885.616 Q32.9713 885.616 30.2341 882.052 Q27.4968 878.487 27.4968 871.93 Q27.4968 868.684 27.9743 865.819 Q28.4517 862.955 29.4065 860.536 Z" fill="#000000" fill-rule="evenodd" fill-opacity="1" /><path clip-path="url(#clip710)" d="M18.2347 843.507 L28.3562 843.507 L28.3562 831.444 L32.9077 831.444 L32.9077 843.507 L52.2594 843.507 Q56.6199 843.507 57.8613 842.33 Q59.1026 841.12 59.1026 837.46 L59.1026 831.444 L64.0042 831.444 L64.0042 837.46 Q64.0042 844.239 61.4897 846.817 Q58.9434 849.396 52.2594 849.396 L32.9077 849.396 L32.9077 853.692 L28.3562 853.692 L28.3562 849.396 L18.2347 849.396 L18.2347 843.507 Z" fill="#000000" fill-rule="evenodd" fill-opacity="1" /><path clip-path="url(#clip710)" d="M18.2347 797.229 L28.3562 797.229 L28.3562 785.166 L32.9077 785.166 L32.9077 797.229 L52.2594 797.229 Q56.6199 797.229 57.8613 796.051 Q59.1026 794.841 59.1026 791.181 L59.1026 785.166 L64.0042 785.166 L64.0042 791.181 Q64.0042 797.961 61.4897 800.539 Q58.9434 803.117 52.2594 803.117 L32.9077 803.117 L32.9077 807.414 L28.3562 807.414 L28.3562 803.117 L18.2347 803.117 L18.2347 797.229 Z" fill="#000000" fill-rule="evenodd" fill-opacity="1" /><path clip-path="url(#clip710)" d="M44.7161 746.971 L47.5806 746.971 L47.5806 773.898 Q53.6281 773.516 56.8109 770.27 Q59.9619 766.992 59.9619 761.167 Q59.9619 757.793 59.1344 754.642 Q58.3069 751.459 56.6518 748.34 L62.1899 748.34 Q63.5267 751.491 64.227 754.801 Q64.9272 758.111 64.9272 761.517 Q64.9272 770.047 59.9619 775.044 Q54.9967 780.009 46.5303 780.009 Q37.7774 780.009 32.6531 775.299 Q27.4968 770.556 27.4968 762.536 Q27.4968 755.342 32.1438 751.173 Q36.7589 746.971 44.7161 746.971 M42.9973 752.828 Q38.1912 752.891 35.3266 755.533 Q32.4621 758.143 32.4621 762.472 Q32.4621 767.373 35.2312 770.334 Q38.0002 773.262 43.0292 773.707 L42.9973 752.828 Z" fill="#000000" fill-rule="evenodd" fill-opacity="1" /><path clip-path="url(#clip710)" d="M35.1993 709.605 Q31.2526 707.408 29.3747 704.353 Q27.4968 701.297 27.4968 697.16 Q27.4968 691.59 31.4117 688.566 Q35.2948 685.542 42.4881 685.542 L64.0042 685.542 L64.0042 691.431 L42.679 691.431 Q37.5546 691.431 35.072 693.245 Q32.5894 695.059 32.5894 698.783 Q32.5894 703.334 35.6131 705.976 Q38.6368 708.618 43.8567 708.618 L64.0042 708.618 L64.0042 714.506 L42.679 714.506 Q37.5228 714.506 35.072 716.32 Q32.5894 718.135 32.5894 721.922 Q32.5894 726.41 35.6449 729.052 Q38.6686 731.694 43.8567 731.694 L64.0042 731.694 L64.0042 737.582 L28.3562 737.582 L28.3562 731.694 L33.8944 731.694 Q30.616 729.688 29.0564 726.888 Q27.4968 724.087 27.4968 720.235 Q27.4968 716.352 29.4702 713.647 Q31.4436 710.91 35.1993 709.605 Z" fill="#000000" fill-rule="evenodd" fill-opacity="1" /><path clip-path="url(#clip710)" d="M58.657 668.196 L77.5631 668.196 L77.5631 674.084 L28.3562 674.084 L28.3562 668.196 L33.7671 668.196 Q30.5842 666.35 29.0564 663.549 Q27.4968 660.716 27.4968 656.801 Q27.4968 650.308 32.6531 646.266 Q37.8093 642.192 46.212 642.192 Q54.6147 642.192 59.771 646.266 Q64.9272 650.308 64.9272 656.801 Q64.9272 660.716 63.3994 663.549 Q61.8398 666.35 58.657 668.196 M46.212 648.271 Q39.7508 648.271 36.0905 650.945 Q32.3984 653.586 32.3984 658.233 Q32.3984 662.88 36.0905 665.554 Q39.7508 668.196 46.212 668.196 Q52.6732 668.196 56.3653 665.554 Q60.0256 662.88 60.0256 658.233 Q60.0256 653.586 56.3653 650.945 Q52.6732 648.271 46.212 648.271 Z" fill="#000000" fill-rule="evenodd" fill-opacity="1" /><path clip-path="url(#clip710)" d="M44.7161 601.992 L47.5806 601.992 L47.5806 628.919 Q53.6281 628.537 56.8109 625.291 Q59.9619 622.013 59.9619 616.188 Q59.9619 612.814 59.1344 609.663 Q58.3069 606.48 56.6518 603.361 L62.1899 603.361 Q63.5267 606.512 64.227 609.822 Q64.9272 613.132 64.9272 616.538 Q64.9272 625.068 59.9619 630.065 Q54.9967 635.03 46.5303 635.03 Q37.7774 635.03 32.6531 630.32 Q27.4968 625.577 27.4968 617.557 Q27.4968 610.363 32.1438 606.194 Q36.7589 601.992 44.7161 601.992 M42.9973 607.849 Q38.1912 607.913 35.3266 610.554 Q32.4621 613.164 32.4621 617.493 Q32.4621 622.394 35.2312 625.355 Q38.0002 628.283 43.0292 628.728 L42.9973 607.849 Z" fill="#000000" fill-rule="evenodd" fill-opacity="1" /><path clip-path="url(#clip710)" d="M33.8307 571.723 Q33.2578 572.71 33.0032 573.888 Q32.7167 575.034 32.7167 576.434 Q32.7167 581.399 35.9632 584.073 Q39.1779 586.715 45.2253 586.715 L64.0042 586.715 L64.0042 592.603 L28.3562 592.603 L28.3562 586.715 L33.8944 586.715 Q30.6479 584.869 29.0883 581.909 Q27.4968 578.949 27.4968 574.715 Q27.4968 574.111 27.5923 573.379 Q27.656 572.646 27.8151 571.755 L33.8307 571.723 Z" fill="#000000" fill-rule="evenodd" fill-opacity="1" /><path clip-path="url(#clip710)" d="M46.0847 549.38 Q46.0847 556.478 47.7079 559.215 Q49.3312 561.952 53.2461 561.952 Q56.3653 561.952 58.2114 559.915 Q60.0256 557.846 60.0256 554.313 Q60.0256 549.443 56.5881 546.515 Q53.1188 543.555 47.3897 543.555 L46.0847 543.555 L46.0847 549.38 M43.6657 537.699 L64.0042 537.699 L64.0042 543.555 L58.5933 543.555 Q61.8398 545.56 63.3994 548.552 Q64.9272 551.544 64.9272 555.873 Q64.9272 561.347 61.8716 564.594 Q58.7843 567.809 53.6281 567.809 Q47.6125 567.809 44.5569 563.798 Q41.5014 559.756 41.5014 551.767 L41.5014 543.555 L40.9285 543.555 Q36.8862 543.555 34.6901 546.229 Q32.4621 548.871 32.4621 553.677 Q32.4621 556.732 33.1941 559.629 Q33.9262 562.525 35.3903 565.199 L29.9795 565.199 Q28.7381 561.984 28.1334 558.96 Q27.4968 555.937 27.4968 553.072 Q27.4968 545.338 31.5072 541.518 Q35.5176 537.699 43.6657 537.699 Z" fill="#000000" fill-rule="evenodd" fill-opacity="1" /><path clip-path="url(#clip710)" d="M18.2347 519.843 L28.3562 519.843 L28.3562 507.78 L32.9077 507.78 L32.9077 519.843 L52.2594 519.843 Q56.6199 519.843 57.8613 518.665 Q59.1026 517.456 59.1026 513.796 L59.1026 507.78 L64.0042 507.78 L64.0042 513.796 Q64.0042 520.575 61.4897 523.153 Q58.9434 525.731 52.2594 525.731 L32.9077 525.731 L32.9077 530.028 L28.3562 530.028 L28.3562 525.731 L18.2347 525.731 L18.2347 519.843 Z" fill="#000000" fill-rule="evenodd" fill-opacity="1" /><path clip-path="url(#clip710)" d="M49.9359 500.682 L28.3562 500.682 L28.3562 494.826 L49.7131 494.826 Q54.7739 494.826 57.3202 492.852 Q59.8346 490.879 59.8346 486.932 Q59.8346 482.19 56.8109 479.453 Q53.7872 476.683 48.5673 476.683 L28.3562 476.683 L28.3562 470.827 L64.0042 470.827 L64.0042 476.683 L58.5296 476.683 Q61.7762 478.816 63.3676 481.649 Q64.9272 484.45 64.9272 488.174 Q64.9272 494.316 61.1078 497.499 Q57.2883 500.682 49.9359 500.682 M27.4968 485.946 L27.4968 485.946 Z" fill="#000000" fill-rule="evenodd" fill-opacity="1" /><path clip-path="url(#clip710)" d="M33.8307 438.107 Q33.2578 439.094 33.0032 440.272 Q32.7167 441.417 32.7167 442.818 Q32.7167 447.783 35.9632 450.457 Q39.1779 453.099 45.2253 453.099 L64.0042 453.099 L64.0042 458.987 L28.3562 458.987 L28.3562 453.099 L33.8944 453.099 Q30.6479 451.252 29.0883 448.292 Q27.4968 445.332 27.4968 441.099 Q27.4968 440.494 27.5923 439.762 Q27.656 439.03 27.8151 438.139 L33.8307 438.107 Z" fill="#000000" fill-rule="evenodd" fill-opacity="1" /><path clip-path="url(#clip710)" d="M44.7161 402.905 L47.5806 402.905 L47.5806 429.832 Q53.6281 429.45 56.8109 426.203 Q59.9619 422.925 59.9619 417.1 Q59.9619 413.727 59.1344 410.576 Q58.3069 407.393 56.6518 404.274 L62.1899 404.274 Q63.5267 407.425 64.227 410.735 Q64.9272 414.045 64.9272 417.451 Q64.9272 425.981 59.9619 430.978 Q54.9967 435.943 46.5303 435.943 Q37.7774 435.943 32.6531 431.232 Q27.4968 426.49 27.4968 418.469 Q27.4968 411.276 32.1438 407.106 Q36.7589 402.905 44.7161 402.905 M42.9973 408.761 Q38.1912 408.825 35.3266 411.467 Q32.4621 414.077 32.4621 418.405 Q32.4621 423.307 35.2312 426.267 Q38.0002 429.195 43.0292 429.641 L42.9973 408.761 Z" fill="#000000" fill-rule="evenodd" fill-opacity="1" /><path clip-path="url(#clip710)" d="M14.479 373.113 L14.479 359.618 L19.0304 359.618 L19.0304 367.257 L68.0464 367.257 L68.0464 359.618 L72.5979 359.618 L72.5979 373.113 L14.479 373.113 Z" fill="#000000" fill-rule="evenodd" fill-opacity="1" /><path clip-path="url(#clip710)" d="M16.4842 346.887 L16.4842 340.457 L36.568 340.457 L16.4842 319.132 L16.4842 310.857 L38.6368 334.442 L64.0042 309.17 L64.0042 317.636 L41.1194 340.457 L64.0042 340.457 L64.0042 346.887 L16.4842 346.887 Z" fill="#000000" fill-rule="evenodd" fill-opacity="1" /><path clip-path="url(#clip710)" d="M14.479 290.709 L72.5979 290.709 L72.5979 304.205 L68.0464 304.205 L68.0464 296.598 L19.0304 296.598 L19.0304 304.205 L14.479 304.205 L14.479 290.709 Z" fill="#000000" fill-rule="evenodd" fill-opacity="1" /><polyline clip-path="url(#clip712)" style="stroke:#000000; stroke-linecap:round; stroke-linejoin:round; stroke-width:4; stroke-opacity:1; fill:none" points="
  307.043,1184.84 307.043,80.3781 
  "/>
<line clip-path="url(#clip712)" x1="323.043" y1="1184.84" x2="291.043" y2="1184.84" style="stroke:#000000; stroke-width:3.2; stroke-opacity:1"/>
<line clip-path="url(#clip712)" x1="323.043" y1="80.3781" x2="291.043" y2="80.3781" style="stroke:#000000; stroke-width:3.2; stroke-opacity:1"/>
<circle clip-path="url(#clip712)" cx="307.043" cy="632.611" r="14.4" fill="#009af9" fill-rule="evenodd" fill-opacity="1" stroke="#000000" stroke-opacity="1" stroke-width="3.2"/>
<polyline clip-path="url(#clip712)" style="stroke:#000000; stroke-linecap:round; stroke-linejoin:round; stroke-width:4; stroke-opacity:1; fill:none" points="
  590.775,1162 590.775,330.959 
  "/>
<line clip-path="url(#clip712)" x1="606.775" y1="1162" x2="574.775" y2="1162" style="stroke:#000000; stroke-width:3.2; stroke-opacity:1"/>
<line clip-path="url(#clip712)" x1="606.775" y1="330.959" x2="574.775" y2="330.959" style="stroke:#000000; stroke-width:3.2; stroke-opacity:1"/>
<circle clip-path="url(#clip712)" cx="590.775" cy="746.479" r="14.4" fill="#e26f46" fill-rule="evenodd" fill-opacity="1" stroke="#000000" stroke-opacity="1" stroke-width="3.2"/>
<polyline clip-path="url(#clip712)" style="stroke:#000000; stroke-linecap:round; stroke-linejoin:round; stroke-width:4; stroke-opacity:1; fill:none" points="
  874.508,1161.64 874.508,335.448 
  "/>
<line clip-path="url(#clip712)" x1="890.508" y1="1161.64" x2="858.508" y2="1161.64" style="stroke:#000000; stroke-width:3.2; stroke-opacity:1"/>
<line clip-path="url(#clip712)" x1="890.508" y1="335.448" x2="858.508" y2="335.448" style="stroke:#000000; stroke-width:3.2; stroke-opacity:1"/>
<circle clip-path="url(#clip712)" cx="874.508" cy="748.544" r="14.4" fill="#3da44d" fill-rule="evenodd" fill-opacity="1" stroke="#000000" stroke-opacity="1" stroke-width="3.2"/>
<polyline clip-path="url(#clip712)" style="stroke:#000000; stroke-linecap:round; stroke-linejoin:round; stroke-width:4; stroke-opacity:1; fill:none" points="
  1158.24,1161.62 1158.24,335.458 
  "/>
<line clip-path="url(#clip712)" x1="1174.24" y1="1161.62" x2="1142.24" y2="1161.62" style="stroke:#000000; stroke-width:3.2; stroke-opacity:1"/>
<line clip-path="url(#clip712)" x1="1174.24" y1="335.458" x2="1142.24" y2="335.458" style="stroke:#000000; stroke-width:3.2; stroke-opacity:1"/>
<circle clip-path="url(#clip712)" cx="1158.24" cy="748.54" r="14.4" fill="#c271d2" fill-rule="evenodd" fill-opacity="1" stroke="#000000" stroke-opacity="1" stroke-width="3.2"/>
<polyline clip-path="url(#clip712)" style="stroke:#000000; stroke-linecap:round; stroke-linejoin:round; stroke-width:4; stroke-opacity:1; fill:none" points="
  1441.97,1161.63 1441.97,335.53 
  "/>
<line clip-path="url(#clip712)" x1="1457.97" y1="1161.63" x2="1425.97" y2="1161.63" style="stroke:#000000; stroke-width:3.2; stroke-opacity:1"/>
<line clip-path="url(#clip712)" x1="1457.97" y1="335.53" x2="1425.97" y2="335.53" style="stroke:#000000; stroke-width:3.2; stroke-opacity:1"/>
<circle clip-path="url(#clip712)" cx="1441.97" cy="748.58" r="14.4" fill="#ac8d18" fill-rule="evenodd" fill-opacity="1" stroke="#000000" stroke-opacity="1" stroke-width="3.2"/>
<polyline clip-path="url(#clip712)" style="stroke:#000000; stroke-linecap:round; stroke-linejoin:round; stroke-width:4; stroke-opacity:1; fill:none" points="
  1725.71,1161.63 1725.71,335.518 
  "/>
<line clip-path="url(#clip712)" x1="1741.71" y1="1161.63" x2="1709.71" y2="1161.63" style="stroke:#000000; stroke-width:3.2; stroke-opacity:1"/>
<line clip-path="url(#clip712)" x1="1741.71" y1="335.518" x2="1709.71" y2="335.518" style="stroke:#000000; stroke-width:3.2; stroke-opacity:1"/>
<circle clip-path="url(#clip712)" cx="1725.71" cy="748.574" r="14.4" fill="#00a9ad" fill-rule="evenodd" fill-opacity="1" stroke="#000000" stroke-opacity="1" stroke-width="3.2"/>
<polyline clip-path="url(#clip712)" style="stroke:#000000; stroke-linecap:round; stroke-linejoin:round; stroke-width:4; stroke-opacity:1; fill:none" points="
  2009.44,1161.63 2009.44,335.535 
  "/>
<line clip-path="url(#clip712)" x1="2025.44" y1="1161.63" x2="1993.44" y2="1161.63" style="stroke:#000000; stroke-width:3.2; stroke-opacity:1"/>
<line clip-path="url(#clip712)" x1="2025.44" y1="335.535" x2="1993.44" y2="335.535" style="stroke:#000000; stroke-width:3.2; stroke-opacity:1"/>
<circle clip-path="url(#clip712)" cx="2009.44" cy="748.583" r="14.4" fill="#ed5d92" fill-rule="evenodd" fill-opacity="1" stroke="#000000" stroke-opacity="1" stroke-width="3.2"/>
<polyline clip-path="url(#clip712)" style="stroke:#000000; stroke-linecap:round; stroke-linejoin:round; stroke-width:4; stroke-opacity:1; fill:none" points="
  2293.17,1161.64 2293.17,335.465 
  "/>
<line clip-path="url(#clip712)" x1="2309.17" y1="1161.64" x2="2277.17" y2="1161.64" style="stroke:#000000; stroke-width:3.2; stroke-opacity:1"/>
<line clip-path="url(#clip712)" x1="2309.17" y1="335.465" x2="2277.17" y2="335.465" style="stroke:#000000; stroke-width:3.2; stroke-opacity:1"/>
<circle clip-path="url(#clip712)" cx="2293.17" cy="748.55" r="14.4" fill="#c68125" fill-rule="evenodd" fill-opacity="1" stroke="#000000" stroke-opacity="1" stroke-width="3.2"/>
</svg>
