<?xml version="1.0" encoding="utf-8"?>
<svg xmlns="http://www.w3.org/2000/svg" xmlns:xlink="http://www.w3.org/1999/xlink" width="600" height="400" viewBox="0 0 2400 1600">
<defs>
  <clipPath id="clip630">
    <rect x="0" y="0" width="2400" height="1600"/>
  </clipPath>
</defs>
<path clip-path="url(#clip630)" d="
M0 1600 L2400 1600 L2400 0 L0 0  Z
  " fill="#ffffff" fill-rule="evenodd" fill-opacity="1"/>
<defs>
  <clipPath id="clip631">
    <rect x="480" y="0" width="1681" height="1600"/>
  </clipPath>
</defs>
<path clip-path="url(#clip630)" d="
M257.204 1217.98 L2352.76 1217.98 L2352.76 47.2441 L257.204 47.2441  Z
  " fill="#ffffff" fill-rule="evenodd" fill-opacity="1"/>
<defs>
  <clipPath id="clip632">
    <rect x="257" y="47" width="2097" height="1172"/>
  </clipPath>
</defs>
<polyline clip-path="url(#clip632)" style="stroke:#000000; stroke-linecap:round; stroke-linejoin:round; stroke-width:2; stroke-opacity:0.1; fill:none" points="
  316.512,1217.98 316.512,47.2441 
  "/>
<polyline clip-path="url(#clip632)" style="stroke:#000000; stroke-linecap:round; stroke-linejoin:round; stroke-width:2; stroke-opacity:0.1; fill:none" points="
  598.931,1217.98 598.931,47.2441 
  "/>
<polyline clip-path="url(#clip632)" style="stroke:#000000; stroke-linecap:round; stroke-linejoin:round; stroke-width:2; stroke-opacity:0.1; fill:none" points="
  881.351,1217.98 881.351,47.2441 
  "/>
<polyline clip-path="url(#clip632)" style="stroke:#000000; stroke-linecap:round; stroke-linejoin:round; stroke-width:2; stroke-opacity:0.1; fill:none" points="
  1163.77,1217.98 1163.77,47.2441 
  "/>
<polyline clip-path="url(#clip632)" style="stroke:#000000; stroke-linecap:round; stroke-linejoin:round; stroke-width:2; stroke-opacity:0.1; fill:none" points="
  1446.19,1217.98 1446.19,47.2441 
  "/>
<polyline clip-path="url(#clip632)" style="stroke:#000000; stroke-linecap:round; stroke-linejoin:round; stroke-width:2; stroke-opacity:0.1; fill:none" points="
  1728.61,1217.98 1728.61,47.2441 
  "/>
<polyline clip-path="url(#clip632)" style="stroke:#000000; stroke-linecap:round; stroke-linejoin:round; stroke-width:2; stroke-opacity:0.1; fill:none" points="
  2011.03,1217.98 2011.03,47.2441 
  "/>
<polyline clip-path="url(#clip632)" style="stroke:#000000; stroke-linecap:round; stroke-linejoin:round; stroke-width:2; stroke-opacity:0.1; fill:none" points="
  2293.45,1217.98 2293.45,47.2441 
  "/>
<polyline clip-path="url(#clip630)" style="stroke:#000000; stroke-linecap:round; stroke-linejoin:round; stroke-width:4; stroke-opacity:1; fill:none" points="
  257.204,1217.98 2352.76,1217.98 
  "/>
<polyline clip-path="url(#clip630)" style="stroke:#000000; stroke-linecap:round; stroke-linejoin:round; stroke-width:4; stroke-opacity:1; fill:none" points="
  316.512,1217.98 316.512,1199.08 
  "/>
<polyline clip-path="url(#clip630)" style="stroke:#000000; stroke-linecap:round; stroke-linejoin:round; stroke-width:4; stroke-opacity:1; fill:none" points="
  598.931,1217.98 598.931,1199.08 
  "/>
<polyline clip-path="url(#clip630)" style="stroke:#000000; stroke-linecap:round; stroke-linejoin:round; stroke-width:4; stroke-opacity:1; fill:none" points="
  881.351,1217.98 881.351,1199.08 
  "/>
<polyline clip-path="url(#clip630)" style="stroke:#000000; stroke-linecap:round; stroke-linejoin:round; stroke-width:4; stroke-opacity:1; fill:none" points="
  1163.77,1217.98 1163.77,1199.08 
  "/>
<polyline clip-path="url(#clip630)" style="stroke:#000000; stroke-linecap:round; stroke-linejoin:round; stroke-width:4; stroke-opacity:1; fill:none" points="
  1446.19,1217.98 1446.19,1199.08 
  "/>
<polyline clip-path="url(#clip630)" style="stroke:#000000; stroke-linecap:round; stroke-linejoin:round; stroke-width:4; stroke-opacity:1; fill:none" points="
  1728.61,1217.98 1728.61,1199.08 
  "/>
<polyline clip-path="url(#clip630)" style="stroke:#000000; stroke-linecap:round; stroke-linejoin:round; stroke-width:4; stroke-opacity:1; fill:none" points="
  2011.03,1217.98 2011.03,1199.08 
  "/>
<polyline clip-path="url(#clip630)" style="stroke:#000000; stroke-linecap:round; stroke-linejoin:round; stroke-width:4; stroke-opacity:1; fill:none" points="
  2293.45,1217.98 2293.45,1199.08 
  "/>
<path clip-path="url(#clip630)" d="M307.866 1342.92 L307.866 1338.66 L333.792 1338.66 L333.792 1342.92 L307.866 1342.92 M297.774 1342.92 L297.774 1338.66 L303.167 1338.66 L303.167 1342.92 L297.774 1342.92 Z" fill="#000000" fill-rule="evenodd" fill-opacity="1" /><path clip-path="url(#clip630)" d="M311.801 1312.69 L297.774 1312.69 L297.774 1308.43 L333.792 1308.43 L333.792 1312.69 L329.903 1312.69 Q332.218 1314.03 333.352 1316.09 Q334.463 1318.13 334.463 1321 Q334.463 1325.7 330.713 1328.66 Q326.963 1331.6 320.852 1331.6 Q314.741 1331.6 310.991 1328.66 Q307.241 1325.7 307.241 1321 Q307.241 1318.13 308.376 1316.09 Q309.487 1314.03 311.801 1312.69 M320.852 1327.2 Q325.551 1327.2 328.237 1325.28 Q330.899 1323.34 330.899 1319.96 Q330.899 1316.58 328.237 1314.63 Q325.551 1312.69 320.852 1312.69 Q316.153 1312.69 313.491 1314.63 Q310.806 1316.58 310.806 1319.96 Q310.806 1323.34 313.491 1325.28 Q316.153 1327.2 320.852 1327.2 Z" fill="#000000" fill-rule="evenodd" fill-opacity="1" /><path clip-path="url(#clip630)" d="M319.764 1277.48 L321.848 1277.48 L321.848 1297.06 Q326.246 1296.78 328.561 1294.42 Q330.852 1292.04 330.852 1287.8 Q330.852 1285.35 330.25 1283.06 Q329.649 1280.74 328.445 1278.47 L332.473 1278.47 Q333.445 1280.77 333.954 1283.17 Q334.463 1285.58 334.463 1288.06 Q334.463 1294.26 330.852 1297.9 Q327.241 1301.51 321.084 1301.51 Q314.718 1301.51 310.991 1298.08 Q307.241 1294.63 307.241 1288.8 Q307.241 1283.57 310.621 1280.54 Q313.977 1277.48 319.764 1277.48 M318.514 1281.74 Q315.019 1281.79 312.936 1283.71 Q310.852 1285.6 310.852 1288.75 Q310.852 1292.32 312.866 1294.47 Q314.88 1296.6 318.538 1296.92 L318.514 1281.74 Z" fill="#000000" fill-rule="evenodd" fill-opacity="1" /><path clip-path="url(#clip630)" d="M320.76 1258.71 Q320.76 1263.87 321.94 1265.86 Q323.121 1267.85 325.968 1267.85 Q328.237 1267.85 329.579 1266.37 Q330.899 1264.86 330.899 1262.29 Q330.899 1258.75 328.399 1256.62 Q325.875 1254.47 321.709 1254.47 L320.76 1254.47 L320.76 1258.71 M319.001 1250.21 L333.792 1250.21 L333.792 1254.47 L329.857 1254.47 Q332.218 1255.93 333.352 1258.1 Q334.463 1260.28 334.463 1263.43 Q334.463 1267.41 332.241 1269.77 Q329.996 1272.11 326.246 1272.11 Q321.871 1272.11 319.649 1269.19 Q317.426 1266.25 317.426 1260.44 L317.426 1254.47 L317.01 1254.47 Q314.07 1254.47 312.473 1256.41 Q310.852 1258.34 310.852 1261.83 Q310.852 1264.05 311.385 1266.16 Q311.917 1268.27 312.982 1270.21 L309.047 1270.21 Q308.144 1267.87 307.704 1265.67 Q307.241 1263.47 307.241 1261.39 Q307.241 1255.77 310.158 1252.99 Q313.075 1250.21 319.001 1250.21 Z" fill="#000000" fill-rule="evenodd" fill-opacity="1" /><path clip-path="url(#clip630)" d="M297.774 1241.44 L297.774 1237.18 L333.792 1237.18 L333.792 1241.44 L297.774 1241.44 Z" fill="#000000" fill-rule="evenodd" fill-opacity="1" /><path clip-path="url(#clip630)" d="M603.179 1560.21 Q603.179 1565.37 604.36 1567.36 Q605.54 1569.35 608.387 1569.35 Q610.656 1569.35 611.999 1567.87 Q613.318 1566.37 613.318 1563.8 Q613.318 1560.26 610.818 1558.13 Q608.295 1555.97 604.128 1555.97 L603.179 1555.97 L603.179 1560.21 M601.42 1551.71 L616.211 1551.71 L616.211 1555.97 L612.276 1555.97 Q614.637 1557.43 615.772 1559.61 Q616.883 1561.78 616.883 1564.93 Q616.883 1568.91 614.661 1571.27 Q612.415 1573.61 608.665 1573.61 Q604.29 1573.61 602.068 1570.7 Q599.846 1567.76 599.846 1561.95 L599.846 1555.97 L599.429 1555.97 Q596.489 1555.97 594.892 1557.92 Q593.272 1559.84 593.272 1563.33 Q593.272 1565.56 593.804 1567.66 Q594.337 1569.77 595.401 1571.71 L591.466 1571.71 Q590.563 1569.38 590.124 1567.18 Q589.661 1564.98 589.661 1562.89 Q589.661 1557.27 592.577 1554.49 Q595.494 1551.71 601.42 1551.71 Z" fill="#000000" fill-rule="evenodd" fill-opacity="1" /><path clip-path="url(#clip630)" d="M580.193 1542.94 L580.193 1538.68 L616.211 1538.68 L616.211 1542.94 L580.193 1542.94 Z" fill="#000000" fill-rule="evenodd" fill-opacity="1" /><path clip-path="url(#clip630)" d="M582.925 1525.56 L590.286 1525.56 L590.286 1516.78 L593.596 1516.78 L593.596 1525.56 L607.67 1525.56 Q610.841 1525.56 611.744 1524.7 Q612.647 1523.82 612.647 1521.16 L612.647 1516.78 L616.211 1516.78 L616.211 1521.16 Q616.211 1526.09 614.383 1527.96 Q612.531 1529.84 607.67 1529.84 L593.596 1529.84 L593.596 1532.96 L590.286 1532.96 L590.286 1529.84 L582.925 1529.84 L582.925 1525.56 Z" fill="#000000" fill-rule="evenodd" fill-opacity="1" /><path clip-path="url(#clip630)" d="M590.286 1511.18 L590.286 1506.92 L616.211 1506.92 L616.211 1511.18 L590.286 1511.18 M580.193 1511.18 L580.193 1506.92 L585.587 1506.92 L585.587 1511.18 L580.193 1511.18 Z" fill="#000000" fill-rule="evenodd" fill-opacity="1" /><path clip-path="url(#clip630)" d="M582.925 1493.8 L590.286 1493.8 L590.286 1485.02 L593.596 1485.02 L593.596 1493.8 L607.67 1493.8 Q610.841 1493.8 611.744 1492.94 Q612.647 1492.06 612.647 1489.4 L612.647 1485.02 L616.211 1485.02 L616.211 1489.4 Q616.211 1494.33 614.383 1496.21 Q612.531 1498.08 607.67 1498.08 L593.596 1498.08 L593.596 1501.21 L590.286 1501.21 L590.286 1498.08 L582.925 1498.08 L582.925 1493.8 Z" fill="#000000" fill-rule="evenodd" fill-opacity="1" /><path clip-path="url(#clip630)" d="M605.98 1479.86 L590.286 1479.86 L590.286 1475.6 L605.818 1475.6 Q609.499 1475.6 611.35 1474.17 Q613.179 1472.73 613.179 1469.86 Q613.179 1466.41 610.98 1464.42 Q608.781 1462.41 604.985 1462.41 L590.286 1462.41 L590.286 1458.15 L616.211 1458.15 L616.211 1462.41 L612.23 1462.41 Q614.591 1463.96 615.749 1466.02 Q616.883 1468.06 616.883 1470.77 Q616.883 1475.23 614.105 1477.55 Q611.327 1479.86 605.98 1479.86 M589.661 1469.15 L589.661 1469.15 Z" fill="#000000" fill-rule="evenodd" fill-opacity="1" /><path clip-path="url(#clip630)" d="M594.221 1432.32 L580.193 1432.32 L580.193 1428.06 L616.211 1428.06 L616.211 1432.32 L612.323 1432.32 Q614.637 1433.66 615.772 1435.72 Q616.883 1437.76 616.883 1440.63 Q616.883 1445.33 613.133 1448.29 Q609.383 1451.23 603.272 1451.23 Q597.161 1451.23 593.411 1448.29 Q589.661 1445.33 589.661 1440.63 Q589.661 1437.76 590.795 1435.72 Q591.906 1433.66 594.221 1432.32 M603.272 1446.83 Q607.971 1446.83 610.656 1444.91 Q613.318 1442.96 613.318 1439.59 Q613.318 1436.21 610.656 1434.26 Q607.971 1432.32 603.272 1432.32 Q598.573 1432.32 595.911 1434.26 Q593.226 1436.21 593.226 1439.59 Q593.226 1442.96 595.911 1444.91 Q598.573 1446.83 603.272 1446.83 Z" fill="#000000" fill-rule="evenodd" fill-opacity="1" /><path clip-path="url(#clip630)" d="M602.184 1397.11 L604.267 1397.11 L604.267 1416.69 Q608.665 1416.41 610.98 1414.05 Q613.272 1411.67 613.272 1407.43 Q613.272 1404.98 612.67 1402.69 Q612.068 1400.37 610.864 1398.1 L614.892 1398.1 Q615.864 1400.4 616.374 1402.8 Q616.883 1405.21 616.883 1407.69 Q616.883 1413.89 613.272 1417.53 Q609.661 1421.14 603.503 1421.14 Q597.138 1421.14 593.411 1417.71 Q589.661 1414.26 589.661 1408.43 Q589.661 1403.2 593.04 1400.16 Q596.397 1397.11 602.184 1397.11 M600.934 1401.37 Q597.438 1401.41 595.355 1403.34 Q593.272 1405.23 593.272 1408.38 Q593.272 1411.95 595.286 1414.1 Q597.3 1416.23 600.957 1416.55 L600.934 1401.37 Z" fill="#000000" fill-rule="evenodd" fill-opacity="1" /><path clip-path="url(#clip630)" d="M624.082 1370.42 L627.392 1370.42 L627.392 1395.05 L624.082 1395.05 L624.082 1370.42 Z" fill="#000000" fill-rule="evenodd" fill-opacity="1" /><path clip-path="url(#clip630)" d="M593.272 1356.37 Q593.272 1359.79 595.957 1361.78 Q598.619 1363.78 603.272 1363.78 Q607.924 1363.78 610.61 1361.81 Q613.272 1359.82 613.272 1356.37 Q613.272 1352.97 610.587 1350.97 Q607.901 1348.98 603.272 1348.98 Q598.665 1348.98 595.98 1350.97 Q593.272 1352.97 593.272 1356.37 M589.661 1356.37 Q589.661 1350.81 593.272 1347.64 Q596.883 1344.47 603.272 1344.47 Q609.637 1344.47 613.272 1347.64 Q616.883 1350.81 616.883 1356.37 Q616.883 1361.95 613.272 1365.12 Q609.637 1368.27 603.272 1368.27 Q596.883 1368.27 593.272 1365.12 Q589.661 1361.95 589.661 1356.37 Z" fill="#000000" fill-rule="evenodd" fill-opacity="1" /><path clip-path="url(#clip630)" d="M580.193 1324.28 L583.735 1324.28 L583.735 1328.36 Q583.735 1330.65 584.661 1331.55 Q585.587 1332.43 587.994 1332.43 L590.286 1332.43 L590.286 1325.42 L593.596 1325.42 L593.596 1332.43 L616.211 1332.43 L616.211 1336.72 L593.596 1336.72 L593.596 1340.79 L590.286 1340.79 L590.286 1336.72 L588.48 1336.72 Q584.151 1336.72 582.184 1334.7 Q580.193 1332.69 580.193 1328.31 L580.193 1324.28 Z" fill="#000000" fill-rule="evenodd" fill-opacity="1" /><path clip-path="url(#clip630)" d="M580.193 1307.6 L583.735 1307.6 L583.735 1311.67 Q583.735 1313.96 584.661 1314.86 Q585.587 1315.74 587.994 1315.74 L590.286 1315.74 L590.286 1308.73 L593.596 1308.73 L593.596 1315.74 L616.211 1315.74 L616.211 1320.03 L593.596 1320.03 L593.596 1324.1 L590.286 1324.1 L590.286 1320.03 L588.48 1320.03 Q584.151 1320.03 582.184 1318.01 Q580.193 1316 580.193 1311.62 L580.193 1307.6 Z" fill="#000000" fill-rule="evenodd" fill-opacity="1" /><path clip-path="url(#clip630)" d="M591.05 1287.5 L595.077 1287.5 Q594.151 1289.31 593.688 1291.25 Q593.226 1293.2 593.226 1295.28 Q593.226 1298.45 594.198 1300.05 Q595.17 1301.62 597.114 1301.62 Q598.596 1301.62 599.452 1300.49 Q600.286 1299.35 601.05 1295.93 L601.374 1294.47 Q602.346 1289.93 604.128 1288.04 Q605.887 1286.11 609.059 1286.11 Q612.67 1286.11 614.776 1288.98 Q616.883 1291.83 616.883 1296.83 Q616.883 1298.91 616.466 1301.18 Q616.073 1303.43 615.262 1305.93 L610.864 1305.93 Q612.091 1303.57 612.716 1301.28 Q613.318 1298.98 613.318 1296.74 Q613.318 1293.73 612.299 1292.11 Q611.258 1290.49 609.383 1290.49 Q607.647 1290.49 606.721 1291.67 Q605.795 1292.83 604.938 1296.78 L604.591 1298.27 Q603.758 1302.22 602.045 1303.98 Q600.309 1305.74 597.3 1305.74 Q593.642 1305.74 591.651 1303.15 Q589.661 1300.56 589.661 1295.79 Q589.661 1293.43 590.008 1291.35 Q590.355 1289.26 591.05 1287.5 Z" fill="#000000" fill-rule="evenodd" fill-opacity="1" /><path clip-path="url(#clip630)" d="M602.184 1257.16 L604.267 1257.16 L604.267 1276.74 Q608.665 1276.46 610.98 1274.1 Q613.272 1271.72 613.272 1267.48 Q613.272 1265.03 612.67 1262.73 Q612.068 1260.42 610.864 1258.15 L614.892 1258.15 Q615.864 1260.44 616.374 1262.85 Q616.883 1265.26 616.883 1267.73 Q616.883 1273.94 613.272 1277.57 Q609.661 1281.18 603.503 1281.18 Q597.138 1281.18 593.411 1277.76 Q589.661 1274.31 589.661 1268.47 Q589.661 1263.24 593.04 1260.21 Q596.397 1257.16 602.184 1257.16 M600.934 1261.41 Q597.438 1261.46 595.355 1263.38 Q593.272 1265.28 593.272 1268.43 Q593.272 1271.99 595.286 1274.15 Q597.3 1276.28 600.957 1276.6 L600.934 1261.41 Z" fill="#000000" fill-rule="evenodd" fill-opacity="1" /><path clip-path="url(#clip630)" d="M582.925 1245.95 L590.286 1245.95 L590.286 1237.18 L593.596 1237.18 L593.596 1245.95 L607.67 1245.95 Q610.841 1245.95 611.744 1245.1 Q612.647 1244.22 612.647 1241.55 L612.647 1237.18 L616.211 1237.18 L616.211 1241.55 Q616.211 1246.48 614.383 1248.36 Q612.531 1250.23 607.67 1250.23 L593.596 1250.23 L593.596 1253.36 L590.286 1253.36 L590.286 1250.23 L582.925 1250.23 L582.925 1245.95 Z" fill="#000000" fill-rule="evenodd" fill-opacity="1" /><path clip-path="url(#clip630)" d="M885.367 1540.79 Q880.737 1540.79 878.191 1542.71 Q875.645 1544.61 875.645 1548.06 Q875.645 1551.48 878.191 1553.4 Q880.737 1555.3 885.367 1555.3 Q889.974 1555.3 892.52 1553.4 Q895.066 1551.48 895.066 1548.06 Q895.066 1544.61 892.52 1542.71 Q889.974 1540.79 885.367 1540.79 M895.413 1536.53 Q902.034 1536.53 905.251 1539.47 Q908.492 1542.41 908.492 1548.47 Q908.492 1550.72 908.145 1552.71 Q907.821 1554.7 907.126 1556.58 L902.983 1556.58 Q904.001 1554.7 904.487 1552.87 Q904.973 1551.04 904.973 1549.14 Q904.973 1544.95 902.774 1542.87 Q900.598 1540.79 896.177 1540.79 L894.071 1540.79 Q896.362 1542.11 897.497 1544.17 Q898.631 1546.23 898.631 1549.1 Q898.631 1553.87 894.997 1556.78 Q891.362 1559.7 885.367 1559.7 Q879.349 1559.7 875.714 1556.78 Q872.08 1553.87 872.08 1549.1 Q872.08 1546.23 873.214 1544.17 Q874.349 1542.11 876.64 1540.79 L872.705 1540.79 L872.705 1536.53 L895.413 1536.53 Z" fill="#000000" fill-rule="evenodd" fill-opacity="1" /><path clip-path="url(#clip630)" d="M876.687 1512.73 Q876.27 1513.45 876.085 1514.31 Q875.876 1515.14 875.876 1516.16 Q875.876 1519.77 878.237 1521.71 Q880.575 1523.64 884.974 1523.64 L898.631 1523.64 L898.631 1527.92 L872.705 1527.92 L872.705 1523.64 L876.733 1523.64 Q874.372 1522.29 873.237 1520.14 Q872.08 1517.99 872.08 1514.91 Q872.08 1514.47 872.15 1513.94 Q872.196 1513.4 872.312 1512.76 L876.687 1512.73 Z" fill="#000000" fill-rule="evenodd" fill-opacity="1" /><path clip-path="url(#clip630)" d="M875.691 1499.26 Q875.691 1502.69 878.376 1504.68 Q881.038 1506.67 885.691 1506.67 Q890.344 1506.67 893.029 1504.7 Q895.691 1502.71 895.691 1499.26 Q895.691 1495.86 893.006 1493.87 Q890.321 1491.88 885.691 1491.88 Q881.085 1491.88 878.4 1493.87 Q875.691 1495.86 875.691 1499.26 M872.08 1499.26 Q872.08 1493.71 875.691 1490.53 Q879.302 1487.36 885.691 1487.36 Q892.057 1487.36 895.691 1490.53 Q899.302 1493.71 899.302 1499.26 Q899.302 1504.84 895.691 1508.01 Q892.057 1511.16 885.691 1511.16 Q879.302 1511.16 875.691 1508.01 Q872.08 1504.84 872.08 1499.26 Z" fill="#000000" fill-rule="evenodd" fill-opacity="1" /><path clip-path="url(#clip630)" d="M888.399 1480.74 L872.705 1480.74 L872.705 1476.48 L888.237 1476.48 Q891.918 1476.48 893.77 1475.05 Q895.598 1473.61 895.598 1470.74 Q895.598 1467.29 893.399 1465.3 Q891.2 1463.29 887.404 1463.29 L872.705 1463.29 L872.705 1459.03 L898.631 1459.03 L898.631 1463.29 L894.649 1463.29 Q897.011 1464.84 898.168 1466.9 Q899.302 1468.94 899.302 1471.65 Q899.302 1476.11 896.524 1478.43 Q893.747 1480.74 888.399 1480.74 M872.08 1470.02 L872.08 1470.02 Z" fill="#000000" fill-rule="evenodd" fill-opacity="1" /><path clip-path="url(#clip630)" d="M882.983 1428.71 L898.631 1428.71 L898.631 1432.96 L883.122 1432.96 Q879.441 1432.96 877.612 1434.4 Q875.784 1435.84 875.784 1438.71 Q875.784 1442.15 877.983 1444.15 Q880.182 1446.14 883.978 1446.14 L898.631 1446.14 L898.631 1450.42 L872.705 1450.42 L872.705 1446.14 L876.733 1446.14 Q874.395 1444.61 873.237 1442.55 Q872.08 1440.46 872.08 1437.76 Q872.08 1433.29 874.858 1431 Q877.612 1428.71 882.983 1428.71 Z" fill="#000000" fill-rule="evenodd" fill-opacity="1" /><path clip-path="url(#clip630)" d="M876.64 1403.15 L862.613 1403.15 L862.613 1398.89 L898.631 1398.89 L898.631 1403.15 L894.742 1403.15 Q897.057 1404.49 898.191 1406.55 Q899.302 1408.59 899.302 1411.46 Q899.302 1416.16 895.552 1419.12 Q891.802 1422.06 885.691 1422.06 Q879.58 1422.06 875.83 1419.12 Q872.08 1416.16 872.08 1411.46 Q872.08 1408.59 873.214 1406.55 Q874.325 1404.49 876.64 1403.15 M885.691 1417.66 Q890.39 1417.66 893.075 1415.74 Q895.737 1413.8 895.737 1410.42 Q895.737 1407.04 893.075 1405.09 Q890.39 1403.15 885.691 1403.15 Q880.992 1403.15 878.33 1405.09 Q875.645 1407.04 875.645 1410.42 Q875.645 1413.8 878.33 1415.74 Q880.992 1417.66 885.691 1417.66 Z" fill="#000000" fill-rule="evenodd" fill-opacity="1" /><path clip-path="url(#clip630)" d="M906.501 1370.42 L909.811 1370.42 L909.811 1395.05 L906.501 1395.05 L906.501 1370.42 Z" fill="#000000" fill-rule="evenodd" fill-opacity="1" /><path clip-path="url(#clip630)" d="M875.691 1356.37 Q875.691 1359.79 878.376 1361.78 Q881.038 1363.78 885.691 1363.78 Q890.344 1363.78 893.029 1361.81 Q895.691 1359.82 895.691 1356.37 Q895.691 1352.97 893.006 1350.97 Q890.321 1348.98 885.691 1348.98 Q881.085 1348.98 878.4 1350.97 Q875.691 1352.97 875.691 1356.37 M872.08 1356.37 Q872.08 1350.81 875.691 1347.64 Q879.302 1344.47 885.691 1344.47 Q892.057 1344.47 895.691 1347.64 Q899.302 1350.81 899.302 1356.37 Q899.302 1361.95 895.691 1365.12 Q892.057 1368.27 885.691 1368.27 Q879.302 1368.27 875.691 1365.12 Q872.08 1361.95 872.08 1356.37 Z" fill="#000000" fill-rule="evenodd" fill-opacity="1" /><path clip-path="url(#clip630)" d="M862.613 1324.28 L866.154 1324.28 L866.154 1328.36 Q866.154 1330.65 867.08 1331.55 Q868.006 1332.43 870.413 1332.43 L872.705 1332.43 L872.705 1325.42 L876.015 1325.42 L876.015 1332.43 L898.631 1332.43 L898.631 1336.72 L876.015 1336.72 L876.015 1340.79 L872.705 1340.79 L872.705 1336.72 L870.9 1336.72 Q866.571 1336.72 864.603 1334.7 Q862.613 1332.69 862.613 1328.31 L862.613 1324.28 Z" fill="#000000" fill-rule="evenodd" fill-opacity="1" /><path clip-path="url(#clip630)" d="M862.613 1307.6 L866.154 1307.6 L866.154 1311.67 Q866.154 1313.96 867.08 1314.86 Q868.006 1315.74 870.413 1315.74 L872.705 1315.74 L872.705 1308.73 L876.015 1308.73 L876.015 1315.74 L898.631 1315.74 L898.631 1320.03 L876.015 1320.03 L876.015 1324.1 L872.705 1324.1 L872.705 1320.03 L870.9 1320.03 Q866.571 1320.03 864.603 1318.01 Q862.613 1316 862.613 1311.62 L862.613 1307.6 Z" fill="#000000" fill-rule="evenodd" fill-opacity="1" /><path clip-path="url(#clip630)" d="M873.469 1287.5 L877.497 1287.5 Q876.571 1289.31 876.108 1291.25 Q875.645 1293.2 875.645 1295.28 Q875.645 1298.45 876.617 1300.05 Q877.589 1301.62 879.534 1301.62 Q881.015 1301.62 881.872 1300.49 Q882.705 1299.35 883.469 1295.93 L883.793 1294.47 Q884.765 1289.93 886.548 1288.04 Q888.307 1286.11 891.478 1286.11 Q895.089 1286.11 897.196 1288.98 Q899.302 1291.83 899.302 1296.83 Q899.302 1298.91 898.886 1301.18 Q898.492 1303.43 897.682 1305.93 L893.284 1305.93 Q894.511 1303.57 895.136 1301.28 Q895.737 1298.98 895.737 1296.74 Q895.737 1293.73 894.719 1292.11 Q893.677 1290.49 891.802 1290.49 Q890.066 1290.49 889.14 1291.67 Q888.214 1292.83 887.358 1296.78 L887.011 1298.27 Q886.177 1302.22 884.464 1303.98 Q882.728 1305.74 879.719 1305.74 Q876.062 1305.74 874.071 1303.15 Q872.08 1300.56 872.08 1295.79 Q872.08 1293.43 872.427 1291.35 Q872.775 1289.26 873.469 1287.5 Z" fill="#000000" fill-rule="evenodd" fill-opacity="1" /><path clip-path="url(#clip630)" d="M884.603 1257.16 L886.687 1257.16 L886.687 1276.74 Q891.085 1276.46 893.399 1274.1 Q895.691 1271.72 895.691 1267.48 Q895.691 1265.03 895.089 1262.73 Q894.487 1260.42 893.284 1258.15 L897.311 1258.15 Q898.284 1260.44 898.793 1262.85 Q899.302 1265.26 899.302 1267.73 Q899.302 1273.94 895.691 1277.57 Q892.08 1281.18 885.923 1281.18 Q879.557 1281.18 875.83 1277.76 Q872.08 1274.31 872.08 1268.47 Q872.08 1263.24 875.46 1260.21 Q878.816 1257.16 884.603 1257.16 M883.353 1261.41 Q879.858 1261.46 877.775 1263.38 Q875.691 1265.28 875.691 1268.43 Q875.691 1271.99 877.705 1274.15 Q879.719 1276.28 883.376 1276.6 L883.353 1261.41 Z" fill="#000000" fill-rule="evenodd" fill-opacity="1" /><path clip-path="url(#clip630)" d="M865.344 1245.95 L872.705 1245.95 L872.705 1237.18 L876.015 1237.18 L876.015 1245.95 L890.089 1245.95 Q893.261 1245.95 894.163 1245.1 Q895.066 1244.22 895.066 1241.55 L895.066 1237.18 L898.631 1237.18 L898.631 1241.55 Q898.631 1246.48 896.802 1248.36 Q894.95 1250.23 890.089 1250.23 L876.015 1250.23 L876.015 1253.36 L872.705 1253.36 L872.705 1250.23 L865.344 1250.23 L865.344 1245.95 Z" fill="#000000" fill-rule="evenodd" fill-opacity="1" /><path clip-path="url(#clip630)" d="M1145.03 1312.09 L1148.57 1312.09 L1148.57 1316.16 Q1148.57 1318.45 1149.5 1319.35 Q1150.43 1320.23 1152.83 1320.23 L1155.12 1320.23 L1155.12 1313.22 L1158.43 1313.22 L1158.43 1320.23 L1181.05 1320.23 L1181.05 1324.52 L1158.43 1324.52 L1158.43 1328.59 L1155.12 1328.59 L1155.12 1324.52 L1153.32 1324.52 Q1148.99 1324.52 1147.02 1322.5 Q1145.03 1320.49 1145.03 1316.11 L1145.03 1312.09 Z" fill="#000000" fill-rule="evenodd" fill-opacity="1" /><path clip-path="url(#clip630)" d="M1158.11 1298.47 Q1158.11 1301.9 1160.8 1303.89 Q1163.46 1305.88 1168.11 1305.88 Q1172.76 1305.88 1175.45 1303.91 Q1178.11 1301.92 1178.11 1298.47 Q1178.11 1295.07 1175.43 1293.08 Q1172.74 1291.09 1168.11 1291.09 Q1163.5 1291.09 1160.82 1293.08 Q1158.11 1295.07 1158.11 1298.47 M1154.5 1298.47 Q1154.5 1292.92 1158.11 1289.75 Q1161.72 1286.58 1168.11 1286.58 Q1174.48 1286.58 1178.11 1289.75 Q1181.72 1292.92 1181.72 1298.47 Q1181.72 1304.05 1178.11 1307.22 Q1174.48 1310.37 1168.11 1310.37 Q1161.72 1310.37 1158.11 1307.22 Q1154.5 1304.05 1154.5 1298.47 Z" fill="#000000" fill-rule="evenodd" fill-opacity="1" /><path clip-path="url(#clip630)" d="M1159.11 1264.49 Q1158.69 1265.21 1158.5 1266.07 Q1158.3 1266.9 1158.3 1267.92 Q1158.3 1271.53 1160.66 1273.47 Q1162.99 1275.4 1167.39 1275.4 L1181.05 1275.4 L1181.05 1279.68 L1155.12 1279.68 L1155.12 1275.4 L1159.15 1275.4 Q1156.79 1274.05 1155.66 1271.9 Q1154.5 1269.75 1154.5 1266.67 Q1154.5 1266.23 1154.57 1265.7 Q1154.62 1265.16 1154.73 1264.52 L1159.11 1264.49 Z" fill="#000000" fill-rule="evenodd" fill-opacity="1" /><path clip-path="url(#clip630)" d="M1145.03 1260.19 L1145.03 1255.91 L1166.3 1255.91 L1155.12 1243.2 L1155.12 1237.76 L1167.25 1251.51 L1181.05 1237.18 L1181.05 1242.73 L1168.39 1255.91 L1181.05 1255.91 L1181.05 1260.19 L1145.03 1260.19 Z" fill="#000000" fill-rule="evenodd" fill-opacity="1" /><path clip-path="url(#clip630)" d="M1437.54 1481.14 L1437.54 1460.9 L1441.43 1460.9 L1460.07 1476.92 L1460.07 1460.9 L1463.47 1460.9 L1463.47 1481.71 L1459.58 1481.71 L1440.95 1465.7 L1440.95 1481.14 L1437.54 1481.14 Z" fill="#000000" fill-rule="evenodd" fill-opacity="1" /><path clip-path="url(#clip630)" d="M1463.47 1445.3 L1428.91 1458.5 L1428.91 1453.61 L1458.01 1442.66 L1428.91 1431.69 L1428.91 1426.83 L1463.47 1440 L1463.47 1445.3 Z" fill="#000000" fill-rule="evenodd" fill-opacity="1" /><path clip-path="url(#clip630)" d="M1433.52 1413.27 L1450.72 1419.61 L1450.72 1406.9 L1433.52 1413.27 M1428.91 1415.9 L1428.91 1410.6 L1463.47 1397.43 L1463.47 1402.29 L1454.6 1405.44 L1454.6 1421.02 L1463.47 1424.17 L1463.47 1429.1 L1428.91 1415.9 Z" fill="#000000" fill-rule="evenodd" fill-opacity="1" /><path clip-path="url(#clip630)" d="M1428.91 1394.05 L1428.91 1389.03 L1441.76 1380.44 L1428.91 1371.81 L1428.91 1366.78 L1445.51 1377.9 L1463.47 1366.04 L1463.47 1371.07 L1448.77 1380.79 L1463.47 1390.58 L1463.47 1395.63 L1445.02 1383.29 L1428.91 1394.05 Z" fill="#000000" fill-rule="evenodd" fill-opacity="1" /><path clip-path="url(#clip630)" d="M1444.88 1353.03 Q1446.76 1355.14 1448.63 1356.14 Q1450.48 1357.11 1452.52 1357.11 Q1455.9 1357.11 1458.15 1354.66 Q1460.39 1352.2 1460.39 1348.5 Q1460.39 1346.3 1459.67 1344.38 Q1458.93 1342.46 1457.45 1340.77 L1444.88 1353.03 M1442.29 1349.77 L1454.33 1338.01 Q1452.27 1336.65 1449.93 1335.88 Q1447.57 1335.12 1444.93 1334.98 L1444.93 1330.67 Q1447.98 1330.95 1450.97 1332.16 Q1453.96 1333.36 1456.87 1335.51 L1463.47 1329.05 L1463.47 1334.89 L1460.07 1338.2 Q1462.13 1340.6 1463.15 1343.24 Q1464.14 1345.88 1464.14 1348.91 Q1464.14 1354.49 1460.97 1358.03 Q1457.78 1361.58 1452.8 1361.58 Q1449.84 1361.58 1447.24 1360.03 Q1444.63 1358.47 1442.34 1355.37 Q1440.88 1356.48 1439.44 1357.06 Q1437.98 1357.64 1436.59 1357.64 Q1432.84 1357.64 1430.58 1355.07 Q1428.28 1352.5 1428.28 1348.24 Q1428.28 1346.32 1428.7 1344.42 Q1429.12 1342.5 1429.95 1340.53 L1434.16 1340.53 Q1433.08 1342.55 1432.52 1344.38 Q1431.94 1346.21 1431.94 1347.78 Q1431.94 1350.21 1433.24 1351.74 Q1434.51 1353.24 1436.55 1353.24 Q1437.73 1353.24 1438.93 1352.57 Q1440.11 1351.88 1442.29 1349.77 Z" fill="#000000" fill-rule="evenodd" fill-opacity="1" /><path clip-path="url(#clip630)" d="M1464.14 1314.86 Q1464.14 1324.47 1450.39 1324.47 Q1444.95 1324.47 1437.54 1320.88 L1437.54 1316.3 Q1444.95 1319.61 1450.51 1319.61 Q1460.53 1319.61 1460.53 1314.47 Q1460.53 1309.77 1448.08 1309.77 L1448.08 1305.84 Q1460.53 1305.84 1460.53 1301.14 Q1460.53 1296 1450.51 1296 Q1444.95 1296 1437.54 1299.31 L1437.54 1294.72 Q1444.95 1291.14 1450.39 1291.14 Q1464.14 1291.14 1464.14 1300.74 Q1464.14 1307.04 1457.22 1307.8 Q1464.14 1308.75 1464.14 1314.86 Z" fill="#000000" fill-rule="evenodd" fill-opacity="1" /><path clip-path="url(#clip630)" d="M1471.34 1263.73 L1474.65 1263.73 L1474.65 1288.36 L1471.34 1288.36 L1471.34 1263.73 Z" fill="#000000" fill-rule="evenodd" fill-opacity="1" /><path clip-path="url(#clip630)" d="M1431.99 1249.12 Q1431.99 1252.73 1435.55 1254.56 Q1439.09 1256.37 1446.22 1256.37 Q1453.33 1256.37 1456.9 1254.56 Q1460.44 1252.73 1460.44 1249.12 Q1460.44 1245.49 1456.9 1243.68 Q1453.33 1241.85 1446.22 1241.85 Q1439.09 1241.85 1435.55 1243.68 Q1431.99 1245.49 1431.99 1249.12 M1428.28 1249.12 Q1428.28 1243.31 1432.89 1240.26 Q1437.47 1237.18 1446.22 1237.18 Q1454.95 1237.18 1459.56 1240.26 Q1464.14 1243.31 1464.14 1249.12 Q1464.14 1254.93 1459.56 1258.01 Q1454.95 1261.07 1446.22 1261.07 Q1437.47 1261.07 1432.89 1258.01 Q1428.28 1254.93 1428.28 1249.12 Z" fill="#000000" fill-rule="evenodd" fill-opacity="1" /><path clip-path="url(#clip630)" d="M1719.96 1511.3 L1719.96 1491.07 L1723.85 1491.07 L1742.49 1507.08 L1742.49 1491.07 L1745.89 1491.07 L1745.89 1511.88 L1742 1511.88 L1723.37 1495.86 L1723.37 1511.3 L1719.96 1511.3 Z" fill="#000000" fill-rule="evenodd" fill-opacity="1" /><path clip-path="url(#clip630)" d="M1745.89 1475.46 L1711.33 1488.66 L1711.33 1483.77 L1740.43 1472.83 L1711.33 1461.85 L1711.33 1456.99 L1745.89 1470.16 L1745.89 1475.46 Z" fill="#000000" fill-rule="evenodd" fill-opacity="1" /><path clip-path="url(#clip630)" d="M1715.94 1443.43 L1733.13 1449.77 L1733.13 1437.06 L1715.94 1443.43 M1711.33 1446.07 L1711.33 1440.77 L1745.89 1427.59 L1745.89 1432.46 L1737.02 1435.6 L1737.02 1451.18 L1745.89 1454.33 L1745.89 1459.26 L1711.33 1446.07 Z" fill="#000000" fill-rule="evenodd" fill-opacity="1" /><path clip-path="url(#clip630)" d="M1711.33 1424.21 L1711.33 1419.19 L1724.18 1410.6 L1711.33 1401.97 L1711.33 1396.95 L1727.93 1408.06 L1745.89 1396.21 L1745.89 1401.23 L1731.19 1410.95 L1745.89 1420.74 L1745.89 1425.79 L1727.44 1413.45 L1711.33 1424.21 Z" fill="#000000" fill-rule="evenodd" fill-opacity="1" /><path clip-path="url(#clip630)" d="M1727.3 1383.2 Q1729.18 1385.3 1731.05 1386.3 Q1732.9 1387.27 1734.94 1387.27 Q1738.32 1387.27 1740.57 1384.82 Q1742.81 1382.36 1742.81 1378.66 Q1742.81 1376.46 1742.09 1374.54 Q1741.35 1372.62 1739.87 1370.93 L1727.3 1383.2 M1724.71 1379.93 L1736.75 1368.17 Q1734.69 1366.81 1732.35 1366.04 Q1729.99 1365.28 1727.35 1365.14 L1727.35 1360.84 Q1730.4 1361.11 1733.39 1362.32 Q1736.38 1363.52 1739.29 1365.67 L1745.89 1359.22 L1745.89 1365.05 L1742.49 1368.36 Q1744.55 1370.77 1745.56 1373.4 Q1746.56 1376.04 1746.56 1379.08 Q1746.56 1384.65 1743.39 1388.2 Q1740.19 1391.74 1735.22 1391.74 Q1732.25 1391.74 1729.66 1390.19 Q1727.05 1388.64 1724.75 1385.53 Q1723.3 1386.65 1721.86 1387.22 Q1720.4 1387.8 1719.01 1387.8 Q1715.26 1387.8 1713 1385.23 Q1710.7 1382.66 1710.7 1378.4 Q1710.7 1376.48 1711.12 1374.59 Q1711.54 1372.66 1712.37 1370.7 L1716.58 1370.7 Q1715.5 1372.71 1714.94 1374.54 Q1714.36 1376.37 1714.36 1377.94 Q1714.36 1380.37 1715.66 1381.9 Q1716.93 1383.4 1718.97 1383.4 Q1720.15 1383.4 1721.35 1382.73 Q1722.53 1382.04 1724.71 1379.93 Z" fill="#000000" fill-rule="evenodd" fill-opacity="1" /><path clip-path="url(#clip630)" d="M1746.56 1345.03 Q1746.56 1354.63 1732.81 1354.63 Q1727.37 1354.63 1719.96 1351.04 L1719.96 1346.46 Q1727.37 1349.77 1732.93 1349.77 Q1742.95 1349.77 1742.95 1344.63 Q1742.95 1339.93 1730.5 1339.93 L1730.5 1336 Q1742.95 1336 1742.95 1331.3 Q1742.95 1326.16 1732.93 1326.16 Q1727.37 1326.16 1719.96 1329.47 L1719.96 1324.89 Q1727.37 1321.3 1732.81 1321.3 Q1746.56 1321.3 1746.56 1330.91 Q1746.56 1337.2 1739.64 1337.97 Q1746.56 1338.91 1746.56 1345.03 Z" fill="#000000" fill-rule="evenodd" fill-opacity="1" /><path clip-path="url(#clip630)" d="M1753.76 1293.89 L1757.07 1293.89 L1757.07 1318.52 L1753.76 1318.52 L1753.76 1293.89 Z" fill="#000000" fill-rule="evenodd" fill-opacity="1" /><path clip-path="url(#clip630)" d="M1745.17 1289.15 L1740.91 1289.15 Q1741.75 1287.39 1742.19 1285.58 Q1742.63 1283.78 1742.63 1282.04 Q1742.63 1277.41 1739.52 1274.98 Q1736.4 1272.53 1730.06 1272.18 Q1732.05 1273.52 1733.11 1275.58 Q1734.18 1277.64 1734.18 1280.14 Q1734.18 1285.33 1731.05 1288.36 Q1727.9 1291.37 1722.46 1291.37 Q1717.14 1291.37 1713.92 1288.22 Q1710.7 1285.07 1710.7 1279.84 Q1710.7 1273.85 1715.31 1270.7 Q1719.89 1267.53 1728.64 1267.53 Q1736.82 1267.53 1741.7 1271.41 Q1746.56 1275.28 1746.56 1281.83 Q1746.56 1283.59 1746.21 1285.4 Q1745.87 1287.2 1745.17 1289.15 M1730.52 1279.84 Q1730.52 1276.69 1728.37 1274.86 Q1726.21 1273.01 1722.46 1273.01 Q1718.74 1273.01 1716.58 1274.86 Q1714.41 1276.69 1714.41 1279.84 Q1714.41 1282.99 1716.58 1284.84 Q1718.74 1286.67 1722.46 1286.67 Q1726.21 1286.67 1728.37 1284.84 Q1730.52 1282.99 1730.52 1279.84 Z" fill="#000000" fill-rule="evenodd" fill-opacity="1" /><path clip-path="url(#clip630)" d="M1714.41 1249.12 Q1714.41 1252.73 1717.97 1254.56 Q1721.51 1256.37 1728.64 1256.37 Q1735.75 1256.37 1739.32 1254.56 Q1742.86 1252.73 1742.86 1249.12 Q1742.86 1245.49 1739.32 1243.68 Q1735.75 1241.85 1728.64 1241.85 Q1721.51 1241.85 1717.97 1243.68 Q1714.41 1245.49 1714.41 1249.12 M1710.7 1249.12 Q1710.7 1243.31 1715.31 1240.26 Q1719.89 1237.18 1728.64 1237.18 Q1737.37 1237.18 1741.98 1240.26 Q1746.56 1243.31 1746.56 1249.12 Q1746.56 1254.93 1741.98 1258.01 Q1737.37 1261.07 1728.64 1261.07 Q1719.89 1261.07 1715.31 1258.01 Q1710.7 1254.93 1710.7 1249.12 Z" fill="#000000" fill-rule="evenodd" fill-opacity="1" /><path clip-path="url(#clip630)" d="M2002.38 1541.46 L2002.38 1521.23 L2006.27 1521.23 L2024.91 1537.25 L2024.91 1521.23 L2028.31 1521.23 L2028.31 1542.04 L2024.42 1542.04 L2005.79 1526.02 L2005.79 1541.46 L2002.38 1541.46 Z" fill="#000000" fill-rule="evenodd" fill-opacity="1" /><path clip-path="url(#clip630)" d="M2028.31 1505.63 L1993.75 1518.82 L1993.75 1513.94 L2022.85 1502.99 L1993.75 1492.02 L1993.75 1487.15 L2028.31 1500.33 L2028.31 1505.63 Z" fill="#000000" fill-rule="evenodd" fill-opacity="1" /><path clip-path="url(#clip630)" d="M1998.35 1473.59 L2015.55 1479.93 L2015.55 1467.22 L1998.35 1473.59 M1993.75 1476.23 L1993.75 1470.93 L2028.31 1457.76 L2028.31 1462.62 L2019.44 1465.77 L2019.44 1481.34 L2028.31 1484.49 L2028.31 1489.42 L1993.75 1476.23 Z" fill="#000000" fill-rule="evenodd" fill-opacity="1" /><path clip-path="url(#clip630)" d="M1993.75 1454.38 L1993.75 1449.35 L2006.6 1440.77 L1993.75 1432.13 L1993.75 1427.11 L2010.35 1438.22 L2028.31 1426.37 L2028.31 1431.39 L2013.61 1441.11 L2028.31 1450.9 L2028.31 1455.95 L2009.86 1443.61 L1993.75 1454.38 Z" fill="#000000" fill-rule="evenodd" fill-opacity="1" /><path clip-path="url(#clip630)" d="M2009.72 1413.36 Q2011.6 1415.46 2013.47 1416.46 Q2015.32 1417.43 2017.36 1417.43 Q2020.74 1417.43 2022.98 1414.98 Q2025.23 1412.53 2025.23 1408.82 Q2025.23 1406.62 2024.51 1404.7 Q2023.77 1402.78 2022.29 1401.09 L2009.72 1413.36 M2007.13 1410.09 L2019.16 1398.34 Q2017.1 1396.97 2014.77 1396.21 Q2012.41 1395.44 2009.77 1395.3 L2009.77 1391 Q2012.82 1391.28 2015.81 1392.48 Q2018.79 1393.68 2021.71 1395.84 L2028.31 1389.38 L2028.31 1395.21 L2024.91 1398.52 Q2026.97 1400.93 2027.98 1403.57 Q2028.98 1406.21 2028.98 1409.24 Q2028.98 1414.82 2025.81 1418.36 Q2022.61 1421.9 2017.64 1421.9 Q2014.67 1421.9 2012.08 1420.35 Q2009.47 1418.8 2007.17 1415.7 Q2005.72 1416.81 2004.28 1417.39 Q2002.82 1417.96 2001.43 1417.96 Q1997.68 1417.96 1995.42 1415.4 Q1993.12 1412.83 1993.12 1408.57 Q1993.12 1406.65 1993.54 1404.75 Q1993.96 1402.83 1994.79 1400.86 L1999 1400.86 Q1997.92 1402.87 1997.36 1404.7 Q1996.78 1406.53 1996.78 1408.1 Q1996.78 1410.53 1998.08 1412.06 Q1999.35 1413.57 2001.39 1413.57 Q2002.57 1413.57 2003.77 1412.9 Q2004.95 1412.2 2007.13 1410.09 Z" fill="#000000" fill-rule="evenodd" fill-opacity="1" /><path clip-path="url(#clip630)" d="M2028.98 1375.19 Q2028.98 1384.79 2015.23 1384.79 Q2009.79 1384.79 2002.38 1381.21 L2002.38 1376.62 Q2009.79 1379.93 2015.35 1379.93 Q2025.37 1379.93 2025.37 1374.79 Q2025.37 1370.09 2012.92 1370.09 L2012.92 1366.16 Q2025.37 1366.16 2025.37 1361.46 Q2025.37 1356.32 2015.35 1356.32 Q2009.79 1356.32 2002.38 1359.63 L2002.38 1355.05 Q2009.79 1351.46 2015.23 1351.46 Q2028.98 1351.46 2028.98 1361.07 Q2028.98 1367.36 2022.06 1368.13 Q2028.98 1369.08 2028.98 1375.19 Z" fill="#000000" fill-rule="evenodd" fill-opacity="1" /><path clip-path="url(#clip630)" d="M2036.18 1324.05 L2039.49 1324.05 L2039.49 1348.68 L2036.18 1348.68 L2036.18 1324.05 Z" fill="#000000" fill-rule="evenodd" fill-opacity="1" /><path clip-path="url(#clip630)" d="M2024.37 1318.64 L2024.37 1311 L1998.01 1311 L1999.67 1319.31 L1995.42 1319.31 L1993.75 1311.04 L1993.75 1306.37 L2024.37 1306.37 L2024.37 1298.73 L2028.31 1298.73 L2028.31 1318.64 L2024.37 1318.64 Z" fill="#000000" fill-rule="evenodd" fill-opacity="1" /><path clip-path="url(#clip630)" d="M2011.9 1279.29 Q2011.9 1282.62 2013.68 1284.54 Q2015.46 1286.44 2018.59 1286.44 Q2021.71 1286.44 2023.49 1284.54 Q2025.28 1282.62 2025.28 1279.29 Q2025.28 1275.95 2023.49 1274.03 Q2021.69 1272.11 2018.59 1272.11 Q2015.46 1272.11 2013.68 1274.03 Q2011.9 1275.93 2011.9 1279.29 M2009.91 1283.96 Q2009.17 1286.97 2007.1 1288.66 Q2005.04 1290.33 2002.08 1290.33 Q1997.94 1290.33 1995.53 1287.39 Q1993.12 1284.42 1993.12 1279.29 Q1993.12 1274.12 1995.53 1271.18 Q1997.94 1268.24 2002.08 1268.24 Q2005.04 1268.24 2007.1 1269.93 Q2009.17 1271.6 2009.91 1274.59 Q2010.69 1271.21 2012.98 1269.33 Q2015.28 1267.43 2018.59 1267.43 Q2023.61 1267.43 2026.29 1270.51 Q2028.98 1273.57 2028.98 1279.29 Q2028.98 1285 2026.29 1288.08 Q2023.61 1291.14 2018.59 1291.14 Q2015.28 1291.14 2012.98 1289.24 Q2010.69 1287.34 2009.91 1283.96 M2002.52 1285.67 Q2005.21 1285.67 2006.71 1284.01 Q2008.22 1282.32 2008.22 1279.29 Q2008.22 1276.28 2006.71 1274.59 Q2005.21 1272.87 2002.52 1272.87 Q1999.84 1272.87 1998.33 1274.59 Q1996.83 1276.28 1996.83 1279.29 Q1996.83 1282.32 1998.33 1284.01 Q1999.84 1285.67 2002.52 1285.67 Z" fill="#000000" fill-rule="evenodd" fill-opacity="1" /><path clip-path="url(#clip630)" d="M1996.83 1249.12 Q1996.83 1252.73 2000.39 1254.56 Q2003.93 1256.37 2011.06 1256.37 Q2018.17 1256.37 2021.73 1254.56 Q2025.28 1252.73 2025.28 1249.12 Q2025.28 1245.49 2021.73 1243.68 Q2018.17 1241.85 2011.06 1241.85 Q2003.93 1241.85 2000.39 1243.68 Q1996.83 1245.49 1996.83 1249.12 M1993.12 1249.12 Q1993.12 1243.31 1997.73 1240.26 Q2002.31 1237.18 2011.06 1237.18 Q2019.79 1237.18 2024.4 1240.26 Q2028.98 1243.31 2028.98 1249.12 Q2028.98 1254.93 2024.4 1258.01 Q2019.79 1261.07 2011.06 1261.07 Q2002.31 1261.07 1997.73 1258.01 Q1993.12 1254.93 1993.12 1249.12 Z" fill="#000000" fill-rule="evenodd" fill-opacity="1" /><path clip-path="url(#clip630)" d="M2284.8 1541.46 L2284.8 1521.23 L2288.69 1521.23 L2307.33 1537.25 L2307.33 1521.23 L2310.73 1521.23 L2310.73 1542.04 L2306.84 1542.04 L2288.2 1526.02 L2288.2 1541.46 L2284.8 1541.46 Z" fill="#000000" fill-rule="evenodd" fill-opacity="1" /><path clip-path="url(#clip630)" d="M2310.73 1505.63 L2276.17 1518.82 L2276.17 1513.94 L2305.26 1502.99 L2276.17 1492.02 L2276.17 1487.15 L2310.73 1500.33 L2310.73 1505.63 Z" fill="#000000" fill-rule="evenodd" fill-opacity="1" /><path clip-path="url(#clip630)" d="M2280.77 1473.59 L2297.97 1479.93 L2297.97 1467.22 L2280.77 1473.59 M2276.17 1476.23 L2276.17 1470.93 L2310.73 1457.76 L2310.73 1462.62 L2301.86 1465.77 L2301.86 1481.34 L2310.73 1484.49 L2310.73 1489.42 L2276.17 1476.23 Z" fill="#000000" fill-rule="evenodd" fill-opacity="1" /><path clip-path="url(#clip630)" d="M2276.17 1454.38 L2276.17 1449.35 L2289.01 1440.77 L2276.17 1432.13 L2276.17 1427.11 L2292.76 1438.22 L2310.73 1426.37 L2310.73 1431.39 L2296.03 1441.11 L2310.73 1450.9 L2310.73 1455.95 L2292.28 1443.61 L2276.17 1454.38 Z" fill="#000000" fill-rule="evenodd" fill-opacity="1" /><path clip-path="url(#clip630)" d="M2292.14 1413.36 Q2294.01 1415.46 2295.89 1416.46 Q2297.74 1417.43 2299.78 1417.43 Q2303.16 1417.43 2305.4 1414.98 Q2307.65 1412.53 2307.65 1408.82 Q2307.65 1406.62 2306.93 1404.7 Q2306.19 1402.78 2304.71 1401.09 L2292.14 1413.36 M2289.55 1410.09 L2301.58 1398.34 Q2299.52 1396.97 2297.19 1396.21 Q2294.83 1395.44 2292.19 1395.3 L2292.19 1391 Q2295.24 1391.28 2298.23 1392.48 Q2301.21 1393.68 2304.13 1395.84 L2310.73 1389.38 L2310.73 1395.21 L2307.33 1398.52 Q2309.39 1400.93 2310.4 1403.57 Q2311.4 1406.21 2311.4 1409.24 Q2311.4 1414.82 2308.23 1418.36 Q2305.03 1421.9 2300.06 1421.9 Q2297.09 1421.9 2294.5 1420.35 Q2291.89 1418.8 2289.59 1415.7 Q2288.14 1416.81 2286.7 1417.39 Q2285.24 1417.96 2283.85 1417.96 Q2280.1 1417.96 2277.83 1415.4 Q2275.54 1412.83 2275.54 1408.57 Q2275.54 1406.65 2275.96 1404.75 Q2276.38 1402.83 2277.21 1400.86 L2281.42 1400.86 Q2280.33 1402.87 2279.78 1404.7 Q2279.2 1406.53 2279.2 1408.1 Q2279.2 1410.53 2280.5 1412.06 Q2281.77 1413.57 2283.81 1413.57 Q2284.99 1413.57 2286.19 1412.9 Q2287.37 1412.2 2289.55 1410.09 Z" fill="#000000" fill-rule="evenodd" fill-opacity="1" /><path clip-path="url(#clip630)" d="M2311.4 1375.19 Q2311.4 1384.79 2297.65 1384.79 Q2292.21 1384.79 2284.8 1381.21 L2284.8 1376.62 Q2292.21 1379.93 2297.76 1379.93 Q2307.79 1379.93 2307.79 1374.79 Q2307.79 1370.09 2295.33 1370.09 L2295.33 1366.16 Q2307.79 1366.16 2307.79 1361.46 Q2307.79 1356.32 2297.76 1356.32 Q2292.21 1356.32 2284.8 1359.63 L2284.8 1355.05 Q2292.21 1351.46 2297.65 1351.46 Q2311.4 1351.46 2311.4 1361.07 Q2311.4 1367.36 2304.48 1368.13 Q2311.4 1369.08 2311.4 1375.19 Z" fill="#000000" fill-rule="evenodd" fill-opacity="1" /><path clip-path="url(#clip630)" d="M2318.6 1324.05 L2321.91 1324.05 L2321.91 1348.68 L2318.6 1348.68 L2318.6 1324.05 Z" fill="#000000" fill-rule="evenodd" fill-opacity="1" /><path clip-path="url(#clip630)" d="M2306.79 1315.42 L2306.79 1299.1 L2310.73 1299.1 L2310.73 1321.04 L2306.79 1321.04 Q2304.04 1318.38 2299.41 1313.8 Q2294.76 1309.19 2293.41 1308.01 Q2290.89 1305.77 2289.15 1304.89 Q2287.39 1303.98 2285.7 1303.98 Q2282.95 1303.98 2281.21 1305.93 Q2279.48 1307.85 2279.48 1310.95 Q2279.48 1313.15 2280.24 1315.6 Q2281.01 1318.03 2282.56 1320.81 L2277.83 1320.81 Q2276.7 1317.99 2276.12 1315.53 Q2275.54 1313.08 2275.54 1311.04 Q2275.54 1305.67 2278.23 1302.48 Q2280.91 1299.28 2285.4 1299.28 Q2287.53 1299.28 2289.45 1300.1 Q2291.35 1300.88 2293.95 1302.99 Q2294.62 1303.57 2297.83 1306.67 Q2301.03 1309.77 2306.79 1315.42 Z" fill="#000000" fill-rule="evenodd" fill-opacity="1" /><path clip-path="url(#clip630)" d="M2276.17 1290.47 L2276.17 1268.24 L2278.16 1268.24 L2310.73 1280.79 L2310.73 1285.67 L2280.1 1273.87 L2280.1 1290.47 L2276.17 1290.47 Z" fill="#000000" fill-rule="evenodd" fill-opacity="1" /><path clip-path="url(#clip630)" d="M2279.25 1249.12 Q2279.25 1252.73 2282.81 1254.56 Q2286.35 1256.37 2293.48 1256.37 Q2300.59 1256.37 2304.15 1254.56 Q2307.7 1252.73 2307.7 1249.12 Q2307.7 1245.49 2304.15 1243.68 Q2300.59 1241.85 2293.48 1241.85 Q2286.35 1241.85 2282.81 1243.68 Q2279.25 1245.49 2279.25 1249.12 M2275.54 1249.12 Q2275.54 1243.31 2280.15 1240.26 Q2284.73 1237.18 2293.48 1237.18 Q2302.21 1237.18 2306.82 1240.26 Q2311.4 1243.31 2311.4 1249.12 Q2311.4 1254.93 2306.82 1258.01 Q2302.21 1261.07 2293.48 1261.07 Q2284.73 1261.07 2280.15 1258.01 Q2275.54 1254.93 2275.54 1249.12 Z" fill="#000000" fill-rule="evenodd" fill-opacity="1" /><polyline clip-path="url(#clip632)" style="stroke:#000000; stroke-linecap:round; stroke-linejoin:round; stroke-width:2; stroke-opacity:0.1; fill:none" points="
  257.204,1107.08 2352.76,1107.08 
  "/>
<polyline clip-path="url(#clip632)" style="stroke:#000000; stroke-linecap:round; stroke-linejoin:round; stroke-width:2; stroke-opacity:0.1; fill:none" points="
  257.204,811.232 2352.76,811.232 
  "/>
<polyline clip-path="url(#clip632)" style="stroke:#000000; stroke-linecap:round; stroke-linejoin:round; stroke-width:2; stroke-opacity:0.1; fill:none" points="
  257.204,515.379 2352.76,515.379 
  "/>
<polyline clip-path="url(#clip632)" style="stroke:#000000; stroke-linecap:round; stroke-linejoin:round; stroke-width:2; stroke-opacity:0.1; fill:none" points="
  257.204,219.526 2352.76,219.526 
  "/>
<polyline clip-path="url(#clip630)" style="stroke:#000000; stroke-linecap:round; stroke-linejoin:round; stroke-width:4; stroke-opacity:1; fill:none" points="
  257.204,1217.98 257.204,47.2441 
  "/>
<polyline clip-path="url(#clip630)" style="stroke:#000000; stroke-linecap:round; stroke-linejoin:round; stroke-width:4; stroke-opacity:1; fill:none" points="
  257.204,1107.08 276.102,1107.08 
  "/>
<polyline clip-path="url(#clip630)" style="stroke:#000000; stroke-linecap:round; stroke-linejoin:round; stroke-width:4; stroke-opacity:1; fill:none" points="
  257.204,811.232 276.102,811.232 
  "/>
<polyline clip-path="url(#clip630)" style="stroke:#000000; stroke-linecap:round; stroke-linejoin:round; stroke-width:4; stroke-opacity:1; fill:none" points="
  257.204,515.379 276.102,515.379 
  "/>
<polyline clip-path="url(#clip630)" style="stroke:#000000; stroke-linecap:round; stroke-linejoin:round; stroke-width:4; stroke-opacity:1; fill:none" points="
  257.204,219.526 276.102,219.526 
  "/>
<path clip-path="url(#clip630)" d="M115.487 1107.54 L145.163 1107.54 L145.163 1111.47 L115.487 1111.47 L115.487 1107.54 Z" fill="#000000" fill-rule="evenodd" fill-opacity="1" /><path clip-path="url(#clip630)" d="M169.422 1105.73 Q172.778 1106.45 174.653 1108.72 Q176.551 1110.98 176.551 1114.32 Q176.551 1119.43 173.033 1122.23 Q169.514 1125.04 163.033 1125.04 Q160.857 1125.04 158.542 1124.6 Q156.251 1124.18 153.797 1123.32 L153.797 1118.81 Q155.741 1119.94 158.056 1120.52 Q160.371 1121.1 162.894 1121.1 Q167.292 1121.1 169.584 1119.36 Q171.899 1117.63 171.899 1114.32 Q171.899 1111.26 169.746 1109.55 Q167.616 1107.81 163.797 1107.81 L159.769 1107.81 L159.769 1103.97 L163.982 1103.97 Q167.431 1103.97 169.26 1102.61 Q171.089 1101.22 171.089 1098.62 Q171.089 1095.96 169.19 1094.55 Q167.315 1093.11 163.797 1093.11 Q161.876 1093.11 159.677 1093.53 Q157.478 1093.95 154.839 1094.83 L154.839 1090.66 Q157.501 1089.92 159.815 1089.55 Q162.153 1089.18 164.214 1089.18 Q169.538 1089.18 172.639 1091.61 Q175.741 1094.02 175.741 1098.14 Q175.741 1101.01 174.098 1103 Q172.454 1104.97 169.422 1105.73 Z" fill="#000000" fill-rule="evenodd" fill-opacity="1" /><path clip-path="url(#clip630)" d="M185.417 1118.48 L190.301 1118.48 L190.301 1124.36 L185.417 1124.36 L185.417 1118.48 Z" fill="#000000" fill-rule="evenodd" fill-opacity="1" /><path clip-path="url(#clip630)" d="M201.297 1120.43 L208.936 1120.43 L208.936 1094.06 L200.625 1095.73 L200.625 1091.47 L208.889 1089.8 L213.565 1089.8 L213.565 1120.43 L221.204 1120.43 L221.204 1124.36 L201.297 1124.36 L201.297 1120.43 Z" fill="#000000" fill-rule="evenodd" fill-opacity="1" /><path clip-path="url(#clip630)" d="M114.26 811.683 L143.936 811.683 L143.936 815.618 L114.26 815.618 L114.26 811.683 Z" fill="#000000" fill-rule="evenodd" fill-opacity="1" /><path clip-path="url(#clip630)" d="M168.195 809.877 Q171.552 810.595 173.427 812.864 Q175.325 815.132 175.325 818.465 Q175.325 823.581 171.806 826.382 Q168.288 829.183 161.806 829.183 Q159.63 829.183 157.315 828.743 Q155.024 828.326 152.57 827.47 L152.57 822.956 Q154.515 824.09 156.829 824.669 Q159.144 825.248 161.667 825.248 Q166.065 825.248 168.357 823.512 Q170.672 821.776 170.672 818.465 Q170.672 815.41 168.519 813.697 Q166.39 811.961 162.57 811.961 L158.542 811.961 L158.542 808.118 L162.755 808.118 Q166.204 808.118 168.033 806.752 Q169.862 805.364 169.862 802.771 Q169.862 800.109 167.964 798.697 Q166.089 797.262 162.57 797.262 Q160.649 797.262 158.45 797.678 Q156.251 798.095 153.612 798.975 L153.612 794.808 Q156.274 794.067 158.589 793.697 Q160.927 793.327 162.987 793.327 Q168.311 793.327 171.413 795.757 Q174.514 798.165 174.514 802.285 Q174.514 805.155 172.871 807.146 Q171.227 809.114 168.195 809.877 Z" fill="#000000" fill-rule="evenodd" fill-opacity="1" /><path clip-path="url(#clip630)" d="M184.19 822.632 L189.075 822.632 L189.075 828.512 L184.19 828.512 L184.19 822.632 Z" fill="#000000" fill-rule="evenodd" fill-opacity="1" /><path clip-path="url(#clip630)" d="M209.26 797.03 Q205.649 797.03 203.82 800.595 Q202.014 804.137 202.014 811.266 Q202.014 818.373 203.82 821.938 Q205.649 825.479 209.26 825.479 Q212.894 825.479 214.699 821.938 Q216.528 818.373 216.528 811.266 Q216.528 804.137 214.699 800.595 Q212.894 797.03 209.26 797.03 M209.26 793.327 Q215.07 793.327 218.125 797.933 Q221.204 802.516 221.204 811.266 Q221.204 819.993 218.125 824.6 Q215.07 829.183 209.26 829.183 Q203.449 829.183 200.371 824.6 Q197.315 819.993 197.315 811.266 Q197.315 802.516 200.371 797.933 Q203.449 793.327 209.26 793.327 Z" fill="#000000" fill-rule="evenodd" fill-opacity="1" /><path clip-path="url(#clip630)" d="M114.445 515.83 L144.121 515.83 L144.121 519.766 L114.445 519.766 L114.445 515.83 Z" fill="#000000" fill-rule="evenodd" fill-opacity="1" /><path clip-path="url(#clip630)" d="M158.241 528.724 L174.561 528.724 L174.561 532.659 L152.616 532.659 L152.616 528.724 Q155.278 525.969 159.862 521.34 Q164.468 516.687 165.649 515.344 Q167.894 512.821 168.774 511.085 Q169.677 509.326 169.677 507.636 Q169.677 504.881 167.732 503.145 Q165.811 501.409 162.709 501.409 Q160.51 501.409 158.056 502.173 Q155.626 502.937 152.848 504.488 L152.848 499.766 Q155.672 498.631 158.126 498.053 Q160.579 497.474 162.616 497.474 Q167.987 497.474 171.181 500.159 Q174.376 502.844 174.376 507.335 Q174.376 509.465 173.565 511.386 Q172.778 513.284 170.672 515.877 Q170.093 516.548 166.991 519.766 Q163.89 522.96 158.241 528.724 Z" fill="#000000" fill-rule="evenodd" fill-opacity="1" /><path clip-path="url(#clip630)" d="M184.376 526.779 L189.26 526.779 L189.26 532.659 L184.376 532.659 L184.376 526.779 Z" fill="#000000" fill-rule="evenodd" fill-opacity="1" /><path clip-path="url(#clip630)" d="M199.584 531.941 L199.584 527.682 Q201.343 528.515 203.149 528.955 Q204.954 529.395 206.69 529.395 Q211.32 529.395 213.75 526.293 Q216.204 523.168 216.551 516.826 Q215.209 518.816 213.149 519.881 Q211.088 520.946 208.588 520.946 Q203.403 520.946 200.371 517.821 Q197.362 514.673 197.362 509.233 Q197.362 503.909 200.51 500.692 Q203.658 497.474 208.889 497.474 Q214.885 497.474 218.033 502.08 Q221.204 506.664 221.204 515.414 Q221.204 523.585 217.315 528.469 Q213.449 533.33 206.899 533.33 Q205.139 533.33 203.334 532.983 Q201.528 532.636 199.584 531.941 M208.889 517.289 Q212.037 517.289 213.866 515.136 Q215.718 512.983 215.718 509.233 Q215.718 505.506 213.866 503.354 Q212.037 501.178 208.889 501.178 Q205.741 501.178 203.889 503.354 Q202.061 505.506 202.061 509.233 Q202.061 512.983 203.889 515.136 Q205.741 517.289 208.889 517.289 Z" fill="#000000" fill-rule="evenodd" fill-opacity="1" /><path clip-path="url(#clip630)" d="M114.353 219.978 L144.029 219.978 L144.029 223.913 L114.353 223.913 L114.353 219.978 Z" fill="#000000" fill-rule="evenodd" fill-opacity="1" /><path clip-path="url(#clip630)" d="M158.149 232.871 L174.468 232.871 L174.468 236.806 L152.524 236.806 L152.524 232.871 Q155.186 230.117 159.769 225.487 Q164.376 220.834 165.556 219.492 Q167.802 216.969 168.681 215.232 Q169.584 213.473 169.584 211.783 Q169.584 209.029 167.64 207.293 Q165.718 205.557 162.616 205.557 Q160.417 205.557 157.964 206.32 Q155.533 207.084 152.755 208.635 L152.755 203.913 Q155.579 202.779 158.033 202.2 Q160.487 201.621 162.524 201.621 Q167.894 201.621 171.089 204.307 Q174.283 206.992 174.283 211.482 Q174.283 213.612 173.473 215.533 Q172.686 217.431 170.579 220.024 Q170.001 220.695 166.899 223.913 Q163.797 227.107 158.149 232.871 Z" fill="#000000" fill-rule="evenodd" fill-opacity="1" /><path clip-path="url(#clip630)" d="M184.283 230.927 L189.167 230.927 L189.167 236.806 L184.283 236.806 L184.283 230.927 Z" fill="#000000" fill-rule="evenodd" fill-opacity="1" /><path clip-path="url(#clip630)" d="M209.352 220.394 Q206.019 220.394 204.098 222.177 Q202.2 223.959 202.2 227.084 Q202.2 230.209 204.098 231.992 Q206.019 233.774 209.352 233.774 Q212.686 233.774 214.607 231.992 Q216.528 230.186 216.528 227.084 Q216.528 223.959 214.607 222.177 Q212.709 220.394 209.352 220.394 M204.676 218.404 Q201.667 217.663 199.977 215.603 Q198.311 213.543 198.311 210.58 Q198.311 206.436 201.25 204.029 Q204.213 201.621 209.352 201.621 Q214.514 201.621 217.454 204.029 Q220.394 206.436 220.394 210.58 Q220.394 213.543 218.704 215.603 Q217.037 217.663 214.051 218.404 Q217.431 219.191 219.306 221.482 Q221.204 223.774 221.204 227.084 Q221.204 232.107 218.125 234.793 Q215.07 237.478 209.352 237.478 Q203.635 237.478 200.556 234.793 Q197.5 232.107 197.5 227.084 Q197.5 223.774 199.399 221.482 Q201.297 219.191 204.676 218.404 M202.963 211.019 Q202.963 213.705 204.63 215.209 Q206.32 216.714 209.352 216.714 Q212.361 216.714 214.051 215.209 Q215.764 213.705 215.764 211.019 Q215.764 208.334 214.051 206.83 Q212.361 205.325 209.352 205.325 Q206.32 205.325 204.63 206.83 Q202.963 208.334 202.963 211.019 Z" fill="#000000" fill-rule="evenodd" fill-opacity="1" /><path clip-path="url(#clip630)" d="M18.0438 1037.44 L24.314 1037.44 Q22.5634 1041.1 21.704 1044.35 Q20.8447 1047.59 20.8447 1050.62 Q20.8447 1055.87 22.8817 1058.73 Q24.9187 1061.56 28.6745 1061.56 Q31.8255 1061.56 33.4488 1059.69 Q35.0402 1057.78 36.0269 1052.49 L36.8226 1048.61 Q38.1912 1041.42 41.6605 1038.01 Q45.098 1034.57 50.8908 1034.57 Q57.7976 1034.57 61.3624 1039.22 Q64.9272 1043.84 64.9272 1052.78 Q64.9272 1056.15 64.1633 1059.97 Q63.3994 1063.76 61.9035 1067.83 L55.2831 1067.83 Q57.4793 1063.92 58.5933 1060.16 Q59.7073 1056.41 59.7073 1052.78 Q59.7073 1047.27 57.543 1044.28 Q55.3786 1041.29 51.3682 1041.29 Q47.8671 1041.29 45.8937 1043.45 Q43.9204 1045.59 42.9337 1050.49 L42.1698 1054.4 Q40.7375 1061.6 37.682 1064.81 Q34.6264 1068.03 29.1837 1068.03 Q22.8817 1068.03 19.2532 1063.6 Q15.6248 1059.15 15.6248 1051.35 Q15.6248 1048.01 16.2295 1044.54 Q16.8343 1041.07 18.0438 1037.44 Z" fill="#000000" fill-rule="evenodd" fill-opacity="1" /><path clip-path="url(#clip630)" d="M67.3143 1009.97 Q73.68 1012.45 75.6216 1014.81 Q77.5631 1017.16 77.5631 1021.11 L77.5631 1025.79 L72.6615 1025.79 L72.6615 1022.35 Q72.6615 1019.93 71.5157 1018.6 Q70.3699 1017.26 66.1048 1015.64 L63.4312 1014.59 L28.3562 1029 L28.3562 1022.8 L56.238 1011.66 L28.3562 1000.52 L28.3562 994.311 L67.3143 1009.97 Z" fill="#000000" fill-rule="evenodd" fill-opacity="1" /><path clip-path="url(#clip630)" d="M42.4881 956.594 L64.0042 956.594 L64.0042 962.451 L42.679 962.451 Q37.6183 962.451 35.1038 964.424 Q32.5894 966.397 32.5894 970.344 Q32.5894 975.086 35.6131 977.824 Q38.6368 980.561 43.8567 980.561 L64.0042 980.561 L64.0042 986.449 L28.3562 986.449 L28.3562 980.561 L33.8944 980.561 Q30.6797 978.46 29.0883 975.628 Q27.4968 972.763 27.4968 969.039 Q27.4968 962.896 31.3163 959.745 Q35.1038 956.594 42.4881 956.594 Z" fill="#000000" fill-rule="evenodd" fill-opacity="1" /><path clip-path="url(#clip630)" d="M29.7248 919.259 L35.1993 919.259 Q33.8307 921.742 33.1623 924.256 Q32.4621 926.739 32.4621 929.285 Q32.4621 934.983 36.0905 938.134 Q39.6872 941.285 46.212 941.285 Q52.7369 941.285 56.3653 938.134 Q59.9619 934.983 59.9619 929.285 Q59.9619 926.739 59.2935 924.256 Q58.5933 921.742 57.2247 919.259 L62.6355 919.259 Q63.7814 921.71 64.3543 924.352 Q64.9272 926.962 64.9272 929.922 Q64.9272 937.974 59.8664 942.717 Q54.8057 947.459 46.212 947.459 Q37.491 947.459 32.4939 942.685 Q27.4968 937.879 27.4968 929.54 Q27.4968 926.834 28.0697 924.256 Q28.6108 921.678 29.7248 919.259 Z" fill="#000000" fill-rule="evenodd" fill-opacity="1" /><path clip-path="url(#clip630)" d="M42.4881 879.442 L64.0042 879.442 L64.0042 885.298 L42.679 885.298 Q37.6183 885.298 35.1038 887.272 Q32.5894 889.245 32.5894 893.192 Q32.5894 897.934 35.6131 900.671 Q38.6368 903.409 43.8567 903.409 L64.0042 903.409 L64.0042 909.297 L14.479 909.297 L14.479 903.409 L33.8944 903.409 Q30.6797 901.308 29.0883 898.475 Q27.4968 895.611 27.4968 891.887 Q27.4968 885.744 31.3163 882.593 Q35.1038 879.442 42.4881 879.442 Z" fill="#000000" fill-rule="evenodd" fill-opacity="1" /><path clip-path="url(#clip630)" d="M33.8307 847.104 Q33.2578 848.091 33.0032 849.268 Q32.7167 850.414 32.7167 851.815 Q32.7167 856.78 35.9632 859.453 Q39.1779 862.095 45.2253 862.095 L64.0042 862.095 L64.0042 867.983 L28.3562 867.983 L28.3562 862.095 L33.8944 862.095 Q30.6479 860.249 29.0883 857.289 Q27.4968 854.329 27.4968 850.096 Q27.4968 849.491 27.5923 848.759 Q27.656 848.027 27.8151 847.136 L33.8307 847.104 Z" fill="#000000" fill-rule="evenodd" fill-opacity="1" /><path clip-path="url(#clip630)" d="M32.4621 828.58 Q32.4621 833.29 36.1542 836.028 Q39.8145 838.765 46.212 838.765 Q52.6095 838.765 56.3017 836.059 Q59.9619 833.322 59.9619 828.58 Q59.9619 823.901 56.2698 821.164 Q52.5777 818.426 46.212 818.426 Q39.8781 818.426 36.186 821.164 Q32.4621 823.901 32.4621 828.58 M27.4968 828.58 Q27.4968 820.941 32.4621 816.58 Q37.4273 812.22 46.212 812.22 Q54.9649 812.22 59.9619 816.58 Q64.9272 820.941 64.9272 828.58 Q64.9272 836.25 59.9619 840.611 Q54.9649 844.94 46.212 844.94 Q37.4273 844.94 32.4621 840.611 Q27.4968 836.25 27.4968 828.58 Z" fill="#000000" fill-rule="evenodd" fill-opacity="1" /><path clip-path="url(#clip630)" d="M18.2347 796.719 L28.3562 796.719 L28.3562 784.656 L32.9077 784.656 L32.9077 796.719 L52.2594 796.719 Q56.6199 796.719 57.8613 795.542 Q59.1026 794.332 59.1026 790.672 L59.1026 784.656 L64.0042 784.656 L64.0042 790.672 Q64.0042 797.451 61.4897 800.03 Q58.9434 802.608 52.2594 802.608 L32.9077 802.608 L32.9077 806.904 L28.3562 806.904 L28.3562 802.608 L18.2347 802.608 L18.2347 796.719 Z" fill="#000000" fill-rule="evenodd" fill-opacity="1" /><path clip-path="url(#clip630)" d="M33.8307 756.297 Q33.2578 757.284 33.0032 758.461 Q32.7167 759.607 32.7167 761.008 Q32.7167 765.973 35.9632 768.647 Q39.1779 771.288 45.2253 771.288 L64.0042 771.288 L64.0042 777.177 L28.3562 777.177 L28.3562 771.288 L33.8944 771.288 Q30.6479 769.442 29.0883 766.482 Q27.4968 763.522 27.4968 759.289 Q27.4968 758.684 27.5923 757.952 Q27.656 757.22 27.8151 756.329 L33.8307 756.297 Z" fill="#000000" fill-rule="evenodd" fill-opacity="1" /><path clip-path="url(#clip630)" d="M32.4621 737.773 Q32.4621 742.484 36.1542 745.221 Q39.8145 747.958 46.212 747.958 Q52.6095 747.958 56.3017 745.253 Q59.9619 742.515 59.9619 737.773 Q59.9619 733.094 56.2698 730.357 Q52.5777 727.62 46.212 727.62 Q39.8781 727.62 36.186 730.357 Q32.4621 733.094 32.4621 737.773 M27.4968 737.773 Q27.4968 730.134 32.4621 725.774 Q37.4273 721.413 46.212 721.413 Q54.9649 721.413 59.9619 725.774 Q64.9272 730.134 64.9272 737.773 Q64.9272 745.444 59.9619 749.804 Q54.9649 754.133 46.212 754.133 Q37.4273 754.133 32.4621 749.804 Q27.4968 745.444 27.4968 737.773 Z" fill="#000000" fill-rule="evenodd" fill-opacity="1" /><path clip-path="url(#clip630)" d="M42.4881 682.073 L64.0042 682.073 L64.0042 687.929 L42.679 687.929 Q37.6183 687.929 35.1038 689.903 Q32.5894 691.876 32.5894 695.823 Q32.5894 700.565 35.6131 703.303 Q38.6368 706.04 43.8567 706.04 L64.0042 706.04 L64.0042 711.928 L28.3562 711.928 L28.3562 706.04 L33.8944 706.04 Q30.6797 703.939 29.0883 701.106 Q27.4968 698.242 27.4968 694.518 Q27.4968 688.375 31.3163 685.224 Q35.1038 682.073 42.4881 682.073 Z" fill="#000000" fill-rule="evenodd" fill-opacity="1" /><path clip-path="url(#clip630)" d="M29.4065 626.946 L34.9447 626.946 Q33.6716 629.429 33.035 632.102 Q32.3984 634.776 32.3984 637.64 Q32.3984 642.001 33.7352 644.197 Q35.072 646.361 37.7456 646.361 Q39.7826 646.361 40.9603 644.802 Q42.1061 643.242 43.1565 638.532 L43.6021 636.526 Q44.9389 630.288 47.3897 627.678 Q49.8086 625.036 54.1691 625.036 Q59.1344 625.036 62.0308 628.983 Q64.9272 632.898 64.9272 639.773 Q64.9272 642.637 64.3543 645.757 Q63.8132 648.844 62.6992 652.281 L56.6518 652.281 Q58.3387 649.035 59.198 645.884 Q60.0256 642.733 60.0256 639.646 Q60.0256 635.508 58.6251 633.28 Q57.1929 631.052 54.6147 631.052 Q52.2276 631.052 50.9545 632.675 Q49.6813 634.267 48.5037 639.709 L48.0262 641.746 Q46.8804 647.189 44.5251 649.608 Q42.138 652.027 38.0002 652.027 Q32.9713 652.027 30.2341 648.462 Q27.4968 644.897 27.4968 638.341 Q27.4968 635.094 27.9743 632.23 Q28.4517 629.365 29.4065 626.946 Z" fill="#000000" fill-rule="evenodd" fill-opacity="1" /><path clip-path="url(#clip630)" d="M58.657 610.045 L77.5631 610.045 L77.5631 615.933 L28.3562 615.933 L28.3562 610.045 L33.7671 610.045 Q30.5842 608.199 29.0564 605.398 Q27.4968 602.565 27.4968 598.65 Q27.4968 592.157 32.6531 588.115 Q37.8093 584.041 46.212 584.041 Q54.6147 584.041 59.771 588.115 Q64.9272 592.157 64.9272 598.65 Q64.9272 602.565 63.3994 605.398 Q61.8398 608.199 58.657 610.045 M46.212 590.12 Q39.7508 590.12 36.0905 592.794 Q32.3984 595.436 32.3984 600.083 Q32.3984 604.73 36.0905 607.403 Q39.7508 610.045 46.212 610.045 Q52.6732 610.045 56.3653 607.403 Q60.0256 604.73 60.0256 600.083 Q60.0256 595.436 56.3653 592.794 Q52.6732 590.12 46.212 590.12 Z" fill="#000000" fill-rule="evenodd" fill-opacity="1" /><path clip-path="url(#clip630)" d="M44.7161 543.842 L47.5806 543.842 L47.5806 570.769 Q53.6281 570.387 56.8109 567.14 Q59.9619 563.862 59.9619 558.037 Q59.9619 554.663 59.1344 551.512 Q58.3069 548.329 56.6518 545.21 L62.1899 545.21 Q63.5267 548.361 64.227 551.671 Q64.9272 554.982 64.9272 558.387 Q64.9272 566.917 59.9619 571.914 Q54.9967 576.88 46.5303 576.88 Q37.7774 576.88 32.6531 572.169 Q27.4968 567.427 27.4968 559.406 Q27.4968 552.213 32.1438 548.043 Q36.7589 543.842 44.7161 543.842 M42.9973 549.698 Q38.1912 549.762 35.3266 552.404 Q32.4621 555.013 32.4621 559.342 Q32.4621 564.244 35.2312 567.204 Q38.0002 570.132 43.0292 570.578 L42.9973 549.698 Z" fill="#000000" fill-rule="evenodd" fill-opacity="1" /><path clip-path="url(#clip630)" d="M29.7248 508.576 L35.1993 508.576 Q33.8307 511.058 33.1623 513.573 Q32.4621 516.055 32.4621 518.602 Q32.4621 524.299 36.0905 527.45 Q39.6872 530.601 46.212 530.601 Q52.7369 530.601 56.3653 527.45 Q59.9619 524.299 59.9619 518.602 Q59.9619 516.055 59.2935 513.573 Q58.5933 511.058 57.2247 508.576 L62.6355 508.576 Q63.7814 511.026 64.3543 513.668 Q64.9272 516.278 64.9272 519.238 Q64.9272 527.291 59.8664 532.033 Q54.8057 536.776 46.212 536.776 Q37.491 536.776 32.4939 532.001 Q27.4968 527.195 27.4968 518.856 Q27.4968 516.151 28.0697 513.573 Q28.6108 510.995 29.7248 508.576 Z" fill="#000000" fill-rule="evenodd" fill-opacity="1" /><path clip-path="url(#clip630)" d="M18.2347 492.598 L28.3562 492.598 L28.3562 480.535 L32.9077 480.535 L32.9077 492.598 L52.2594 492.598 Q56.6199 492.598 57.8613 491.42 Q59.1026 490.211 59.1026 486.55 L59.1026 480.535 L64.0042 480.535 L64.0042 486.55 Q64.0042 493.33 61.4897 495.908 Q58.9434 498.486 52.2594 498.486 L32.9077 498.486 L32.9077 502.783 L28.3562 502.783 L28.3562 498.486 L18.2347 498.486 L18.2347 492.598 Z" fill="#000000" fill-rule="evenodd" fill-opacity="1" /><path clip-path="url(#clip630)" d="M33.8307 452.175 Q33.2578 453.162 33.0032 454.34 Q32.7167 455.486 32.7167 456.886 Q32.7167 461.851 35.9632 464.525 Q39.1779 467.167 45.2253 467.167 L64.0042 467.167 L64.0042 473.055 L28.3562 473.055 L28.3562 467.167 L33.8944 467.167 Q30.6479 465.321 29.0883 462.361 Q27.4968 459.401 27.4968 455.167 Q27.4968 454.563 27.5923 453.831 Q27.656 453.099 27.8151 452.207 L33.8307 452.175 Z" fill="#000000" fill-rule="evenodd" fill-opacity="1" /><path clip-path="url(#clip630)" d="M46.0847 429.832 Q46.0847 436.93 47.7079 439.667 Q49.3312 442.404 53.2461 442.404 Q56.3653 442.404 58.2114 440.367 Q60.0256 438.298 60.0256 434.765 Q60.0256 429.896 56.5881 426.967 Q53.1188 424.007 47.3897 424.007 L46.0847 424.007 L46.0847 429.832 M43.6657 418.151 L64.0042 418.151 L64.0042 424.007 L58.5933 424.007 Q61.8398 426.012 63.3994 429.004 Q64.9272 431.996 64.9272 436.325 Q64.9272 441.799 61.8716 445.046 Q58.7843 448.261 53.6281 448.261 Q47.6125 448.261 44.5569 444.25 Q41.5014 440.208 41.5014 432.219 L41.5014 424.007 L40.9285 424.007 Q36.8862 424.007 34.6901 426.681 Q32.4621 429.323 32.4621 434.129 Q32.4621 437.184 33.1941 440.081 Q33.9262 442.977 35.3903 445.651 L29.9795 445.651 Q28.7381 442.436 28.1334 439.412 Q27.4968 436.389 27.4968 433.524 Q27.4968 425.79 31.5072 421.97 Q35.5176 418.151 43.6657 418.151 Z" fill="#000000" fill-rule="evenodd" fill-opacity="1" /><path clip-path="url(#clip630)" d="M14.479 406.088 L14.479 400.231 L64.0042 400.231 L64.0042 406.088 L14.479 406.088 Z" fill="#000000" fill-rule="evenodd" fill-opacity="1" /><path clip-path="url(#clip630)" d="M28.3562 367.257 L28.3562 361.401 L64.0042 361.401 L64.0042 367.257 L28.3562 367.257 M14.479 367.257 L14.479 361.401 L21.895 361.401 L21.895 367.257 L14.479 367.257 Z" fill="#000000" fill-rule="evenodd" fill-opacity="1" /><path clip-path="url(#clip630)" d="M42.4881 319.514 L64.0042 319.514 L64.0042 325.371 L42.679 325.371 Q37.6183 325.371 35.1038 327.344 Q32.5894 329.317 32.5894 333.264 Q32.5894 338.007 35.6131 340.744 Q38.6368 343.481 43.8567 343.481 L64.0042 343.481 L64.0042 349.369 L28.3562 349.369 L28.3562 343.481 L33.8944 343.481 Q30.6797 341.38 29.0883 338.548 Q27.4968 335.683 27.4968 331.959 Q27.4968 325.816 31.3163 322.665 Q35.1038 319.514 42.4881 319.514 Z" fill="#000000" fill-rule="evenodd" fill-opacity="1" /><path clip-path="url(#clip630)" d="M33.7671 284.375 L14.479 284.375 L14.479 278.519 L64.0042 278.519 L64.0042 284.375 L58.657 284.375 Q61.8398 286.222 63.3994 289.054 Q64.9272 291.855 64.9272 295.802 Q64.9272 302.263 59.771 306.337 Q54.6147 310.379 46.212 310.379 Q37.8093 310.379 32.6531 306.337 Q27.4968 302.263 27.4968 295.802 Q27.4968 291.855 29.0564 289.054 Q30.5842 286.222 33.7671 284.375 M46.212 304.332 Q52.6732 304.332 56.3653 301.69 Q60.0256 299.017 60.0256 294.37 Q60.0256 289.723 56.3653 287.049 Q52.6732 284.375 46.212 284.375 Q39.7508 284.375 36.0905 287.049 Q32.3984 289.723 32.3984 294.37 Q32.3984 299.017 36.0905 301.69 Q39.7508 304.332 46.212 304.332 Z" fill="#000000" fill-rule="evenodd" fill-opacity="1" /><path clip-path="url(#clip630)" d="M44.7161 235.964 L47.5806 235.964 L47.5806 262.891 Q53.6281 262.509 56.8109 259.263 Q59.9619 255.984 59.9619 250.16 Q59.9619 246.786 59.1344 243.635 Q58.3069 240.452 56.6518 237.333 L62.1899 237.333 Q63.5267 240.484 64.227 243.794 Q64.9272 247.104 64.9272 250.51 Q64.9272 259.04 59.9619 264.037 Q54.9967 269.002 46.5303 269.002 Q37.7774 269.002 32.6531 264.292 Q27.4968 259.549 27.4968 251.528 Q27.4968 244.335 32.1438 240.166 Q36.7589 235.964 44.7161 235.964 M42.9973 241.821 Q38.1912 241.884 35.3266 244.526 Q32.4621 247.136 32.4621 251.465 Q32.4621 256.366 35.2312 259.326 Q38.0002 262.255 43.0292 262.7 L42.9973 241.821 Z" fill="#000000" fill-rule="evenodd" fill-opacity="1" /><path clip-path="url(#clip630)" d="M28.3562 197.866 L45.7028 210.756 L64.0042 197.197 L64.0042 204.104 L49.9996 214.48 L64.0042 224.856 L64.0042 231.763 L45.3526 217.917 L28.3562 230.585 L28.3562 223.678 L41.0558 214.225 L28.3562 204.772 L28.3562 197.866 Z" fill="#000000" fill-rule="evenodd" fill-opacity="1" /><polyline clip-path="url(#clip632)" style="stroke:#000000; stroke-linecap:round; stroke-linejoin:round; stroke-width:4; stroke-opacity:1; fill:none" points="
  316.512,1184.84 316.512,541.804 
  "/>
<line clip-path="url(#clip632)" x1="332.512" y1="1184.84" x2="300.512" y2="1184.84" style="stroke:#000000; stroke-width:3.2; stroke-opacity:1"/>
<line clip-path="url(#clip632)" x1="332.512" y1="541.804" x2="300.512" y2="541.804" style="stroke:#000000; stroke-width:3.2; stroke-opacity:1"/>
<circle clip-path="url(#clip632)" cx="316.512" cy="863.325" r="14.4" fill="#009af9" fill-rule="evenodd" fill-opacity="1" stroke="#000000" stroke-opacity="1" stroke-width="3.2"/>
<polyline clip-path="url(#clip632)" style="stroke:#000000; stroke-linecap:round; stroke-linejoin:round; stroke-width:4; stroke-opacity:1; fill:none" points="
  598.931,657.974 598.931,80.3781 
  "/>
<line clip-path="url(#clip632)" x1="614.931" y1="657.974" x2="582.931" y2="657.974" style="stroke:#000000; stroke-width:3.2; stroke-opacity:1"/>
<line clip-path="url(#clip632)" x1="614.931" y1="80.3781" x2="582.931" y2="80.3781" style="stroke:#000000; stroke-width:3.2; stroke-opacity:1"/>
<circle clip-path="url(#clip632)" cx="598.931" cy="369.176" r="14.4" fill="#e26f46" fill-rule="evenodd" fill-opacity="1" stroke="#000000" stroke-opacity="1" stroke-width="3.2"/>
<polyline clip-path="url(#clip632)" style="stroke:#000000; stroke-linecap:round; stroke-linejoin:round; stroke-width:4; stroke-opacity:1; fill:none" points="
  881.351,658.248 881.351,80.658 
  "/>
<line clip-path="url(#clip632)" x1="897.351" y1="658.248" x2="865.351" y2="658.248" style="stroke:#000000; stroke-width:3.2; stroke-opacity:1"/>
<line clip-path="url(#clip632)" x1="897.351" y1="80.658" x2="865.351" y2="80.658" style="stroke:#000000; stroke-width:3.2; stroke-opacity:1"/>
<circle clip-path="url(#clip632)" cx="881.351" cy="369.453" r="14.4" fill="#3da44d" fill-rule="evenodd" fill-opacity="1" stroke="#000000" stroke-opacity="1" stroke-width="3.2"/>
<polyline clip-path="url(#clip632)" style="stroke:#000000; stroke-linecap:round; stroke-linejoin:round; stroke-width:4; stroke-opacity:1; fill:none" points="
  1163.77,659.55 1163.77,81.7968 
  "/>
<line clip-path="url(#clip632)" x1="1179.77" y1="659.55" x2="1147.77" y2="659.55" style="stroke:#000000; stroke-width:3.2; stroke-opacity:1"/>
<line clip-path="url(#clip632)" x1="1179.77" y1="81.7968" x2="1147.77" y2="81.7968" style="stroke:#000000; stroke-width:3.2; stroke-opacity:1"/>
<circle clip-path="url(#clip632)" cx="1163.77" cy="370.673" r="14.4" fill="#c271d2" fill-rule="evenodd" fill-opacity="1" stroke="#000000" stroke-opacity="1" stroke-width="3.2"/>
<polyline clip-path="url(#clip632)" style="stroke:#000000; stroke-linecap:round; stroke-linejoin:round; stroke-width:4; stroke-opacity:1; fill:none" points="
  1446.19,658.602 1446.19,80.9679 
  "/>
<line clip-path="url(#clip632)" x1="1462.19" y1="658.602" x2="1430.19" y2="658.602" style="stroke:#000000; stroke-width:3.2; stroke-opacity:1"/>
<line clip-path="url(#clip632)" x1="1462.19" y1="80.9679" x2="1430.19" y2="80.9679" style="stroke:#000000; stroke-width:3.2; stroke-opacity:1"/>
<circle clip-path="url(#clip632)" cx="1446.19" cy="369.785" r="14.4" fill="#ac8d18" fill-rule="evenodd" fill-opacity="1" stroke="#000000" stroke-opacity="1" stroke-width="3.2"/>
<polyline clip-path="url(#clip632)" style="stroke:#000000; stroke-linecap:round; stroke-linejoin:round; stroke-width:4; stroke-opacity:1; fill:none" points="
  1728.61,658.604 1728.61,80.9701 
  "/>
<line clip-path="url(#clip632)" x1="1744.61" y1="658.604" x2="1712.61" y2="658.604" style="stroke:#000000; stroke-width:3.2; stroke-opacity:1"/>
<line clip-path="url(#clip632)" x1="1744.61" y1="80.9701" x2="1712.61" y2="80.9701" style="stroke:#000000; stroke-width:3.2; stroke-opacity:1"/>
<circle clip-path="url(#clip632)" cx="1728.61" cy="369.787" r="14.4" fill="#00a9ad" fill-rule="evenodd" fill-opacity="1" stroke="#000000" stroke-opacity="1" stroke-width="3.2"/>
<polyline clip-path="url(#clip632)" style="stroke:#000000; stroke-linecap:round; stroke-linejoin:round; stroke-width:4; stroke-opacity:1; fill:none" points="
  2011.03,658.586 2011.03,80.9539 
  "/>
<line clip-path="url(#clip632)" x1="2027.03" y1="658.586" x2="1995.03" y2="658.586" style="stroke:#000000; stroke-width:3.2; stroke-opacity:1"/>
<line clip-path="url(#clip632)" x1="2027.03" y1="80.9539" x2="1995.03" y2="80.9539" style="stroke:#000000; stroke-width:3.2; stroke-opacity:1"/>
<circle clip-path="url(#clip632)" cx="2011.03" cy="369.77" r="14.4" fill="#ed5d92" fill-rule="evenodd" fill-opacity="1" stroke="#000000" stroke-opacity="1" stroke-width="3.2"/>
<polyline clip-path="url(#clip632)" style="stroke:#000000; stroke-linecap:round; stroke-linejoin:round; stroke-width:4; stroke-opacity:1; fill:none" points="
  2293.45,658.57 2293.45,80.9393 
  "/>
<line clip-path="url(#clip632)" x1="2309.45" y1="658.57" x2="2277.45" y2="658.57" style="stroke:#000000; stroke-width:3.2; stroke-opacity:1"/>
<line clip-path="url(#clip632)" x1="2309.45" y1="80.9393" x2="2277.45" y2="80.9393" style="stroke:#000000; stroke-width:3.2; stroke-opacity:1"/>
<circle clip-path="url(#clip632)" cx="2293.45" cy="369.754" r="14.4" fill="#c68125" fill-rule="evenodd" fill-opacity="1" stroke="#000000" stroke-opacity="1" stroke-width="3.2"/>
</svg>
